<svg width="225" height="225" viewBox="0 0 225 225" fill="none" xmlns="http://www.w3.org/2000/svg">
<rect x="5" y="5" width="215" height="215" rx="107.5" stroke="black" stroke-width="10"/>
<path d="M19.2756 111.054C19.2756 118.128 24.7465 123.222 31.0663 123.222C37.6376 123.222 42.9827 118.097 42.9827 110.897C42.9827 103.602 37.2917 98.6342 31.0663 98.6342C24.8723 98.6342 19.2756 103.696 19.2756 111.054ZM45.8753 110.928C45.8753 119.386 39.4298 126.02 31.1292 126.02C22.5141 126.02 16.3516 119.103 16.3516 111.054C16.3516 102.502 22.8286 95.8359 30.9091 95.8359C39.3983 95.8359 45.8753 102.376 45.8753 110.928Z" fill="black"/>
<path d="M54.4258 96.5591H57.2241V122.498H68.0086V125.297H54.4258V96.5591Z" fill="black"/>
<path d="M86.4967 102.659L81.6547 113.066H91.2444L86.4967 102.659ZM86.874 96.5591L99.9538 125.297H96.9353L92.5335 115.864H80.4284L76.058 125.297H72.9453L86.2137 96.5591H86.874Z" fill="black"/>
<path d="M110.017 99.3574V109.136C111.621 109.167 113.224 109.136 114.671 109.136C117.092 109.136 118.978 108.979 120.204 107.941C121.179 107.155 121.839 105.646 121.839 104.231C121.839 102.753 121.148 101.307 120.079 100.458C118.821 99.4832 117.155 99.3888 114.954 99.3888H110.017V99.3574ZM107.188 96.5591H113.664C116.589 96.5591 118.789 96.7477 120.141 97.2822C123.003 98.4141 124.732 100.961 124.732 104.199C124.732 106.935 123.474 109.199 121.493 110.488C119.513 111.777 116.62 111.934 112.753 111.934H109.986V125.297H107.188V96.5591Z" fill="black"/>
<path d="M133.25 96.5591H136.08V122.498H146.833V125.297H133.25V96.5591Z" fill="black"/>
<path d="M154.254 96.5591H170.258V99.3574H157.084V108.381H170.258V111.179H157.084V122.498H170.258V125.297H154.254V96.5591Z" fill="black"/>
<path d="M176.609 96.5591H179.91L186.608 107.784L193.368 96.5591H196.606L188.243 110.488L197.141 125.297H193.871L186.608 113.255L179.282 125.297H176.012L184.941 110.488L176.609 96.5591Z" fill="black"/>
<path d="M202.77 123.725V124.354H203.336C203.556 124.354 203.682 124.259 203.682 124.039C203.682 123.756 203.493 123.725 203.273 123.725H202.77ZM202.456 123.41H203.304C203.43 123.41 203.587 123.41 203.682 123.442C203.902 123.505 204.028 123.725 204.028 123.976C204.028 124.259 203.902 124.354 203.776 124.448C203.965 124.542 203.996 124.637 203.996 124.92V125.171C203.996 125.36 204.059 125.454 204.091 125.517H203.713C203.682 125.391 203.682 125.265 203.65 125.203V124.951C203.65 124.731 203.587 124.637 203.336 124.637H202.739V125.517H202.393V123.41H202.456ZM203.21 122.907C202.361 122.907 201.67 123.63 201.67 124.511C201.67 125.423 202.393 126.083 203.21 126.083C204.059 126.083 204.751 125.391 204.751 124.511C204.751 123.63 204.059 122.907 203.21 122.907ZM203.21 126.303C202.235 126.303 201.418 125.486 201.418 124.479C201.418 123.505 202.204 122.656 203.21 122.656C204.216 122.656 205.002 123.505 205.002 124.479C205.002 125.517 204.153 126.303 203.21 126.303Z" fill="black"/>
</svg>
