<!DOCTYPE svg PUBLIC "-//W3C//DTD SVG 1.1//EN" "http://www.w3.org/Graphics/SVG/1.1/DTD/svg11.dtd">
<svg xmlns="http://www.w3.org/2000/svg" viewBox="0 0 1200 297">
<path d="M245 13.048v12.047l6.25-.297c3.438-.164 6.137-.635 6-1.048-.137-.413-.25-5.7-.25-11.75V1h-12v12.048m798 88.904V192h12.986l.257-65.25c.225-57.149.443-65.267 1.757-65.385.825-.074 7.463-.186 14.75-.25L1086 61V49h-29.955l-.272-18.25-.273-18.25-6.25-.298-6.25-.297v90.047M950.902 44.11c-14.61 1.203-27.602 7.27-38.429 17.947-3.315 3.269-6.352 5.943-6.75 5.943-.398 0-.723-4.275-.723-9.5V49h-13v143h13V95.269l3.464-6.924c15.251-30.485 53.2-41.44 80.471-23.23 12.577 8.399 22.266 22.322 25.455 36.582 1.339 5.985 1.61 14.202 1.61 48.75V192h13.13l-.395-44.75c-.442-50.031-.591-51.253-8.015-65.75-13.513-26.384-38.827-39.941-69.818-37.39M47.5 44.686c-9.24 2.097-19.803 7.881-27.25 14.923C17.115 62.574 14.426 65 14.275 65c-.151 0-.275-3.6-.275-8v-8H0v143h13.93l.285-50.25.285-50.25 3.761-7.695c19.171-39.221 73.776-35.039 86.648 6.637 1.997 6.463 2.091 8.908 2.091 54.163V192h12.913l.325-49.75c.32-48.819.368-49.849 2.553-55.034 8.632-20.483 24.504-30.837 46.042-30.034 20.192.753 35.286 12.317 42.162 32.304 1.899 5.518 2.005 8.394 2.005 54.171V192h13.102l-.327-50.25c-.313-48.068-.418-50.511-2.432-56.25-6.255-17.823-19.874-32.072-37.03-38.741-8.601-3.343-31.063-3.327-39.699.028-11.249 4.37-23.826 14.591-29.614 24.067-3.09 5.058-4.02 5.124-6.523.464-5.292-9.855-20.29-21.374-32.832-25.217-6.554-2.008-23.936-2.824-30.145-1.415m346-.096c-23.744 5.657-42.174 19.955-52.768 40.935-10.597 20.985-10.193 50.758.968 71.426 14.242 26.375 36.529 39.64 66.3 39.463 21.908-.131 37.991-6.813 52.5-21.813l3-3.101.5 10 .5 10 6.25.298 6.25.297V48.905l-6.25.297-6.25.298-.287 9.805-.287 9.805-6.697-6.137C442.898 49.841 430.373 44.93 410 44.453c-7.975-.187-15.4-.125-16.5.137m148 .32c-10.511 2.865-20.982 8.87-27.953 16.03C508.238 66.393 508 66.224 508 57v-8h-12v143h11.834l.374-48.25c.37-47.762.398-48.316 2.737-54.75 12.694-34.918 54.057-43.719 78.653-16.735C601.513 85.337 602 88.202 602 145.21V192h13l.008-47.75c.007-43.567.169-48.282 1.855-53.825 3.821-12.563 13.164-23.655 24.874-29.532 10.271-5.153 29.257-5.152 39.529.002 9.254 4.644 17.421 12.988 22.342 22.824L707.5 91.5l.301 50.25.301 50.25h13.03l-.332-50.25-.332-50.25-2.637-7.146c-6.443-17.463-19.617-31.025-36.518-37.595-8.561-3.327-31.065-3.327-39.626 0-11.751 4.568-25.379 15.683-30.196 24.629-2.471 4.587-3.41 4.51-6.491-.534-5.946-9.734-17.906-19.408-29.5-23.86-6.473-2.486-27.743-3.79-34-2.084m248.5-.272c-25.561 4.813-48.225 25.43-57.01 51.862-3.226 9.705-4.009 31.359-1.512 41.83 6.183 25.932 25.388 47.194 50.022 55.379 11.941 3.968 34.475 3.973 45.37.01 10.585-3.85 18.705-8.679 26.299-15.637 3.651-3.345 6.906-6.082 7.234-6.082.328 0 .597 4.5.597 10v10h13V49h-13v10c0 6-.4 10-1 10-.55 0-1-.428-1-.952 0-3.71-20.704-17.344-32.111-21.146-6.283-2.095-30.046-3.553-36.889-2.264m339 .028c-21.261 4.347-40.179 18.853-51.296 39.334-13.029 24.002-10.964 58.366 4.842 80.595 15.154 21.311 34.848 31.674 60.454 31.808 21.919.116 35.193-4.794 50.548-18.695l4.692-4.249-4.521-4.98-4.522-4.979-3.849 3.892c-5.515 5.578-14.421 11.123-22.158 13.796-8.982 3.104-28.488 3.321-37.69.421-8.817-2.78-21.5-10.399-21.5-12.916 0-.588 6.882-8.072 15.294-16.631 8.411-8.559 22.954-23.437 32.317-33.062 9.362-9.625 23.743-24.395 31.956-32.821 8.213-8.427 15.066-15.897 15.228-16.601.88-3.826-18.371-17.422-31.739-22.416-6.514-2.433-30.627-4.015-38.056-2.496m-884 75.882v71.547l6.01-.297c3.306-.164 6.006-.636 6-1.048-.005-.412-.01-32.475-.01-71.25V49h-12v71.548m154.5-63.58c-22.315 2.588-42.449 19.39-50.767 42.365-3.621 10.001-3.304 33.43.586 43.369 13.941 35.615 52.633 51.433 85.666 35.02 7.919-3.935 21.347-16.767 25.87-24.722l3.126-5.5.01-26.919.009-26.919-3.133-5.581c-12.284-21.884-36.234-34.026-61.367-31.113m397.5.065c-38.101 3.59-64.107 45.637-51.671 83.545 5.996 18.281 20.012 33.073 38.014 40.12 10.015 3.921 31.629 4.126 41.157.39 13.516-5.298 27.006-17.071 33.491-29.228l3.009-5.64V93.382l-3.556-5.941C844.56 65.916 822.185 54.659 797 57.033m338.5.004c-23.93 2.501-45.729 22.565-52.113 47.963-2.19 8.71-1.403 28.013 1.467 36 3.41 9.488 7.778 17 9.885 17 .56 0 13.11-12.467 27.89-27.705A27693.254 27693.254 0 0 1 1165 86.698c8.525-8.74 15.5-16.4 15.5-17.02 0-1.931-11.658-8.371-19-10.496-7.942-2.298-17.216-3.063-26-2.145m-795.603 180.86c-7.458 1.533-14.258 6.763-18.985 14.603-3.783 6.274-3.557 21.088.423 27.732 11.7 19.533 38.115 18.661 48.963-1.616 3.265-6.103 3.11-20.412-.283-26.116-6.535-10.987-18.793-16.931-30.118-14.603m216.951 1.121c-9.623 5.084-10.722 19.479-1.956 25.619 1.198.839 6.317 2.634 11.374 3.987C577.237 271.56 580 273.703 580 279.273c0 12.765-23.599 14.48-29.229 2.124-1.261-2.768-1.6-2.841-4.166-.899-1.835 1.389-1.809 1.545.831 5.007 10.763 14.111 35.555 11.631 37.286-3.73 1.262-11.2-1.594-13.836-20.768-19.17-10.723-2.982-13.683-10.799-6.561-17.326 5.552-5.089 15.109-3.912 20.983 2.582 1.456 1.61 2.295 1.85 3.75 1.072 2.529-1.354 2.366-2.38-.876-5.494-6.551-6.293-17.205-8.223-24.402-4.421m75.602-.611c-13.685 5.961-11.846 24.841 2.787 28.606 16.264 4.184 20.712 7.388 19.284 13.89-2.431 11.07-22.485 12.052-28.766 1.407-2.093-3.548-3.405-3.812-5.156-1.037-1.349 2.14 1.483 6.091 7.331 10.227 5.479 3.875 18.233 4.409 23.889 1 7.619-4.591 10.028-15.079 4.983-21.693-2.585-3.39-3.374-3.72-21.536-9.01-6.325-1.842-9.301-9.447-5.705-14.58 4.754-6.788 15.796-6.769 22.604.039 2.147 2.147 2.806 2.33 4.71 1.311l2.214-1.185-2.048-2.603c-4.974-6.323-17.344-9.529-24.591-6.372m131.05-.502c-14.365 3.811-22.019 13.608-21.949 28.095.083 17.211 10.604 27.929 27.464 27.978 28.9.084 37.938-40.327 11.962-53.49-5.243-2.657-12.92-3.791-17.477-2.583m-597.267 27.742c.267 26.822.27 26.853 2.47 27.166 2.062.294 2.222-.122 2.5-6.5l.297-6.813 9.5-.5c7.112-.374 10.376-1.015 12.986-2.548 12.812-7.526 12.881-26.773.125-34.706-3.122-1.942-5.274-2.294-15.878-2.599l-12.266-.354.266 26.854M242 265.9V293h2.5c2.429 0 2.5-.2 2.5-7v-7h19.628l3.936 6.998c3.381 6.01 4.324 6.998 6.686 7 3.425.003 3.506.515-1.25-7.878-4.74-8.365-4.71-8.117-1.368-11.196 9.388-8.648 8.186-23.887-2.475-31.382-4.193-2.948-4.725-3.053-17.242-3.392L242 238.799V265.9m169.451-25.633c-.267.697-.366 12.735-.219 26.75.268 25.466.27 25.483 2.487 25.798 2.176.31 2.224.078 2.5-12l.281-12.315 10.25-.285c10.151-.282 10.25-.309 10.25-2.75 0-2.464-.004-2.465-10.538-2.465h-10.537l.287-9.25.288-9.25 13.25-.279 13.25-.279V239h-15.531c-11.616 0-15.654.32-16.018 1.267M480 266v27h31v-5h-26v-20h20v-5h-20v-19h26v-5h-31v27m218 .07v27.069l2.25-.319 2.25-.32.266-26.75.267-26.75H698v27.07m137-.07v27h5l.033-21.75c.032-20.727.114-21.649 1.75-19.595.944 1.185 5.992 8.29 11.217 15.788 23.626 33.906 22 34.018 22-1.513v-27.069l-2.25.319c-2.235.318-2.253.464-2.75 21.642l-.5 21.322-15-21.527c-11.872-17.039-15.469-21.537-17.25-21.572L835 239v27m98.572-24.139c-.849 1.642-3.293 6.957-5.432 11.812-4.235 9.615-6.221 13.99-12.801 28.191-5.066 10.933-5.101 11.136-1.886 11.136 1.858 0 2.877-.91 4.198-3.75 2.361-5.074 1.118-4.81 19.992-4.25l16.846.5 1.763 3.75c1.363 2.897 2.346 3.75 4.323 3.75 3.087 0 3.026-.274-2.983-13.314-5.695-12.358-8.889-19.389-13.942-30.686-4.82-10.779-7.291-12.529-10.078-7.139M998 266v27h32v-4.942l-13.25-.279-13.25-.279-.268-24.25-.268-24.25H998v27m-659-22.33c-10.657 3.727-15.5 10.705-15.5 22.33 0 8.714 1.227 11.965 6.428 17.032 14.121 13.757 38.028 3.05 38.028-17.032 0-15.63-15.012-27.208-28.956-22.33m423-.026C737.288 252.149 743.19 289 769.264 289c24.753 0 30.403-36.246 7.014-44.997-6.331-2.369-8.294-2.418-14.278-.359m-590.25.935c-.412.415-.75 7.204-.75 15.088V274h8.632c14.48 0 22.158-8.015 18.448-19.257-2.393-7.252-7.098-10.201-16.884-10.581-4.783-.186-9.034.002-9.446.417M247 258.906V274l9.25-.004c13.324-.005 19.806-4.775 19.698-14.496-.117-10.566-5.457-14.874-19.018-15.344l-9.93-.343v15.093m686.508-4.656c-1.521 3.438-4.508 9.989-6.637 14.559-5.529 11.869-6.077 11.191 9.047 11.191 13.663 0 16.733-.477 15.234-2.367-.495-.623-3.724-7.546-7.176-15.383-3.452-7.838-6.597-14.25-6.99-14.25-.392 0-1.957 2.813-3.478 6.25" fill-rule="evenodd"/>
</svg>