<!DOCTYPE svg PUBLIC "-//W3C//DTD SVG 1.1//EN" "http://www.w3.org/Graphics/SVG/1.1/DTD/svg11.dtd">
<svg xmlns="http://www.w3.org/2000/svg" viewBox="0 0 318 120">
<path d="M49.75 10.77 28 11.039V22h47v-5.383c0-6.643 1.98-6.185-25.25-5.847M88 40.5V70h43.1l-.3-5.75-.3-5.75-15.75-.275L99 57.949V22h32V11H88v29.5m55 0V70h11V46h29v24.1l5.75-.3 5.75-.3.265-29.25.265-29.25H183v23h-29V11h-11v29.5m64 0V70h47V11h-47v29.5m59.207-12-.13 17.5H302v5.893c0 7.368.857 7.059-19.242 6.951l-16.258-.087-.3 5.622-.3 5.621h48.146l-.273-17.75-.273-17.75-17.75-.273-17.75-.273V22h36V11h-47.664l-.129 17.5M4.667 22.667c-.367.366-.667 3.066-.667 6V34h12V22h-5.333c-2.934 0-5.634.3-6 .667M218 40v18h24V22h-24v18M28 40v6h47V34H28v6M4 52v6h12V46H4v6m24 12v6h47V58H28v6m0 31.5V110h11c10.333 0 11-.121 11-2 0-1.822-.667-2-7.5-2H35V81h-7v14.5m92 0V110h7V81h-7v14.5m83 0V110h7.262l-.467-10.503c-.257-5.776-.363-10.389-.236-10.25.128.139 2.344 4.303 4.924 9.253 5.968 11.447 6.017 11.5 10.639 11.5H229V81h-7.981l.56 10.75.56 10.75-3.931-7.5c-7.389-14.1-7.296-13.987-11.458-13.994L203 81v14.5m89 0V110h10.5c9.833 0 10.5-.127 10.5-2 0-1.811-.667-2-7.055-2h-7.055l.305-4.689.305-4.689 6.25.26c5.738.238 6.25.09 6.25-1.811 0-1.882-.593-2.071-6.5-2.071H299v-8h7c6.333 0 7-.19 7-2 0-1.873-.667-2-10.5-2H292v14.5" fill-rule="evenodd"/>
</svg>