<!DOCTYPE svg PUBLIC "-//W3C//DTD SVG 1.1//EN" "http://www.w3.org/Graphics/SVG/1.1/DTD/svg11.dtd">
<svg xmlns="http://www.w3.org/2000/svg" viewBox="0 0 700 252">
<path fill="#060606" d="M34.5 1.403C18.603 6.445 7.216 16.518 2.051 30.107c-1.99 5.236-2.05 7.288-2.05 70.625L0 165.965l4.329 4.517c6.478 6.762 14.743 5.991 19.574-1.826 2.032-3.286 2.097-4.562 2.097-40.86V90.328l57.883-.655c75.604-.856 100.705-.176 103.69 2.809 2.182 2.182 4.248 12.38 2.938 14.501-.398.644-9.502 1.019-24.82 1.023-33.826.008-41.463 1.714-51.18 11.43-16.195 16.195-9.398 43.685 13.014 52.639 5.959 2.38 6.089 2.387 47.475 2.406l41.5.019v-83l-2.78-5.66c-3.036-6.184-7.106-10.704-13.084-14.534-8.949-5.732-5.209-5.517-92.755-5.343-73.959.147-80.672.025-81.25-1.483-.997-2.597-.723-22.607.362-26.515.54-1.944 2.675-5.187 4.745-7.207C38.543 24.115 39.452 24 84.991 24c39.799 0 40.801-.048 43.394-2.088 8.013-6.303 6.608-15.818-3.069-20.79-3.27-1.68-85.436-1.426-90.816.281m485.798.278c-1.211.245-3.574 2.008-5.25 3.917L512 9.07l.021 65.715.021 65.715 2.401 6.803c3.675 10.414 10.942 18.943 20.583 24.158 5.069 2.742 6.404 2.991 18.06 3.363l12.587.402 3.632-3.189c4.254-3.735 5.508-8.38 3.8-14.08-1.924-6.423-4.882-7.95-15.49-7.998-12.414-.056-16.992-2.244-20.839-9.959l-2.742-5.5-.017-62.765L534 8.971l-3.25-3.451c-3.289-3.491-6.442-4.649-10.452-3.839M261.394 68.89c-7.311 3.459-12.422 8.332-16.144 15.393L242.5 89.5l-.292 41.359c-.342 48.388-1.53 44.06 12.108 44.109 13.988.051 12.684 4.169 12.684-40.053 0-41.367.191-42.896 5.613-44.958 1.384-.526 12.128-.957 23.875-.957h21.359l3.076 2.589L324 94.178v38.372c0 45.867-1.062 42.45 13.189 42.45 14.026 0 12.982 3.637 12.58-43.803-.391-46.229-.334-45.906-9.702-55.284-9.384-9.395-11.732-9.913-44.855-9.912l-27.712.001-6.106 2.888M399 68.084c-11.635 4.075-20.652 14.106-23.045 25.635-.726 3.494-1.011 14.314-.794 30.14l.339 24.689 3.292 6.684c3.715 7.543 8.775 12.419 17.171 16.546l5.537 2.722h58.042l6.664-3.281c8.142-4.008 14.874-11.144 17.74-18.805 3.173-8.479 3.113-55.509-.081-64.045-3.722-9.947-12.965-17.979-24.101-20.944-8.792-2.34-53.587-1.854-60.764.659m228.702-.064c-5.643 4.438-7.04 10.273-3.752 15.666 3.272 5.366 4.897 5.77 25.389 6.314l18.839.5 2.456 2.858c2.127 2.476 2.416 3.68 2.161 9l-.295 6.142-29 .5-29 .5-6.701 3.174c-26.786 12.69-26.313 45.63.847 58.954l5.854 2.872 42.75.309 42.75.308v-39.822c0-36.551-.155-40.248-1.889-44.991-3.731-10.209-9.8-16.541-20.611-21.507-7.637-3.508-45.573-4.1-49.798-.777M402.589 93.077 400 96.153v48.815l2.918 3.266 2.918 3.266h49.126l3.269-3.279 3.269-3.279-.225-24.641-.226-24.64-2.712-2.831-2.711-2.83h-50.448l-2.589 3.077m-264.588 39.229c-7.344 2.506-8.869 10.98-3.027 16.822l2.872 2.872H184v-21l-21.25.056c-13.698.037-22.493.481-24.749 1.25m485.291-.616c-8.789.879-12.141 9.995-6.174 16.791l3.117 3.551 26.604-.266 26.604-.266-.311-9.49c-.171-5.219-.461-9.733-.644-10.029-.397-.643-43.149-.896-49.196-.291M3.4 217.4 0 220.8l.032 11.85c.034 12.736.465 14.06 5.702 17.513C11.77 254.143 21 249.237 21 242.05c0-2.063-3.866-1.047-4.567 1.2-.877 2.809-2.218 3.715-5.528 3.735C6.004 247.014 5 244.499 5 232.194c0-10.779.082-11.202 2.493-12.781 3.019-1.979 7.12-1.208 7.979 1.499.869 2.737 2.853 4.123 4.471 3.123 2.067-1.277-.51-6.76-4.034-8.582-4.77-2.467-8.708-1.854-12.509 1.947m243.985-2.635c-.938.619-4.427 13.779-6.891 25.994-.873 4.332-2.069 3.359-2.847-2.316C235.82 225.11 232.608 215 230.199 215c-1.756 0-2.204.434-1.809 1.75.288.963 1.675 6.475 3.082 12.25 1.407 5.775 2.961 11.85 3.453 13.5a99.815 99.815 0 0 1 1.504 5.75c.626 2.826 3.771 3.853 5.12 1.671 1.13-1.829 9.185-34.854 8.635-35.404-.698-.697-1.467-.629-2.799.248m88.615.567c0 .733 1.8 6.378 4 12.545 2.694 7.553 4.005 12.913 4.015 16.418.009 2.863.408 5.825.889 6.583 1.623 2.563 3.096.033 3.096-5.318 0-3.789 1.286-8.883 4.463-17.678 2.882-7.982 4.119-12.7 3.493-13.326-1.423-1.423-3.213 1.011-5.842 7.944-4.189 11.049-3.729 10.346-4.905 7.5-.568-1.375-2.057-5.2-3.309-8.5-2.14-5.643-3.383-7.449-5.15-7.485-.413-.008-.75.584-.75 1.317m112-.038c-4.754 2.405-7.552 15.62-5.558 26.251 2.074 11.053 15.134 13.977 20.041 4.488 1.885-3.645 2.115-22.626.322-26.561-2.207-4.845-9.447-6.888-14.805-4.178m68.794.255c-6.101 3.311-4.798 12.281 2.475 17.042 9.092 5.951 10.843 9.187 6.902 12.754-2.888 2.613-6.356 2.057-9.27-1.489-1.508-1.834-3.082-2.862-3.75-2.449-3.588 2.217 3.616 10.593 9.111 10.593 5.435 0 9.745-4.503 9.716-10.151-.026-5.017-1.713-7.523-7.478-11.104-8.064-5.01-9.431-8.835-4.188-11.711 2.712-1.487 2.888-1.433 5.803 1.8 3.395 3.764 6.468 3.719 5.373-.079-1.692-5.873-8.816-8.397-14.694-5.206m37.804-.813c-.329.328-.598 8.622-.598 18.431 0 17.039.087 17.833 1.958 17.833 1.75 0 1.989-.822 2.25-7.75l.292-7.75 5.75-.3 5.75-.3v8.05c0 7.383.166 8.05 2 8.05 1.926 0 2-.667 2-18s-.074-18-2-18c-1.823 0-2 .667-2 7.55v7.55l-5.75-.3-5.75-.3-.292-7.159c-.272-6.671-1.647-9.568-3.61-7.605m50.669.078c-1.137.722-9.267 31.223-9.267 34.768 0 2.687 3.391 1.099 4.466-2.092 2.007-5.955 9.713-6.698 12.027-1.16 1.621 3.879 4.041 6.232 4.93 4.794.721-1.165-7.232-34.082-8.667-35.874-1.156-1.443-1.781-1.521-3.489-.436M43.303 232.75c.189 17.018.279 17.75 2.197 17.75 1.744 0 2.064-.833 2.5-6.5.639-8.308 2.151-8.437 6.944-.592 3.731 6.106 6.388 8.593 7.739 7.242.717-.717.033-2.224-4.482-9.882-1.546-2.622-1.505-2.842 1.016-5.5 3.24-3.414 4.373-8.95 2.806-13.7-1.703-5.16-4.318-6.568-12.192-6.568h-6.724l.196 17.75m42.697.357c0 16.1.175 18.04 1.582 17.5.87-.334 4.695-.607 8.5-.607 6.265 0 6.918-.19 6.918-2.012 0-1.783-.449-1.94-3.953-1.38-7.704 1.232-9.188.16-8.846-6.389l.299-5.719 5.813-.302c4.84-.251 5.76-.586 5.491-2-.251-1.318-1.606-1.765-6.064-1.998l-5.74-.3V219h6.5c5.833 0 6.5-.205 6.5-2 0-1.843-.667-2-8.5-2H86v18.107m45.626-17.31c-.71 1.148-8.626 32.315-8.626 33.961 0 3.285 4.491.808 5-2.758.447-3.128.86-3.534 3.888-3.824 4.891-.467 8.112.574 8.112 2.621 0 2.072 2.702 6.203 4.057 6.203 1.456 0 1.248-1.297-3.155-19.75-3.873-16.231-4.254-17.25-6.45-17.25-1.284 0-2.556.359-2.826.797M162 216.903c0 1.562.787 2.041 3.75 2.287l3.75.31.276 15.818c.25 14.352.435 15.788 2 15.488 1.517-.29 1.784-2.186 2.224-15.818l.5-15.488 3.811-.314c2.945-.243 3.738-.697 3.488-2-.535-2.796-19.799-3.071-19.799-.283M203 233c0 17.333.074 18 2 18s2-.667 2-18-.074-18-2-18-2 .667-2 18m69 0c0 17.333.074 18 2 18s2-.667 2-18-.074-18-2-18-2 .667-2 18m25.769-17.436c-1.496 1.496.656 3.436 3.813 3.436h3.367l.276 15.75c.262 14.992.371 15.75 2.275 15.75 1.903 0 2.013-.758 2.275-15.691l.275-15.691 3.725-.309c2.507-.208 3.725-.799 3.725-1.809 0-1.552-18.284-2.883-19.731-1.436M402 216.94c0 1.519.812 2.006 3.75 2.25l3.75.31.275 15.75c.261 14.923.379 15.75 2.25 15.75 1.875 0 1.975-.728 1.975-14.418 0-17.077.132-17.582 4.607-17.582 2.726 0 3.393-.393 3.393-2 0-1.867-.667-2-10-2-9.23 0-10 .149-10 1.94M639.814 224c-.782 16.361.128 27 2.308 27 1.643 0 1.878-.807 1.878-6.441 0-10.146 1.364-9.992 8.332.941 2.106 3.303 3.993 5.114 5.562 5.337 2.333.331 2.308.216-1.359-6.341l-3.735-6.678 2.85-2.975c2.488-2.597 2.85-3.738 2.85-8.995 0-8.317-2.784-10.848-11.933-10.848h-6.322l-.431 9M682 233.107c0 16.1.175 18.04 1.582 17.5.87-.334 4.92-.607 9-.607 5.927 0 7.418-.301 7.418-1.5 0-1.158-1.312-1.503-5.75-1.515-7.791-.021-8.428-.581-8.058-7.08l.308-5.405 5.75-.3c4.932-.257 5.75-.577 5.75-2.25 0-1.717-.718-1.95-6-1.95h-6v-11h7c6.333 0 7-.19 7-2 0-1.852-.667-2-9-2h-9v18.107m-230.685-14.033c-3.448 1.284-4.315 4.124-4.315 14.138 0 10.719 1.314 13.788 5.902 13.788 4.988 0 6.562-3.053 6.882-13.353.381-12.253-2.302-16.87-8.469-14.573M48.206 226.25l.294 7.25 2.871-.205c9.236-.659 9.003-14.295-.244-14.295h-3.215l.294 7.25M644 225.893c0 7.99 1.3 9.28 6.378 6.325 6.412-3.731 4.295-13.218-2.949-13.218H644v6.893m-511.891 1.857c-.608 3.162-1.384 6.988-1.724 8.5-.599 2.664-.486 2.75 3.615 2.75s4.214-.086 3.615-2.75c-.34-1.512-1.116-5.338-1.724-8.5-.607-3.162-1.459-5.75-1.891-5.75-.432 0-1.284 2.588-1.891 5.75M604.296 231l-1.942 8h4.342c4.762 0 4.815-.201 2.221-8.399-.504-1.595-.917-3.957-.917-5.25 0-4.862-1.83-2.07-3.704 5.649" fill-rule="evenodd" style="--darkreader-inline-fill: #000000;" data-darkreader-inline-fill=""/>
</svg>