<svg width="419" height="114" viewBox="0 0 419 114" fill="none" xmlns="http://www.w3.org/2000/svg">
<path d="M111.841 101.385C113.663 101.385 115.547 101.291 117.495 101.102V110.524C115.233 110.65 113.6 110.713 112.595 110.713C106.062 110.713 100.158 109.645 94.8814 107.509C89.6678 105.436 85.1451 102.892 81.3134 99.8773C77.4817 96.8622 72.9276 92.842 67.6511 87.8168L65.5783 85.8382C60.4274 87.9111 54.4914 88.9475 47.7702 88.9475C40.044 88.9475 32.0351 87.6912 23.7436 85.1786C20.1003 86.6234 16.3314 87.3457 12.4369 87.3457C8.35391 87.3457 5.27598 86.6862 3.20309 85.3671C1.1302 84.048 0.09375 82.3205 0.09375 80.1848C0.09375 77.9863 1.1616 75.7878 3.29731 73.5893C5.43301 71.3279 8.41672 69.4749 12.2484 68.0302C16.143 66.5226 20.6028 65.7688 25.628 65.7688C27.6381 65.7688 29.5853 65.8631 31.4698 66.0515C31.6582 64.6068 31.7524 63.0992 31.7524 61.5288V1.60344H63.0343C66.175 1.60344 68.8446 2.32581 71.0432 3.77055C73.2417 5.15248 74.8749 7.00552 75.9427 9.32967C77.0734 11.591 77.6387 14.0094 77.6387 16.5848C77.6387 19.5999 76.8849 22.3638 75.3774 24.8764C73.8698 27.3889 71.7655 29.1792 69.0645 30.247V30.9066C73.7128 32.2257 77.356 35.2094 79.9943 39.8577C82.6325 44.4432 83.9516 49.6882 83.9516 55.5928C83.9516 62.4396 82.6325 68.25 79.9943 73.0239C77.4189 77.7979 73.7756 81.5039 69.0645 84.1422C74.0897 87.8482 78.5495 90.8634 82.444 93.1875C86.3386 95.5745 90.7356 97.5217 95.6352 99.0293C100.598 100.6 106 101.385 111.841 101.385ZM41.1747 2.82833V30.0586H59.3596C63.2541 30.0586 66.2378 28.8023 68.3107 26.2897C70.3836 23.7771 71.42 20.7306 71.42 17.1501C71.42 14.7632 70.9489 12.4704 70.0067 10.2719C69.0645 8.07338 67.6826 6.28315 65.8609 4.90122C64.1021 3.51929 62.0292 2.82833 59.6422 2.82833H41.1747ZM41.1747 61.5288C41.1747 63.6645 40.892 65.7688 40.3267 67.8417C44.5981 69.098 48.6182 70.794 52.3871 72.9297C56.156 75.0654 60.4274 77.8607 65.2014 81.3155C70.8547 76.1647 73.6814 67.7789 73.6814 56.1582C73.6814 52.6405 73.116 48.9659 71.9854 45.1341C70.9175 41.3024 69.0331 38.0361 66.332 35.335C63.6938 32.634 60.2076 31.2835 55.8734 31.2835H41.1747V61.5288ZM11.212 86.1208C17.1166 86.1208 21.7335 84.3934 25.0627 80.9386C28.4547 77.4838 30.559 72.8355 31.3756 66.9937C29.868 66.8681 28.6745 66.8053 27.7951 66.8053C22.4558 66.8053 17.7447 67.5276 13.6618 68.9724C9.5788 70.3543 6.43805 72.1131 4.23953 74.2488C2.04101 76.3217 0.941751 78.3318 0.941751 80.2791C0.941751 82.0379 1.78975 83.4512 3.48575 84.5191C5.24457 85.5869 7.81998 86.1208 11.212 86.1208ZM45.5089 87.8168C52.5442 87.8168 58.3231 86.2779 62.8458 83.1999C58.8257 79.5567 55.0254 76.5416 51.4449 74.1546C47.9273 71.7048 44.127 69.8518 40.044 68.5955C38.9133 72.0503 37.0603 75.1596 34.4849 77.9235C31.9095 80.6874 28.863 82.8859 25.3453 84.5191C32.6319 86.7176 39.353 87.8168 45.5089 87.8168Z" fill="#F0BE73"/>
<path d="M126.329 14.8888C127.962 14.8888 129.501 15.3913 130.946 16.3963C132.39 17.3386 133.553 18.7519 134.432 20.6363C135.374 22.458 135.845 24.5623 135.845 26.9492V87.6284H126.517C126.517 74.2488 125.669 63.1934 123.973 54.4622C122.34 45.7309 120.016 39.261 117.001 35.0524L117.378 40.2346C118.069 49.2171 118.414 56.5036 118.414 62.0942C118.414 79.9964 115.116 88.9475 108.521 88.9475C104.124 88.9475 100.323 87.44 97.1199 84.4248C93.9792 81.3469 91.5608 77.3896 89.8648 72.5528C88.2316 67.6533 87.415 62.5025 87.415 57.1004C87.415 52.0124 88.1374 47.3013 89.5821 42.967C91.0897 38.6328 93.351 35.1466 96.3661 32.5084C99.3812 29.8073 103.056 28.4568 107.39 28.4568C110.719 28.4568 113.609 29.7759 116.059 32.4141V31.5661C116.059 27.8601 116.53 24.7507 117.472 22.2381C118.477 19.7255 119.765 17.8725 121.335 16.679C122.905 15.4855 124.57 14.8888 126.329 14.8888ZM116.907 33.3564C121.932 39.3866 125.135 50.7247 126.517 67.3706V25.3475C126.517 22.7721 126.172 20.8248 125.481 19.5057C124.853 18.1866 124.036 17.527 123.031 17.527C122.026 17.527 121.052 18.0923 120.11 19.223C119.168 20.3537 118.383 22.0183 117.755 24.2168C117.189 26.3525 116.907 28.8651 116.907 31.7546V33.3564ZM117.472 62.0942C117.472 57.5715 117.315 52.986 117.001 48.3377C116.75 43.6894 116.593 41.0198 116.53 40.3288L116.153 33.9217C113.577 30.9066 110.657 29.399 107.39 29.399C103.684 29.399 100.795 32.1315 98.7217 37.5964C96.7116 42.9984 95.7066 49.5312 95.7066 57.1946C95.7066 62.471 96.2091 67.5276 97.2141 72.3644C98.2192 77.1383 99.6953 81.0328 101.643 84.048C103.59 87.0003 105.883 88.4764 108.521 88.4764C111.85 88.4764 114.174 86.058 115.493 81.2213C116.812 76.3845 117.472 70.0088 117.472 62.0942Z" fill="#F0BE73"/>
<path d="M165.945 88.9475C160.166 88.9475 155.392 87.3143 151.623 84.048C147.854 80.7816 145.059 76.4474 143.237 71.0453C141.478 65.5804 140.599 59.5816 140.599 53.0488C140.599 45.197 142.107 38.3815 145.122 32.6026C148.2 26.7608 152.063 22.3009 156.711 19.223C161.422 16.1451 166.102 14.6061 170.75 14.6061C175.273 14.6061 179.01 16.1451 181.963 19.223C184.978 22.2381 186.485 26.6038 186.485 32.3199C186.485 33.3878 186.391 34.5498 186.203 35.8061H185.166C185.355 34.6755 185.449 33.5762 185.449 32.5084C185.449 27.4204 184.287 23.4944 181.963 20.7306C179.639 17.9667 176.718 16.5848 173.2 16.5848C169.62 16.5848 166.039 17.9981 162.459 20.8248C158.878 23.5886 155.895 27.6716 153.508 33.0737C151.183 38.413 150.021 44.7887 150.021 52.2008C150.021 59.4873 150.901 65.7688 152.66 71.0453C154.418 76.2589 156.711 80.1848 159.538 82.8231C162.427 85.4613 165.474 86.7804 168.677 86.7804C171.881 86.7804 175.084 85.5555 178.288 83.1057C181.554 80.5931 184.255 77.0127 186.391 72.3644C188.527 67.7161 189.595 62.314 189.595 56.1582H190.537C190.663 57.2888 190.725 58.1996 190.725 58.8906C190.725 62.6595 189.72 66.9309 187.71 71.7048C185.7 76.4788 182.811 80.5617 179.042 83.9537C175.273 87.2829 170.907 88.9475 165.945 88.9475Z" fill="#F0BE73"/>
<path d="M192.631 87.5342V1.60344H202.053V31.7546C203.31 32.3827 204.692 32.6968 206.199 32.6968C208.586 32.6968 210.973 31.943 213.36 30.4355C215.81 28.8651 217.946 26.8236 219.767 24.311C221.652 21.7984 223.065 19.0974 224.007 16.2079H233.429C231.733 19.4743 229.378 22.458 226.363 25.159C223.348 27.7972 220.113 29.8701 216.658 31.3777C213.266 32.8852 210.125 33.639 207.236 33.639C206.293 33.639 205.414 33.5448 204.597 33.3564C208.052 35.4292 211.884 39.1039 216.092 44.3804C220.301 49.6568 224.258 56.0639 227.965 63.6017C231.671 71.1395 234.434 79.117 236.256 87.5342L226.834 87.44C224.196 70.8568 220.584 58.2625 215.998 49.6568C211.413 41.0512 206.764 35.3664 202.053 32.6026V87.5342H192.631Z" fill="#F0BE73"/>
<path d="M286.636 31.3777C289.086 23.7771 292.038 17.7469 295.493 13.287C299.011 8.82715 302.497 5.71782 305.952 3.959C309.47 2.13737 312.704 1.22655 315.657 1.22655C318.107 1.22655 319.771 1.66625 320.651 2.54566V9.51811C318.452 8.57589 316.096 8.10478 313.584 8.10478C308.559 8.10478 303.691 9.92641 298.979 13.5697C294.268 17.2129 290.562 23.1489 287.861 31.3777L269.77 85.8382C267.195 93.6272 264.117 99.312 260.537 102.892C256.956 106.536 253.25 108.357 249.418 108.357C247.157 108.357 245.021 107.792 243.011 106.661C241.064 105.531 239.462 103.992 238.206 102.044C236.95 100.097 236.227 97.9615 236.039 95.6373H245.461C245.838 98.2755 246.717 100.254 248.099 101.573C249.481 102.955 251.146 103.646 253.093 103.646C255.857 103.646 258.621 102.39 261.385 99.8773C264.211 97.3647 266.284 94.0669 267.603 89.984L268.828 86.2151L263.552 87.5342L239.054 16.2079H248.476L270.807 80.1848L286.636 31.3777Z" fill="#F0BE73"/>
<path d="M325.171 14.8888C326.804 14.8888 328.343 15.3913 329.788 16.3963C331.233 17.3386 332.395 18.7519 333.274 20.6363C334.216 22.458 334.687 24.5623 334.687 26.9492V87.6284H325.359C325.359 74.2488 324.511 63.1934 322.815 54.4622C321.182 45.7309 318.858 39.261 315.843 35.0524L316.22 40.2346C316.911 49.2171 317.256 56.5036 317.256 62.0942C317.256 79.9964 313.959 88.9475 307.363 88.9475C302.966 88.9475 299.166 87.44 295.962 84.4248C292.821 81.3469 290.403 77.3896 288.707 72.5528C287.074 67.6533 286.257 62.5025 286.257 57.1004C286.257 52.0124 286.98 47.3013 288.424 42.967C289.932 38.6328 292.193 35.1466 295.208 32.5084C298.223 29.8073 301.898 28.4568 306.232 28.4568C309.562 28.4568 312.451 29.7759 314.901 32.4141V31.5661C314.901 27.8601 315.372 24.7507 316.314 22.2381C317.319 19.7255 318.607 17.8725 320.177 16.679C321.748 15.4855 323.412 14.8888 325.171 14.8888ZM315.749 33.3564C320.774 39.3866 323.978 50.7247 325.359 67.3706V25.3475C325.359 22.7721 325.014 20.8248 324.323 19.5057C323.695 18.1866 322.878 17.527 321.873 17.527C320.868 17.527 319.895 18.0923 318.952 19.223C318.01 20.3537 317.225 22.0183 316.597 24.2168C316.031 26.3525 315.749 28.8651 315.749 31.7546V33.3564ZM316.314 62.0942C316.314 57.5715 316.157 52.986 315.843 48.3377C315.592 43.6894 315.435 41.0198 315.372 40.3288L314.995 33.9217C312.42 30.9066 309.499 29.399 306.232 29.399C302.526 29.399 299.637 32.1315 297.564 37.5964C295.554 42.9984 294.549 49.5312 294.549 57.1946C294.549 62.471 295.051 67.5276 296.056 72.3644C297.061 77.1383 298.537 81.0328 300.485 84.048C302.432 87.0003 304.725 88.4764 307.363 88.4764C310.692 88.4764 313.016 86.058 314.335 81.2213C315.655 76.3845 316.314 70.0088 316.314 62.0942Z" fill="#F0BE73"/>
<path d="M352.588 54.9333C354.85 39.0411 358.775 25.9442 364.366 15.6426C369.957 5.27812 377.714 0.0958862 387.639 0.0958862C389.335 0.0958862 390.842 0.221515 392.162 0.472775V9.51811C390.214 9.07841 388.204 8.85856 386.131 8.85856C376.584 8.85856 369.077 13.7581 363.612 23.5572C358.147 33.2935 354.473 46.2962 352.588 62.5653V87.5342H343.166V16.2079H352.588V54.9333Z" fill="#F0BE73"/>
<path d="M407.765 1.60344H417.187V87.5342H407.765V72.8355C406.257 77.6722 404.09 81.504 401.264 84.3306C398.437 87.1573 394.982 88.5706 390.899 88.5706C385.937 88.5706 381.665 86.8432 378.085 83.3884C374.567 79.9336 371.898 75.4109 370.076 69.8204C368.254 64.1671 367.344 58.1682 367.344 51.8239C367.344 45.4168 368.254 39.3866 370.076 33.7332C371.96 28.0171 374.756 23.4316 378.462 19.9768C382.231 16.4592 386.753 14.7003 392.03 14.7003C394.794 14.7003 397.526 15.4227 400.227 16.8675C402.991 18.2494 405.504 20.3851 407.765 23.2746V1.60344ZM394.197 86.2151C397.275 86.2151 400.007 84.6761 402.394 81.5982C404.844 78.4574 406.634 74.3745 407.765 69.3493V24.4995C404.122 19.5999 400.039 17.1501 395.516 17.1501C391.307 17.1501 387.696 18.8147 384.68 22.1439C381.728 25.4731 379.498 29.8073 377.991 35.1466C376.546 40.4858 375.824 46.1392 375.824 52.1066C375.824 58.0112 376.515 63.5703 377.896 68.7839C379.341 73.9976 381.446 78.2062 384.209 81.4097C386.973 84.6133 390.302 86.2151 394.197 86.2151Z" fill="#F0BE73"/>
<path d="M153.682 101.709C153.63 101.222 153.411 100.843 153.024 100.572C152.641 100.3 152.143 100.165 151.529 100.165C151.098 100.165 150.728 100.23 150.42 100.36C150.111 100.49 149.875 100.667 149.711 100.89C149.548 101.113 149.464 101.367 149.46 101.654C149.46 101.892 149.514 102.098 149.622 102.273C149.734 102.447 149.884 102.596 150.074 102.719C150.263 102.838 150.474 102.938 150.704 103.02C150.935 103.102 151.167 103.17 151.401 103.226L152.472 103.494C152.903 103.594 153.318 103.73 153.715 103.901C154.117 104.072 154.476 104.288 154.792 104.548C155.111 104.808 155.364 105.122 155.55 105.49C155.736 105.858 155.829 106.29 155.829 106.784C155.829 107.453 155.658 108.043 155.316 108.552C154.974 109.057 154.479 109.453 153.832 109.74C153.189 110.022 152.41 110.163 151.496 110.163C150.607 110.163 149.836 110.026 149.182 109.751C148.531 109.476 148.022 109.074 147.654 108.546C147.289 108.018 147.092 107.375 147.062 106.617H149.098C149.128 107.015 149.25 107.345 149.466 107.609C149.682 107.873 149.962 108.07 150.308 108.201C150.658 108.331 151.048 108.396 151.479 108.396C151.929 108.396 152.323 108.329 152.661 108.195C153.003 108.057 153.271 107.868 153.464 107.626C153.658 107.381 153.756 107.094 153.76 106.767C153.756 106.47 153.669 106.225 153.498 106.031C153.327 105.834 153.087 105.671 152.779 105.54C152.474 105.407 152.117 105.288 151.708 105.184L150.408 104.849C149.468 104.607 148.724 104.241 148.178 103.75C147.635 103.256 147.364 102.6 147.364 101.782C147.364 101.109 147.546 100.52 147.91 100.014C148.278 99.5084 148.778 99.1162 149.41 98.8374C150.042 98.5548 150.758 98.4136 151.557 98.4136C152.368 98.4136 153.078 98.5548 153.688 98.8374C154.301 99.1162 154.782 99.5047 155.132 100.003C155.481 100.497 155.662 101.066 155.673 101.709H153.682Z" fill="#F0BE73"/>
<path d="M159.056 100.304V98.5697H168.168V100.304H164.638V109.991H162.586V100.304H159.056Z" fill="#F0BE73"/>
<path d="M171.028 98.5697H173.365L176.159 103.622H176.27L179.064 98.5697H181.401L177.246 105.73V109.991H175.183V105.73L171.028 98.5697Z" fill="#F0BE73"/>
<path d="M184.751 109.991V98.5697H186.82V108.256H191.85V109.991H184.751Z" fill="#F0BE73"/>
<path d="M195.028 100.304V98.5697H201.123V100.304H195.028ZM195.028 109.991V108.256H201.123V109.991H195.028ZM199.11 98.5697V109.991H197.041V98.5697H199.11Z" fill="#F0BE73"/>
<path d="M214.145 98.5697V109.991H212.305L206.924 102.211H206.829V109.991H204.76V98.5697H206.611L211.987 106.355H212.088V98.5697H214.145Z" fill="#F0BE73"/>
<path d="M225.935 102.217C225.842 101.916 225.714 101.646 225.551 101.408C225.391 101.167 225.197 100.96 224.971 100.789C224.748 100.618 224.491 100.49 224.201 100.404C223.911 100.315 223.595 100.271 223.253 100.271C222.64 100.271 222.093 100.425 221.613 100.733C221.134 101.042 220.757 101.496 220.481 102.094C220.21 102.689 220.074 103.414 220.074 104.269C220.074 105.132 220.21 105.862 220.481 106.461C220.753 107.059 221.13 107.515 221.613 107.827C222.097 108.135 222.658 108.29 223.298 108.29C223.878 108.29 224.379 108.178 224.803 107.955C225.231 107.732 225.56 107.416 225.79 107.007C226.021 106.594 226.136 106.111 226.136 105.557L226.605 105.63H223.504V104.012H228.138V105.384C228.138 106.362 227.93 107.208 227.514 107.922C227.097 108.635 226.525 109.186 225.796 109.572C225.067 109.955 224.231 110.147 223.286 110.147C222.234 110.147 221.31 109.911 220.515 109.439C219.723 108.963 219.104 108.288 218.658 107.414C218.215 106.537 217.994 105.496 217.994 104.291C217.994 103.369 218.124 102.546 218.385 101.821C218.649 101.096 219.017 100.481 219.489 99.975C219.961 99.4657 220.515 99.079 221.151 98.8151C221.786 98.5474 222.478 98.4136 223.225 98.4136C223.857 98.4136 224.446 98.5065 224.993 98.6924C225.539 98.8746 226.025 99.1348 226.448 99.4731C226.876 99.8114 227.227 100.213 227.502 100.678C227.777 101.142 227.958 101.655 228.043 102.217H225.935Z" fill="#F0BE73"/>
<path d="M293.144 110.158C292.363 110.158 291.692 110.017 291.131 109.734C290.569 109.452 290.136 109.07 289.831 108.591C289.53 108.108 289.38 107.563 289.38 106.957C289.38 106.5 289.473 106.094 289.658 105.741C289.848 105.388 290.108 105.061 290.439 104.76C290.774 104.459 291.16 104.159 291.599 103.862L293.623 102.484C293.921 102.291 294.146 102.087 294.298 101.871C294.454 101.655 294.532 101.403 294.532 101.113C294.532 100.867 294.428 100.635 294.22 100.416C294.016 100.196 293.733 100.087 293.372 100.087C293.131 100.087 292.917 100.144 292.731 100.259C292.549 100.371 292.406 100.518 292.302 100.7C292.201 100.882 292.151 101.075 292.151 101.28C292.151 101.529 292.22 101.782 292.358 102.038C292.499 102.295 292.681 102.561 292.904 102.836C293.131 103.111 293.372 103.403 293.629 103.711L298.988 109.991H296.802L292.352 104.894C292.021 104.507 291.701 104.126 291.393 103.75C291.088 103.375 290.837 102.985 290.64 102.579C290.447 102.17 290.35 101.728 290.35 101.252C290.35 100.713 290.474 100.232 290.724 99.8077C290.973 99.3802 291.32 99.0437 291.766 98.7984C292.216 98.553 292.742 98.4303 293.345 98.4303C293.947 98.4303 294.464 98.5493 294.895 98.7872C295.326 99.0251 295.659 99.3411 295.893 99.7352C296.127 100.129 296.244 100.559 296.244 101.023C296.244 101.562 296.111 102.046 295.843 102.473C295.575 102.897 295.203 103.282 294.728 103.628L292.419 105.317C292.04 105.593 291.768 105.871 291.605 106.154C291.441 106.433 291.359 106.671 291.359 106.868C291.359 107.169 291.436 107.442 291.588 107.687C291.74 107.933 291.954 108.13 292.229 108.279C292.508 108.424 292.833 108.496 293.205 108.496C293.614 108.496 294.018 108.405 294.415 108.223C294.813 108.037 295.176 107.773 295.503 107.431C295.83 107.089 296.09 106.68 296.283 106.204C296.477 105.725 296.573 105.193 296.573 104.609H298.308C298.308 105.33 298.228 105.959 298.068 106.494C297.908 107.026 297.702 107.476 297.449 107.844C297.196 108.208 296.928 108.5 296.646 108.719C296.557 108.782 296.471 108.846 296.389 108.909C296.308 108.972 296.222 109.035 296.133 109.098C295.731 109.463 295.261 109.73 294.722 109.901C294.187 110.072 293.661 110.158 293.144 110.158Z" fill="#F0BE73"/>
<path d="M307.395 100.304V98.5697H316.508V100.304H312.978V109.991H310.925V100.304H307.395Z" fill="#F0BE73"/>
<path d="M320.149 109.991V98.5697H324.431C325.309 98.5697 326.045 98.7221 326.64 99.027C327.238 99.3319 327.69 99.7594 327.995 100.31C328.303 100.856 328.458 101.494 328.458 102.222C328.458 102.955 328.302 103.591 327.989 104.13C327.681 104.665 327.225 105.079 326.623 105.373C326.021 105.663 325.281 105.808 324.404 105.808H321.353V104.091H324.125C324.638 104.091 325.058 104.02 325.385 103.879C325.712 103.734 325.954 103.524 326.11 103.248C326.27 102.97 326.35 102.628 326.35 102.222C326.35 101.817 326.27 101.471 326.11 101.185C325.95 100.895 325.707 100.676 325.379 100.527C325.052 100.375 324.63 100.298 324.114 100.298H322.218V109.991H320.149ZM326.049 104.816L328.876 109.991H326.567L323.79 104.816H326.049Z" fill="#F0BE73"/>
<path d="M332.247 109.991V98.5697H339.675V100.304H334.316V103.405H339.29V105.139H334.316V108.256H339.719V109.991H332.247Z" fill="#F0BE73"/>
<path d="M345.136 109.991H342.928L346.949 98.5697H349.503L353.529 109.991H351.321L348.271 100.912H348.181L345.136 109.991ZM345.209 105.513H351.232V107.174H345.209V105.513Z" fill="#F0BE73"/>
<path d="M355.036 100.304V98.5697H364.148V100.304H360.618V109.991H358.566V100.304H355.036Z" fill="#F0BE73"/>
<path d="M367.789 98.5697H370.321L373.711 106.845H373.845L377.236 98.5697H379.768V109.991H377.782V102.144H377.676L374.52 109.957H373.037L369.88 102.128H369.774V109.991H367.789V98.5697Z" fill="#F0BE73"/>
<path d="M383.905 109.991V98.5697H391.333V100.304H385.974V103.405H390.948V105.139H385.974V108.256H391.378V109.991H383.905Z" fill="#F0BE73"/>
<path d="M404.714 98.5697V109.991H402.873L397.492 102.211H397.397V109.991H395.328V98.5697H397.18L402.556 106.355H402.656V98.5697H404.714Z" fill="#F0BE73"/>
<path d="M408.351 100.304V98.5697H417.463V100.304H413.933V109.991H411.881V100.304H408.351Z" fill="#F0BE73"/>
</svg>
