<svg width="108" height="36" viewBox="0 0 108 36" fill="none" xmlns="http://www.w3.org/2000/svg">
<path fill-rule="evenodd" clip-rule="evenodd" d="M11.7529 24.6577C12.6666 24.9623 13.5535 25.3475 14.4135 25.8133C15.2735 26.2612 16.2947 26.8614 17.4772 27.6139C19.1792 28.653 20.6752 29.4951 21.9652 30.1401C23.2552 30.7851 24.796 31.3315 26.5876 31.7794C28.3972 32.2452 30.4307 32.4782 32.6881 32.4782C34.4081 32.4782 36.2445 32.3348 38.1974 32.0482V34.7356C36.5133 34.9685 34.9098 35.085 33.3869 35.085C30.9144 35.085 28.7286 34.7804 26.8295 34.1713C24.9304 33.58 23.3358 32.8634 22.0458 32.0213C20.7559 31.1971 19.2778 30.1042 17.6116 28.7426C16.3574 27.7214 15.2914 26.9151 14.4135 26.3239C13.5535 25.7147 12.6398 25.231 11.6723 24.8727C11.3319 25.8939 10.7675 26.7987 9.9792 27.587C9.2088 28.3932 8.2861 29.0203 7.21113 29.4682C6.13615 29.9161 5.00742 30.1401 3.82494 30.1401C2.66038 30.1401 1.78248 29.952 1.19124 29.5757C0.600002 29.1995 0.304382 28.7068 0.304382 28.0976C0.304382 27.4705 0.60896 26.8435 1.21811 26.2164C1.82727 25.5714 2.6783 25.0429 3.77119 24.6308C4.882 24.2008 6.15406 23.9858 7.58737 23.9858C8.21444 23.9858 8.76985 24.0217 9.25359 24.0933C9.30733 23.6633 9.33421 23.2333 9.33421 22.8033V2.80873H12.0217V14.956H20.4065V2.80873H23.0939V27.3183H20.4065V15.4666H12.0217V22.8033C12.0217 23.4842 11.9321 24.1023 11.7529 24.6577ZM3.47557 29.7907C5.15971 29.7907 6.48551 29.298 7.453 28.3126C8.42048 27.3272 9.01172 26.0014 9.22671 24.3352C8.79672 24.2994 8.45631 24.2814 8.20548 24.2814C6.68259 24.2814 5.33887 24.4875 4.17431 24.8996C3.00975 25.2937 2.11393 25.7954 1.48686 26.4045C0.859788 26.9958 0.546253 27.5691 0.546253 28.1245C0.546253 28.6262 0.788123 29.0293 1.27186 29.3338C1.77352 29.6384 2.50809 29.7907 3.47557 29.7907ZM35.811 6.59803C36.2769 6.59803 36.7158 6.74136 37.1279 7.02802C37.54 7.29677 37.8714 7.69988 38.1222 8.23737C38.391 8.75695 38.5254 9.35714 38.5254 10.038V27.3451H35.8648C35.8648 23.529 35.6229 20.3757 35.1392 17.8853C34.6734 15.3949 34.0104 13.5496 33.1505 12.3492L33.258 13.8273C33.455 16.3893 33.5536 18.4676 33.5536 20.0621C33.5536 25.1683 32.613 27.7214 30.7318 27.7214C29.4776 27.7214 28.3937 27.2914 27.4799 26.4314C26.5841 25.5535 25.8944 24.4248 25.4106 23.0452C24.9448 21.6477 24.7119 20.1786 24.7119 18.6378C24.7119 17.1866 24.9179 15.8429 25.33 14.6066C25.76 13.3704 26.405 12.376 27.2649 11.6236C28.1249 10.8532 29.173 10.468 30.4093 10.468C31.3588 10.468 32.183 10.8442 32.8817 11.5967V11.3548C32.8817 10.2977 33.0161 9.41089 33.2848 8.69424C33.5715 7.97759 33.9388 7.44905 34.3867 7.10864C34.8346 6.76823 35.3094 6.59803 35.811 6.59803ZM33.1236 11.8654C34.5569 13.5854 35.4706 16.8193 35.8648 21.5671V9.5811C35.8648 8.84653 35.7662 8.29112 35.5692 7.91488C35.39 7.53864 35.1571 7.35051 34.8704 7.35051C34.5838 7.35051 34.3061 7.51176 34.0373 7.83426C33.7686 8.15675 33.5446 8.63153 33.3655 9.2586C33.2042 9.86776 33.1236 10.5844 33.1236 11.4086V11.8654ZM33.2848 20.0621C33.2848 18.7722 33.24 17.4643 33.1505 16.1385C33.0788 14.8127 33.034 14.0512 33.0161 13.8541L32.9086 12.0267C32.174 11.1667 31.3409 10.7367 30.4093 10.7367C29.3522 10.7367 28.5281 11.5161 27.9368 13.0748C27.3635 14.6156 27.0768 16.4789 27.0768 18.6647C27.0768 20.1696 27.2202 21.6119 27.5068 22.9915C27.7935 24.3531 28.2145 25.4639 28.7699 26.3239C29.3253 27.166 29.9793 27.587 30.7318 27.587C31.6813 27.587 32.3442 26.8972 32.7205 25.5177C33.0967 24.1381 33.2848 22.3196 33.2848 20.0621ZM43.2622 3.85683C42.868 3.85683 42.5187 3.7135 42.2141 3.42684C41.9095 3.12226 41.7572 2.77289 41.7572 2.37873C41.7572 1.96666 41.9095 1.61729 42.2141 1.33063C42.5187 1.02605 42.868 0.873764 43.2622 0.873764C43.6384 0.873764 43.9788 1.02605 44.2834 1.33063C44.588 1.63521 44.7403 1.98458 44.7403 2.37873C44.7403 2.77289 44.588 3.12226 44.2834 3.42684C43.9968 3.7135 43.6564 3.85683 43.2622 3.85683ZM44.6597 27.3183H41.9722V6.97427H44.6597V27.3183ZM56.2804 6.46366C57.4449 6.46366 58.3407 6.80407 58.9678 7.48489C59.5949 8.16571 59.9084 8.9809 59.9084 9.93047C59.9084 10.5396 59.7741 11.1219 59.5053 11.6773C59.2366 12.2148 58.8334 12.6537 58.296 12.9942C57.7764 13.3346 57.1583 13.5048 56.4416 13.5048C55.3846 13.5048 54.4439 13.1823 53.6198 12.5373C52.8136 11.8744 52.2671 10.9696 51.9804 9.82297C51.3175 10.88 50.7801 12.2775 50.368 14.0154C49.9559 15.7354 49.6961 17.7957 49.5886 20.1965V27.3183H46.9012V6.97427H49.5886V17.2941C49.8932 13.8362 50.6457 11.1488 51.8461 9.23173C51.7923 8.85549 51.7655 8.46133 51.7655 8.04925C51.7655 6.72344 52.07 5.33493 52.6792 3.88371H53.0017C52.3746 5.28118 52.0611 6.6249 52.0611 7.91488C52.0611 8.34487 52.079 8.65841 52.1148 8.85549C53.2435 7.26093 54.6321 6.46366 56.2804 6.46366ZM55.501 12.8598C55.716 12.8956 55.8593 12.9135 55.931 12.9135C56.576 12.9135 57.0776 12.6537 57.436 12.1342C57.8122 11.5967 58.0003 10.9696 58.0003 10.253C58.0003 9.50047 57.7853 8.84653 57.3553 8.29112C56.9254 7.73572 56.2983 7.45801 55.4741 7.45801C54.8829 7.45801 54.3096 7.62822 53.7542 7.96863C53.1988 8.29112 52.6881 8.78382 52.2223 9.44672C52.4373 10.3784 52.8404 11.1398 53.4317 11.7311C54.0408 12.3223 54.7306 12.6985 55.501 12.8598ZM65.9664 27.8557C64.4615 27.8557 62.849 27.6228 61.129 27.157V2.80873H69.2451C70.2664 2.80873 71.1532 3.03268 71.9057 3.48059C72.6582 3.91058 73.2226 4.4839 73.5988 5.20056C73.993 5.89929 74.19 6.63386 74.19 7.40426C74.19 8.19258 73.984 8.90924 73.5719 9.55422C73.1599 10.1992 72.5597 10.674 71.7713 10.9786V11.1667C73.0971 11.5429 74.1363 12.394 74.8888 13.7198C75.6413 15.0277 76.0175 16.5237 76.0175 18.2078C76.0175 20.2682 75.5875 22.024 74.7275 23.4752C73.8855 24.9264 72.703 26.0193 71.1801 26.7539C69.6572 27.4885 67.9193 27.8557 65.9664 27.8557ZM67.4983 10.9248C68.8958 10.9248 69.9439 10.5755 70.6426 9.87672C71.3593 9.17798 71.7176 8.318 71.7176 7.29676C71.7176 6.61594 71.5563 5.962 71.2338 5.33493C70.9293 4.68994 70.4903 4.17037 69.917 3.77621C69.3437 3.36413 68.6987 3.15809 67.982 3.15809H63.8165V10.9248H67.4983ZM63.8165 27.4526C64.3002 27.5064 64.775 27.5333 65.2408 27.5333C67.6595 27.5333 69.5676 26.8256 70.9651 25.4102C72.3805 23.9769 73.0882 21.8896 73.0882 19.1484C73.0882 16.8551 72.6582 14.9739 71.7982 13.5048C70.9561 12.0177 69.3437 11.2742 66.9608 11.2742H63.8165V27.4526ZM85.1937 27.6139C83.832 27.6139 82.5331 27.1749 81.2969 26.297C80.0606 25.4191 79.0573 24.1739 78.2869 22.5615C77.5344 20.9311 77.1582 19.0499 77.1582 16.9178C77.1582 15.1083 77.5434 13.4152 78.3138 11.8386C79.1021 10.244 80.1681 8.97194 81.5119 8.02238C82.8556 7.0549 84.3247 6.57116 85.9193 6.57116C87.2809 6.57116 88.5799 7.0101 89.8161 7.888C91.0523 8.7659 92.0467 10.02 92.7992 11.6504C93.5696 13.2629 93.9548 15.1352 93.9548 17.2672C93.9548 19.0767 93.5606 20.7788 92.7723 22.3734C92.0019 23.95 90.9448 25.222 89.6011 26.1895C88.2574 27.1391 86.7882 27.6139 85.1937 27.6139ZM85.8118 27.3183C86.9584 27.3183 87.9438 26.8345 88.768 25.867C89.5921 24.8996 90.2102 23.6275 90.6223 22.0509C91.0523 20.4563 91.2673 18.7543 91.2673 16.9447C91.2673 15.0277 90.9896 13.3077 90.4342 11.7848C89.8788 10.244 89.1442 9.04361 88.2305 8.18362C87.3168 7.30572 86.3403 6.86677 85.3012 6.86677C84.1187 6.86677 83.1154 7.35051 82.2912 8.318C81.4671 9.28548 80.849 10.5575 80.4369 12.1342C80.0427 13.7108 79.8456 15.4129 79.8456 17.2403C79.8456 19.1395 80.1234 20.8594 80.6788 22.4002C81.2342 23.941 81.9687 25.1504 82.8825 26.0283C83.8141 26.8883 84.7906 27.3183 85.8118 27.3183ZM107.373 6.97427H107.696L101.756 16.7028L107.104 27.3183H104.417L100.117 18.7184L94.8765 27.3183H94.554L99.9557 18.4497L94.2046 6.97427H96.8921L101.622 16.4072L107.373 6.97427ZM44.2849 32.3904C44.3952 32.4678 44.4577 32.576 44.4726 32.7149H45.0404C45.0372 32.5315 44.9858 32.3692 44.8861 32.2282C44.7864 32.0861 44.6491 31.9753 44.4742 31.8958C44.3003 31.8152 44.0977 31.7749 43.8666 31.7749C43.6386 31.7749 43.4344 31.8152 43.2542 31.8958C43.0739 31.9753 42.9313 32.0872 42.8263 32.2314C42.7224 32.3756 42.6704 32.5437 42.6704 32.7356C42.6704 32.9689 42.7478 33.156 42.9027 33.2971C43.0585 33.437 43.2706 33.5415 43.5389 33.6104L43.9095 33.7059C44.0261 33.7355 44.1279 33.7695 44.2149 33.8077C44.3029 33.8448 44.3713 33.8914 44.4201 33.9476C44.4689 34.0028 44.4938 34.0727 44.4948 34.1576C44.4938 34.2509 44.4657 34.3325 44.4105 34.4025C44.3554 34.4715 44.279 34.5255 44.1815 34.5648C44.085 34.6029 43.9726 34.622 43.8443 34.622C43.7213 34.622 43.6099 34.6035 43.5103 34.5664C43.4116 34.5292 43.3316 34.473 43.2701 34.3978C43.2086 34.3225 43.1736 34.2281 43.1651 34.1146H42.5845C42.593 34.331 42.6492 34.5144 42.7531 34.665C42.8581 34.8155 43.0034 34.9301 43.189 35.0085C43.3756 35.087 43.5956 35.1262 43.8491 35.1262C44.1099 35.1262 44.3321 35.0859 44.5155 35.0054C44.7 34.9237 44.8411 34.8108 44.9386 34.6666C45.0362 34.5213 45.0849 34.3532 45.0849 34.1623C45.0849 34.0213 45.0584 33.8983 45.0054 33.7933C44.9524 33.6884 44.8803 33.5988 44.7891 33.5245C44.699 33.4503 44.5966 33.3888 44.4821 33.34C44.3686 33.2912 44.2504 33.2525 44.1274 33.2239L43.822 33.1476C43.7552 33.1317 43.6889 33.112 43.6232 33.0887C43.5575 33.0654 43.4975 33.0367 43.4435 33.0028C43.3894 32.9678 43.3464 32.9254 43.3146 32.8756C43.2839 32.8257 43.2685 32.7669 43.2685 32.699C43.2696 32.6174 43.2934 32.5447 43.3401 32.4811C43.3867 32.4175 43.4541 32.3671 43.5421 32.33C43.6301 32.2929 43.7356 32.2743 43.8586 32.2743C44.0336 32.2743 44.1757 32.313 44.2849 32.3904ZM46.0949 31.8194V32.3141H47.1018V35.0769H47.6871V32.3141H48.694V31.8194H46.0949ZM50.2658 31.8194H49.5994L50.7844 33.8617V35.0769H51.3729V33.8617L52.5579 31.8194H51.8914L51.0945 33.2605H51.0627L50.2658 31.8194ZM53.6029 31.8194V35.0769H55.6277V34.5823H54.193V31.8194H53.6029ZM56.6238 31.8194V32.3141H57.198V34.5823H56.6238V35.0769H57.198H57.7881H58.3623V34.5823H57.7881V32.3141H58.3623V31.8194H57.7881H57.198H56.6238ZM62.1661 35.0769V31.8194H61.5792V34.0399H61.5506L60.0173 31.8194H59.4892V35.0769H60.0793V32.8581H60.1063L61.6412 35.0769H62.1661ZM65.5087 32.629C65.5554 32.6969 65.592 32.7738 65.6185 32.8597H66.2197C66.1953 32.6995 66.1439 32.5532 66.0654 32.4207C65.987 32.2881 65.8867 32.1736 65.7648 32.0771C65.6439 31.9806 65.5055 31.9064 65.3497 31.8544C65.1938 31.8014 65.0257 31.7749 64.8455 31.7749C64.6323 31.7749 64.4351 31.8131 64.2538 31.8894C64.0724 31.9647 63.9144 32.075 63.7798 32.2202C63.6451 32.3645 63.5401 32.54 63.4648 32.7467C63.3906 32.9535 63.3535 33.1884 63.3535 33.4514C63.3535 33.7949 63.4166 34.0918 63.5428 34.3421C63.67 34.5913 63.8466 34.7837 64.0724 34.9195C64.2993 35.0541 64.5629 35.1215 64.8629 35.1215C65.1323 35.1215 65.3709 35.0669 65.5787 34.9576C65.7865 34.8474 65.9498 34.6904 66.0686 34.4868C66.1874 34.2832 66.2467 34.042 66.2467 33.7631V33.3718H64.925V33.8331H65.6755C65.6728 33.9825 65.64 34.1134 65.5771 34.226C65.5114 34.3426 65.4175 34.4328 65.2956 34.4964C65.1747 34.56 65.0315 34.5918 64.8661 34.5918C64.6837 34.5918 64.5236 34.5478 64.3858 34.4598C64.2479 34.3707 64.1403 34.2408 64.0629 34.0701C63.9855 33.8994 63.9468 33.691 63.9468 33.445C63.9468 33.2011 63.9855 32.9943 64.0629 32.8247C64.1413 32.6539 64.249 32.5246 64.3858 32.4366C64.5226 32.3486 64.6784 32.3046 64.8534 32.3046C64.951 32.3046 65.0411 32.3173 65.1238 32.3427C65.2065 32.3671 65.2797 32.4037 65.3433 32.4525C65.408 32.5013 65.4631 32.5601 65.5087 32.629ZM69.5563 35.0038C69.7164 35.0844 69.9078 35.1247 70.1305 35.1247C70.2779 35.1247 70.428 35.1003 70.5807 35.0515C70.7266 35.0052 70.8548 34.9341 70.9654 34.8381L71.174 35.0769H71.7975L71.32 34.5175C71.3329 34.5005 71.3458 34.4828 71.3585 34.4646C71.4306 34.3596 71.4894 34.2313 71.535 34.0796C71.5806 33.9269 71.6034 33.7477 71.6034 33.542H71.1087C71.1087 33.7085 71.0812 33.8601 71.026 33.9969C71.0099 34.0365 70.9922 34.0745 70.9729 34.1108L70.3768 33.4124L70.5823 33.2621C70.718 33.1635 70.824 33.0537 70.9004 32.9328C70.9767 32.8109 71.0149 32.673 71.0149 32.5193C71.0149 32.3867 70.9815 32.2643 70.9147 32.1519C70.8479 32.0395 70.753 31.9493 70.63 31.8815C70.507 31.8136 70.3596 31.7797 70.1878 31.7797C70.016 31.7797 69.866 31.8146 69.7376 31.8846C69.6104 31.9546 69.5113 32.0506 69.4402 32.1725C69.3692 32.2934 69.3336 32.4307 69.3336 32.5845C69.3336 32.7202 69.3612 32.8464 69.4164 32.9631C69.4726 33.0786 69.5441 33.19 69.6311 33.2971C69.6437 33.3124 69.6563 33.3278 69.6691 33.3431C69.5525 33.4233 69.4492 33.5039 69.3591 33.585C69.2647 33.6709 69.1905 33.7642 69.1364 33.8649C69.0834 33.9656 69.0569 34.0812 69.0569 34.2117C69.0569 34.3845 69.0998 34.5398 69.1857 34.6777C69.2727 34.8145 69.3962 34.9232 69.5563 35.0038ZM69.9765 33.7054L69.9238 33.744C69.8156 33.8225 69.7382 33.902 69.6915 33.9826C69.6449 34.0621 69.6215 34.13 69.6215 34.1862C69.6215 34.2721 69.6433 34.35 69.6868 34.42C69.7302 34.49 69.7912 34.5462 69.8697 34.5886C69.9492 34.63 70.042 34.6507 70.148 34.6507C70.2647 34.6507 70.3797 34.6247 70.4932 34.5727C70.5485 34.5468 70.6015 34.5157 70.6521 34.4792L69.9765 33.7054ZM70.083 33.0615L70.2673 32.936C70.3521 32.8809 70.4163 32.8225 70.4598 32.761C70.5043 32.6995 70.5266 32.6274 70.5266 32.5447C70.5266 32.4747 70.4969 32.4085 70.4375 32.3459C70.3792 32.2833 70.2986 32.2521 70.1957 32.2521C70.1268 32.2521 70.0658 32.2685 70.0128 32.3014C69.9609 32.3332 69.92 32.3751 69.8904 32.427C69.8617 32.479 69.8474 32.5341 69.8474 32.5924C69.8474 32.6635 69.867 32.7356 69.9062 32.8088C69.9465 32.8819 69.9985 32.9577 70.0621 33.0362C70.069 33.0446 70.076 33.053 70.083 33.0615ZM74.3746 31.8194V32.3141H75.3814V35.0769H75.9667V32.3141H76.9736V31.8194H74.3746ZM78.1017 31.8194V35.0769H78.6918V33.884H79.2923L79.9324 35.0769H80.591L79.8864 33.7873C79.9076 33.7787 79.9282 33.7696 79.9483 33.7599C80.1201 33.6762 80.25 33.5579 80.338 33.4052C80.4271 33.2515 80.4717 33.0701 80.4717 32.8613C80.4717 32.6534 80.4277 32.4716 80.3396 32.3157C80.2527 32.1587 80.1238 32.0368 79.9531 31.9499C79.7835 31.8629 79.5735 31.8194 79.3232 31.8194H78.1017ZM78.6918 33.3941H79.2358C79.3821 33.3941 79.5019 33.374 79.5952 33.3337C79.6886 33.2923 79.7575 33.2324 79.802 33.1539C79.8476 33.0744 79.8704 32.9768 79.8704 32.8613C79.8704 32.7457 79.8476 32.6471 79.802 32.5654C79.7564 32.4827 79.687 32.4201 79.5937 32.3777C79.5003 32.3342 79.38 32.3125 79.2326 32.3125H78.6918V33.3941ZM81.6419 31.8194V35.0769H83.7733V34.5823H82.232V33.6931H83.6508V33.1985H82.232V32.3141H83.7606V31.8194H81.6419ZM84.7781 35.0769H85.408L85.6774 34.2737H86.9021L87.172 35.0769H87.8018L86.6534 31.8194H85.9249L84.7781 35.0769ZM86.7428 33.7997L86.3019 32.4875H86.2765L85.8364 33.7997H86.7428ZM88.3211 31.8194V32.3141H89.328V35.0769H89.9133V32.3141H90.9201V31.8194H88.3211ZM92.7704 31.8194H92.0482V35.0769H92.6145V32.8342H92.6447L93.545 35.0674H93.9681L94.8683 32.839H94.8986V35.0769H95.4648V31.8194H94.7427L93.7756 34.1798H93.7374L92.7704 31.8194ZM96.7345 31.8194V35.0769H98.8659V34.5823H97.3246V33.6931H98.7434V33.1985H97.3246V32.3141H98.8531V31.8194H96.7345ZM102.759 35.0769V31.8194H102.172V34.0399H102.144L100.61 31.8194H100.082V35.0769H100.672V32.8581H100.699L102.234 35.0769H102.759ZM103.886 31.8194V32.3141H104.893V35.0769H105.478V32.3141H106.485V31.8194H103.886Z" fill="green"/>
</svg>
