<svg width="108" height="36" viewBox="0 0 108 36" fill="none" xmlns="http://www.w3.org/2000/svg">
<path fill-rule="evenodd" clip-rule="evenodd" d="M11.4485 24.6577C12.3623 24.9623 13.2491 25.3475 14.1091 25.8133C14.9691 26.2612 15.9903 26.8614 17.1728 27.6139C18.8748 28.653 20.3709 29.4951 21.6608 30.1401C22.9508 30.7851 24.4916 31.3315 26.2832 31.7794C28.0928 32.2453 30.1263 32.4782 32.3838 32.4782C34.1037 32.4782 35.9401 32.3348 37.893 32.0482V34.7356C36.2089 34.9685 34.6054 35.085 33.0825 35.085C30.61 35.085 28.4242 34.7804 26.5251 34.1713C24.626 33.58 23.0314 32.8634 21.7415 32.0213C20.4515 31.1972 18.9734 30.1043 17.3072 28.7426C16.053 27.7214 14.987 26.9152 14.1091 26.3239C13.2491 25.7148 12.3354 25.231 11.3679 24.8727C11.0275 25.8939 10.4631 26.7987 9.67482 27.587C8.90441 28.3933 7.98172 29.0203 6.90674 29.4682C5.83176 29.9161 4.70303 30.1401 3.52056 30.1401C2.356 30.1401 1.4781 29.952 0.886858 29.5757C0.295619 29.1995 0 28.7068 0 28.0976C0 27.4706 0.304578 26.8435 0.913733 26.2164C1.52289 25.5714 2.37391 25.0429 3.46681 24.6308C4.57762 24.2008 5.84968 23.9858 7.28299 23.9858C7.91006 23.9858 8.46546 24.0217 8.9492 24.0933C9.00295 23.6633 9.02983 23.2334 9.02983 22.8034V2.80874H11.7173V14.956H20.1021V2.80874H22.7896V27.3183H20.1021V15.4666H11.7173V22.8034C11.7173 23.4842 11.6277 24.1023 11.4485 24.6577ZM3.17119 29.7907C4.85532 29.7907 6.18113 29.298 7.14861 28.3126C8.11609 27.3272 8.70733 26.0014 8.92233 24.3352C8.49234 24.2994 8.15193 24.2815 7.9011 24.2815C6.37821 24.2815 5.03449 24.4875 3.86993 24.8996C2.70536 25.2937 1.80955 25.7954 1.18248 26.4045C0.555406 26.9958 0.24187 27.5691 0.24187 28.1245C0.24187 28.6262 0.483741 29.0293 0.967481 29.3339C1.46914 29.6384 2.20371 29.7907 3.17119 29.7907ZM35.5067 6.59804C35.9725 6.59804 36.4114 6.74137 36.8235 7.02804C37.2356 7.29678 37.567 7.6999 37.8179 8.23739C38.0866 8.75696 38.221 9.35716 38.221 10.038V27.3451H35.5604C35.5604 23.529 35.3185 20.3757 34.8348 17.8853C34.369 15.395 33.7061 13.5496 32.8461 12.3492L32.9536 13.8273C33.1507 16.3893 33.2492 18.4676 33.2492 20.0622C33.2492 25.1683 32.3086 27.7214 30.4274 27.7214C29.1732 27.7214 28.0893 27.2914 27.1756 26.4314C26.2797 25.5535 25.59 24.4248 25.1062 23.0452C24.6404 21.6478 24.4075 20.1786 24.4075 18.6378C24.4075 17.1866 24.6135 15.8429 25.0256 14.6066C25.4556 13.3704 26.1006 12.3761 26.9606 11.6236C27.8206 10.8532 28.8687 10.468 30.1049 10.468C31.0544 10.468 31.8786 10.8442 32.5773 11.5967V11.3548C32.5773 10.2978 32.7117 9.41091 32.9805 8.69425C33.2671 7.9776 33.6344 7.44907 34.0823 7.10866C34.5302 6.76825 35.005 6.59804 35.5067 6.59804ZM32.8192 11.8654C34.2525 13.5854 35.1662 16.8193 35.5604 21.5671V9.58111C35.5604 8.84654 35.4619 8.29114 35.2648 7.91489C35.0856 7.53865 34.8527 7.35053 34.566 7.35053C34.2794 7.35053 34.0017 7.51178 33.7329 7.83427C33.4642 8.15676 33.2402 8.63155 33.0611 9.25862C32.8998 9.86777 32.8192 10.5844 32.8192 11.4086V11.8654ZM32.9805 20.0622C32.9805 18.7722 32.9357 17.4643 32.8461 16.1385C32.7744 14.8127 32.7296 14.0512 32.7117 13.8542L32.6042 12.0267C31.8696 11.1667 31.0365 10.7367 30.1049 10.7367C29.0478 10.7367 28.2237 11.5161 27.6324 13.0748C27.0591 14.6156 26.7724 16.4789 26.7724 18.6647C26.7724 20.1697 26.9158 21.6119 27.2024 22.9915C27.4891 24.3531 27.9101 25.4639 28.4655 26.3239C29.0209 27.166 29.6749 27.587 30.4274 27.587C31.3769 27.587 32.0398 26.8972 32.4161 25.5177C32.7923 24.1381 32.9805 22.3196 32.9805 20.0622ZM42.9578 3.85685C42.5637 3.85685 42.2143 3.71352 41.9097 3.42685C41.6051 3.12228 41.4528 2.77291 41.4528 2.37875C41.4528 1.96667 41.6051 1.61731 41.9097 1.33064C42.2143 1.02607 42.5637 0.873779 42.9578 0.873779C43.3341 0.873779 43.6745 1.02607 43.979 1.33064C44.2836 1.63522 44.4359 1.98459 44.4359 2.37875C44.4359 2.77291 44.2836 3.12228 43.979 3.42685C43.6924 3.71352 43.352 3.85685 42.9578 3.85685ZM44.3553 27.3183H41.6678V6.97429H44.3553V27.3183ZM55.976 6.46367C57.1405 6.46367 58.0364 6.80408 58.6634 7.4849C59.2905 8.16572 59.604 8.98092 59.604 9.93048C59.604 10.5396 59.4697 11.1219 59.2009 11.6773C58.9322 12.2148 58.5291 12.6538 57.9916 12.9942C57.472 13.3346 56.8539 13.5048 56.1372 13.5048C55.0802 13.5048 54.1396 13.1823 53.3154 12.5373C52.5092 11.8744 51.9627 10.9696 51.6761 9.82298C51.0132 10.88 50.4757 12.2775 50.0636 14.0154C49.6515 15.7354 49.3917 17.7957 49.2842 20.1965V27.3183H46.5968V6.97429H49.2842V17.2941C49.5888 13.8362 50.3413 11.1488 51.5417 9.23174C51.4879 8.8555 51.4611 8.46134 51.4611 8.04927C51.4611 6.72346 51.7656 5.33494 52.3748 3.88372H52.6973C52.0702 5.28119 51.7567 6.62492 51.7567 7.91489C51.7567 8.34489 51.7746 8.65842 51.8104 8.8555C52.9392 7.26095 54.3277 6.46367 55.976 6.46367ZM55.1966 12.8598C55.4116 12.8956 55.555 12.9135 55.6266 12.9135C56.2716 12.9135 56.7733 12.6538 57.1316 12.1342C57.5078 11.5967 57.696 10.9696 57.696 10.253C57.696 9.50049 57.481 8.84654 57.051 8.29114C56.621 7.73573 55.9939 7.45803 55.1698 7.45803C54.5785 7.45803 54.0052 7.62823 53.4498 7.96864C52.8944 8.29114 52.3838 8.78384 51.9179 9.44674C52.1329 10.3784 52.536 11.1398 53.1273 11.7311C53.7364 12.3223 54.4262 12.6986 55.1966 12.8598ZM65.6621 27.8558C64.1571 27.8558 62.5446 27.6229 60.8247 27.157V2.80874H68.9408C69.962 2.80874 70.8488 3.0327 71.6013 3.4806C72.3538 3.9106 72.9182 4.48392 73.2944 5.20057C73.6886 5.89931 73.8857 6.63388 73.8857 7.40428C73.8857 8.1926 73.6796 8.90925 73.2675 9.55424C72.8555 10.1992 72.2553 10.674 71.467 10.9786V11.1667C72.7928 11.5429 73.8319 12.394 74.5844 13.7198C75.3369 15.0277 75.7131 16.5237 75.7131 18.2078C75.7131 20.2682 75.2831 22.024 74.4231 23.4752C73.5811 24.9264 72.3986 26.0193 70.8757 26.7539C69.3528 27.4885 67.6149 27.8558 65.6621 27.8558ZM67.1939 10.9248C68.5914 10.9248 69.6395 10.5755 70.3382 9.87673C71.0549 9.17799 71.4132 8.31801 71.4132 7.29678C71.4132 6.61596 71.252 5.96201 70.9295 5.33494C70.6249 4.68996 70.1859 4.17038 69.6126 3.77622C69.0393 3.36415 68.3943 3.15811 67.6777 3.15811H63.5121V10.9248H67.1939ZM63.5121 27.4526C63.9958 27.5064 64.4706 27.5333 64.9365 27.5333C67.3552 27.5333 69.2632 26.8256 70.6607 25.4102C72.0761 23.9769 72.7838 21.8896 72.7838 19.1484C72.7838 16.8551 72.3538 14.9739 71.4938 13.5048C70.6518 12.0177 69.0393 11.2742 66.6564 11.2742H63.5121V27.4526ZM84.8893 27.6139C83.5276 27.6139 82.2287 27.1749 80.9925 26.297C79.7563 25.4191 78.753 24.174 77.9825 22.5615C77.2301 20.9311 76.8538 19.0499 76.8538 16.9178C76.8538 15.1083 77.239 13.4152 78.0094 11.8386C78.7977 10.244 79.8638 8.97196 81.2075 8.02239C82.5512 7.05491 84.0203 6.57117 85.6149 6.57117C86.9765 6.57117 88.2755 7.01012 89.5117 7.88802C90.7479 8.76592 91.7423 10.0201 92.4948 11.6504C93.2652 13.2629 93.6504 15.1352 93.6504 17.2672C93.6504 19.0768 93.2562 20.7788 92.4679 22.3734C91.6975 23.95 90.6404 25.2221 89.2967 26.1895C87.953 27.1391 86.4838 27.6139 84.8893 27.6139ZM85.5074 27.3183C86.654 27.3183 87.6394 26.8345 88.4636 25.8671C89.2878 24.8996 89.9059 23.6275 90.3179 22.0509C90.7479 20.4563 90.9629 18.7543 90.9629 16.9447C90.9629 15.0277 90.6852 13.3077 90.1298 11.7848C89.5744 10.244 88.8398 9.04362 87.9261 8.18364C87.0124 7.30574 86.0359 6.86679 84.9968 6.86679C83.8143 6.86679 82.811 7.35053 81.9868 8.31801C81.1627 9.28549 80.5446 10.5576 80.1325 12.1342C79.7383 13.7108 79.5413 15.4129 79.5413 17.2403C79.5413 19.1395 79.819 20.8594 80.3744 22.4002C80.9298 23.941 81.6644 25.1504 82.5781 26.0283C83.5097 26.8883 84.4862 27.3183 85.5074 27.3183ZM107.069 6.97429H107.391L101.452 16.7029L106.8 27.3183H104.113L99.8126 18.7184L94.5721 27.3183H94.2496L99.6514 18.4497L93.9002 6.97429H96.5877L101.318 16.4072L107.069 6.97429ZM43.9805 32.3905C44.0908 32.4679 44.1533 32.576 44.1682 32.7149H44.736C44.7328 32.5315 44.6814 32.3692 44.5817 32.2282C44.4821 32.0861 44.3447 31.9753 44.1698 31.8958C43.9959 31.8152 43.7933 31.7749 43.5622 31.7749C43.3342 31.7749 43.1301 31.8152 42.9498 31.8958C42.7695 31.9753 42.6269 32.0872 42.5219 32.2314C42.418 32.3756 42.3661 32.5437 42.3661 32.7356C42.3661 32.9689 42.4435 33.1561 42.5983 33.2971C42.7542 33.4371 42.9662 33.5415 43.2345 33.6104L43.6051 33.7059C43.7218 33.7356 43.8236 33.7695 43.9105 33.8077C43.9985 33.8448 44.0669 33.8914 44.1157 33.9476C44.1645 34.0028 44.1894 34.0728 44.1905 34.1576C44.1894 34.2509 44.1613 34.3326 44.1062 34.4025C44.051 34.4715 43.9747 34.5255 43.8771 34.5648C43.7806 34.603 43.6682 34.622 43.5399 34.622C43.4169 34.622 43.3056 34.6035 43.2059 34.5664C43.1073 34.5293 43.0272 34.4731 42.9657 34.3978C42.9042 34.3225 42.8692 34.2281 42.8607 34.1146H42.2802C42.2886 34.331 42.3448 34.5144 42.4488 34.665C42.5537 34.8156 42.699 34.9301 42.8846 35.0086C43.0712 35.087 43.2912 35.1263 43.5447 35.1263C43.8055 35.1263 44.0277 35.086 44.2111 35.0054C44.3956 34.9237 44.5367 34.8108 44.6342 34.6666C44.7318 34.5213 44.7806 34.3532 44.7806 34.1624C44.7806 34.0213 44.7541 33.8983 44.701 33.7934C44.648 33.6884 44.5759 33.5988 44.4847 33.5245C44.3946 33.4503 44.2923 33.3888 44.1777 33.34C44.0643 33.2913 43.946 33.2526 43.823 33.2239L43.5176 33.1476C43.4508 33.1317 43.3846 33.112 43.3188 33.0887C43.2531 33.0654 43.1932 33.0368 43.1391 33.0028C43.085 32.9678 43.0421 32.9254 43.0102 32.8756C42.9795 32.8257 42.9641 32.7669 42.9641 32.699C42.9652 32.6174 42.989 32.5447 43.0357 32.4811C43.0823 32.4175 43.1497 32.3671 43.2377 32.33C43.3257 32.2929 43.4312 32.2743 43.5542 32.2743C43.7292 32.2743 43.8713 32.313 43.9805 32.3905ZM45.7906 31.8194V32.3141H46.7974V35.077H47.3827V32.3141H48.3896V31.8194H45.7906ZM49.9615 31.8194H49.295L50.48 33.8617V35.077H51.0685V33.8617L52.2535 31.8194H51.587L50.7901 33.2605H50.7583L49.9615 31.8194ZM53.2985 31.8194V35.077H55.3233V34.5823H53.8886V31.8194H53.2985ZM56.3194 31.8194V32.3141H56.8936V34.5823H56.3194V35.077H56.8936H57.4837H58.0579V34.5823H57.4837V32.3141H58.0579V31.8194H57.4837H56.8936H56.3194ZM61.8617 35.077V31.8194H61.2748V34.0399H61.2462L59.7129 31.8194H59.1848V35.077H59.7749V32.8581H59.8019L61.3369 35.077H61.8617ZM65.2043 32.629C65.251 32.6969 65.2876 32.7738 65.3141 32.8597H65.9153C65.8909 32.6996 65.8395 32.5532 65.761 32.4207C65.6826 32.2881 65.5824 32.1736 65.4604 32.0771C65.3395 31.9806 65.2012 31.9064 65.0453 31.8544C64.8894 31.8014 64.7213 31.7749 64.5411 31.7749C64.3279 31.7749 64.1307 31.8131 63.9494 31.8894C63.768 31.9647 63.61 32.075 63.4754 32.2203C63.3407 32.3645 63.2357 32.54 63.1604 32.7467C63.0862 32.9535 63.0491 33.1884 63.0491 33.4514C63.0491 33.7949 63.1122 34.0919 63.2384 34.3421C63.3656 34.5913 63.5422 34.7838 63.768 34.9195C63.995 35.0542 64.2585 35.1215 64.5586 35.1215C64.8279 35.1215 65.0665 35.0669 65.2743 34.9577C65.4822 34.8474 65.6455 34.6904 65.7642 34.4868C65.883 34.2832 65.9424 34.042 65.9424 33.7631V33.3718H64.6206V33.8331H65.3712C65.3684 33.9825 65.3356 34.1134 65.2727 34.226C65.207 34.3426 65.1131 34.4328 64.9912 34.4964C64.8703 34.56 64.7272 34.5918 64.5617 34.5918C64.3794 34.5918 64.2192 34.5478 64.0814 34.4598C63.9435 34.3707 63.8359 34.2408 63.7585 34.0701C63.6811 33.8994 63.6424 33.691 63.6424 33.445C63.6424 33.2011 63.6811 32.9943 63.7585 32.8247C63.837 32.654 63.9446 32.5246 64.0814 32.4366C64.2182 32.3486 64.3741 32.3046 64.549 32.3046C64.6466 32.3046 64.7367 32.3173 64.8194 32.3427C64.9021 32.3671 64.9753 32.4037 65.0389 32.4525C65.1036 32.5013 65.1587 32.5601 65.2043 32.629ZM69.2519 35.0038C69.4121 35.0844 69.6035 35.1247 69.8261 35.1247C69.9735 35.1247 70.1236 35.1003 70.2763 35.0515C70.4222 35.0052 70.5505 34.9341 70.661 34.8381L70.8696 35.077H71.4931L71.0156 34.5175C71.0286 34.5005 71.0414 34.4829 71.0541 34.4646C71.1262 34.3596 71.185 34.2313 71.2306 34.0797C71.2762 33.927 71.299 33.7478 71.299 33.542H70.8044C70.8044 33.7085 70.7768 33.8602 70.7216 33.9969C70.7056 34.0365 70.6879 34.0745 70.6685 34.1108L70.0725 33.4124L70.2779 33.2621C70.4136 33.1635 70.5196 33.0537 70.596 32.9328C70.6723 32.8109 70.7105 32.673 70.7105 32.5193C70.7105 32.3867 70.6771 32.2643 70.6103 32.1519C70.5435 32.0395 70.4486 31.9493 70.3256 31.8815C70.2026 31.8136 70.0552 31.7797 69.8834 31.7797C69.7116 31.7797 69.5616 31.8147 69.4333 31.8847C69.306 31.9546 69.2069 32.0506 69.1358 32.1725C69.0648 32.2934 69.0293 32.4307 69.0293 32.5845C69.0293 32.7202 69.0568 32.8464 69.112 32.9631C69.1682 33.0786 69.2397 33.19 69.3267 33.2971C69.3393 33.3124 69.3519 33.3278 69.3647 33.3432C69.2481 33.4233 69.1448 33.5039 69.0547 33.585C68.9603 33.6709 68.8861 33.7642 68.832 33.8649C68.779 33.9657 68.7525 34.0812 68.7525 34.2117C68.7525 34.3845 68.7954 34.5399 68.8813 34.6777C68.9683 34.8145 69.0918 34.9232 69.2519 35.0038ZM69.6721 33.7054L69.6194 33.744C69.5112 33.8225 69.4338 33.902 69.3871 33.9826C69.3405 34.0622 69.3172 34.13 69.3172 34.1862C69.3172 34.2721 69.3389 34.3501 69.3824 34.42C69.4258 34.49 69.4868 34.5462 69.5653 34.5886C69.6448 34.63 69.7376 34.6507 69.8436 34.6507C69.9603 34.6507 70.0753 34.6247 70.1888 34.5727C70.2442 34.5469 70.2971 34.5157 70.3477 34.4792L69.6721 33.7054ZM69.7786 33.0615L69.9629 32.936C70.0478 32.8809 70.1119 32.8226 70.1554 32.7611C70.1999 32.6996 70.2222 32.6275 70.2222 32.5447C70.2222 32.4748 70.1925 32.4085 70.1331 32.3459C70.0748 32.2834 69.9942 32.2521 69.8914 32.2521C69.8224 32.2521 69.7615 32.2685 69.7084 32.3014C69.6565 32.3332 69.6157 32.3751 69.586 32.427C69.5573 32.479 69.543 32.5341 69.543 32.5925C69.543 32.6635 69.5626 32.7356 69.6019 32.8088C69.6422 32.8819 69.6941 32.9578 69.7578 33.0362C69.7646 33.0446 69.7716 33.053 69.7786 33.0615ZM74.0702 31.8194V32.3141H75.077V35.077H75.6624V32.3141H76.6692V31.8194H74.0702ZM77.7973 31.8194V35.077H78.3874V33.884H78.9879L79.6281 35.077H80.2866L79.582 33.7873C79.6032 33.7788 79.6238 33.7696 79.644 33.7599C79.8158 33.6762 79.9456 33.5579 80.0337 33.4052C80.1227 33.2515 80.1673 33.0702 80.1673 32.8613C80.1673 32.6534 80.1233 32.4716 80.0353 32.3157C79.9483 32.1588 79.8195 32.0368 79.6487 31.9499C79.4791 31.8629 79.2691 31.8194 79.0189 31.8194H77.7973ZM78.3874 33.3941H78.9314C79.0777 33.3941 79.1975 33.374 79.2909 33.3337C79.3842 33.2923 79.4531 33.2324 79.4976 33.1539C79.5432 33.0744 79.566 32.9769 79.566 32.8613C79.566 32.7457 79.5432 32.6471 79.4976 32.5654C79.452 32.4827 79.3826 32.4201 79.2893 32.3777C79.196 32.3343 79.0756 32.3125 78.9282 32.3125H78.3874V33.3941ZM81.3375 31.8194V35.077H83.4689V34.5823H81.9276V33.6931H83.3464V33.1985H81.9276V32.3141H83.4562V31.8194H81.3375ZM84.4737 35.077H85.1036L85.373 34.2737H86.5977L86.8676 35.077H87.4974L86.349 31.8194H85.6206L84.4737 35.077ZM86.4384 33.7997L85.9975 32.4875H85.9721L85.532 33.7997H86.4384ZM88.0167 31.8194V32.3141H89.0236V35.077H89.6089V32.3141H90.6158V31.8194H88.0167ZM92.466 31.8194H91.7439V35.077H92.3101V32.8342H92.3403L93.2406 35.0674H93.6637L94.564 32.839H94.5942V35.077H95.1604V31.8194H94.4383L93.4712 34.1799H93.4331L92.466 31.8194ZM96.4301 31.8194V35.077H98.5615V34.5823H97.0202V33.6931H98.439V33.1985H97.0202V32.3141H98.5488V31.8194H96.4301ZM102.455 35.077V31.8194H101.868V34.0399H101.839L100.306 31.8194H99.7779V35.077H100.368V32.8581H100.395L101.93 35.077H102.455ZM103.582 31.8194V32.3141H104.589V35.077H105.174V32.3141H106.181V31.8194H103.582Z" fill="#A16A18"/>
<path fill-rule="evenodd" clip-rule="evenodd" d="M11.4485 24.6577C12.3623 24.9623 13.2491 25.3475 14.1091 25.8133C14.9691 26.2612 15.9903 26.8614 17.1728 27.6139C18.8748 28.653 20.3709 29.4951 21.6608 30.1401C22.9508 30.7851 24.4916 31.3315 26.2832 31.7794C28.0928 32.2453 30.1263 32.4782 32.3838 32.4782C34.1037 32.4782 35.9401 32.3348 37.893 32.0482V34.7356C36.2089 34.9685 34.6054 35.085 33.0825 35.085C30.61 35.085 28.4242 34.7804 26.5251 34.1713C24.626 33.58 23.0314 32.8634 21.7415 32.0213C20.4515 31.1972 18.9734 30.1043 17.3072 28.7426C16.053 27.7214 14.987 26.9152 14.1091 26.3239C13.2491 25.7148 12.3354 25.231 11.3679 24.8727C11.0275 25.8939 10.4631 26.7987 9.67482 27.587C8.90441 28.3933 7.98172 29.0203 6.90674 29.4682C5.83176 29.9161 4.70303 30.1401 3.52056 30.1401C2.356 30.1401 1.4781 29.952 0.886858 29.5757C0.295619 29.1995 0 28.7068 0 28.0976C0 27.4706 0.304578 26.8435 0.913733 26.2164C1.52289 25.5714 2.37391 25.0429 3.46681 24.6308C4.57762 24.2008 5.84968 23.9858 7.28299 23.9858C7.91006 23.9858 8.46546 24.0217 8.9492 24.0933C9.00295 23.6633 9.02983 23.2334 9.02983 22.8034V2.80874H11.7173V14.956H20.1021V2.80874H22.7896V27.3183H20.1021V15.4666H11.7173V22.8034C11.7173 23.4842 11.6277 24.1023 11.4485 24.6577ZM3.17119 29.7907C4.85532 29.7907 6.18113 29.298 7.14861 28.3126C8.11609 27.3272 8.70733 26.0014 8.92233 24.3352C8.49234 24.2994 8.15193 24.2815 7.9011 24.2815C6.37821 24.2815 5.03449 24.4875 3.86993 24.8996C2.70536 25.2937 1.80955 25.7954 1.18248 26.4045C0.555406 26.9958 0.24187 27.5691 0.24187 28.1245C0.24187 28.6262 0.483741 29.0293 0.967481 29.3339C1.46914 29.6384 2.20371 29.7907 3.17119 29.7907ZM35.5067 6.59804C35.9725 6.59804 36.4114 6.74137 36.8235 7.02804C37.2356 7.29678 37.567 7.6999 37.8179 8.23739C38.0866 8.75696 38.221 9.35716 38.221 10.038V27.3451H35.5604C35.5604 23.529 35.3185 20.3757 34.8348 17.8853C34.369 15.395 33.7061 13.5496 32.8461 12.3492L32.9536 13.8273C33.1507 16.3893 33.2492 18.4676 33.2492 20.0622C33.2492 25.1683 32.3086 27.7214 30.4274 27.7214C29.1732 27.7214 28.0893 27.2914 27.1756 26.4314C26.2797 25.5535 25.59 24.4248 25.1062 23.0452C24.6404 21.6478 24.4075 20.1786 24.4075 18.6378C24.4075 17.1866 24.6135 15.8429 25.0256 14.6066C25.4556 13.3704 26.1006 12.3761 26.9606 11.6236C27.8206 10.8532 28.8687 10.468 30.1049 10.468C31.0544 10.468 31.8786 10.8442 32.5773 11.5967V11.3548C32.5773 10.2978 32.7117 9.41091 32.9805 8.69425C33.2671 7.9776 33.6344 7.44907 34.0823 7.10866C34.5302 6.76825 35.005 6.59804 35.5067 6.59804ZM32.8192 11.8654C34.2525 13.5854 35.1662 16.8193 35.5604 21.5671V9.58111C35.5604 8.84654 35.4619 8.29114 35.2648 7.91489C35.0856 7.53865 34.8527 7.35053 34.566 7.35053C34.2794 7.35053 34.0017 7.51178 33.7329 7.83427C33.4642 8.15676 33.2402 8.63155 33.0611 9.25862C32.8998 9.86777 32.8192 10.5844 32.8192 11.4086V11.8654ZM32.9805 20.0622C32.9805 18.7722 32.9357 17.4643 32.8461 16.1385C32.7744 14.8127 32.7296 14.0512 32.7117 13.8542L32.6042 12.0267C31.8696 11.1667 31.0365 10.7367 30.1049 10.7367C29.0478 10.7367 28.2237 11.5161 27.6324 13.0748C27.0591 14.6156 26.7724 16.4789 26.7724 18.6647C26.7724 20.1697 26.9158 21.6119 27.2024 22.9915C27.4891 24.3531 27.9101 25.4639 28.4655 26.3239C29.0209 27.166 29.6749 27.587 30.4274 27.587C31.3769 27.587 32.0398 26.8972 32.4161 25.5177C32.7923 24.1381 32.9805 22.3196 32.9805 20.0622ZM42.9578 3.85685C42.5637 3.85685 42.2143 3.71352 41.9097 3.42685C41.6051 3.12228 41.4528 2.77291 41.4528 2.37875C41.4528 1.96667 41.6051 1.61731 41.9097 1.33064C42.2143 1.02607 42.5637 0.873779 42.9578 0.873779C43.3341 0.873779 43.6745 1.02607 43.979 1.33064C44.2836 1.63522 44.4359 1.98459 44.4359 2.37875C44.4359 2.77291 44.2836 3.12228 43.979 3.42685C43.6924 3.71352 43.352 3.85685 42.9578 3.85685ZM44.3553 27.3183H41.6678V6.97429H44.3553V27.3183ZM55.976 6.46367C57.1405 6.46367 58.0364 6.80408 58.6634 7.4849C59.2905 8.16572 59.604 8.98092 59.604 9.93048C59.604 10.5396 59.4697 11.1219 59.2009 11.6773C58.9322 12.2148 58.5291 12.6538 57.9916 12.9942C57.472 13.3346 56.8539 13.5048 56.1372 13.5048C55.0802 13.5048 54.1396 13.1823 53.3154 12.5373C52.5092 11.8744 51.9627 10.9696 51.6761 9.82298C51.0132 10.88 50.4757 12.2775 50.0636 14.0154C49.6515 15.7354 49.3917 17.7957 49.2842 20.1965V27.3183H46.5968V6.97429H49.2842V17.2941C49.5888 13.8362 50.3413 11.1488 51.5417 9.23174C51.4879 8.8555 51.4611 8.46134 51.4611 8.04927C51.4611 6.72346 51.7656 5.33494 52.3748 3.88372H52.6973C52.0702 5.28119 51.7567 6.62492 51.7567 7.91489C51.7567 8.34489 51.7746 8.65842 51.8104 8.8555C52.9392 7.26095 54.3277 6.46367 55.976 6.46367ZM55.1966 12.8598C55.4116 12.8956 55.555 12.9135 55.6266 12.9135C56.2716 12.9135 56.7733 12.6538 57.1316 12.1342C57.5078 11.5967 57.696 10.9696 57.696 10.253C57.696 9.50049 57.481 8.84654 57.051 8.29114C56.621 7.73573 55.9939 7.45803 55.1698 7.45803C54.5785 7.45803 54.0052 7.62823 53.4498 7.96864C52.8944 8.29114 52.3838 8.78384 51.9179 9.44674C52.1329 10.3784 52.536 11.1398 53.1273 11.7311C53.7364 12.3223 54.4262 12.6986 55.1966 12.8598ZM65.6621 27.8558C64.1571 27.8558 62.5446 27.6229 60.8247 27.157V2.80874H68.9408C69.962 2.80874 70.8488 3.0327 71.6013 3.4806C72.3538 3.9106 72.9182 4.48392 73.2944 5.20057C73.6886 5.89931 73.8857 6.63388 73.8857 7.40428C73.8857 8.1926 73.6796 8.90925 73.2675 9.55424C72.8555 10.1992 72.2553 10.674 71.467 10.9786V11.1667C72.7928 11.5429 73.8319 12.394 74.5844 13.7198C75.3369 15.0277 75.7131 16.5237 75.7131 18.2078C75.7131 20.2682 75.2831 22.024 74.4231 23.4752C73.5811 24.9264 72.3986 26.0193 70.8757 26.7539C69.3528 27.4885 67.6149 27.8558 65.6621 27.8558ZM67.1939 10.9248C68.5914 10.9248 69.6395 10.5755 70.3382 9.87673C71.0549 9.17799 71.4132 8.31801 71.4132 7.29678C71.4132 6.61596 71.252 5.96201 70.9295 5.33494C70.6249 4.68996 70.1859 4.17038 69.6126 3.77622C69.0393 3.36415 68.3943 3.15811 67.6777 3.15811H63.5121V10.9248H67.1939ZM63.5121 27.4526C63.9958 27.5064 64.4706 27.5333 64.9365 27.5333C67.3552 27.5333 69.2632 26.8256 70.6607 25.4102C72.0761 23.9769 72.7838 21.8896 72.7838 19.1484C72.7838 16.8551 72.3538 14.9739 71.4938 13.5048C70.6518 12.0177 69.0393 11.2742 66.6564 11.2742H63.5121V27.4526ZM84.8893 27.6139C83.5276 27.6139 82.2287 27.1749 80.9925 26.297C79.7563 25.4191 78.753 24.174 77.9825 22.5615C77.2301 20.9311 76.8538 19.0499 76.8538 16.9178C76.8538 15.1083 77.239 13.4152 78.0094 11.8386C78.7977 10.244 79.8638 8.97196 81.2075 8.02239C82.5512 7.05491 84.0203 6.57117 85.6149 6.57117C86.9765 6.57117 88.2755 7.01012 89.5117 7.88802C90.7479 8.76592 91.7423 10.0201 92.4948 11.6504C93.2652 13.2629 93.6504 15.1352 93.6504 17.2672C93.6504 19.0768 93.2562 20.7788 92.4679 22.3734C91.6975 23.95 90.6404 25.2221 89.2967 26.1895C87.953 27.1391 86.4838 27.6139 84.8893 27.6139ZM85.5074 27.3183C86.654 27.3183 87.6394 26.8345 88.4636 25.8671C89.2878 24.8996 89.9059 23.6275 90.3179 22.0509C90.7479 20.4563 90.9629 18.7543 90.9629 16.9447C90.9629 15.0277 90.6852 13.3077 90.1298 11.7848C89.5744 10.244 88.8398 9.04362 87.9261 8.18364C87.0124 7.30574 86.0359 6.86679 84.9968 6.86679C83.8143 6.86679 82.811 7.35053 81.9868 8.31801C81.1627 9.28549 80.5446 10.5576 80.1325 12.1342C79.7383 13.7108 79.5413 15.4129 79.5413 17.2403C79.5413 19.1395 79.819 20.8594 80.3744 22.4002C80.9298 23.941 81.6644 25.1504 82.5781 26.0283C83.5097 26.8883 84.4862 27.3183 85.5074 27.3183ZM107.069 6.97429H107.391L101.452 16.7029L106.8 27.3183H104.113L99.8126 18.7184L94.5721 27.3183H94.2496L99.6514 18.4497L93.9002 6.97429H96.5877L101.318 16.4072L107.069 6.97429ZM43.9805 32.3905C44.0908 32.4679 44.1533 32.576 44.1682 32.7149H44.736C44.7328 32.5315 44.6814 32.3692 44.5817 32.2282C44.4821 32.0861 44.3447 31.9753 44.1698 31.8958C43.9959 31.8152 43.7933 31.7749 43.5622 31.7749C43.3342 31.7749 43.1301 31.8152 42.9498 31.8958C42.7695 31.9753 42.6269 32.0872 42.5219 32.2314C42.418 32.3756 42.3661 32.5437 42.3661 32.7356C42.3661 32.9689 42.4435 33.1561 42.5983 33.2971C42.7542 33.4371 42.9662 33.5415 43.2345 33.6104L43.6051 33.7059C43.7218 33.7356 43.8236 33.7695 43.9105 33.8077C43.9985 33.8448 44.0669 33.8914 44.1157 33.9476C44.1645 34.0028 44.1894 34.0728 44.1905 34.1576C44.1894 34.2509 44.1613 34.3326 44.1062 34.4025C44.051 34.4715 43.9747 34.5255 43.8771 34.5648C43.7806 34.603 43.6682 34.622 43.5399 34.622C43.4169 34.622 43.3056 34.6035 43.2059 34.5664C43.1073 34.5293 43.0272 34.4731 42.9657 34.3978C42.9042 34.3225 42.8692 34.2281 42.8607 34.1146H42.2802C42.2886 34.331 42.3448 34.5144 42.4488 34.665C42.5537 34.8156 42.699 34.9301 42.8846 35.0086C43.0712 35.087 43.2912 35.1263 43.5447 35.1263C43.8055 35.1263 44.0277 35.086 44.2111 35.0054C44.3956 34.9237 44.5367 34.8108 44.6342 34.6666C44.7318 34.5213 44.7806 34.3532 44.7806 34.1624C44.7806 34.0213 44.7541 33.8983 44.701 33.7934C44.648 33.6884 44.5759 33.5988 44.4847 33.5245C44.3946 33.4503 44.2923 33.3888 44.1777 33.34C44.0643 33.2913 43.946 33.2526 43.823 33.2239L43.5176 33.1476C43.4508 33.1317 43.3846 33.112 43.3188 33.0887C43.2531 33.0654 43.1932 33.0368 43.1391 33.0028C43.085 32.9678 43.0421 32.9254 43.0102 32.8756C42.9795 32.8257 42.9641 32.7669 42.9641 32.699C42.9652 32.6174 42.989 32.5447 43.0357 32.4811C43.0823 32.4175 43.1497 32.3671 43.2377 32.33C43.3257 32.2929 43.4312 32.2743 43.5542 32.2743C43.7292 32.2743 43.8713 32.313 43.9805 32.3905ZM45.7906 31.8194V32.3141H46.7974V35.077H47.3827V32.3141H48.3896V31.8194H45.7906ZM49.9615 31.8194H49.295L50.48 33.8617V35.077H51.0685V33.8617L52.2535 31.8194H51.587L50.7901 33.2605H50.7583L49.9615 31.8194ZM53.2985 31.8194V35.077H55.3233V34.5823H53.8886V31.8194H53.2985ZM56.3194 31.8194V32.3141H56.8936V34.5823H56.3194V35.077H56.8936H57.4837H58.0579V34.5823H57.4837V32.3141H58.0579V31.8194H57.4837H56.8936H56.3194ZM61.8617 35.077V31.8194H61.2748V34.0399H61.2462L59.7129 31.8194H59.1848V35.077H59.7749V32.8581H59.8019L61.3369 35.077H61.8617ZM65.2043 32.629C65.251 32.6969 65.2876 32.7738 65.3141 32.8597H65.9153C65.8909 32.6996 65.8395 32.5532 65.761 32.4207C65.6826 32.2881 65.5824 32.1736 65.4604 32.0771C65.3395 31.9806 65.2012 31.9064 65.0453 31.8544C64.8894 31.8014 64.7213 31.7749 64.5411 31.7749C64.3279 31.7749 64.1307 31.8131 63.9494 31.8894C63.768 31.9647 63.61 32.075 63.4754 32.2203C63.3407 32.3645 63.2357 32.54 63.1604 32.7467C63.0862 32.9535 63.0491 33.1884 63.0491 33.4514C63.0491 33.7949 63.1122 34.0919 63.2384 34.3421C63.3656 34.5913 63.5422 34.7838 63.768 34.9195C63.995 35.0542 64.2585 35.1215 64.5586 35.1215C64.8279 35.1215 65.0665 35.0669 65.2743 34.9577C65.4822 34.8474 65.6455 34.6904 65.7642 34.4868C65.883 34.2832 65.9424 34.042 65.9424 33.7631V33.3718H64.6206V33.8331H65.3712C65.3684 33.9825 65.3356 34.1134 65.2727 34.226C65.207 34.3426 65.1131 34.4328 64.9912 34.4964C64.8703 34.56 64.7272 34.5918 64.5617 34.5918C64.3794 34.5918 64.2192 34.5478 64.0814 34.4598C63.9435 34.3707 63.8359 34.2408 63.7585 34.0701C63.6811 33.8994 63.6424 33.691 63.6424 33.445C63.6424 33.2011 63.6811 32.9943 63.7585 32.8247C63.837 32.654 63.9446 32.5246 64.0814 32.4366C64.2182 32.3486 64.3741 32.3046 64.549 32.3046C64.6466 32.3046 64.7367 32.3173 64.8194 32.3427C64.9021 32.3671 64.9753 32.4037 65.0389 32.4525C65.1036 32.5013 65.1587 32.5601 65.2043 32.629ZM69.2519 35.0038C69.4121 35.0844 69.6035 35.1247 69.8261 35.1247C69.9735 35.1247 70.1236 35.1003 70.2763 35.0515C70.4222 35.0052 70.5505 34.9341 70.661 34.8381L70.8696 35.077H71.4931L71.0156 34.5175C71.0286 34.5005 71.0414 34.4829 71.0541 34.4646C71.1262 34.3596 71.185 34.2313 71.2306 34.0797C71.2762 33.927 71.299 33.7478 71.299 33.542H70.8044C70.8044 33.7085 70.7768 33.8602 70.7216 33.9969C70.7056 34.0365 70.6879 34.0745 70.6685 34.1108L70.0725 33.4124L70.2779 33.2621C70.4136 33.1635 70.5196 33.0537 70.596 32.9328C70.6723 32.8109 70.7105 32.673 70.7105 32.5193C70.7105 32.3867 70.6771 32.2643 70.6103 32.1519C70.5435 32.0395 70.4486 31.9493 70.3256 31.8815C70.2026 31.8136 70.0552 31.7797 69.8834 31.7797C69.7116 31.7797 69.5616 31.8147 69.4333 31.8847C69.306 31.9546 69.2069 32.0506 69.1358 32.1725C69.0648 32.2934 69.0293 32.4307 69.0293 32.5845C69.0293 32.7202 69.0568 32.8464 69.112 32.9631C69.1682 33.0786 69.2397 33.19 69.3267 33.2971C69.3393 33.3124 69.3519 33.3278 69.3647 33.3432C69.2481 33.4233 69.1448 33.5039 69.0547 33.585C68.9603 33.6709 68.8861 33.7642 68.832 33.8649C68.779 33.9657 68.7525 34.0812 68.7525 34.2117C68.7525 34.3845 68.7954 34.5399 68.8813 34.6777C68.9683 34.8145 69.0918 34.9232 69.2519 35.0038ZM69.6721 33.7054L69.6194 33.744C69.5112 33.8225 69.4338 33.902 69.3871 33.9826C69.3405 34.0622 69.3172 34.13 69.3172 34.1862C69.3172 34.2721 69.3389 34.3501 69.3824 34.42C69.4258 34.49 69.4868 34.5462 69.5653 34.5886C69.6448 34.63 69.7376 34.6507 69.8436 34.6507C69.9603 34.6507 70.0753 34.6247 70.1888 34.5727C70.2442 34.5469 70.2971 34.5157 70.3477 34.4792L69.6721 33.7054ZM69.7786 33.0615L69.9629 32.936C70.0478 32.8809 70.1119 32.8226 70.1554 32.7611C70.1999 32.6996 70.2222 32.6275 70.2222 32.5447C70.2222 32.4748 70.1925 32.4085 70.1331 32.3459C70.0748 32.2834 69.9942 32.2521 69.8914 32.2521C69.8224 32.2521 69.7615 32.2685 69.7084 32.3014C69.6565 32.3332 69.6157 32.3751 69.586 32.427C69.5573 32.479 69.543 32.5341 69.543 32.5925C69.543 32.6635 69.5626 32.7356 69.6019 32.8088C69.6422 32.8819 69.6941 32.9578 69.7578 33.0362C69.7646 33.0446 69.7716 33.053 69.7786 33.0615ZM74.0702 31.8194V32.3141H75.077V35.077H75.6624V32.3141H76.6692V31.8194H74.0702ZM77.7973 31.8194V35.077H78.3874V33.884H78.9879L79.6281 35.077H80.2866L79.582 33.7873C79.6032 33.7788 79.6238 33.7696 79.644 33.7599C79.8158 33.6762 79.9456 33.5579 80.0337 33.4052C80.1227 33.2515 80.1673 33.0702 80.1673 32.8613C80.1673 32.6534 80.1233 32.4716 80.0353 32.3157C79.9483 32.1588 79.8195 32.0368 79.6487 31.9499C79.4791 31.8629 79.2691 31.8194 79.0189 31.8194H77.7973ZM78.3874 33.3941H78.9314C79.0777 33.3941 79.1975 33.374 79.2909 33.3337C79.3842 33.2923 79.4531 33.2324 79.4976 33.1539C79.5432 33.0744 79.566 32.9769 79.566 32.8613C79.566 32.7457 79.5432 32.6471 79.4976 32.5654C79.452 32.4827 79.3826 32.4201 79.2893 32.3777C79.196 32.3343 79.0756 32.3125 78.9282 32.3125H78.3874V33.3941ZM81.3375 31.8194V35.077H83.4689V34.5823H81.9276V33.6931H83.3464V33.1985H81.9276V32.3141H83.4562V31.8194H81.3375ZM84.4737 35.077H85.1036L85.373 34.2737H86.5977L86.8676 35.077H87.4974L86.349 31.8194H85.6206L84.4737 35.077ZM86.4384 33.7997L85.9975 32.4875H85.9721L85.532 33.7997H86.4384ZM88.0167 31.8194V32.3141H89.0236V35.077H89.6089V32.3141H90.6158V31.8194H88.0167ZM92.466 31.8194H91.7439V35.077H92.3101V32.8342H92.3403L93.2406 35.0674H93.6637L94.564 32.839H94.5942V35.077H95.1604V31.8194H94.4383L93.4712 34.1799H93.4331L92.466 31.8194ZM96.4301 31.8194V35.077H98.5615V34.5823H97.0202V33.6931H98.439V33.1985H97.0202V32.3141H98.5488V31.8194H96.4301ZM102.455 35.077V31.8194H101.868V34.0399H101.839L100.306 31.8194H99.7779V35.077H100.368V32.8581H100.395L101.93 35.077H102.455ZM103.582 31.8194V32.3141H104.589V35.077H105.174V32.3141H106.181V31.8194H103.582Z" fill="url(#paint0_linear_47_29)"/>
<defs>
<linearGradient id="paint0_linear_47_29" x1="53.6956" y1="0.873779" x2="53.6956" y2="35.1263" gradientUnits="userSpaceOnUse">
<stop offset="0.229167" stop-color="#A16A18"/>
<stop offset="0.432292" stop-color="#D1A056"/>
<stop offset="0.802083" stop-color="#A16A18"/>
</linearGradient>
</defs>
</svg>
