<svg width="589" height="132" viewBox="0 0 589 132" fill="none" xmlns="http://www.w3.org/2000/svg">
<path fill-rule="evenodd" clip-rule="evenodd" d="M0.75 102.433C0.75 102.433 11.4836 113.068 24.2634 101.726C24.2634 101.726 14.7224 94.5424 0.75 102.433Z" fill="#C9A885"/>
<path fill-rule="evenodd" clip-rule="evenodd" d="M568.157 123.681C568.157 123.681 568.329 111.916 553.129 104.755C553.129 104.755 571.039 109.35 568.157 123.681ZM519.962 113.989C513.019 113.989 507.378 108.35 507.378 101.41C507.378 94.4694 513.019 88.8301 519.962 88.8301C526.897 88.8301 532.538 94.4694 532.538 101.41C532.538 108.35 526.897 113.989 519.962 113.989ZM404.459 107.771C402.993 106.763 401.549 105.655 400.105 104.512H450.181C440.365 116.291 419.91 118.435 404.459 107.771ZM470.572 121.187C470.572 121.187 464.423 110.816 447.328 112.61C447.35 112.595 447.371 112.581 447.393 112.56C449.466 111.988 465.732 107.95 470.572 121.187ZM376.354 100.352C376.204 100.352 376.054 100.352 375.903 100.352H300.711C295.849 96.0347 292.188 90.5812 290.451 84.5202C297.815 83.1264 303.399 76.6651 303.399 68.9101C303.399 63.9784 301.14 59.5613 297.601 56.6451C299.888 54.3722 302.562 52.4424 305.458 50.9629C305.73 50.8414 305.994 50.7199 306.273 50.5841C312.129 47.6679 319.965 48.3183 324.898 52.7211C332.548 59.5541 329.753 72.5696 321.909 74.2636C319.271 74.8425 316.869 74.1064 314.652 72.1337C315.367 77.7658 321.802 78.7021 326.871 74.7853C337.388 66.0869 330.553 51.0272 318.327 47.6608C335.923 47.4177 347.569 67.0518 339.669 78.3519C337.067 82.0972 333.256 83.9698 328.294 84.1485H320.401C318.477 84.1485 316.647 84.0556 314.838 83.9555L308.868 87.7365L370.241 87.6794C376.404 89.9094 382.596 94.9269 389.03 100.352H376.354ZM335.022 109.143C324.905 111.673 314.602 109.536 306.345 104.512H351.809C345.711 106.148 339.891 107.921 335.022 109.143ZM239.96 109.143C235.091 107.921 229.271 106.148 223.173 104.512H268.637C260.379 109.536 250.077 111.673 239.96 109.143ZM287.491 88.6371C288.957 92.8684 291.259 96.8424 294.219 100.352H280.77C283.723 96.8424 286.032 92.8684 287.491 88.6371ZM185.959 100.352C192.386 94.9269 198.578 89.9094 204.748 87.6794L266.113 87.7365L260.151 83.9555C258.335 84.0556 256.511 84.1485 254.581 84.1485H246.695C241.726 83.9698 237.915 82.0972 235.313 78.3519C227.405 67.0304 239.095 47.3534 256.733 47.6608C244.507 51.0129 237.658 66.0869 248.182 74.7853C253.251 78.7021 259.686 77.7658 260.401 72.1337C258.177 74.1064 255.775 74.8425 253.144 74.2636C245.301 72.5696 242.498 59.5541 250.148 52.7211C254.996 48.3898 262.646 47.7108 268.466 50.4555C271.769 51.9922 274.815 54.1006 277.381 56.6451C273.849 59.5613 271.59 63.9784 271.59 68.9101C271.59 76.6651 277.174 83.1264 284.531 84.5202C282.801 90.5812 279.133 96.0347 274.271 100.352H199.078C198.928 100.352 198.778 100.352 198.635 100.352H185.959ZM170.523 107.771C155.079 118.435 134.624 116.291 124.802 104.512H174.884C173.433 105.655 171.988 106.763 170.523 107.771ZM293.611 57.3527C290.787 60.7692 288.778 64.3215 287.491 67.9238C286.304 64.5931 284.502 61.2981 282 58.1175C283.909 56.9524 286.118 56.2449 288.52 56.2449C290.329 56.2449 292.052 56.6523 293.611 57.3527ZM291.316 66.1226C292.346 63.3923 293.883 60.8621 295.784 58.5964C298.988 60.8835 301.097 64.6003 301.097 68.8244C301.097 75.3429 296.092 80.6534 289.736 81.2752C288.935 76.4364 289.336 71.2974 291.316 66.1226ZM280.005 59.6184C281.528 61.6197 282.794 63.7997 283.666 66.1226C285.603 71.1759 286.032 76.1934 285.303 80.9321C279.927 79.5027 275.937 74.6424 275.937 68.8244C275.937 65.1792 277.517 61.9199 280.005 59.6184ZM104.245 121.187C109.425 107.035 127.645 112.624 127.645 112.624C110.428 110.744 104.245 121.187 104.245 121.187ZM69.1507 113.989C62.2134 113.989 56.5702 108.35 56.5702 101.41C56.5702 94.4694 62.2134 88.8301 69.1507 88.8301C76.0881 88.8301 81.7341 94.4694 81.7341 101.41C81.7341 108.35 76.0881 113.989 69.1507 113.989ZM20.9549 123.681C18.0722 109.35 35.9799 104.755 35.9799 104.755C20.7805 111.916 20.9549 123.681 20.9549 123.681ZM20.9549 81.1752C20.9549 81.1752 20.7805 92.947 35.9799 100.109C35.9799 100.109 18.0722 95.5058 20.9549 81.1752ZM123.676 72.1265C124.731 70.6327 125.1 69.0459 124.769 67.402C124.575 66.4443 123.437 65.9082 122.64 66.2013C123.29 66.3514 123.477 66.8946 123.585 67.4306C123.823 68.6171 123.226 70.0108 122.446 71.1401C121.259 71.7405 119.57 71.6333 118.423 70.8399C117.251 70.0251 116.785 68.6528 117.076 66.866C117.497 64.2714 119.211 62.8063 120.417 62.0701C122.339 60.9837 124.385 60.5976 125.771 60.5976C131.356 60.5976 133.273 65.8296 133.359 66.0511L133.595 66.7301L134.295 66.5443C139.808 65.0934 143.99 65.8796 146.643 68.9101C149.717 72.4267 150.203 78.1804 150.168 81.747C148.166 77.9374 143.783 71.8978 136.197 71.8978C134.188 71.8978 132.068 72.3266 129.884 73.1628C119.591 77.1154 118.19 86.7144 118.358 92.4967C117.432 82.7261 121.18 75.6573 123.676 72.1265ZM266.235 20.6434C280.57 17.763 285.167 35.6602 285.167 35.6602C278.003 20.4648 266.235 20.6434 266.235 20.6434ZM308.754 20.6434C308.754 20.6434 296.978 20.4648 289.815 35.6602C289.815 35.6602 294.419 17.763 308.754 20.6434ZM445.105 73.1628C442.917 72.3266 440.794 71.8978 438.792 71.8978C431.206 71.8978 426.823 77.9374 424.814 81.747C424.786 78.1804 425.272 72.4267 428.346 68.9101C430.999 65.8796 435.174 65.0934 440.694 66.5443L441.387 66.7301L441.63 66.0511C441.709 65.8296 443.625 60.5976 449.216 60.5976C450.603 60.5976 452.648 60.9837 454.571 62.0701C455.772 62.8063 457.488 64.2714 457.91 66.866C458.203 68.6528 457.731 70.0251 456.566 70.8399C455.415 71.6333 453.72 71.7405 452.54 71.1401C451.761 70.0108 451.161 68.6171 451.404 67.4306C451.511 66.8946 451.697 66.3514 452.34 66.2013C451.554 65.9082 450.41 66.4443 450.217 67.402C449.888 69.0459 450.253 70.6327 451.311 72.1265C453.799 75.6573 457.552 82.7261 456.63 92.4967C456.795 86.7144 455.393 77.1154 445.105 73.1628ZM568.157 81.1752C571.039 95.5058 553.129 100.109 553.129 100.109C568.329 92.947 568.157 81.1752 568.157 81.1752ZM549.275 102.432C562.523 100.766 571.103 92.5182 569.509 82.1758C567.771 70.8757 558.963 73.1343 558.084 76.6651C557.19 80.2031 561.615 78.5735 562.037 76.951C562.459 75.3285 567.235 75.6645 567.385 79.2668C567.528 82.862 563.231 83.4051 558.813 85.0991C554.402 86.7859 556.511 95.2413 550.169 98.8365C545.643 101.395 539.116 101.746 535.748 101.738C535.376 93.2901 528.413 86.5286 519.876 86.5286C511.811 86.5286 505.148 92.5611 504.118 100.352H456.544C457.631 97.4785 458.275 94.3765 458.289 91.053C458.668 83.0407 456.101 76.8796 453.777 73.0485C453.928 73.0557 454.071 73.0986 454.221 73.0986C455.365 73.0986 456.53 72.7697 457.452 72.1265C458.432 71.4546 459.983 69.8393 459.454 66.6087C458.925 63.3066 456.687 61.484 455.214 60.6263C455.207 60.6191 455.2 60.6191 455.2 60.612C454.471 60.1974 453.935 59.9973 453.87 59.983C452.29 59.3326 450.639 59.0252 449.216 59.0252C443.804 59.0252 441.237 63.2065 440.436 64.8647C434.595 63.4781 429.626 64.3644 426.68 67.738C421.525 73.6203 422.898 84.5059 422.955 84.9633C422.955 84.9633 423.449 86.7502 423.863 86.7502C424.385 86.7502 424.964 85.2492 424.964 85.2492C425.007 85.1349 428.925 73.4702 438.792 73.4702C440.601 73.4702 442.531 73.8704 444.54 74.6281C458.017 79.7385 454.95 95.127 454.621 96.6351C454.185 97.9502 453.627 99.1724 453.005 100.352H395.029C389.009 95.32 382.889 90.2167 376.168 87.6722L382.874 87.6651L382.91 87.6007C389.373 87.5078 395.679 84.849 399.605 79.2096C405.389 70.9257 402.121 57.3742 391.504 55.0369C382.688 53.1357 371.978 61.1265 376.461 70.697C379.886 78.116 390.36 73.8848 387.257 67.059C385.749 72.1194 378.399 71.2616 378.399 64.3C378.399 59.1538 382.617 57.3027 385.212 56.8095C392.791 55.3586 398.167 60.762 398.332 67.2805C398.539 73.4202 393.728 80.9965 388.194 83.2193C387.128 83.6553 386.049 83.9555 384.969 84.1485H340.749C343.573 81.7898 345.761 77.9231 346.547 73.2058C350.115 46.2599 314.388 35.6674 295.52 55.2085C293.354 53.9291 290.851 53.1643 288.184 53.0428C288.177 49.6763 288.528 43.1507 291.087 38.6192C294.683 32.2866 303.141 34.388 304.829 29.978C306.523 25.568 307.074 21.2652 310.663 21.4153C314.266 21.5654 314.602 26.3399 312.979 26.7545C311.356 27.1833 309.726 31.6005 313.265 30.7142C316.797 29.8279 319.057 21.0294 307.753 19.2854C297.408 17.6915 289.157 26.2685 287.491 39.5199C285.825 26.2685 277.582 17.6915 267.229 19.2854C255.925 21.0294 258.192 29.8279 261.716 30.7142C265.255 31.6005 263.633 27.1833 262.002 26.7545C260.372 26.3399 260.715 21.5654 264.319 21.4153C267.915 21.2652 268.459 25.568 270.153 29.978C271.847 34.388 280.298 32.2866 283.895 38.6192C286.461 43.1507 286.805 49.6763 286.797 53.0428C284.131 53.1643 281.635 53.9363 279.462 55.2085C260.601 35.6674 224.867 46.2599 228.435 73.2058C229.221 77.9231 231.409 81.7898 234.24 84.1485H190.013C188.933 83.9555 187.861 83.6553 186.788 83.2193C181.261 80.9965 176.45 73.4202 176.657 67.2805C176.822 60.762 182.198 55.3586 189.777 56.8095C192.372 57.3027 196.59 59.1538 196.59 64.3C196.59 71.2616 189.233 72.1194 187.725 67.059C184.622 73.8848 195.096 78.116 198.528 70.697C203.004 61.1265 192.293 53.1357 183.485 55.0369C172.868 57.3742 169.593 70.9257 175.377 79.2096C179.302 84.849 185.616 87.5078 192.072 87.6007L192.107 87.6651L198.821 87.6722C192.1 90.2167 185.973 95.32 179.953 100.352H121.98C121.358 99.1724 120.803 97.9502 120.37 96.6351C120.036 95.127 116.963 79.7385 130.445 74.6281C132.451 73.8704 134.381 73.4702 136.197 73.4702C146.064 73.4702 149.982 85.1349 150.018 85.2492C150.018 85.2492 150.597 86.7502 151.126 86.7502C151.54 86.7502 152.22 84.9633 152.22 84.9633C152.284 84.5059 153.664 73.6203 148.509 67.738C145.549 64.3644 140.387 63.4781 134.546 64.8647C133.745 63.2065 131.184 59.0252 125.771 59.0252C124.348 59.0252 122.695 59.3326 121.116 59.983C121.051 59.9973 120.512 60.1974 119.787 60.612C119.784 60.6191 119.779 60.6191 119.772 60.6263C118.297 61.484 116.062 63.3066 115.525 66.6087C115 69.8393 116.555 71.4546 117.53 72.1265C118.457 72.7697 119.622 73.0986 120.769 73.0986C120.916 73.0986 121.054 73.0557 121.202 73.0485C118.889 76.8796 116.316 83.0407 116.693 91.053C116.712 94.3765 117.356 97.4785 118.445 100.352H84.9879C83.9669 92.5611 77.2991 86.5286 69.2365 86.5286C60.6984 86.5286 53.7339 93.2901 53.3657 101.738C49.9983 101.746 43.4692 101.395 38.9392 98.8365C32.5996 95.2413 34.7066 86.7859 30.2938 85.0991C25.8803 83.4051 21.5777 82.862 21.7279 79.2668C21.878 75.6645 26.6504 75.3285 27.0707 76.951C27.4933 78.5735 31.9161 80.2031 31.0295 76.6651C30.1465 73.1343 21.3382 70.8757 19.5965 82.1758C18.0014 92.5182 26.5825 100.766 39.8379 102.432C26.5825 104.097 18.0014 112.338 19.5965 122.688C21.3382 133.981 30.1465 131.729 31.0295 128.198C31.9161 124.66 27.4933 126.283 27.0707 127.912C26.6504 129.542 21.878 129.199 21.7279 125.597C21.5777 122.001 25.8803 121.458 30.2938 119.764C34.7066 118.07 32.5996 109.622 38.9392 106.034C43.4692 103.461 49.9983 103.118 53.3686 103.125C53.7368 111.566 60.7012 118.328 69.2365 118.328C77.2991 118.328 83.9634 112.295 84.9879 104.512H120.419C121.673 106.627 123.226 108.543 124.983 110.272C115.313 108.328 106.932 111.595 103.586 119.578C99.037 130.457 107.998 133.209 110.679 130.571C113.356 127.948 108.594 126.997 107.346 128.191C106.104 129.406 102.089 126.533 103.895 123.295C105.695 120.05 109.777 121.873 114.568 122.766C119.356 123.66 122.054 115.09 129.562 115.34C130.669 115.383 131.776 115.619 132.865 115.962L132.873 115.948C139.822 119.514 148.18 120.822 156.252 119.057C165.146 117.12 173.282 110.959 181.018 104.512H183.621C183.571 104.547 183.514 104.576 183.464 104.612C183.542 104.576 183.635 104.547 183.714 104.512H206.006C222.265 108.464 241.211 117.198 257.427 114.096C264.734 112.695 271.397 109.25 276.724 104.512H298.258C303.585 109.25 310.255 112.695 317.562 114.096C333.771 117.198 352.717 108.464 368.975 104.512H391.268C391.354 104.547 391.44 104.576 391.525 104.612C391.468 104.576 391.411 104.547 391.361 104.512H393.971C401.699 110.959 409.843 117.12 418.737 119.057C426.852 120.829 435.26 119.507 442.245 115.89C443.239 115.59 444.247 115.383 445.255 115.34C452.762 115.09 455.465 123.66 460.255 122.766C465.045 121.873 469.128 120.05 470.929 123.295C472.731 126.533 468.713 129.406 467.476 128.191C466.225 126.997 461.463 127.948 464.144 130.571C466.818 133.209 475.784 130.457 471.237 119.578C467.912 111.652 459.626 108.378 450.045 110.23C451.79 108.514 453.327 106.606 454.564 104.512H504.118C505.148 112.295 511.811 118.328 519.876 118.328C528.413 118.328 535.376 111.566 535.748 103.125C539.116 103.118 545.643 103.468 550.169 106.034C556.511 109.622 554.402 118.07 558.813 119.764C563.231 121.458 567.528 122.001 567.385 125.597C567.235 129.199 562.459 129.542 562.037 127.912C561.615 126.283 557.19 124.66 558.084 128.198C558.963 131.729 567.771 133.981 569.509 122.688C571.103 112.338 562.523 104.097 549.275 102.432Z" fill="#C9A885"/>
<path fill-rule="evenodd" clip-rule="evenodd" d="M564.84 101.732C577.621 113.066 588.355 102.436 588.355 102.436C574.381 94.5423 564.84 101.732 564.84 101.732Z" fill="#C9A885"/>
<path fill-rule="evenodd" clip-rule="evenodd" d="M287.486 0.445354C287.486 0.445354 276.85 11.1801 288.19 23.9531C288.19 23.9531 295.38 14.4151 287.486 0.445354Z" fill="#C9A885"/>
</svg>
