<svg width="514" height="70" viewBox="0 0 514 70" fill="none" xmlns="http://www.w3.org/2000/svg">
<path d="M288.015 39.0988C288.635 39.3708 289.095 39.8961 289.327 40.7348C289.544 41.5588 289.472 42.6921 288.893 43.9774C288.32 45.2521 287.141 46.6308 285.444 47.6081C283.757 48.6001 281.592 49.0894 279.477 48.9348C278.408 48.8881 277.072 48.5787 275.651 48.0147C274.232 47.4467 272.767 46.5667 271.451 45.4254C270.131 44.2894 268.956 42.9014 268.025 41.3961C267.089 39.8921 266.397 38.2774 265.928 36.7014C265.48 35.1134 265.247 33.5734 265.161 32.1787C265.133 31.4787 265.129 30.8148 265.149 30.1988C265.196 29.5788 265.228 29.0081 265.301 28.4881C265.384 27.9681 265.469 27.5001 265.555 27.0934C265.644 26.6841 265.763 26.3361 265.86 26.0521C266.061 25.4841 266.247 25.1761 266.401 25.1761C266.539 25.1761 266.727 25.4841 266.951 26.0188C267.185 26.6174 267.473 27.3574 267.803 28.2014C267.98 28.6454 268.2 29.1174 268.408 29.6161C268.639 30.1094 268.892 30.6228 269.16 31.1441C269.72 32.1788 270.388 33.2308 271.14 34.2028C271.913 35.1614 272.775 36.0321 273.671 36.7375C274.565 37.4441 275.491 37.9827 276.349 38.3507C277.207 38.7254 277.997 38.9227 278.637 39.0147C278.797 39.0561 278.949 39.0521 279.091 39.0735C279.233 39.0921 279.368 39.1135 279.491 39.1095C279.615 39.1148 279.729 39.1255 279.836 39.1401C279.941 39.1361 280.037 39.1387 280.125 39.1481C280.836 39.1961 281.405 39.2388 281.976 39.2628C282.544 39.2881 283.168 39.3041 283.851 39.2161C285.221 39.0761 286.759 38.5508 288.015 39.0988Z" fill="url(#paint0_linear_150_12203)"/>
<path d="M266.771 50.4615C262.969 41.8335 261.947 29.7281 261.827 28.1308C261.819 28.0295 261.76 27.9548 261.691 27.9548L257.98 23.7548C257.489 23.1988 256.621 23.1988 256.131 23.7548L252.42 27.9548C252.351 27.9548 252.292 28.0295 252.284 28.1308C252.164 29.7281 251.304 40.9028 247.34 50.4615C247.309 50.5348 254.983 64.2508 256.711 67.1175C256.885 67.4068 257.225 67.4068 257.4 67.1175C259.128 64.2508 266.804 50.5348 266.771 50.4615Z" fill="url(#paint1_linear_150_12203)"/>
<path d="M225.607 39.0988C224.988 39.3708 224.528 39.8961 224.296 40.7348C224.079 41.5588 224.151 42.6921 224.729 43.9774C225.303 45.2521 226.482 46.6308 228.178 47.6081C229.866 48.6001 232.03 49.0894 234.145 48.9348C235.214 48.8881 236.551 48.5787 237.971 48.0147C239.39 47.4467 240.856 46.5667 242.171 45.4254C243.492 44.2894 244.667 42.9014 245.598 41.3961C246.533 39.8921 247.224 38.2774 247.695 36.7014C248.143 35.1134 248.376 33.5734 248.46 32.1787C248.49 31.4787 248.494 30.8148 248.474 30.1988C248.427 29.5788 248.394 29.0081 248.32 28.4881C248.238 27.9681 248.154 27.5001 248.069 27.0934C247.978 26.6841 247.861 26.3361 247.763 26.0521C247.561 25.4841 247.376 25.1761 247.22 25.1761C247.084 25.1761 246.896 25.4841 246.671 26.0188C246.438 26.6174 246.148 27.3574 245.819 28.2014C245.643 28.6454 245.422 29.1174 245.215 29.6161C244.983 30.1094 244.73 30.6228 244.463 31.1441C243.902 32.1788 243.235 33.2308 242.483 34.2028C241.71 35.1614 240.847 36.0321 239.951 36.7375C239.056 37.4441 238.131 37.9827 237.274 38.3507C236.415 38.7254 235.626 38.9227 234.984 39.0147C234.826 39.0561 234.673 39.0521 234.531 39.0735C234.389 39.0921 234.254 39.1135 234.131 39.1095C234.009 39.1148 233.892 39.1255 233.786 39.1401C233.682 39.1361 233.586 39.1387 233.496 39.1481C232.787 39.1961 232.216 39.2388 231.646 39.2628C231.079 39.2881 230.455 39.3041 229.773 39.2161C228.402 39.0761 226.864 38.5508 225.607 39.0988Z" fill="url(#paint2_linear_150_12203)"/>
<path d="M506.785 19.8948C507.198 21.0534 507.478 22.3748 507.638 23.8735C507.798 25.3881 507.811 27.0375 507.558 28.7708C507.078 32.2335 505.532 36.0375 502.798 39.5935C500.105 43.1721 496.345 46.4961 492.038 49.4441C487.718 52.3841 482.849 55.0134 477.721 57.1974C472.594 59.3948 467.193 61.1601 461.734 62.4655C456.278 63.7761 450.769 64.6321 445.428 65.1254C434.73 66.0748 424.749 65.5681 416.816 64.7015C412.873 64.0601 408.47 63.1948 403.765 62.0881C399.068 60.9481 394.07 59.5667 388.94 57.9201C378.676 54.6281 367.908 50.2148 357.79 45.1908C352.73 42.6801 347.832 40.0201 343.218 37.3095C342.07 36.6215 340.935 35.9388 339.814 35.2655C338.723 34.6028 337.648 33.8948 336.577 33.1961C334.43 31.7761 332.344 30.3974 330.333 29.0668C322.265 23.7188 315.23 19.3467 310.297 16.5147C303.608 12.6547 297.032 9.26677 290.806 6.63343C284.584 4.00943 278.695 2.11875 273.481 1.38675C270.875 1.03208 268.449 0.940086 266.306 1.22543C265.238 1.34009 264.244 1.59479 263.352 1.86012C262.462 2.17213 261.668 2.51076 261.005 2.92275C259.669 3.72542 258.845 4.6321 258.417 5.30544C257.996 5.99077 257.901 6.41609 258.041 6.52275C258.368 6.80275 259.456 5.6001 261.882 4.80544C264.28 3.96011 268.124 3.9548 272.785 5.09613C277.453 6.21213 282.908 8.34809 288.801 11.1254C294.7 13.9054 301.052 17.3401 307.63 21.1361C312.482 23.9228 319.487 28.1148 327.647 33.2441C329.698 34.5254 331.825 35.8561 334.013 37.2241C335.118 37.9041 336.246 38.6014 337.436 39.2787C338.6 39.9334 339.778 40.5961 340.969 41.2655C345.756 43.8935 350.832 46.4441 356.061 48.8254C366.521 53.5921 377.613 57.6641 388.144 60.5748C393.408 62.0308 398.525 63.2121 403.322 64.1481C408.128 65.0521 412.613 65.7108 416.619 66.1494C424.566 67.4388 434.649 68.4148 445.619 67.8908C451.098 67.6094 456.786 66.9521 462.47 65.8081C468.152 64.6681 473.823 63.0361 479.247 60.9227C484.674 58.8187 489.838 56.2481 494.545 53.2388C496.892 51.7241 499.132 50.1041 501.172 48.3334C503.225 46.5721 505.105 44.6774 506.718 42.6441C509.972 38.6228 512.065 33.9427 512.745 29.5507C513.092 27.3601 513.105 25.2641 512.932 23.3694C512.745 21.4601 512.372 19.6801 511.838 18.1841C510.438 14.0801 507.945 10.5188 504.878 7.9068C503.345 6.59747 501.705 5.46943 499.985 4.59743C498.265 3.73743 496.505 3.04276 494.718 2.59476C492.932 2.15209 491.132 1.85614 489.332 1.87614C487.532 1.89081 485.769 2.15878 484.138 2.68812C480.854 3.72812 478.212 5.85477 476.612 8.31078C475.806 9.54144 475.244 10.8615 474.97 12.2068C474.698 13.5468 474.722 14.9348 475.153 16.1854C475.57 17.4414 476.454 18.4748 477.41 19.0375C477.878 19.3561 478.374 19.4961 478.828 19.6628C479.056 19.7068 479.28 19.7508 479.501 19.7935C479.718 19.8388 479.927 19.8681 480.13 19.8655C480.945 19.9241 481.626 19.8148 482.206 19.7215C482.773 19.5695 483.249 19.4615 483.608 19.2935C484.327 18.9681 484.665 18.7148 484.621 18.5375C484.576 18.3588 484.153 18.2614 483.425 18.2334C483.061 18.2254 482.618 18.1561 482.113 18.1375C481.614 18.0601 481.044 17.9988 480.472 17.8161C480.321 17.7868 480.181 17.7308 480.045 17.6655C479.906 17.6081 479.763 17.5494 479.619 17.4894C479.373 17.3161 479.084 17.1881 478.882 16.9628C478.44 16.5601 478.138 16.0348 478.021 15.3628C477.77 14.0228 478.363 12.1175 479.681 10.5068C480.986 8.88414 482.982 7.51613 485.391 6.93213C486.593 6.63079 487.892 6.51077 489.238 6.56676C490.585 6.62143 491.985 6.92146 493.398 7.32946C494.825 7.75079 496.225 8.36943 497.585 9.09743C498.945 9.83609 500.225 10.7721 501.412 11.8295C503.812 13.9415 505.705 16.7481 506.785 19.8948Z" fill="url(#paint3_linear_150_12203)"/>
<path d="M413.947 65.6685C413.947 65.6685 411.646 66.2365 407.442 67.1885C406.381 67.3845 405.202 67.6018 403.917 67.8405C402.625 68.0711 401.223 68.3564 399.699 68.5338C398.174 68.7351 396.545 68.9484 394.821 69.1751C393.077 69.3151 391.238 69.4644 389.31 69.6204C389.067 69.6391 388.825 69.6578 388.579 69.6778C388.334 69.6845 388.087 69.6924 387.839 69.7004C387.342 69.7138 386.841 69.7285 386.333 69.7431C385.314 69.7698 384.275 69.7978 383.215 69.8258C382.151 69.8778 381.07 69.8085 379.965 69.7885C378.858 69.7565 377.731 69.7231 376.586 69.6885C376.013 69.6845 375.437 69.6231 374.855 69.5751C374.274 69.5258 373.687 69.4764 373.097 69.4258C371.914 69.3178 370.709 69.2324 369.491 69.0951C368.277 68.9178 367.046 68.7391 365.799 68.5578C365.174 68.4645 364.545 68.3725 363.913 68.2778C363.278 68.1871 362.653 68.0298 362.017 67.9058C360.746 67.6391 359.459 67.3698 358.159 67.0965C357.505 66.9738 356.863 66.7898 356.214 66.6111C355.565 66.4338 354.913 66.2538 354.257 66.0738C353.601 65.8925 352.942 65.7111 352.279 65.5271L351.283 65.2471L350.301 64.9111C348.985 64.4591 347.659 64.0018 346.321 63.5405L345.315 63.1911L344.327 62.7831C343.669 62.5085 343.005 62.2324 342.341 61.9564C341.675 61.6778 341.009 61.3991 340.339 61.1178L339.334 60.6938L338.351 60.2111C337.039 59.5618 335.719 58.9084 334.39 58.2511C334.058 58.0844 333.722 57.9258 333.395 57.7484L332.426 57.1938C331.779 56.8231 331.13 56.4498 330.479 56.0751C329.83 55.7004 329.182 55.3258 328.537 54.9525C328.217 54.7618 327.887 54.5858 327.575 54.3831L326.646 53.7711C325.413 52.9538 324.187 52.1404 322.97 51.3338L322.061 50.7271L321.191 50.0751C320.614 49.6405 320.038 49.2071 319.465 48.7751C318.325 47.9071 317.17 47.0604 316.077 46.1871C311.739 42.6711 307.746 39.1791 303.891 35.9511C300.041 32.7231 296.343 29.7418 292.753 27.1511C289.166 24.5578 285.698 22.3338 282.391 20.5618C275.802 16.9458 269.861 15.2711 265.679 14.5551C263.585 14.2191 261.929 14.0618 260.803 13.9991C259.678 13.9458 259.082 13.9165 259.082 13.9165C259.082 13.9165 259.677 13.8538 260.801 13.7364C261.93 13.6311 263.605 13.5485 265.777 13.6018C267.943 13.6871 270.606 13.9538 273.645 14.6004C275.167 14.9151 276.771 15.3525 278.462 15.8658C280.137 16.4138 281.905 17.0271 283.706 17.7951C287.33 19.2938 291.147 21.2778 295.067 23.6618C298.991 26.0444 303.003 28.8431 307.098 31.8978C311.193 34.9498 315.362 38.2764 319.693 41.5724C320.778 42.3871 321.89 43.1524 322.998 43.9591C323.553 44.3578 324.11 44.7605 324.669 45.1631L325.509 45.7685L326.382 46.3298C327.547 47.0818 328.721 47.8404 329.901 48.6031L330.786 49.1791C331.083 49.3698 331.395 49.5338 331.701 49.7124C332.313 50.0644 332.927 50.4178 333.543 50.7711C334.159 51.1285 334.773 51.4831 335.385 51.8364L336.299 52.3685C336.609 52.5365 336.926 52.6871 337.238 52.8484C338.487 53.4858 339.729 54.1178 340.963 54.7458L341.885 55.2191L342.827 55.6378C343.455 55.9151 344.081 56.1925 344.703 56.4685C345.326 56.7471 345.945 57.0231 346.562 57.2991L347.486 57.7124L348.427 58.0698C349.679 58.5484 350.919 59.0244 352.149 59.4951L353.069 59.8511L354.002 60.1525C354.622 60.3511 355.239 60.5498 355.854 60.7484C356.469 60.9484 357.079 61.1458 357.687 61.3432C358.295 61.5431 358.897 61.7484 359.513 61.8951C360.735 62.2204 361.945 62.5431 363.139 62.8605C372.725 65.3511 381.711 66.2325 389.277 66.5578C391.17 66.6031 392.978 66.6458 394.691 66.6858C396.402 66.6565 398.019 66.6298 399.533 66.6031C401.05 66.6071 402.455 66.4938 403.753 66.4298C405.051 66.3605 406.239 66.2965 407.309 66.2405C411.562 65.8738 413.947 65.6685 413.947 65.6685Z" fill="url(#paint4_linear_150_12203)"/>
<path d="M1.26452 17.5298C0.725849 19.0258 0.357857 20.8058 0.172523 22.7138C-0.0048101 24.6098 0.0138488 26.7058 0.364515 28.8965C1.03785 33.2872 3.13121 37.9658 6.39655 41.9844C8.00588 44.0178 9.88321 45.9098 11.9325 47.6712C13.9779 49.4405 16.2138 51.0591 18.5618 52.5725C23.2752 55.5791 28.4365 58.1471 33.8645 60.2471C39.2872 62.3578 44.9592 63.9884 50.6406 65.1258C56.3219 66.2671 62.0085 66.9218 67.4859 67.2018C78.4539 67.7218 88.5326 66.7444 96.4792 65.4591C100.485 65.0178 104.969 64.3605 109.774 63.4578C114.57 62.5218 119.686 61.3418 124.95 59.8871C135.479 56.9791 146.573 52.9124 157.033 48.1511C162.265 45.7724 167.339 43.2245 172.129 40.5992C173.319 39.9298 174.498 39.2685 175.662 38.6138C176.851 37.9365 177.979 37.2405 179.084 36.5605C181.274 35.1938 183.4 33.8645 185.451 32.5831C193.614 27.4578 200.621 23.2684 205.474 20.4818C212.053 16.6858 218.403 13.2511 224.302 10.4698C230.197 7.69246 235.65 5.55783 240.318 4.4405C244.979 3.3005 248.824 3.30444 251.222 4.15111C253.647 4.94578 254.735 6.14716 255.063 5.86849C255.202 5.76049 255.107 5.33648 254.687 4.64981C254.258 3.97647 253.434 3.07116 252.098 2.26849C251.435 1.85516 250.642 1.5178 249.753 1.2058C248.859 0.940468 247.865 0.685829 246.798 0.571159C244.655 0.285828 242.227 0.377823 239.623 0.732491C234.407 1.46316 228.521 3.35377 222.298 5.97911C216.071 8.61111 209.497 11.9991 202.806 15.8591C197.873 18.6925 190.837 23.0618 182.767 28.4072C180.755 29.7352 178.669 31.1138 176.522 32.5325C175.45 33.2312 174.374 33.9378 173.282 34.6005C172.162 35.2725 171.026 35.9552 169.879 36.6432C165.265 39.3512 160.365 42.0085 155.305 44.5165C145.185 49.5351 134.418 53.9432 124.155 57.2325C119.025 58.8778 114.027 60.2578 109.331 61.3965C104.627 62.5032 100.225 63.3685 96.2832 64.0111C88.3512 64.8751 78.3712 65.3818 67.6779 64.4365C62.3379 63.9445 56.8312 63.0911 51.3752 61.7831C45.9192 60.4791 40.5179 58.7164 35.3912 56.5231C30.2632 54.3418 25.3912 51.7151 21.0739 48.7778C16.7686 45.8325 13.0112 42.5111 10.3152 38.9338C7.5765 35.3805 6.02719 31.5778 5.54453 28.1165C5.29653 26.3831 5.30321 24.7338 5.46054 23.2178C5.62588 21.7191 5.89787 20.3992 6.3192 19.2405C7.39387 16.0938 9.29387 13.2871 11.6859 11.1751C12.8779 10.1178 14.1539 9.18184 15.5139 8.44317C16.8765 7.71517 18.2739 7.09647 19.7046 6.67513C21.1206 6.26714 22.5165 5.96577 23.8672 5.91244C25.2152 5.85511 26.5099 5.9765 27.7112 6.2765C30.1219 6.8605 32.1165 8.22981 33.4219 9.85248C34.7392 11.4631 35.3325 13.3685 35.0818 14.7085C34.9658 15.3791 34.6645 15.9058 34.2205 16.3085C34.0192 16.5338 33.7299 16.6618 33.4832 16.8338C33.3392 16.8938 33.1978 16.9538 33.0592 17.0111C32.9218 17.0751 32.7819 17.1325 32.6325 17.1618C32.0592 17.3445 31.4885 17.4058 30.9898 17.4831C30.4845 17.5018 30.0419 17.5711 29.6779 17.5778C28.9499 17.6058 28.5272 17.7044 28.4832 17.8818C28.4379 18.0604 28.7765 18.3138 29.4965 18.6378C29.8539 18.8058 30.3312 18.9151 30.8965 19.0671C31.4765 19.1591 32.1592 19.2698 32.9739 19.2111C33.1752 19.2125 33.3859 19.1832 33.6032 19.1378C33.8232 19.0965 34.0472 19.0525 34.2766 19.0085C34.7286 18.8418 35.2259 18.7018 35.6939 18.3831C36.6485 17.8205 37.5339 16.7871 37.9499 15.5311C38.3819 14.2805 38.4045 12.8924 38.1338 11.5511C37.8605 10.2071 37.2965 8.88578 36.4912 7.65645C34.8912 5.20045 32.2499 3.07382 28.9659 2.03249C27.3352 1.50449 25.5726 1.23645 23.7766 1.22044C21.9752 1.20178 20.1672 1.4978 18.3792 1.93913C16.6046 2.38713 14.8445 3.08183 13.1205 3.94317C11.3992 4.81517 9.76055 5.94181 8.22988 7.25248C5.16188 9.86314 2.66185 13.4258 1.26452 17.5298Z" fill="url(#paint5_linear_150_12203)"/>
<path d="M99.1602 65.0137C99.1602 65.0137 101.546 65.2191 105.798 65.5857C106.867 65.6417 108.056 65.7058 109.354 65.7738C110.652 65.8391 112.056 65.9524 113.574 65.9484C115.088 65.9737 116.704 66.0017 118.416 66.0311C120.128 65.9897 121.936 65.9484 123.831 65.9031C131.396 65.5777 140.383 64.6951 149.968 62.2057C151.163 61.8871 152.372 61.5658 153.593 61.2404C154.209 61.0938 154.811 60.8871 155.42 60.6884C156.028 60.4911 156.639 60.2938 157.254 60.0938C157.867 59.8951 158.486 59.6964 159.106 59.4964L160.037 59.1951L160.957 58.8404C162.187 58.3698 163.428 57.8937 164.679 57.415L165.62 57.0577L166.544 56.6444C167.162 56.3684 167.781 56.0924 168.404 55.8137C169.027 55.5377 169.651 55.2604 170.279 54.9831L171.223 54.5644L172.144 54.0911C173.378 53.4631 174.619 52.8298 175.87 52.1938C176.18 52.0324 176.499 51.8817 176.807 51.7124L177.723 51.1817C178.334 50.827 178.948 50.4724 179.563 50.1164C180.179 49.7631 180.793 49.4097 181.407 49.0577C181.711 48.8791 182.024 48.7151 182.32 48.5244L183.206 47.9484C184.387 47.1844 185.559 46.4271 186.724 45.6751L187.599 45.1137L188.437 44.5071C188.997 44.1044 189.553 43.7031 190.109 43.3031C191.217 42.4977 192.33 41.7324 193.415 40.9164C197.746 37.6217 201.915 34.2951 206.008 31.2417C210.103 28.1871 214.115 25.3884 218.039 23.0071C221.959 20.6231 225.778 18.6378 229.4 17.1404C231.202 16.3724 232.971 15.7591 234.645 15.2111C236.336 14.6977 237.94 14.2604 239.462 13.9457C242.502 13.2977 245.163 13.0311 247.331 12.9471C249.503 12.8937 251.178 12.9764 252.307 13.0817C253.431 13.199 254.024 13.2617 254.024 13.2617C254.024 13.2617 253.43 13.2897 252.303 13.3444C251.179 13.4071 249.523 13.5644 247.427 13.8991C243.247 14.6164 237.305 16.2911 230.715 19.9071C227.408 21.6778 223.94 23.9031 220.354 26.4964C216.764 29.0871 213.066 32.0671 209.215 35.2951C205.36 38.5231 201.368 42.0164 197.029 45.5324C195.937 46.4058 194.782 47.251 193.643 48.1204C193.069 48.551 192.493 48.9857 191.916 49.4204L191.046 50.0724L190.136 50.679C188.92 51.4857 187.693 52.2977 186.46 53.1164L185.532 53.7284C185.22 53.9311 184.891 54.1071 184.571 54.2964C183.924 54.6711 183.277 55.0457 182.627 55.4204C181.976 55.795 181.328 56.1671 180.682 56.5391L179.712 57.0938C179.384 57.2711 179.048 57.4298 178.718 57.5964C177.388 58.2538 176.067 58.907 174.755 59.5564L173.773 60.0391L172.767 60.4631C172.098 60.7431 171.431 61.0231 170.765 61.3004C170.101 61.5777 169.439 61.8524 168.78 62.1284L167.792 62.5364L166.785 62.8857C165.448 63.3471 164.121 63.803 162.807 64.2564L161.824 64.5924L160.828 64.8724C160.166 65.0551 159.505 65.2377 158.849 65.4191C158.195 65.5991 157.542 65.7777 156.892 65.9564C156.244 66.1337 155.602 66.3191 154.947 66.4417C153.647 66.7137 152.362 66.9844 151.09 67.251C150.454 67.375 149.828 67.5324 149.195 67.623C148.562 67.7164 147.934 67.8097 147.308 67.9031C146.062 68.0844 144.83 68.2631 143.615 68.4404C142.398 68.5764 141.194 68.6631 140.011 68.7697C139.42 68.8217 138.833 68.871 138.252 68.9204C137.669 68.967 137.095 69.0297 136.52 69.0337C135.375 69.0684 134.248 69.1018 133.142 69.1324C132.036 69.1538 130.955 69.2218 129.892 69.1711C128.832 69.1431 127.792 69.1151 126.775 69.0884C126.267 69.0737 125.764 69.059 125.267 69.0457C125.019 69.0377 124.772 69.0297 124.528 69.0217C124.283 69.0031 124.039 68.9844 123.798 68.9644C121.87 68.8097 120.031 68.6604 118.287 68.5191C116.562 68.2937 114.934 68.079 113.407 67.879C111.884 67.7017 110.483 67.415 109.191 67.1844C107.904 66.947 106.727 66.7297 105.665 66.5337C101.461 65.5804 99.1602 65.0137 99.1602 65.0137Z" fill="url(#paint6_linear_150_12203)"/>
<defs>
<linearGradient id="paint0_linear_150_12203" x1="-35.8864" y1="170.224" x2="436.185" y2="-32.3436" gradientUnits="userSpaceOnUse">
<stop stop-color="#EEDEBC"/>
<stop offset="0.150732" stop-color="#EEDEBC"/>
<stop offset="0.573161" stop-color="#C9A885"/>
<stop offset="0.612903" stop-color="#C9A885"/>
<stop offset="0.613741" stop-color="#C9A885"/>
<stop offset="0.72043" stop-color="#9A7A5F"/>
<stop offset="0.721351" stop-color="#9A7A5F"/>
<stop offset="0.83871" stop-color="#C9A885"/>
<stop offset="0.999958" stop-color="#EEDEBC"/>
<stop offset="1" stop-color="#EEDEBC"/>
</linearGradient>
<linearGradient id="paint1_linear_150_12203" x1="-35.6044" y1="170.879" x2="436.466" y2="-31.6882" gradientUnits="userSpaceOnUse">
<stop stop-color="#EEDEBC"/>
<stop offset="0.150732" stop-color="#EEDEBC"/>
<stop offset="0.573161" stop-color="#C9A885"/>
<stop offset="0.612903" stop-color="#C9A885"/>
<stop offset="0.613741" stop-color="#C9A885"/>
<stop offset="0.72043" stop-color="#9A7A5F"/>
<stop offset="0.721351" stop-color="#9A7A5F"/>
<stop offset="0.83871" stop-color="#C9A885"/>
<stop offset="0.999958" stop-color="#EEDEBC"/>
<stop offset="1" stop-color="#EEDEBC"/>
</linearGradient>
<linearGradient id="paint2_linear_150_12203" x1="-41.0066" y1="158.288" x2="431.066" y2="-44.2805" gradientUnits="userSpaceOnUse">
<stop stop-color="#EEDEBC"/>
<stop offset="0.150732" stop-color="#EEDEBC"/>
<stop offset="0.573161" stop-color="#C9A885"/>
<stop offset="0.612903" stop-color="#C9A885"/>
<stop offset="0.613741" stop-color="#C9A885"/>
<stop offset="0.72043" stop-color="#9A7A5F"/>
<stop offset="0.721351" stop-color="#9A7A5F"/>
<stop offset="0.83871" stop-color="#C9A885"/>
<stop offset="0.999958" stop-color="#EEDEBC"/>
<stop offset="1" stop-color="#EEDEBC"/>
</linearGradient>
<linearGradient id="paint3_linear_150_12203" x1="-22.8779" y1="200.543" x2="449.194" y2="-2.02518" gradientUnits="userSpaceOnUse">
<stop stop-color="#EEDEBC"/>
<stop offset="0.150732" stop-color="#EEDEBC"/>
<stop offset="0.573161" stop-color="#C9A885"/>
<stop offset="0.612903" stop-color="#C9A885"/>
<stop offset="0.613741" stop-color="#C9A885"/>
<stop offset="0.72043" stop-color="#9A7A5F"/>
<stop offset="0.721351" stop-color="#9A7A5F"/>
<stop offset="0.83871" stop-color="#C9A885"/>
<stop offset="0.999958" stop-color="#EEDEBC"/>
<stop offset="1" stop-color="#EEDEBC"/>
</linearGradient>
<linearGradient id="paint4_linear_150_12203" x1="-25.2433" y1="195.024" x2="446.829" y2="-7.54374" gradientUnits="userSpaceOnUse">
<stop stop-color="#EEDEBC"/>
<stop offset="0.150732" stop-color="#EEDEBC"/>
<stop offset="0.573161" stop-color="#C9A885"/>
<stop offset="0.612903" stop-color="#C9A885"/>
<stop offset="0.613741" stop-color="#C9A885"/>
<stop offset="0.72043" stop-color="#9A7A5F"/>
<stop offset="0.721351" stop-color="#9A7A5F"/>
<stop offset="0.83871" stop-color="#C9A885"/>
<stop offset="0.999958" stop-color="#EEDEBC"/>
<stop offset="1" stop-color="#EEDEBC"/>
</linearGradient>
<linearGradient id="paint5_linear_150_12203" x1="-69.3235" y1="92.3005" x2="402.749" y2="-110.268" gradientUnits="userSpaceOnUse">
<stop stop-color="#EEDEBC"/>
<stop offset="0.150732" stop-color="#EEDEBC"/>
<stop offset="0.573161" stop-color="#C9A885"/>
<stop offset="0.612903" stop-color="#C9A885"/>
<stop offset="0.613741" stop-color="#C9A885"/>
<stop offset="0.72043" stop-color="#9A7A5F"/>
<stop offset="0.721351" stop-color="#9A7A5F"/>
<stop offset="0.83871" stop-color="#C9A885"/>
<stop offset="0.999958" stop-color="#EEDEBC"/>
<stop offset="1" stop-color="#EEDEBC"/>
</linearGradient>
<linearGradient id="paint6_linear_150_12203" x1="-48.1119" y1="141.728" x2="423.96" y2="-60.8396" gradientUnits="userSpaceOnUse">
<stop stop-color="#EEDEBC"/>
<stop offset="0.150732" stop-color="#EEDEBC"/>
<stop offset="0.573161" stop-color="#C9A885"/>
<stop offset="0.612903" stop-color="#C9A885"/>
<stop offset="0.613741" stop-color="#C9A885"/>
<stop offset="0.72043" stop-color="#9A7A5F"/>
<stop offset="0.721351" stop-color="#9A7A5F"/>
<stop offset="0.83871" stop-color="#C9A885"/>
<stop offset="0.999958" stop-color="#EEDEBC"/>
<stop offset="1" stop-color="#EEDEBC"/>
</linearGradient>
</defs>
</svg>
