<svg width="240" height="82" viewBox="0 0 240 82" fill="none" xmlns="http://www.w3.org/2000/svg">
<path d="M229.966 39.3718C238.416 36.3844 238.953 30.128 238.953 30.128C239.713 37.8857 229.966 39.3718 229.966 39.3718ZM203.924 32.2433C204.816 34.7742 206.251 37.0236 208.637 38.525C208.753 38.5992 208.872 38.6568 208.992 38.7221H199.08C201.344 37.2142 203.047 34.8765 203.924 32.2433ZM144.369 41.9958C144.306 42.042 144.241 42.0867 144.178 42.1314C134.875 48.6973 124.069 57.3537 112.201 57.8012C102.889 58.1519 93.9615 49.0387 100.35 40.4038H112.472C113.447 42.7132 112.311 45.771 110.718 47.3838C108.964 49.1589 112.21 50.0271 112.779 48.5488C114.545 45.7686 115.031 42.7978 114.056 40.4038H146.093C145.52 40.9369 144.947 41.4689 144.369 41.9958V41.9958ZM118.613 78.6008C111.795 70.5823 121.468 61.436 121.468 61.436C114.393 71.2511 118.613 78.6008 118.613 78.6008ZM81.7623 52.2766C78.2785 48.8801 75.7701 44.7864 74.2907 40.4038H98.4892C97.2007 42.2298 96.4043 44.4065 96.3745 46.5704C96.2641 54.3841 103.411 58.8705 109.99 59.4996C117.101 60.1801 124.978 56.3691 131.657 52.2766C129.297 53.865 126.843 55.3254 124.248 56.5903C110.247 63.4054 93.3769 63.601 81.7623 52.2766V52.2766ZM49.0676 38.7221C52.8273 37.7348 56.5884 36.58 60.1528 35.4314C63.5858 34.3251 67.2665 33.1256 70.962 31.9991C70.962 32.3098 70.9531 32.6154 70.965 32.9288C71.0336 34.861 71.2782 36.8024 71.6868 38.7221H49.0676ZM81.9621 28.9708C84.8196 28.3032 87.6442 27.9653 90.3584 27.9653C95.4916 27.9653 99.7151 29.1738 102.57 31.4632C104.141 32.7227 105.439 34.219 106.536 35.8485C104.034 35.847 101.719 36.9867 99.9298 38.7221H73.7836C73.1364 36.3498 72.7904 33.9122 72.7546 31.4606C75.8924 30.527 79.0123 29.6587 81.9621 28.9708ZM111.157 38.7221H102.074C104.317 37.1733 107.369 36.9929 109.886 38.0008C110.381 38.1988 110.796 38.4472 111.157 38.7221ZM164.881 25.546C167.655 23.5213 170.661 21.8629 173.727 21.3819C174.091 21.3244 174.47 21.2963 174.846 21.2963C177.405 21.2963 179.857 22.6044 180.951 24.5548C181.566 25.6494 182.019 27.4116 180.683 29.6012C180.027 30.6794 178.78 31.3225 177.354 31.3237C176.958 31.3237 176.564 31.2712 176.188 31.1705C175.401 30.9593 174.885 30.5001 174.652 29.8057C174.294 28.7406 174.7 27.4143 175.29 26.6596C175.612 26.2443 175.574 25.9398 175.484 25.7567C175.359 25.5012 175.058 25.3438 174.694 25.3438C174.306 25.3438 173.862 25.5421 173.766 25.9461C173 27.5422 172.922 29.1625 173.557 30.3967C174.124 31.5029 175.207 32.2242 176.683 32.4824C176.958 32.531 177.232 32.554 177.503 32.554C178.893 32.554 180.233 31.9221 181.265 30.7727C182.455 29.4565 183.063 27.6854 182.89 26.0382C182.452 21.8307 178.467 19.9149 174.947 19.9149L174.739 19.9175C174.061 19.9331 173.378 20.0276 172.698 20.185C176.409 18.0581 180.322 16.4468 184.468 15.6987C195.409 13.7265 207.5 23.1352 200.947 34.448C198.851 38.0646 194.299 39.3551 190.442 38.4126C184.924 37.0645 185.64 30.6779 187.922 27.6049C189.676 25.2454 185.742 24.7683 185.324 26.5857C183.156 31.3863 183.797 36.2013 187.463 38.7221H150.322C154.835 34.4543 159.649 29.6805 164.881 25.546ZM4.25936 24.4525C4.25936 24.4525 10.3279 20.3896 15.564 29.8928C15.564 29.8928 10.3843 23.0752 4.25936 24.4525ZM233.843 27.1943C233.187 29.023 235.621 28.3965 235.931 27.5551C236.241 26.716 238.756 27.1522 238.643 29.0704C238.532 30.9874 236.218 31.0464 233.784 31.7099C231.353 32.3712 232.027 36.6962 228.475 38.2629C227.723 38.5941 226.542 38.7003 225.125 38.7221H215.894C217.346 38.0366 218.632 36.9789 219.518 35.6899C222.053 32.0092 220.487 27.2199 216.654 25.5638C212.857 23.9218 209.645 26.9706 209.532 30.1933C209.46 32.3339 211.962 32.1014 211.777 30.5195C211.085 24.7096 219.178 26.2261 219.515 31.5718C219.735 35.0989 216.383 37.4521 213.209 37.7947C207.655 38.3935 205.574 33.0758 204.601 28.0664C204.595 27.6138 204.565 27.1623 204.509 26.7121C203.345 17.5798 193.604 13.5476 185.825 13.898C174.434 14.4147 163.7 24.2375 155.724 31.431C153.081 33.815 150.495 36.2767 147.891 38.7221H113.027C112.111 37.6287 110.775 36.7487 108.97 36.2078C108.821 36.1631 108.672 36.1425 108.523 36.108C107.124 33.6334 105.305 31.3762 102.91 29.5755C99.5958 27.0842 94.728 25.7108 89.213 25.7108C86.4958 25.7108 83.7279 26.037 80.9808 26.6775C78.2755 27.3093 75.5553 28.0575 72.8381 28.8429C73.1722 24.5676 74.4518 20.3305 76.7932 16.453C83.8323 4.80656 100.097 -0.378439 112.645 4.56235C122.965 8.62262 127.436 24.7453 116.332 30.2801C114.253 31.3174 115.452 33.3892 117.417 32.6076C123.362 30.2431 125.772 24.381 125.187 18.1911C124.492 10.8339 119.341 5.18495 112.141 2.58544C93.1353 -4.27262 72.5905 9.18022 71.0485 29.3555C67.2724 30.4784 63.5113 31.6845 59.8157 32.8751C48.8681 36.4035 38.528 39.7362 30.6734 39.7362C27.561 39.7362 25.0678 39.2182 23.0527 38.1541C20.3471 36.7243 18.5267 34.3201 17.4905 30.8034C16.2509 26.5729 19.1012 21.3115 23.7154 19.3141C25.023 18.7475 26.3622 18.4622 27.6964 18.4622C30.5287 18.4622 33.0989 19.7297 35.1301 22.125C35.8839 23.0138 36.3662 24.2963 36.7909 25.427C37.3561 26.9334 37.845 28.2352 38.8272 28.2352C38.9528 28.2352 39.087 28.2122 39.2227 28.1675C39.5436 28.0602 39.7649 27.8592 39.8815 27.5729C40.1873 26.8221 39.6319 25.7377 39.6027 25.684C36.3444 20.1311 32.0344 17.0733 27.4688 17.0733C26.0219 17.0733 24.5676 17.3854 23.1463 17.9994C21.377 18.7639 19.8305 19.9495 18.6111 21.3756C20.3497 13.7331 15.564 10.5411 15.564 10.5411C17.4458 17.2396 11.8401 14.5835 10.9829 20.0109C10.6733 21.9726 12.3672 23.8284 12.6013 24.8309C9.15751 21.8703 5.56278 22.4536 3.27924 23.7709C-2.28943 26.9846 0.490427 31.5515 2.4927 31.3595C4.49468 31.1666 2.84049 28.972 1.91825 29.0525C0.994508 29.1306 0.303711 26.3477 2.14969 25.5549C3.99687 24.7632 5.06528 27.1021 6.75258 29.2815C8.43601 31.4606 12.4567 28.5999 15.4808 31.4975C15.953 31.9505 16.384 32.4851 16.7807 33.054C17.9922 35.9711 19.8316 38.0697 22.3836 39.4201C24.9308 40.7643 28.0904 41.4191 32.0448 41.4191C33.2281 41.4191 34.456 41.3538 35.7135 41.2414C34.2616 42.4907 33.3202 44.1405 33.1282 46.1073C32.6113 51.3892 36.8329 51.3892 37.635 49.9004C38.4436 48.4146 36.2662 48.637 35.8889 49.3187C35.5116 50.0015 33.4031 49.2993 33.7512 47.6638C34.0978 46.0295 36.0962 46.2776 38.2748 46.0268C40.4545 45.7724 39.1114 41.2861 42.3748 40.4038H72.0895C74.067 47.9002 78.532 54.8728 84.7539 59.194C94.6147 66.0488 107.222 65.5705 118.16 61.9602C118.777 61.7568 119.386 61.5266 119.994 61.2914C114.736 66.674 113.477 73.369 117.408 78.4473C122.452 84.9529 127.212 80.4591 126.535 77.9255C125.858 75.3921 123.642 77.9588 123.943 79.1289C124.245 80.2992 121.119 81.7505 119.768 79.5356C118.422 77.3231 120.94 75.4777 123.129 72.8728C124.152 71.6527 123.758 69.9951 123.332 68.1193C123.952 69.4826 124.981 70.6106 126.422 71.3766C131.108 73.8729 132.718 69.971 131.651 68.6614C130.586 67.3467 129.959 69.4429 130.446 70.0542C130.935 70.6616 129.479 72.3409 128.098 71.3945C126.72 70.4493 127.714 68.6999 128.313 66.5897C128.913 64.4795 125.309 63.505 125.736 60.1532C125.87 59.1376 127.409 57.7833 128.692 56.8447C135.946 52.2638 142.54 46.0638 148.542 40.4038H192.438C193.166 40.4703 193.878 40.4816 194.567 40.4038H226.733V40.3871C234.416 40.5904 239.925 36.5761 239.621 30.7291C239.299 24.6404 234.506 25.3667 233.843 27.1943" fill="#DBAA5D"/>
</svg>
