<svg width="443" height="76" viewBox="0 0 443 76" fill="none" xmlns="http://www.w3.org/2000/svg">
<path d="M242.316 25.092C242.73 24.9099 243.037 24.5596 243.191 24.0004C243.337 23.4499 243.289 22.6936 242.903 21.8367C242.52 20.9862 241.733 20.066 240.601 19.4137C239.475 18.7517 238.031 18.4261 236.62 18.5289C235.906 18.56 235.014 18.7657 234.067 19.1427C233.12 19.5208 232.142 20.1089 231.264 20.8705C230.383 21.6289 229.599 22.5555 228.978 23.5592C228.355 24.5629 227.893 25.6394 227.579 26.6913C227.28 27.7506 227.124 28.7779 227.067 29.7098C227.049 30.1769 227.046 30.6193 227.059 31.0306C227.089 31.4441 227.112 31.8254 227.161 32.1724C227.216 32.5195 227.273 32.8312 227.329 33.1033C227.389 33.3754 227.469 33.6078 227.533 33.7974C227.668 34.1766 227.791 34.3823 227.895 34.3823C227.986 34.3823 228.111 34.1767 228.261 33.82C228.418 33.4204 228.61 32.9266 228.83 32.3631C228.948 32.0664 229.095 31.7515 229.233 31.4183C229.387 31.0895 229.556 30.7478 229.735 30.3997C230.109 29.7088 230.555 29.0071 231.056 28.358C231.572 27.7185 232.148 27.138 232.745 26.6677C233.343 26.1964 233.96 25.8365 234.533 25.5912C235.105 25.3416 235.631 25.2087 236.059 25.1477C236.165 25.1209 236.267 25.122 236.363 25.1091C236.457 25.0963 236.547 25.0823 236.629 25.0845C236.711 25.0813 236.788 25.0738 236.86 25.0641C236.929 25.0663 236.994 25.0642 237.052 25.0588C237.526 25.0267 237.906 24.9988 238.286 24.9828C238.666 24.9656 239.082 24.9549 239.538 25.0138C240.452 25.1059 241.479 25.4572 242.316 25.092Z" fill="url(#paint0_linear_150_12414)"/>
<path d="M228.141 17.5109C225.605 23.2674 224.922 31.3451 224.842 32.4109C224.837 32.4784 224.798 32.5288 224.751 32.5288L222.276 35.3309C221.948 35.7015 221.369 35.7015 221.042 35.3309L218.566 32.5288C218.519 32.5288 218.48 32.4784 218.475 32.4109C218.395 31.3451 217.821 23.8886 215.176 17.5109C215.155 17.4616 220.276 8.30948 221.429 6.39636C221.545 6.20355 221.772 6.20355 221.888 6.39636C223.042 8.30948 228.163 17.4627 228.141 17.5109Z" fill="url(#paint1_linear_150_12414)"/>
<path d="M200.673 25.092C200.259 24.9099 199.953 24.5596 199.798 24.0004C199.653 23.4499 199.701 22.6936 200.087 21.8367C200.469 20.9862 201.257 20.066 202.389 19.4137C203.515 18.7517 204.959 18.4261 206.369 18.5289C207.083 18.56 207.975 18.7657 208.923 19.1427C209.87 19.5208 210.848 20.1089 211.725 20.8705C212.607 21.6289 213.391 22.5555 214.011 23.5592C214.636 24.5629 215.097 25.6394 215.411 26.6913C215.71 27.7506 215.865 28.7779 215.922 29.7098C215.941 30.1769 215.944 30.6193 215.931 31.0306C215.899 31.4441 215.878 31.8254 215.829 32.1724C215.773 32.5195 215.717 32.8312 215.661 33.1033C215.601 33.3754 215.521 33.6078 215.456 33.7974C215.321 34.1766 215.198 34.3823 215.095 34.3823C215.004 34.3823 214.878 34.1767 214.728 33.82C214.572 33.4204 214.38 32.9266 214.16 32.3631C214.041 32.0664 213.894 31.7515 213.756 31.4183C213.602 31.0895 213.433 30.7478 213.255 30.3997C212.88 29.7088 212.435 29.0071 211.933 28.358C211.417 27.7185 210.842 27.138 210.244 26.6677C209.647 26.1964 209.03 25.8365 208.457 25.5912C207.885 25.3416 207.358 25.2087 206.931 25.1477C206.823 25.1209 206.723 25.122 206.627 25.1091C206.532 25.0963 206.443 25.0823 206.361 25.0845C206.278 25.0813 206.201 25.0738 206.129 25.0641C206.061 25.0663 205.997 25.0642 205.938 25.0588C205.463 25.0267 205.083 24.9988 204.703 24.9828C204.323 24.9656 203.908 24.9549 203.451 25.0138C202.538 25.1059 201.512 25.4572 200.673 25.092Z" fill="url(#paint2_linear_150_12414)"/>
<path d="M221.602 37.5585C221.602 37.5585 216.987 47.3544 221.602 47.3716C226.314 47.3876 221.874 36.9715 221.602 37.5585Z" fill="url(#paint3_linear_150_12414)"/>
<path d="M224.113 37.5819C224.113 37.5819 227.196 45.0909 229.54 42.5458C231.933 39.9482 223.926 37.1341 224.113 37.5819Z" fill="url(#paint4_linear_150_12414)"/>
<path d="M219.1 37.8676C219.1 37.8676 211.091 39.1905 213.046 42.0441C215.041 44.9587 219.578 37.7862 219.1 37.8676Z" fill="url(#paint5_linear_150_12414)"/>
<path d="M404.812 18.8761C404.325 16.7649 403.55 14.8303 402.61 13.1379C401.669 11.4422 400.568 9.98861 399.449 8.74819C398.338 7.4917 397.071 6.4216 395.778 5.42755C395.447 5.19082 395.117 4.95298 394.786 4.71732C394.625 4.59735 394.449 4.48488 394.27 4.37562L393.737 4.04569C393.387 3.81646 393.017 3.63115 392.652 3.4362L392.105 3.14701L391.545 2.89313C390.057 2.21079 388.526 1.69019 386.986 1.32706C385.447 0.961792 383.904 0.704739 382.37 0.582626C379.303 0.330898 376.286 0.497967 373.398 0.999275C371.954 1.25207 370.535 1.57453 369.163 1.9955C368.472 2.18938 367.8 2.43468 367.129 2.66713C366.794 2.78389 366.467 2.92419 366.138 3.05167C365.81 3.18342 365.483 3.3098 365.163 3.46083C364.843 3.60545 364.523 3.75008 364.206 3.89469C363.89 4.0468 363.581 4.21065 363.271 4.36704L362.807 4.60487L362.354 4.86194C362.054 5.0344 361.755 5.20689 361.456 5.37828C361.166 5.56573 360.877 5.75209 360.588 5.9374L360.158 6.21696L359.742 6.51693C359.466 6.71831 359.191 6.9186 358.917 7.11784C358.653 7.33208 358.389 7.54524 358.127 7.7584C357.861 7.96621 357.612 8.19222 357.364 8.42145C357.118 8.65068 356.866 8.87133 356.627 9.10485C356.166 9.59116 355.685 10.0475 355.269 10.5649C354.39 11.5525 353.658 12.6472 352.988 13.7441C352.836 14.0291 352.684 14.3108 352.533 14.5925L352.309 15.0156L352.114 15.4537C351.986 15.7461 351.858 16.0364 351.731 16.3257C351.626 16.6245 351.521 16.9223 351.417 17.219L351.264 17.6625C351.218 17.8125 351.182 17.9646 351.142 18.1156C351.065 18.4177 350.986 18.7176 350.91 19.0165C350.849 19.3196 350.801 19.6249 350.748 19.9259L350.671 20.3769C350.651 20.5279 350.641 20.68 350.626 20.831C350.6 21.1331 350.574 21.4331 350.547 21.7319C350.544 22.0318 350.541 22.3307 350.538 22.6274L350.536 23.0719L350.568 23.5133C350.59 23.8057 350.613 24.096 350.635 24.3863C350.679 24.6723 350.724 24.9572 350.767 25.2411C350.79 25.3825 350.81 25.5238 350.836 25.6631L350.934 26.0787C351 26.354 351.064 26.6282 351.134 26.8992C351.22 27.1649 351.306 27.4295 351.39 27.6919C351.433 27.8226 351.473 27.9554 351.52 28.084L351.675 28.4632C351.779 28.7149 351.883 28.9645 351.986 29.213C352.107 29.4519 352.227 29.6907 352.347 29.9274L352.526 30.2799C352.59 30.3956 352.661 30.5059 352.728 30.6184C352.863 30.8412 352.998 31.0629 353.132 31.2836C353.272 31.5 353.429 31.7045 353.574 31.9113C353.858 32.3322 354.193 32.7071 354.509 33.0853C355.806 34.5763 357.331 35.6947 358.863 36.4927C360.402 37.2886 361.97 37.7406 363.428 37.9292C364.886 38.1112 366.237 38.0738 367.406 37.851C367.553 37.8274 367.699 37.8081 367.84 37.7802C367.981 37.746 368.118 37.7117 368.254 37.6774C368.524 37.6089 368.786 37.5425 369.041 37.4782C369.535 37.3057 369.998 37.1515 370.414 36.9801C370.814 36.7905 371.189 36.6137 371.537 36.4488C371.663 36.3748 371.779 36.3052 371.895 36.2356C374.469 35.7932 376.43 33.5566 376.43 30.8561C376.43 27.8376 373.983 25.391 370.965 25.391C367.947 25.391 365.501 27.8376 365.501 30.8561C365.501 33.2224 367.007 35.2308 369.112 35.9914C368.979 36.0181 368.848 36.0438 368.711 36.0738C368.475 36.1017 368.234 36.1317 367.986 36.1628C367.862 36.1778 367.736 36.1938 367.609 36.211C367.48 36.2206 367.35 36.2217 367.218 36.2281C366.167 36.3106 364.994 36.2217 363.766 35.9571C362.537 35.6872 361.249 35.2009 360.007 34.4435C358.771 33.683 357.559 32.6729 356.557 31.3714C356.313 31.0404 356.051 30.7191 355.837 30.3549C355.726 30.176 355.605 30.0014 355.499 29.8171C355.399 29.6297 355.298 29.4401 355.195 29.2505C355.146 29.1551 355.091 29.0609 355.043 28.9634L354.911 28.6656C354.823 28.4664 354.733 28.266 354.645 28.0647C354.571 27.8569 354.497 27.6469 354.422 27.437L354.308 27.122C354.276 27.0149 354.249 26.9057 354.219 26.7964C354.16 26.579 354.1 26.3615 354.04 26.1419C353.997 25.9181 353.954 25.6931 353.911 25.4671L353.844 25.1275C353.828 25.014 353.819 24.8983 353.806 24.7826C353.78 24.5523 353.753 24.3198 353.728 24.0874C353.72 23.8528 353.713 23.6171 353.705 23.3804L353.693 23.0248L353.712 22.667C353.723 22.4282 353.735 22.1882 353.746 21.9472C353.778 21.7072 353.81 21.4662 353.841 21.2241C353.857 21.1042 353.869 20.982 353.889 20.861L353.967 20.5001C354.02 20.259 354.067 20.0159 354.124 19.7738C354.196 19.5349 354.267 19.295 354.34 19.054C354.377 18.934 354.408 18.8118 354.45 18.6919L354.589 18.3374C354.681 18.0996 354.773 17.8617 354.866 17.6218C354.979 17.3894 355.092 17.1559 355.206 16.9223L355.375 16.5699L355.573 16.2261C355.706 15.9968 355.839 15.7676 355.973 15.5362C358.252 11.9113 362.077 8.89811 366.686 7.01606C366.968 6.88752 367.263 6.7815 367.556 6.67117C367.851 6.56405 368.141 6.44408 368.441 6.34553C369.042 6.15165 369.642 5.94276 370.262 5.78101C371.491 5.42646 372.761 5.16078 374.052 4.95404C376.637 4.54379 379.324 4.4324 382.006 4.67877C383.348 4.7966 384.68 5.03441 385.991 5.35469C387.306 5.67283 388.585 6.12167 389.8 6.68618L390.259 6.89503L390.7 7.13285C390.994 7.29139 391.296 7.44133 391.571 7.62665L391.994 7.89125C392.137 7.97588 392.278 8.06584 392.418 8.17296C392.7 8.37541 392.982 8.57788 393.265 8.78141C394.359 9.63085 395.428 10.5295 396.343 11.5728C397.271 12.6001 398.175 13.7891 398.946 15.1677C399.717 16.5431 400.354 18.1092 400.763 19.8338C401.173 21.5562 401.357 23.4361 401.266 25.4039C401.262 25.8966 401.191 26.3926 401.147 26.8949C401.097 27.3963 400.999 27.8997 400.924 28.4096C400.715 29.4229 400.479 30.4545 400.129 31.4775C399.81 32.509 399.371 33.5244 398.908 34.5453C398.405 35.55 397.874 36.5655 397.231 37.5349C396.613 38.5204 395.894 39.462 395.134 40.3886C394.736 40.8363 394.354 41.3055 393.922 41.7329C393.71 41.9503 393.505 42.1763 393.284 42.3884C393.061 42.5984 392.838 42.8084 392.613 43.0194C392.394 43.2358 392.157 43.4339 391.92 43.6342C391.682 43.8334 391.453 44.0381 391.206 44.2373C390.694 44.6347 390.18 45.0342 389.661 45.4349C389.401 45.633 389.147 45.843 388.879 46.0326C388.611 46.2211 388.343 46.4118 388.073 46.6014C387.803 46.791 387.533 46.9816 387.263 47.1734C386.992 47.3651 386.722 47.559 386.438 47.7304C385.877 48.086 385.313 48.4427 384.747 48.8005C384.176 49.1497 383.581 49.4603 382.995 49.7956C382.414 50.1416 381.8 50.4265 381.19 50.7243C380.884 50.8743 380.579 51.0232 380.272 51.1732C379.967 51.3274 379.645 51.442 379.331 51.5791C379.015 51.7119 378.698 51.8437 378.382 51.9766C378.065 52.1115 377.748 52.2464 377.419 52.3536C376.765 52.5828 376.111 52.8131 375.453 53.0445C374.783 53.2394 374.11 53.4344 373.434 53.6315C373.099 53.7375 372.752 53.8083 372.407 53.8918C372.062 53.9722 371.716 54.0536 371.37 54.135C368.59 54.7488 365.712 55.1794 362.766 55.4364C362.032 55.5125 361.288 55.5457 360.547 55.6035L359.432 55.6817L358.308 55.7332C357.558 55.7653 356.806 55.7964 356.054 55.8285C355.298 55.8446 354.542 55.8617 353.783 55.8778C353.025 55.8992 352.264 55.9056 351.501 55.9056C350.738 55.9099 349.973 55.9131 349.208 55.9174C348.453 55.9002 347.697 55.882 346.938 55.8638L345.802 55.837C345.423 55.8274 345.044 55.7921 344.664 55.7707C343.905 55.7214 343.145 55.6721 342.386 55.6218C341.625 55.565 340.867 55.4707 340.106 55.3968C338.584 55.264 337.069 55.024 335.549 54.8205C334.788 54.7209 334.033 54.5709 333.276 54.4488C332.518 54.3138 331.758 54.2067 331.005 54.0471C329.495 53.745 327.983 53.4623 326.483 53.1109C323.474 52.4586 320.493 51.6755 317.529 50.8882C314.57 50.0688 311.63 49.229 308.719 48.3474C305.807 47.4776 302.92 46.5864 300.06 45.7134C297.203 44.8372 294.351 43.9888 291.568 43.1597C285.998 41.4844 280.579 39.7758 275.3 38.4015C272.664 37.7074 270.056 37.1193 267.501 36.6159C264.944 36.1178 262.426 35.7675 259.976 35.5104C255.067 35.0702 250.406 35.1762 246.229 35.9217C244.141 36.2902 242.167 36.8055 240.369 37.521C238.575 38.2366 236.953 39.176 235.694 40.3821C235.067 40.9841 234.529 41.6461 234.13 42.3585C233.728 43.0697 233.459 43.812 233.292 44.5415C233.259 44.7258 233.226 44.9079 233.192 45.0878C233.157 45.2667 233.155 45.4488 233.136 45.6256C233.096 45.979 233.095 46.3325 233.112 46.6731C233.153 47.3555 233.281 47.9928 233.465 48.5766C233.833 49.7431 234.42 50.6954 235.091 51.3638C235.759 52.0397 236.522 52.405 237.161 52.5153C237.803 52.6321 238.302 52.5432 238.616 52.4628C238.776 52.4264 238.891 52.3782 238.969 52.3482C239.045 52.3172 239.083 52.299 239.081 52.2915C239.074 52.2701 238.913 52.3183 238.597 52.3654C238.283 52.4093 237.8 52.4553 237.206 52.3086C236.614 52.1672 235.928 51.7934 235.333 51.1324C234.733 50.4779 234.218 49.5568 233.912 48.4449C233.761 47.8889 233.664 47.2858 233.649 46.6517C233.644 46.3346 233.656 46.0133 233.706 45.6823C233.73 45.5184 233.736 45.3481 233.775 45.1831C233.812 45.0171 233.848 44.85 233.884 44.6807C234.062 44.0134 234.331 43.3429 234.718 42.7055C235.102 42.0671 235.614 41.4758 236.211 40.9359C237.409 39.8572 238.961 39.011 240.697 38.3747C242.438 37.7384 244.362 37.2897 246.402 36.9854C250.491 36.3663 255.037 36.3749 259.825 36.918C262.219 37.2275 264.679 37.6271 267.183 38.1745C269.686 38.7272 272.243 39.3624 274.836 40.1069C280.028 41.5787 285.379 43.3889 290.938 45.1864C293.726 46.0787 296.524 46.9731 299.366 47.905C302.207 48.8326 305.078 49.7806 307.986 50.7094C310.89 51.6488 313.838 52.5517 316.811 53.4333C319.793 54.2849 322.796 55.1322 325.849 55.851C327.367 56.2355 328.906 56.5515 330.441 56.8868C331.206 57.0625 331.986 57.1867 332.757 57.3378C333.532 57.477 334.302 57.6431 335.08 57.7588C336.639 57.9955 338.19 58.2675 339.759 58.4325C340.542 58.5214 341.323 58.6307 342.107 58.7035C342.894 58.7678 343.679 58.832 344.463 58.8963C344.856 58.9252 345.247 58.967 345.64 58.9852L346.819 59.0324C347.606 59.0634 348.391 59.0945 349.175 59.1256C349.951 59.1341 350.725 59.1427 351.497 59.1523C352.271 59.1631 353.043 59.1695 353.816 59.1598C354.59 59.1555 355.361 59.1513 356.131 59.147C356.903 59.1256 357.673 59.1052 358.442 59.0849L359.594 59.0506L360.748 58.9885C361.515 58.9403 362.281 58.9167 363.047 58.8492C366.106 58.6285 369.147 58.2247 372.126 57.612C372.497 57.5306 372.868 57.4492 373.239 57.3677C373.609 57.2842 373.98 57.2124 374.344 57.1042C375.076 56.9018 375.806 56.7015 376.531 56.5012C377.247 56.2612 377.961 56.0213 378.671 55.7835C379.029 55.6721 379.376 55.5307 379.722 55.3893C380.069 55.2511 380.414 55.1119 380.76 54.9726C381.103 54.8291 381.455 54.7048 381.788 54.5441C382.123 54.3867 382.458 54.2292 382.792 54.0728C383.459 53.7579 384.129 53.4537 384.762 53.0916C385.4 52.7392 386.049 52.4082 386.669 52.0408C387.283 51.6627 387.894 51.2878 388.502 50.9139C388.811 50.7329 389.101 50.5294 389.392 50.3291C389.684 50.1287 389.974 49.9295 390.264 49.7303C390.555 49.531 390.844 49.3329 391.132 49.1347C391.42 48.9365 391.69 48.718 391.968 48.5123C392.521 48.0946 393.071 47.679 393.618 47.2655C393.891 47.0502 394.162 46.8167 394.434 46.5939C394.705 46.369 394.977 46.1461 395.231 45.904C395.489 45.6673 395.747 45.4306 396.003 45.1949C396.256 44.9561 396.494 44.7022 396.738 44.4579C397.234 43.9748 397.679 43.4489 398.136 42.9412C399.017 41.8957 399.847 40.8288 400.568 39.7095C401.315 38.6072 401.941 37.4493 402.528 36.2978C403.078 35.1259 403.592 33.9562 403.979 32.7586C405.622 28.0047 405.793 23.0923 404.812 18.8761Z" fill="url(#paint6_linear_150_12414)"/>
<path d="M267.441 50.9472C267.378 50.7426 267.513 50.4952 267.848 50.2049C268.015 50.0592 268.234 49.9039 268.5 49.74C268.634 49.6586 268.78 49.5675 268.939 49.4904C269.1 49.4197 269.274 49.3479 269.459 49.2762C270.934 48.6303 273.261 48.22 276.088 48.3421C278.921 48.4546 282.179 49.1862 285.583 50.3613C287.276 50.9633 289.012 51.666 290.76 52.4544C292.506 53.246 294.255 54.1083 296.02 54.9877C303.144 58.4465 318.418 67.3534 333.57 70.7768C341.109 72.5507 348.432 73.2052 353.82 73.4312C355.168 73.4762 356.398 73.549 357.481 73.5726C358.564 73.579 359.503 73.5919 360.274 73.6123C361.818 73.6508 362.689 73.7172 362.697 73.8158C362.705 73.9015 361.853 74.0696 360.32 74.301C359.554 74.4167 358.617 74.5474 357.533 74.692C356.447 74.8194 355.209 74.9051 353.846 75.024C348.404 75.4472 340.869 75.5285 332.882 74.3663C328.905 73.7418 324.819 72.8849 320.875 71.7538C319.886 71.4849 318.922 71.156 317.95 70.8615C317.466 70.7094 316.983 70.5583 316.503 70.4084C316.028 70.2423 315.557 70.0785 315.088 69.9146C314.147 69.5814 313.218 69.2515 312.303 68.928C311.397 68.5756 310.503 68.2296 309.628 67.889C308.745 67.5537 307.892 67.2023 307.059 66.8488C306.223 66.4975 305.405 66.1537 304.61 65.8195C303.033 65.1253 301.533 64.4612 300.145 63.8281C297.374 62.5513 295.023 61.4255 293.249 60.5364C291.51 59.6516 289.812 58.7882 288.138 57.9356C286.513 57.114 284.952 56.3577 283.462 55.669C280.481 54.3257 277.771 53.2867 275.451 52.6814C273.136 52.0698 271.208 51.7849 269.826 51.6617L269.327 51.5867L268.888 51.5428C268.613 51.5107 268.37 51.4678 268.166 51.4132C267.758 51.305 267.503 51.1518 267.441 50.9472Z" fill="url(#paint7_linear_150_12414)"/>
<path d="M422.077 20.7749C422.634 21.2494 422.624 22.297 422.163 23.622C421.702 24.9428 420.792 26.556 419.496 28.1402C418.21 29.7127 414.879 33.0045 411.494 35.4949C409.812 36.745 408.12 37.7669 406.813 38.3817C406.166 38.7042 405.607 38.9099 405.209 39.032C404.813 39.1552 404.575 39.1883 404.53 39.1176C404.491 39.0544 404.623 38.8498 404.883 38.5381C405.144 38.2275 405.538 37.8173 405.991 37.2892C406.92 36.2608 408.12 34.8394 409.309 33.2519C411.698 30.0984 414.108 26.3321 415.382 24.7746C416.646 23.2225 418.028 21.9735 419.249 21.2419C420.471 20.5103 421.52 20.3025 422.077 20.7749Z" fill="url(#paint8_linear_150_12414)"/>
<path d="M442.814 37.5856C442.792 39.4323 438.883 40.798 434.266 40.9544C431.931 41.0251 426.778 40.7038 422.172 41.0734C419.869 41.2405 417.695 41.5457 416.077 41.8382C415.263 41.9549 414.61 42.0995 414.128 42.152C413.646 42.2088 413.346 42.2002 413.303 42.106C413.26 42.0224 413.442 41.806 413.817 41.4836C414.181 41.1655 414.728 40.7145 415.445 40.2603C416.859 39.2973 418.937 38.1983 421.273 37.276C423.608 36.3452 426.189 35.605 428.482 35.1219C430.785 34.6367 432.788 34.3774 434.019 34.3378C436.483 34.2499 438.701 34.6142 440.286 35.2247C441.861 35.831 442.825 36.6741 442.814 37.5856Z" fill="url(#paint9_linear_150_12414)"/>
<path d="M405.419 48.8276C405.419 48.8276 404.499 49.6289 402.907 51.015C401.264 52.3978 398.808 54.3142 395.592 56.4566C392.35 58.5475 388.345 60.8687 383.623 62.9157C378.901 64.9499 373.458 66.6959 367.568 67.7082C361.68 68.7258 355.926 68.8575 350.779 68.3316C350.458 68.3037 350.138 68.2856 349.821 68.2481C349.505 68.202 349.191 68.1559 348.878 68.1099C348.257 68.0178 347.643 67.9256 347.035 67.8346C346.431 67.7317 345.833 67.6729 345.254 67.5357C344.677 67.4051 344.107 67.2776 343.546 67.1501C342.426 66.8887 341.353 66.6777 340.314 66.3381C339.793 66.1903 339.297 66.02 338.816 65.8454C338.332 65.6762 337.86 65.5091 337.412 65.327C335.602 64.6275 334.028 63.9216 332.633 63.3442C331.938 63.0485 331.289 62.7829 330.688 62.5548C330.09 62.3095 329.534 62.1209 329.032 61.9463C328.781 61.8585 328.543 61.7739 328.319 61.6946C328.083 61.6143 327.87 61.5286 327.678 61.4354C327.295 61.2468 327.027 61.0829 326.75 61.0497C326.483 61.009 326.27 61.0369 326.129 61.0594C325.987 61.0797 325.914 61.0894 325.914 61.0894C325.914 61.0894 325.984 61.0637 326.12 61.0144C326.255 60.963 326.467 60.888 326.76 60.8741C327.052 60.8451 327.431 60.9769 327.81 61.0808C328.191 61.1901 328.643 61.2319 329.184 61.3261C329.718 61.4097 330.314 61.5018 330.954 61.6443C331.601 61.7717 332.296 61.9302 333.037 62.1145C334.523 62.4701 336.195 62.9382 338.024 63.3753C338.481 63.4942 338.948 63.5927 339.425 63.6934C339.901 63.8005 340.387 63.9034 340.883 63.9794C341.857 64.1744 342.932 64.2612 344.019 64.3961C344.565 64.4604 345.119 64.5268 345.679 64.5942C346.241 64.6703 346.82 64.6703 347.402 64.7142C347.985 64.7496 348.575 64.786 349.172 64.8224C349.471 64.8417 349.771 64.861 350.073 64.8803C350.377 64.891 350.683 64.8835 350.99 64.8878C355.903 65.0131 361.299 64.6404 366.879 63.6774C372.46 62.7176 377.7 61.3036 382.378 59.6969C387.054 58.0805 391.163 56.283 394.585 54.6762C397.982 53.0202 400.692 51.5506 402.542 50.4901C404.365 49.436 405.419 48.8276 405.419 48.8276Z" fill="url(#paint10_linear_150_12414)"/>
<path d="M425.031 56.316C423.467 57.2469 421.218 56.5303 419.44 54.7821C419.001 54.3418 418.369 53.5299 417.63 52.6312C416.88 51.7303 416.001 50.7448 415.123 49.9971C414.234 49.2419 413.356 48.7514 412.552 48.6539C411.749 48.5339 411.085 48.7803 410.945 48.6057C410.881 48.5382 410.913 48.354 411.063 48.054C411.224 47.768 411.524 47.3845 412.038 47.0353C412.542 46.6754 413.27 46.413 414.063 46.3037C414.866 46.1923 415.744 46.2351 416.591 46.3819C418.283 46.6765 419.9 47.3546 421.218 48.0669C422.536 48.7803 423.553 49.5397 424.11 50.086C425.213 51.1818 425.856 52.5004 426.006 53.668C426.167 54.8378 425.803 55.8361 425.031 56.316Z" fill="url(#paint11_linear_150_12414)"/>
<path d="M38.4905 18.8326C38.9779 16.7213 39.7524 14.7879 40.6939 13.0943C41.6333 11.3987 42.7345 9.94508 43.855 8.70465C44.9647 7.44817 46.2319 6.37699 47.5248 5.38401C47.8558 5.14728 48.1868 4.91056 48.5167 4.67384C48.6774 4.55386 48.8531 4.44137 49.033 4.33318L49.5654 4.0022C49.9157 3.77297 50.2852 3.58767 50.6505 3.39271L51.1979 3.10457L51.7571 2.84959C53.2449 2.16726 54.7766 1.6467 56.3159 1.28357C57.8552 0.918304 59.3988 0.661201 60.9327 0.539085C63.9995 0.288429 67.0159 0.454479 69.9059 0.955788C71.3499 1.20858 72.7671 1.53102 74.1403 1.95306C74.8312 2.14587 75.5029 2.39114 76.1734 2.62359C76.5087 2.74035 76.8354 2.88175 77.1643 3.00922C77.4931 3.13991 77.8208 3.26738 78.139 3.41735C78.4593 3.56303 78.7796 3.70761 79.0977 3.85115C79.4126 4.00326 79.7222 4.16714 80.0318 4.3246L80.4956 4.56133L80.9487 4.81845C81.2486 4.99199 81.5486 5.16335 81.8464 5.33474C82.1367 5.5222 82.4259 5.70855 82.7151 5.89386L83.1446 6.17348L83.5613 6.47339C83.8366 6.67477 84.1119 6.87506 84.3861 7.0743C84.6496 7.28961 84.9131 7.5028 85.1756 7.71596C85.4412 7.9227 85.6908 8.14978 85.9382 8.37901C86.1846 8.60717 86.4364 8.82785 86.6752 9.06136C87.1369 9.54768 87.6178 10.004 88.0334 10.5225C88.914 11.509 89.6445 12.6037 90.314 13.7006C90.4661 13.9856 90.6182 14.2683 90.7703 14.549L90.9942 14.9721L91.1881 15.4113C91.3166 15.7026 91.4441 15.9929 91.5716 16.2821C91.6765 16.581 91.7815 16.8788 91.8854 17.1755L92.0386 17.62C92.0846 17.7689 92.12 17.9221 92.1607 18.0721C92.2389 18.3742 92.316 18.6741 92.3932 18.9729C92.4531 19.2761 92.5013 19.5814 92.5549 19.8824L92.6309 20.3333C92.6513 20.4844 92.661 20.6365 92.676 20.7875C92.7027 21.0896 92.7295 21.3906 92.7552 21.6884C92.7584 21.9894 92.7616 22.2882 92.7648 22.585L92.7659 23.0284L92.7349 23.4697C92.7124 23.7611 92.6899 24.0525 92.6674 24.3417C92.6235 24.6287 92.5785 24.9137 92.5356 25.1976C92.5121 25.339 92.4927 25.4803 92.466 25.6207L92.3685 26.0352C92.3021 26.3105 92.24 26.5858 92.1682 26.8557C92.0836 27.1214 91.9979 27.386 91.9122 27.6484C91.8693 27.7791 91.8297 27.9119 91.7826 28.0404L91.6273 28.4196C91.5234 28.6713 91.4194 28.9209 91.3166 29.1694C91.1955 29.4094 91.0756 29.6472 90.9556 29.884L90.7767 30.2374C90.7124 30.352 90.6418 30.4634 90.5743 30.5748C90.4393 30.7987 90.3044 31.0204 90.1705 31.24C90.0301 31.4564 89.8748 31.661 89.7281 31.8677C89.4442 32.2898 89.1089 32.6647 88.7929 33.0418C87.4968 34.5329 85.9725 35.6511 84.4397 36.4491C82.9004 37.245 81.3322 37.6982 79.8754 37.8856C78.4165 38.0688 77.0667 38.0302 75.896 37.8074C75.7492 37.7839 75.6035 37.7656 75.4621 37.7367C75.3229 37.7024 75.1847 37.6682 75.0487 37.635C74.7788 37.5664 74.5163 37.5 74.2614 37.4347C73.7676 37.2622 73.3048 37.108 72.8892 36.9366C72.4886 36.748 72.1147 36.5702 71.7655 36.4053C71.6402 36.3314 71.5234 36.2617 71.4077 36.1921C68.8337 35.7508 66.8724 33.5131 66.8724 30.8127C66.8724 27.7952 69.319 25.3475 72.3375 25.3475C75.355 25.3475 77.8027 27.7952 77.8027 30.8127C77.8027 33.1789 76.2955 35.1873 74.1906 35.9479C74.3245 35.9747 74.4552 36.0004 74.5923 36.0304C74.8269 36.0593 75.068 36.0882 75.3165 36.1193C75.4407 36.1353 75.5671 36.1514 75.6935 36.1674C75.8221 36.1782 75.9528 36.1781 76.0845 36.1856C77.1364 36.2671 78.3083 36.1781 79.5369 35.9136C80.7655 35.6436 82.0531 35.1584 83.2956 34.4C84.5318 33.6395 85.7443 32.6305 86.7459 31.3279C86.9891 30.9969 87.2515 30.6755 87.4657 30.3113C87.5771 30.1324 87.6971 29.9589 87.8032 29.7736C87.9038 29.5861 88.0045 29.3965 88.1074 29.2069C88.1577 29.1116 88.2113 29.0174 88.2595 28.9209L88.3913 28.6221C88.4791 28.4228 88.569 28.2226 88.658 28.0212C88.7319 27.8134 88.8069 27.6045 88.8808 27.3945L88.9943 27.0785C89.0275 26.9714 89.0532 26.8621 89.0832 26.7529C89.1421 26.5365 89.2032 26.318 89.2621 26.0984C89.305 25.8745 89.3489 25.6496 89.3917 25.4236L89.4581 25.0851C89.4742 24.9704 89.4838 24.8548 89.4977 24.7391C89.5224 24.5088 89.5492 24.2764 89.5749 24.0439C89.5824 23.8093 89.5899 23.5737 89.5974 23.3369L89.6102 22.9813L89.5909 22.6235C89.5792 22.3846 89.5674 22.1447 89.5567 21.9037C89.5245 21.6638 89.4935 21.4227 89.4613 21.1817C89.4453 21.0607 89.4335 20.9386 89.4131 20.8175L89.3349 20.4576C89.2824 20.2155 89.2353 19.9723 89.1785 19.7313C89.1068 19.4925 89.035 19.2525 88.9632 19.0104C88.9258 18.8905 88.8947 18.7683 88.8529 18.6494L88.7137 18.2938C88.6215 18.056 88.5294 17.8182 88.4362 17.5794C88.3238 17.3469 88.2102 17.1134 88.0967 16.8788L87.9274 16.5264L87.7293 16.1836C87.5975 15.9544 87.4636 15.7241 87.3308 15.4927C85.0513 11.8678 81.2251 8.85463 76.618 6.97257C76.3341 6.8451 76.0406 6.73796 75.746 6.62763C75.4514 6.52052 75.1612 6.40054 74.8612 6.30199C74.2603 6.10811 73.6604 5.89925 73.0402 5.73857C71.8116 5.38402 70.5411 5.1173 69.2504 4.91056C66.6667 4.5003 63.978 4.38886 61.2969 4.63523C59.9547 4.75414 58.6222 4.99194 57.3111 5.31115C55.9978 5.62929 54.7177 6.07811 53.5019 6.64369L53.0435 6.85259L52.6022 7.08931C52.3087 7.24785 52.0077 7.3978 51.7313 7.58311L51.3082 7.84771C51.1657 7.93234 51.0243 8.0223 50.884 8.12942C50.6023 8.33187 50.3206 8.53542 50.0389 8.73787C48.9441 9.58731 47.874 10.4871 46.9593 11.5294C46.0316 12.5577 45.1275 13.7456 44.3563 15.1242C43.585 16.5007 42.9487 18.0656 42.5396 19.7902C42.1293 21.5127 41.9451 23.3926 42.0361 25.3603C42.0404 25.8531 42.1111 26.3491 42.155 26.8515C42.2064 27.3538 42.3039 27.8562 42.3789 28.3672C42.5888 29.3794 42.8234 30.412 43.1737 31.4339C43.4929 32.4655 43.931 33.4809 44.3948 34.5028C44.8972 35.5065 45.4285 36.522 46.0723 37.4914C46.6904 38.4769 47.4081 39.4185 48.1686 40.345C48.566 40.7928 48.9484 41.262 49.3801 41.6894C49.5932 41.9068 49.7989 42.1328 50.0185 42.3449C50.2413 42.5549 50.4652 42.7648 50.6891 42.9769C50.9087 43.1922 51.1454 43.3904 51.3821 43.5907C51.621 43.791 51.8492 43.9945 52.0966 44.1948C52.6086 44.5912 53.1239 44.9896 53.6412 45.3913C53.9015 45.5895 54.1554 45.8005 54.4232 45.9901C54.691 46.1787 54.9599 46.3682 55.2298 46.5578C55.4997 46.7485 55.7696 46.9381 56.0407 47.1299C56.3106 47.3216 56.5816 47.5155 56.8644 47.6869C57.4257 48.0425 57.9891 48.3992 58.5558 48.758C59.1267 49.1062 59.7223 49.4179 60.3082 49.7532C60.8899 50.0981 61.5015 50.3841 62.1131 50.6819C62.4184 50.8308 62.7237 50.9807 63.0312 51.1307C63.3354 51.2828 63.6578 51.3985 63.9716 51.5356C64.2876 51.6684 64.6047 51.8012 64.9218 51.9341C65.2378 52.069 65.5548 52.203 65.8847 52.3101C66.536 52.5393 67.1916 52.7696 67.8493 53.001C68.5199 53.1959 69.1925 53.3919 69.8684 53.588C70.2037 53.694 70.5519 53.7647 70.8957 53.8483C71.2407 53.9297 71.5866 54.01 71.9326 54.0914C74.7123 54.7052 77.5906 55.1358 80.5363 55.3929C81.2701 55.469 82.0145 55.5033 82.7569 55.5611L83.8719 55.6393L84.9945 55.6896C85.7443 55.7218 86.4963 55.7539 87.2483 55.786C88.0045 55.8021 88.7618 55.8181 89.5202 55.8353C90.2775 55.8567 91.0392 55.8621 91.8019 55.8632C92.5645 55.8664 93.3293 55.8707 94.0942 55.8739C94.8504 55.8567 95.6067 55.8385 96.364 55.8214L97.5005 55.7946C97.8797 55.7839 98.2589 55.7485 98.6381 55.7271C99.3976 55.6778 100.157 55.6286 100.918 55.5793C101.677 55.5215 102.435 55.4283 103.196 55.3544C104.719 55.2205 106.234 54.9805 107.754 54.777C108.514 54.6774 109.27 54.5274 110.028 54.4064C110.784 54.2703 111.545 54.1643 112.298 54.0036C113.807 53.7026 115.32 53.4187 116.819 53.0674C119.828 52.4161 122.809 51.6331 125.773 50.8447C128.733 50.0252 131.673 49.1855 134.584 48.3039C137.496 47.4341 140.383 46.5428 143.243 45.6698C146.1 44.7947 148.951 43.9463 151.734 43.1162C157.304 41.4409 162.723 39.7323 168.002 38.3591C170.639 37.6649 173.247 37.0758 175.801 36.5724C178.359 36.0743 180.878 35.724 183.326 35.4669C188.235 35.0266 192.896 35.1327 197.074 35.8793C199.162 36.2467 201.136 36.7619 202.933 37.4775C204.727 38.1941 206.349 39.1335 207.609 40.3386C208.235 40.9417 208.774 41.6037 209.174 42.3149C209.574 43.0262 209.843 43.7685 210.01 44.4991C210.045 44.6822 210.077 44.8643 210.11 45.0443C210.145 45.2242 210.147 45.4053 210.167 45.582C210.206 45.9355 210.207 46.289 210.19 46.6296C210.15 47.3119 210.022 47.9504 209.838 48.5331C209.469 49.7007 208.884 50.6519 208.212 51.3214C207.543 51.9962 206.781 52.3625 206.142 52.4718C205.5 52.5896 205.002 52.4997 204.687 52.4204C204.526 52.3829 204.411 52.3347 204.334 52.3058C204.257 52.2747 204.22 52.2554 204.222 52.249C204.228 52.2276 204.39 52.2747 204.706 52.3218C205.02 52.3668 205.503 52.4129 206.097 52.2651C206.689 52.1248 207.374 51.7499 207.971 51.0889C208.57 50.4345 209.086 49.5143 209.39 48.4013C209.541 47.8454 209.639 47.2423 209.654 46.6082C209.658 46.2911 209.646 45.9698 209.597 45.6388C209.572 45.4749 209.567 45.3046 209.527 45.1407C209.491 44.9746 209.454 44.8076 209.418 44.6383C209.24 43.9699 208.971 43.2993 208.585 42.662C208.2 42.0235 207.688 41.4323 207.091 40.8935C205.894 39.8148 204.342 38.9686 202.605 38.3323C200.865 37.6949 198.941 37.2461 196.901 36.9419C192.812 36.3228 188.266 36.3313 183.477 36.8755C181.084 37.184 178.624 37.5835 176.119 38.1309C173.616 38.6836 171.06 39.3199 168.466 40.0633C163.274 41.5362 157.923 43.3465 152.364 45.1428C149.577 46.0362 146.779 46.9295 143.936 47.8615C141.095 48.7891 138.224 49.7371 135.316 50.6669C132.412 51.6052 129.464 52.5083 126.493 53.3898C123.51 54.2414 120.506 55.0887 117.454 55.8075C115.935 56.192 114.396 56.5091 112.861 56.8433C112.096 57.02 111.318 57.1432 110.545 57.2953C109.771 57.4335 109.002 57.5995 108.222 57.7152C106.663 57.952 105.112 58.224 103.543 58.389C102.76 58.4779 101.979 58.5871 101.195 58.66C100.41 58.7243 99.6246 58.7886 98.8395 58.8528C98.4474 58.8817 98.0554 58.9246 97.6623 58.9417L96.4829 58.9899C95.6966 59.021 94.9115 59.051 94.1274 59.082C93.3519 59.0917 92.5784 59.1002 91.8051 59.1088C91.0317 59.1206 90.2594 59.1259 89.486 59.1174C88.7137 59.1131 87.9413 59.1077 87.1722 59.1035C86.3999 59.0831 85.6297 59.0628 84.8606 59.0413L83.7081 59.0071L82.5554 58.9449C81.7874 58.8967 81.0215 58.8732 80.2567 58.8067C77.1964 58.5861 74.1553 58.1812 71.1774 57.5685C70.8057 57.4871 70.4341 57.4057 70.0634 57.3243C69.6939 57.2407 69.3221 57.17 68.9579 57.0608C68.2263 56.8594 67.4969 56.658 66.7717 56.4576C66.0551 56.2177 65.3417 55.9788 64.6315 55.741C64.2737 55.6286 63.9267 55.4883 63.5807 55.3469C63.2336 55.2076 62.8887 55.0683 62.5427 54.9291C62.1999 54.7855 61.8486 54.6624 61.5144 54.5017C61.1802 54.3432 60.8449 54.1857 60.5107 54.0293C59.8433 53.7154 59.1738 53.4113 58.5408 53.0481C57.9023 52.6957 57.2532 52.3647 56.633 51.9973C56.0192 51.6202 55.4087 51.2443 54.8002 50.8704C54.4917 50.6894 54.2014 50.4869 53.9101 50.2856C53.6187 50.0863 53.3285 49.886 53.0382 49.6878C52.7479 49.4886 52.4587 49.2893 52.1705 49.0912C51.8824 48.893 51.6124 48.6756 51.3339 48.4689C50.7812 48.0511 50.2317 47.6355 49.6854 47.222C49.4122 47.0067 49.1401 46.7742 48.8681 46.5514C48.5971 46.3265 48.325 46.1026 48.0711 45.8605C47.813 45.6238 47.5559 45.3871 47.2999 45.1514C47.0471 44.9125 46.8082 44.6587 46.5639 44.4144C46.068 43.9313 45.6245 43.4054 45.1661 42.8976C44.2856 41.8533 43.4565 40.7863 42.7345 39.667C41.9879 38.5637 41.3623 37.4068 40.7743 36.2542C40.2247 35.0823 39.7106 33.9137 39.3239 32.7161C37.6807 27.9612 37.5093 23.0487 38.4905 18.8326Z" fill="url(#paint12_linear_150_12414)"/>
<path d="M175.87 50.9034C175.808 51.108 175.553 51.2611 175.145 51.3704C174.941 51.424 174.699 51.4668 174.423 51.4989L173.983 51.5428L173.484 51.6189C172.102 51.741 170.174 52.026 167.86 52.6376C165.539 53.2439 162.83 54.2818 159.848 55.6251C158.358 56.3138 156.798 57.0712 155.173 57.8928C153.498 58.7444 151.8 59.6078 150.063 60.4925C148.288 61.3827 145.938 62.5085 143.169 63.7885C141.78 64.4226 140.28 65.0879 138.704 65.7841C137.908 66.1194 137.092 66.4632 136.256 66.8146C135.424 67.1691 134.571 67.5226 133.689 67.859C132.813 68.1985 131.921 68.5467 131.014 68.8991C130.1 69.2248 129.171 69.5558 128.23 69.89C127.761 70.0539 127.289 70.2188 126.815 70.3848C126.335 70.5359 125.853 70.6869 125.368 70.839C124.398 71.1357 123.434 71.4646 122.443 71.7345C118.5 72.87 114.414 73.7312 110.436 74.3589C102.447 75.5286 94.9082 75.4504 89.4634 75.0219C88.0998 74.902 86.8626 74.8142 85.7764 74.6856C84.6913 74.5378 83.754 74.4039 82.9881 74.286C81.4553 74.0472 80.6048 73.8704 80.6133 73.7719C80.6208 73.6862 81.4917 73.6294 83.0342 73.5973C83.8055 73.5802 84.7449 73.5705 85.8278 73.5651C86.9129 73.5437 88.1416 73.473 89.4902 73.4291C94.8803 73.2084 102.207 72.5508 109.747 70.7694C124.905 67.332 140.166 58.4016 147.291 54.9438C149.056 54.0655 150.804 53.2032 152.55 52.4116C154.298 51.6221 156.035 50.9194 157.727 50.3185C161.132 49.1423 164.391 48.4107 167.222 48.2983C170.05 48.1761 172.377 48.5864 173.852 49.2323C174.037 49.3052 174.211 49.3759 174.372 49.4466C174.531 49.5248 174.677 49.6158 174.81 49.6962C175.078 49.8611 175.296 50.0164 175.463 50.161C175.798 50.4513 175.933 50.6988 175.87 50.9034Z" fill="url(#paint13_linear_150_12414)"/>
<path d="M21.2338 20.7306C21.793 20.2583 22.8373 20.4661 24.0553 21.1977C25.2775 21.9293 26.6582 23.1783 27.9276 24.7304C29.2033 26.2879 31.6285 30.0413 34.0236 33.1863C35.2148 34.7673 36.4156 36.1867 37.3379 37.2171C37.7888 37.7463 38.1798 38.1587 38.439 38.4747C38.6961 38.7907 38.8225 39.0027 38.7775 39.0734C38.7389 39.1356 38.5044 39.0949 38.1113 38.9674C37.7181 38.841 37.1622 38.6332 36.5206 38.3097C35.2169 37.6916 33.5192 36.674 31.8353 35.4282C28.4428 32.9474 25.0975 29.6685 23.81 28.096C22.5149 26.5128 21.6055 24.8997 21.1439 23.5778C20.6843 22.2539 20.6704 21.2052 21.2338 20.7306Z" fill="url(#paint14_linear_150_12414)"/>
<path d="M0.496183 37.5427C0.485471 36.63 1.44416 35.787 3.02521 35.1807C4.60198 34.5712 6.81824 34.206 9.2873 34.2938C10.5192 34.3334 12.5266 34.5862 14.8232 35.064C17.1187 35.5385 19.7002 36.269 22.0375 37.1935C24.3769 38.1104 26.4593 39.2073 27.8754 40.1756C28.5952 40.6319 29.1383 41.0872 29.5057 41.4128C29.871 41.7417 30.051 41.9677 30.0049 42.062C29.9642 42.1445 29.6739 42.1444 29.1951 42.0812C28.7142 42.0223 28.0575 41.8734 27.2413 41.7534C25.6313 41.4556 23.4515 41.1514 21.1441 40.9918C16.5274 40.6341 11.3708 40.9822 9.04524 40.9105C4.42419 40.7541 0.517606 39.3894 0.496183 37.5427Z" fill="url(#paint15_linear_150_12414)"/>
<path d="M37.8867 48.7839C37.8867 48.7839 38.9407 49.3934 40.7639 50.4463C42.6138 51.5079 45.3239 52.9764 48.7206 54.6324C52.143 56.2392 56.252 58.0367 60.9288 59.6531C65.6055 61.2598 70.8457 62.6738 76.4266 63.6336C82.0063 64.5965 87.4029 64.9693 92.3153 64.844C92.6227 64.8408 92.9291 64.8483 93.2322 64.8365C93.5343 64.8172 93.8342 64.7979 94.1342 64.7786C94.7308 64.7422 95.321 64.7058 95.9048 64.6705C96.4854 64.6266 97.0649 64.6276 97.6262 64.5505C98.1864 64.483 98.7402 64.4177 99.2865 64.3523C100.374 64.2173 101.448 64.1306 102.423 63.9356C102.919 63.8596 103.404 63.7567 103.881 63.6496C104.357 63.5489 104.826 63.4504 105.282 63.3326C107.11 62.8944 108.783 62.4264 110.268 62.0707C111.011 61.8865 111.705 61.7279 112.352 61.6005C112.991 61.458 113.588 61.3659 114.121 61.2823C114.662 61.188 115.114 61.1463 115.497 61.037C115.875 60.9331 116.254 60.8025 116.545 60.8303C116.839 60.8442 117.051 60.9192 117.186 60.9706C117.322 61.021 117.393 61.0467 117.393 61.0467C117.393 61.0467 117.319 61.036 117.176 61.0156C117.036 60.9931 116.823 60.9653 116.556 61.007C116.279 61.0392 116.011 61.203 115.627 61.3916C115.436 61.4848 115.222 61.5704 114.987 61.6508C114.763 61.7301 114.525 61.8147 114.273 61.9036C113.772 62.0772 113.217 62.2657 112.618 62.511C112.016 62.7402 111.367 63.0059 110.672 63.3004C109.277 63.8778 107.704 64.5837 105.894 65.2832C105.446 65.4663 104.973 65.6323 104.49 65.8016C104.008 65.9762 103.513 66.1476 102.992 66.2943C101.953 66.6339 100.879 66.845 99.761 67.1074C99.1987 67.2338 98.6288 67.3623 98.0514 67.4919C97.473 67.629 96.8742 67.688 96.2701 67.7908C95.6627 67.8818 95.0489 67.974 94.4276 68.0661C94.1159 68.1121 93.801 68.1582 93.485 68.2043C93.168 68.2417 92.8477 68.2599 92.5263 68.2878C87.3793 68.8137 81.626 68.6831 75.7378 67.6655C69.8474 66.6532 64.4048 64.9072 59.6841 62.872C54.9602 60.826 50.9551 58.5037 47.7137 56.4127C44.498 54.2704 42.0418 52.3541 40.3997 50.9712C38.8069 49.5851 37.8867 48.7839 37.8867 48.7839Z" fill="url(#paint16_linear_150_12414)"/>
<path d="M18.2737 56.2721C17.4992 55.7922 17.1393 54.7949 17.2989 53.6252C17.4499 52.4565 18.0937 51.1379 19.1981 50.0432C19.7487 49.4969 20.7684 48.731 22.0806 48.0112C23.3885 47.2924 25.0006 46.6047 26.7049 46.3015C27.5533 46.1505 28.4263 46.1034 29.235 46.2137C30.0416 46.3219 30.7711 46.5854 31.2831 46.9496C31.7994 47.3031 32.1036 47.6931 32.2579 47.9866C32.4046 48.2929 32.4346 48.4846 32.3639 48.5617C32.2375 48.7181 31.5798 48.4568 30.7647 48.5682C29.9559 48.656 29.0625 49.153 28.1735 49.9168C27.2822 50.673 26.4125 51.6681 25.6723 52.5765C24.9278 53.4816 24.3097 54.2979 23.8663 54.7381C22.087 56.4863 19.8333 57.2029 18.2737 56.2721Z" fill="url(#paint17_linear_150_12414)"/>
<defs>
<linearGradient id="paint0_linear_150_12414" x1="-6.29193" y1="143.43" x2="422.492" y2="-67.4243" gradientUnits="userSpaceOnUse">
<stop stop-color="#EEDEBC"/>
<stop offset="0.150732" stop-color="#EEDEBC"/>
<stop offset="0.573161" stop-color="#C9A885"/>
<stop offset="0.612903" stop-color="#C9A885"/>
<stop offset="0.613741" stop-color="#C9A885"/>
<stop offset="0.72043" stop-color="#9A7A5F"/>
<stop offset="0.721351" stop-color="#9A7A5F"/>
<stop offset="0.83871" stop-color="#C9A885"/>
<stop offset="0.999958" stop-color="#EEDEBC"/>
<stop offset="1" stop-color="#EEDEBC"/>
</linearGradient>
<linearGradient id="paint1_linear_150_12414" x1="-10.3999" y1="135.079" x2="418.384" y2="-75.7762" gradientUnits="userSpaceOnUse">
<stop stop-color="#EEDEBC"/>
<stop offset="0.150732" stop-color="#EEDEBC"/>
<stop offset="0.573161" stop-color="#C9A885"/>
<stop offset="0.612903" stop-color="#C9A885"/>
<stop offset="0.613741" stop-color="#C9A885"/>
<stop offset="0.72043" stop-color="#9A7A5F"/>
<stop offset="0.721351" stop-color="#9A7A5F"/>
<stop offset="0.83871" stop-color="#C9A885"/>
<stop offset="0.999958" stop-color="#EEDEBC"/>
<stop offset="1" stop-color="#EEDEBC"/>
</linearGradient>
<linearGradient id="paint2_linear_150_12414" x1="-10.5655" y1="134.739" x2="418.218" y2="-76.1146" gradientUnits="userSpaceOnUse">
<stop stop-color="#EEDEBC"/>
<stop offset="0.150732" stop-color="#EEDEBC"/>
<stop offset="0.573161" stop-color="#C9A885"/>
<stop offset="0.612903" stop-color="#C9A885"/>
<stop offset="0.613741" stop-color="#C9A885"/>
<stop offset="0.72043" stop-color="#9A7A5F"/>
<stop offset="0.721351" stop-color="#9A7A5F"/>
<stop offset="0.83871" stop-color="#C9A885"/>
<stop offset="0.999958" stop-color="#EEDEBC"/>
<stop offset="1" stop-color="#EEDEBC"/>
</linearGradient>
<linearGradient id="paint3_linear_150_12414" x1="-1.84446" y1="152.483" x2="426.939" y2="-58.3721" gradientUnits="userSpaceOnUse">
<stop stop-color="#EEDEBC"/>
<stop offset="0.150732" stop-color="#EEDEBC"/>
<stop offset="0.573161" stop-color="#C9A885"/>
<stop offset="0.612903" stop-color="#C9A885"/>
<stop offset="0.613741" stop-color="#C9A885"/>
<stop offset="0.72043" stop-color="#9A7A5F"/>
<stop offset="0.721351" stop-color="#9A7A5F"/>
<stop offset="0.83871" stop-color="#C9A885"/>
<stop offset="0.999958" stop-color="#EEDEBC"/>
<stop offset="1" stop-color="#EEDEBC"/>
</linearGradient>
<linearGradient id="paint4_linear_150_12414" x1="-1.80771" y1="152.554" x2="426.977" y2="-58.2993" gradientUnits="userSpaceOnUse">
<stop stop-color="#EEDEBC"/>
<stop offset="0.150732" stop-color="#EEDEBC"/>
<stop offset="0.573161" stop-color="#C9A885"/>
<stop offset="0.612903" stop-color="#C9A885"/>
<stop offset="0.613741" stop-color="#C9A885"/>
<stop offset="0.72043" stop-color="#9A7A5F"/>
<stop offset="0.721351" stop-color="#9A7A5F"/>
<stop offset="0.83871" stop-color="#C9A885"/>
<stop offset="0.999958" stop-color="#EEDEBC"/>
<stop offset="1" stop-color="#EEDEBC"/>
</linearGradient>
<linearGradient id="paint5_linear_150_12414" x1="-3.84714" y1="148.409" x2="424.936" y2="-62.4461" gradientUnits="userSpaceOnUse">
<stop stop-color="#EEDEBC"/>
<stop offset="0.150732" stop-color="#EEDEBC"/>
<stop offset="0.573161" stop-color="#C9A885"/>
<stop offset="0.612903" stop-color="#C9A885"/>
<stop offset="0.613741" stop-color="#C9A885"/>
<stop offset="0.72043" stop-color="#9A7A5F"/>
<stop offset="0.721351" stop-color="#9A7A5F"/>
<stop offset="0.83871" stop-color="#C9A885"/>
<stop offset="0.999958" stop-color="#EEDEBC"/>
<stop offset="1" stop-color="#EEDEBC"/>
</linearGradient>
<linearGradient id="paint6_linear_150_12414" x1="16.9317" y1="190.667" x2="445.716" y2="-20.1876" gradientUnits="userSpaceOnUse">
<stop stop-color="#EEDEBC"/>
<stop offset="0.150732" stop-color="#EEDEBC"/>
<stop offset="0.573161" stop-color="#C9A885"/>
<stop offset="0.612903" stop-color="#C9A885"/>
<stop offset="0.613741" stop-color="#C9A885"/>
<stop offset="0.72043" stop-color="#9A7A5F"/>
<stop offset="0.721351" stop-color="#9A7A5F"/>
<stop offset="0.83871" stop-color="#C9A885"/>
<stop offset="0.999958" stop-color="#EEDEBC"/>
<stop offset="1" stop-color="#EEDEBC"/>
</linearGradient>
<linearGradient id="paint7_linear_150_12414" x1="24.0517" y1="205.137" x2="452.836" y2="-5.71696" gradientUnits="userSpaceOnUse">
<stop stop-color="#EEDEBC"/>
<stop offset="0.150732" stop-color="#EEDEBC"/>
<stop offset="0.573161" stop-color="#C9A885"/>
<stop offset="0.612903" stop-color="#C9A885"/>
<stop offset="0.613741" stop-color="#C9A885"/>
<stop offset="0.72043" stop-color="#9A7A5F"/>
<stop offset="0.721351" stop-color="#9A7A5F"/>
<stop offset="0.83871" stop-color="#C9A885"/>
<stop offset="0.999958" stop-color="#EEDEBC"/>
<stop offset="1" stop-color="#EEDEBC"/>
</linearGradient>
<linearGradient id="paint8_linear_150_12414" x1="30.3634" y1="217.975" x2="459.147" y2="7.12028" gradientUnits="userSpaceOnUse">
<stop stop-color="#EEDEBC"/>
<stop offset="0.150732" stop-color="#EEDEBC"/>
<stop offset="0.573161" stop-color="#C9A885"/>
<stop offset="0.612903" stop-color="#C9A885"/>
<stop offset="0.613741" stop-color="#C9A885"/>
<stop offset="0.72043" stop-color="#9A7A5F"/>
<stop offset="0.721351" stop-color="#9A7A5F"/>
<stop offset="0.83871" stop-color="#C9A885"/>
<stop offset="0.999958" stop-color="#EEDEBC"/>
<stop offset="1" stop-color="#EEDEBC"/>
</linearGradient>
<linearGradient id="paint9_linear_150_12414" x1="37.2808" y1="232.044" x2="466.065" y2="21.1897" gradientUnits="userSpaceOnUse">
<stop stop-color="#EEDEBC"/>
<stop offset="0.150732" stop-color="#EEDEBC"/>
<stop offset="0.573161" stop-color="#C9A885"/>
<stop offset="0.612903" stop-color="#C9A885"/>
<stop offset="0.613741" stop-color="#C9A885"/>
<stop offset="0.72043" stop-color="#9A7A5F"/>
<stop offset="0.721351" stop-color="#9A7A5F"/>
<stop offset="0.83871" stop-color="#C9A885"/>
<stop offset="0.999958" stop-color="#EEDEBC"/>
<stop offset="1" stop-color="#EEDEBC"/>
</linearGradient>
<linearGradient id="paint10_linear_150_12414" x1="31.7897" y1="220.876" x2="460.574" y2="10.0214" gradientUnits="userSpaceOnUse">
<stop stop-color="#EEDEBC"/>
<stop offset="0.150732" stop-color="#EEDEBC"/>
<stop offset="0.573161" stop-color="#C9A885"/>
<stop offset="0.612903" stop-color="#C9A885"/>
<stop offset="0.613741" stop-color="#C9A885"/>
<stop offset="0.72043" stop-color="#9A7A5F"/>
<stop offset="0.721351" stop-color="#9A7A5F"/>
<stop offset="0.83871" stop-color="#C9A885"/>
<stop offset="0.999958" stop-color="#EEDEBC"/>
<stop offset="1" stop-color="#EEDEBC"/>
</linearGradient>
<linearGradient id="paint11_linear_150_12414" x1="40.0901" y1="237.759" x2="468.874" y2="26.9051" gradientUnits="userSpaceOnUse">
<stop stop-color="#EEDEBC"/>
<stop offset="0.150732" stop-color="#EEDEBC"/>
<stop offset="0.573161" stop-color="#C9A885"/>
<stop offset="0.612903" stop-color="#C9A885"/>
<stop offset="0.613741" stop-color="#C9A885"/>
<stop offset="0.72043" stop-color="#9A7A5F"/>
<stop offset="0.721351" stop-color="#9A7A5F"/>
<stop offset="0.83871" stop-color="#C9A885"/>
<stop offset="0.999958" stop-color="#EEDEBC"/>
<stop offset="1" stop-color="#EEDEBC"/>
</linearGradient>
<linearGradient id="paint12_linear_150_12414" x1="-25.78" y1="103.81" x2="403.004" y2="-107.044" gradientUnits="userSpaceOnUse">
<stop stop-color="#EEDEBC"/>
<stop offset="0.150732" stop-color="#EEDEBC"/>
<stop offset="0.573161" stop-color="#C9A885"/>
<stop offset="0.612903" stop-color="#C9A885"/>
<stop offset="0.613741" stop-color="#C9A885"/>
<stop offset="0.72043" stop-color="#9A7A5F"/>
<stop offset="0.721351" stop-color="#9A7A5F"/>
<stop offset="0.83871" stop-color="#C9A885"/>
<stop offset="0.999958" stop-color="#EEDEBC"/>
<stop offset="1" stop-color="#EEDEBC"/>
</linearGradient>
<linearGradient id="paint13_linear_150_12414" x1="-12.1773" y1="131.464" x2="416.607" y2="-79.3902" gradientUnits="userSpaceOnUse">
<stop stop-color="#EEDEBC"/>
<stop offset="0.150732" stop-color="#EEDEBC"/>
<stop offset="0.573161" stop-color="#C9A885"/>
<stop offset="0.612903" stop-color="#C9A885"/>
<stop offset="0.613741" stop-color="#C9A885"/>
<stop offset="0.72043" stop-color="#9A7A5F"/>
<stop offset="0.721351" stop-color="#9A7A5F"/>
<stop offset="0.83871" stop-color="#C9A885"/>
<stop offset="0.999958" stop-color="#EEDEBC"/>
<stop offset="1" stop-color="#EEDEBC"/>
</linearGradient>
<linearGradient id="paint14_linear_150_12414" x1="-44.1871" y1="66.3745" x2="384.596" y2="-144.48" gradientUnits="userSpaceOnUse">
<stop stop-color="#EEDEBC"/>
<stop offset="0.150732" stop-color="#EEDEBC"/>
<stop offset="0.573161" stop-color="#C9A885"/>
<stop offset="0.612903" stop-color="#C9A885"/>
<stop offset="0.613741" stop-color="#C9A885"/>
<stop offset="0.72043" stop-color="#9A7A5F"/>
<stop offset="0.721351" stop-color="#9A7A5F"/>
<stop offset="0.83871" stop-color="#C9A885"/>
<stop offset="0.999958" stop-color="#EEDEBC"/>
<stop offset="1" stop-color="#EEDEBC"/>
</linearGradient>
<linearGradient id="paint15_linear_150_12414" x1="-43.362" y1="68.0529" x2="385.422" y2="-142.802" gradientUnits="userSpaceOnUse">
<stop stop-color="#EEDEBC"/>
<stop offset="0.150732" stop-color="#EEDEBC"/>
<stop offset="0.573161" stop-color="#C9A885"/>
<stop offset="0.612903" stop-color="#C9A885"/>
<stop offset="0.613741" stop-color="#C9A885"/>
<stop offset="0.72043" stop-color="#9A7A5F"/>
<stop offset="0.721351" stop-color="#9A7A5F"/>
<stop offset="0.83871" stop-color="#C9A885"/>
<stop offset="0.999958" stop-color="#EEDEBC"/>
<stop offset="1" stop-color="#EEDEBC"/>
</linearGradient>
<linearGradient id="paint16_linear_150_12414" x1="-25.0031" y1="105.389" x2="403.781" y2="-105.466" gradientUnits="userSpaceOnUse">
<stop stop-color="#EEDEBC"/>
<stop offset="0.150732" stop-color="#EEDEBC"/>
<stop offset="0.573161" stop-color="#C9A885"/>
<stop offset="0.612903" stop-color="#C9A885"/>
<stop offset="0.613741" stop-color="#C9A885"/>
<stop offset="0.72043" stop-color="#9A7A5F"/>
<stop offset="0.721351" stop-color="#9A7A5F"/>
<stop offset="0.83871" stop-color="#C9A885"/>
<stop offset="0.999958" stop-color="#EEDEBC"/>
<stop offset="1" stop-color="#EEDEBC"/>
</linearGradient>
<linearGradient id="paint17_linear_150_12414" x1="-36.9637" y1="81.0634" x2="391.821" y2="-129.792" gradientUnits="userSpaceOnUse">
<stop stop-color="#EEDEBC"/>
<stop offset="0.150732" stop-color="#EEDEBC"/>
<stop offset="0.573161" stop-color="#C9A885"/>
<stop offset="0.612903" stop-color="#C9A885"/>
<stop offset="0.613741" stop-color="#C9A885"/>
<stop offset="0.72043" stop-color="#9A7A5F"/>
<stop offset="0.721351" stop-color="#9A7A5F"/>
<stop offset="0.83871" stop-color="#C9A885"/>
<stop offset="0.999958" stop-color="#EEDEBC"/>
<stop offset="1" stop-color="#EEDEBC"/>
</linearGradient>
</defs>
</svg>
