<svg width="947" height="133" viewBox="0 0 947 133" fill="none" xmlns="http://www.w3.org/2000/svg">
<path d="M919.848 10.4884C919.848 10.4884 921.771 3.53258 935.463 10.4273C935.463 10.4273 922.696 17.5645 919.848 10.4884ZM939.803 10.4421C939.805 11.0535 939.297 11.5511 938.668 11.5533C938.04 11.5554 937.528 11.062 937.526 10.4505C937.523 9.83905 938.032 9.34139 938.658 9.33717C939.288 9.33506 939.798 9.83061 939.803 10.4421ZM946.662 10.3135C946.662 10.3135 942.291 -12.7956 912.449 10.4463C912.449 10.4463 940.583 33.9223 946.662 10.3135Z" fill="url(#paint0_linear_150_12134)"/>
<path d="M910.235 13.6174C908.499 13.6237 907.087 12.2595 907.078 10.5685C907.072 8.87753 908.474 7.50273 910.211 7.4964C911.947 7.49007 913.359 8.85431 913.368 10.5432C913.374 12.2342 911.972 13.6111 910.235 13.6174Z" fill="url(#paint1_linear_150_12134)"/>
<path d="M886.086 13.7099C884.351 13.7184 882.936 12.352 882.93 10.6631C882.923 8.9721 884.325 7.5974 886.061 7.59107C887.798 7.58264 889.211 8.94898 889.219 10.6379C889.226 12.3289 887.823 13.7036 886.086 13.7099Z" fill="url(#paint2_linear_150_12134)"/>
<path d="M898.147 18.7136C898.147 18.7136 908.905 10.6043 908.81 10.5622C908.905 10.52 898.08 2.49512 898.08 2.49512C896.827 5.14549 887.354 10.6338 887.373 10.6465C887.217 10.7329 896.872 16.0717 898.147 18.7136Z" fill="url(#paint3_linear_150_12134)"/>
<path d="M602.602 10.5052C611.519 6.01406 612.771 10.5431 612.771 10.5431C610.916 15.1523 602.602 10.5052 602.602 10.5052ZM600.521 9.79467C600.93 9.79678 601.261 10.1215 601.259 10.52C601.257 10.9185 600.923 11.241 600.514 11.2389C600.105 11.2368 599.774 10.9121 599.776 10.5136C599.779 10.1151 600.11 9.79467 600.521 9.79467ZM617.587 10.5158C598.155 -4.619 595.309 10.4293 595.309 10.4293C599.268 25.8044 617.587 10.5158 617.587 10.5158Z" fill="url(#paint4_linear_150_12134)"/>
<path d="M619.031 12.5818C620.161 12.586 621.083 11.6962 621.087 10.5956C621.091 9.49496 620.178 8.60096 619.048 8.59674C617.916 8.59042 616.996 9.48023 616.992 10.5809C616.986 11.6815 617.899 12.5776 619.031 12.5818Z" fill="url(#paint5_linear_150_12134)"/>
<path d="M886.073 11.7324H621.086V9.56906H886.073V11.7324Z" fill="url(#paint6_linear_150_12134)"/>
<path d="M474.241 114.903C474.241 114.903 474.026 114.781 473.604 114.547C473.387 114.441 473.147 114.262 472.86 114.053C472.56 113.861 472.267 113.577 471.924 113.265C471.272 112.611 470.564 111.705 470.005 110.492C469.444 109.284 469.035 107.791 468.843 106.079C468.453 102.651 468.927 98.3704 470.281 93.6474C470.971 91.288 471.867 88.8021 473.079 86.3035C473.691 85.0532 474.365 83.807 475.177 82.601C476.006 81.3485 476.855 80.0624 477.726 78.7445C481.212 73.4986 485.085 67.7973 489.907 62.2667C492.325 59.513 494.984 56.812 497.966 54.3388C499.463 53.1137 501.036 51.9435 502.691 50.8576C504.356 49.7907 506.106 48.8145 507.937 47.9648C509.763 47.1045 511.694 46.4298 513.676 45.89C514.665 45.6033 515.683 45.4177 516.7 45.2111C517.729 45.0635 518.755 44.8969 519.843 44.8294C524.13 44.4098 528.545 44.4141 532.84 45.1816C534.995 45.5316 537.087 46.1578 539.064 46.9801C541.059 47.7856 542.87 48.9326 544.376 50.32C545.873 51.7095 547.018 53.4026 547.545 55.2349C548.103 57.065 547.897 59.0133 547.115 60.7675C546.988 61.067 546.864 61.3706 546.663 61.6447C546.478 61.923 546.32 62.214 546.124 62.486C545.674 62.9984 545.284 63.5529 544.736 63.9978C543.754 64.974 542.495 65.7077 541.236 66.4078C538.613 67.6897 535.653 68.4171 532.655 68.7629C529.641 69.0813 526.591 69.0202 523.577 68.7946C520.674 68.5142 517.785 67.8078 514.985 66.8969C509.381 65.0499 504.11 62.4691 499.132 59.7913C494.153 57.0925 489.449 54.2544 484.982 51.4522C476.05 45.8394 468.029 40.4143 460.892 35.7123C453.761 30.9935 447.528 26.9621 442.382 23.793C437.414 20.3646 431.259 16.2046 423.791 11.9138C420.051 9.78211 415.966 7.6378 411.479 5.66636C406.978 3.7392 402.063 1.9406 396.591 1.02551C393.863 0.572189 390.991 0.352882 388.041 0.58271C385.098 0.810432 382.077 1.51469 379.249 2.82618C378.532 3.1298 377.872 3.54942 377.176 3.90997C376.508 4.31691 375.863 4.76394 375.211 5.20461C374.598 5.70222 373.984 6.15551 373.366 6.70372C372.746 7.27512 372.146 7.89709 371.64 8.62031C370.589 10.0267 369.904 11.8147 369.757 13.6175C369.596 15.4308 369.959 17.2061 370.564 18.8149C371.829 22.0261 373.978 24.6533 376.417 26.9073C378.876 29.1317 381.705 31.0737 384.826 32.4294C386.342 33.2096 387.961 33.7198 389.566 34.3102C390.373 34.578 391.202 34.772 392.022 35.006L393.26 35.3412C393.673 35.4466 394.095 35.5121 394.512 35.6006C395.35 35.7651 396.189 35.9295 397.03 36.094C397.875 36.2078 398.723 36.3217 399.573 36.4356L400.848 36.6021L402.126 36.7012C402.98 36.7645 403.836 36.8298 404.694 36.8952C414.798 37.3654 424.502 36.1066 433.686 34.5295C435.984 34.1352 438.251 33.7051 440.488 33.2644C441.053 33.1505 441.616 33.0388 442.179 32.927C442.778 32.8026 443.36 32.6571 443.935 32.5053C445.076 32.1911 446.189 31.8496 447.267 31.4722C451.585 29.973 455.587 28.2061 459.473 26.4602C467.224 22.9348 474.435 19.3968 481.25 16.2235C488.058 13.0439 494.442 10.1912 500.376 7.85073C506.303 5.49765 511.78 3.66541 516.697 2.45935C521.612 1.26595 525.973 0.734528 529.528 0.907425C533.085 1.06135 535.773 1.94479 537.405 2.84934C537.825 3.05808 538.172 3.27741 538.47 3.47561C538.773 3.66326 539.014 3.8362 539.199 3.99223C539.579 4.28742 539.773 4.4371 539.773 4.4371C539.773 4.4371 539.589 4.27473 539.231 3.95424C539.056 3.78767 538.826 3.59792 538.533 3.39129C538.248 3.172 537.911 2.92741 537.502 2.68915C535.912 1.67285 533.218 0.601715 529.58 0.239052C525.95 -0.14048 521.456 0.167419 516.394 1.13732C511.331 2.11777 505.683 3.7223 499.591 5.84766C493.494 7.9667 486.942 10.596 479.995 13.5648C473.045 16.5209 465.706 19.8586 457.949 23.1647C454.069 24.8009 450.078 26.456 445.972 27.7949C444.948 28.1323 443.917 28.4275 442.89 28.691C442.375 28.8175 441.863 28.9378 441.355 29.0348L439.708 29.3362C437.481 29.7369 435.238 30.1311 432.971 30.4917C423.922 31.9297 414.474 33.0683 404.924 32.6171C404.117 32.5559 403.313 32.4969 402.51 32.4358L401.306 32.3451L400.119 32.1911C399.326 32.0878 398.538 31.9845 397.751 31.8833C396.977 31.7336 396.203 31.5839 395.432 31.4363C395.048 31.3583 394.658 31.2972 394.28 31.2044L393.155 30.9029C392.41 30.6941 391.647 30.5254 390.92 30.2872C389.482 29.7622 388.01 29.3215 386.673 28.6405C383.9 27.4745 381.446 25.8151 379.279 23.9111C377.141 22.0008 375.331 19.77 374.359 17.4064C373.896 16.2277 373.645 15.0323 373.725 13.9064C373.801 12.7825 374.165 11.7177 374.84 10.7668C375.159 10.2839 375.572 9.83902 376.01 9.41521C376.476 8.98508 377.025 8.55914 377.524 8.12901C378.068 7.74948 378.602 7.35738 379.156 7.00105C379.734 6.68689 380.28 6.31363 380.879 6.04585C385.598 3.7012 391.044 3.42291 396.1 4.12504C401.192 4.81241 405.989 6.36632 410.427 8.08052C414.861 9.83479 418.965 11.7788 422.749 13.7292C430.313 17.6531 436.653 21.4969 441.787 24.6533C446.742 28.0775 452.745 32.3936 459.652 37.4054C466.572 42.4047 474.378 48.1271 483.196 54.0604C487.609 57.0229 492.283 60.0275 497.301 62.9077C502.328 65.7668 507.69 68.55 513.663 70.6353C516.651 71.66 519.81 72.4992 523.16 72.8661C526.409 73.155 529.738 73.2603 533.131 72.9335C536.511 72.5688 539.965 71.776 543.224 70.2009C544.816 69.3428 546.415 68.4066 547.772 67.0888C548.494 66.4858 549.08 65.7225 549.691 64.9909C549.974 64.605 550.216 64.1833 550.478 63.7785C550.752 63.38 550.952 62.9351 551.146 62.486C552.329 59.8799 552.607 56.8099 551.774 54.1005C550.986 51.3764 549.335 49.0486 547.372 47.2521C545.398 45.4536 543.13 44.083 540.768 43.1469C538.415 42.1917 535.994 41.5107 533.578 41.1459C528.743 40.351 523.97 40.4375 519.413 40.9646C518.279 41.0574 517.119 41.2598 515.972 41.4538C514.838 41.7026 513.706 41.9408 512.609 42.2782C510.412 42.9255 508.291 43.7267 506.309 44.7156C504.323 45.6982 502.448 46.8072 500.681 48.007C498.931 49.2214 497.287 50.5182 495.739 51.8655C492.661 54.5749 489.983 57.4783 487.585 60.407C482.808 66.2834 479.12 72.2145 475.852 77.6228C475.042 78.9765 474.249 80.2964 473.478 81.5847C472.672 82.9109 472.016 84.2688 471.445 85.5971C470.306 88.2581 469.516 90.8536 468.932 93.3121C467.793 98.2313 467.551 102.651 468.16 106.17C468.466 107.928 468.982 109.451 469.642 110.665C470.296 111.884 471.087 112.774 471.795 113.398C472.164 113.695 472.48 113.965 472.799 114.14C473.102 114.334 473.355 114.496 473.581 114.589C474.017 114.796 474.241 114.903 474.241 114.903Z" fill="url(#paint7_linear_150_12134)"/>
<path d="M474.313 114.903C474.313 114.903 474.537 114.796 474.975 114.589C475.201 114.496 475.454 114.334 475.758 114.14C476.074 113.965 476.39 113.695 476.761 113.398C477.468 112.774 478.26 111.884 478.914 110.665C479.572 109.451 480.09 107.928 480.394 106.17C481.006 102.651 480.761 98.2313 479.622 93.3121C479.04 90.8536 478.25 88.2581 477.109 85.5971C476.538 84.2688 475.884 82.9109 475.077 81.5847C474.305 80.2964 473.512 78.9765 472.702 77.6228C469.434 72.2145 465.746 66.2834 460.971 60.407C458.571 57.4783 455.893 54.5749 452.815 51.8655C451.267 50.5182 449.625 49.2214 447.873 48.007C446.108 46.8072 444.233 45.6982 442.245 44.7156C440.263 43.7267 438.142 42.9255 435.945 42.2782C434.851 41.9408 433.718 41.7026 432.582 41.4538C431.435 41.2598 430.277 41.0574 429.141 40.9646C424.584 40.4375 419.811 40.351 414.976 41.1459C412.56 41.5107 410.139 42.1917 407.786 43.1469C405.425 44.083 403.156 45.4536 401.182 47.2521C399.219 49.0486 397.57 51.3764 396.78 54.1005C395.947 56.8099 396.227 59.8799 397.41 62.486C397.604 62.9351 397.802 63.38 398.079 63.7785C398.338 64.1833 398.582 64.605 398.865 64.9909C399.476 65.7225 400.061 66.4858 400.782 67.0888C402.14 68.4066 403.738 69.3428 405.332 70.2009C408.592 71.776 412.043 72.5688 415.425 72.9335C418.816 73.2603 422.145 73.155 425.394 72.8661C428.747 72.4992 431.903 71.66 434.893 70.6353C440.864 68.55 446.228 65.7668 451.255 62.9077C456.273 60.0275 460.947 57.0229 465.358 54.0604C474.176 48.1271 481.982 42.4047 488.902 37.4054C495.811 32.3936 501.812 28.0775 506.767 24.6533C511.903 21.4969 518.242 17.6531 525.805 13.7292C529.589 11.7788 533.695 9.83479 538.127 8.08052C542.565 6.36632 547.362 4.81241 552.456 4.12504C557.512 3.42291 562.958 3.7012 567.677 6.04585C568.276 6.31363 568.82 6.68689 569.4 7.00105C569.954 7.35738 570.488 7.74948 571.032 8.12901C571.529 8.55914 572.08 8.98508 572.544 9.41521C572.984 9.83902 573.398 10.2839 573.714 10.7668C574.391 11.7177 574.753 12.7825 574.831 13.9064C574.909 15.0323 574.661 16.2277 574.195 17.4064C573.225 19.77 571.414 22.0008 569.276 23.9111C567.108 25.8151 564.656 27.4745 561.881 28.6405C560.544 29.3215 559.072 29.7622 557.637 30.2872C556.907 30.5254 556.146 30.6941 555.4 30.9029L554.276 31.2044C553.896 31.2972 553.506 31.3583 553.122 31.4363C552.353 31.5839 551.579 31.7336 550.803 31.8833C550.017 31.9845 549.228 32.0878 548.437 32.1911L547.25 32.3451L546.046 32.4358C545.243 32.4969 544.44 32.5559 543.632 32.6171C534.083 33.0683 524.632 31.9297 515.585 30.4917C513.318 30.1311 511.073 29.7369 508.848 29.3362L507.201 29.0348C506.693 28.9378 506.181 28.8175 505.666 28.691C504.638 28.4275 503.607 28.1323 502.582 27.7949C498.479 26.456 494.485 24.8009 490.606 23.1647C482.851 19.8586 475.511 16.5209 468.559 13.5648C461.612 10.596 455.063 7.9667 448.965 5.84766C442.873 3.7223 437.225 2.11777 432.16 1.13732C427.1 0.167419 422.605 -0.14048 418.974 0.239052C415.339 0.601715 412.644 1.67285 411.054 2.68915C410.643 2.92741 410.306 3.172 410.023 3.39129C409.73 3.59792 409.498 3.78767 409.325 3.95424C408.967 4.27473 408.781 4.4371 408.781 4.4371C408.781 4.4371 408.977 4.28742 409.357 3.99223C409.54 3.8362 409.781 3.66326 410.086 3.47561C410.382 3.27741 410.73 3.05808 411.149 2.84934C412.781 1.94479 415.472 1.06135 419.026 0.907425C422.581 0.734528 426.944 1.26595 431.859 2.45935C436.774 3.66541 442.254 5.49765 448.181 7.85073C454.114 10.1912 460.498 13.0439 467.305 16.2235C474.119 19.3968 481.332 22.9348 489.083 26.4602C492.969 28.2061 496.969 29.973 501.287 31.4722C502.367 31.8496 503.478 32.1911 504.621 32.5053C505.194 32.6571 505.776 32.8026 506.377 32.927C506.938 33.0388 507.503 33.1505 508.066 33.2644C510.303 33.7051 512.57 34.1352 514.87 34.5295C524.053 36.1066 533.758 37.3654 543.86 36.8952C544.718 36.8298 545.574 36.7645 546.428 36.7012L547.708 36.6021L548.983 36.4356C549.833 36.3217 550.681 36.2078 551.524 36.094C552.365 35.9295 553.205 35.7651 554.044 35.6006C554.461 35.5121 554.881 35.4466 555.296 35.3412L556.532 35.006C557.354 34.772 558.183 34.578 558.99 34.3102C560.593 33.7198 562.214 33.2096 563.73 32.4294C566.849 31.0737 569.68 29.1317 572.139 26.9073C574.576 24.6533 576.725 22.0261 577.992 18.8149C578.595 17.2061 578.958 15.4308 578.8 13.6175C578.652 11.8147 577.967 10.0267 576.917 8.62031C576.409 7.89709 575.81 7.27512 575.188 6.70372C574.572 6.15551 573.958 5.70222 573.345 5.20461C572.691 4.76394 572.046 4.31691 571.378 3.90997C570.684 3.54942 570.022 3.1298 569.305 2.82618C566.48 1.51469 563.456 0.810432 560.513 0.58271C557.565 0.352882 554.691 0.572189 551.963 1.02551C546.493 1.9406 541.576 3.7392 537.077 5.66636C532.59 7.6378 528.504 9.78211 524.765 11.9138C517.295 16.2046 511.142 20.3646 506.175 23.793C501.026 26.9621 494.795 30.9935 487.664 35.7123C480.527 40.4143 472.504 45.8394 463.573 51.4522C459.105 54.2544 454.401 57.0925 449.425 59.7913C444.444 62.4691 439.175 65.0499 433.569 66.8969C430.769 67.8078 427.882 68.5142 424.977 68.7946C421.966 69.0202 418.915 69.0813 415.9 68.7629C412.901 68.4171 409.943 67.6897 407.32 66.4078C406.061 65.7077 404.8 64.974 403.82 63.9978C403.27 63.5529 402.882 62.9984 402.431 62.486C402.234 62.214 402.076 61.923 401.893 61.6447C401.69 61.3706 401.568 61.067 401.44 60.7675C400.659 59.0133 400.453 57.065 401.009 55.2349C401.537 53.4026 402.681 51.7095 404.181 50.32C405.684 48.9326 407.495 47.7856 409.49 46.9801C411.47 46.1578 413.561 45.5316 415.714 45.1816C420.009 44.4141 424.426 44.4098 428.713 44.8294C429.801 44.8969 430.826 45.0635 431.855 45.2111C432.873 45.4177 433.889 45.6033 434.878 45.89C436.862 46.4298 438.791 47.1045 440.617 47.9648C442.45 48.8145 444.198 49.7907 445.865 50.8576C447.519 51.9435 449.091 53.1137 450.588 54.3388C453.57 56.812 456.231 59.513 458.647 62.2667C463.469 67.7973 467.343 73.4986 470.828 78.7445C471.701 80.0624 472.551 81.3485 473.379 82.601C474.189 83.807 474.866 85.0532 475.475 86.3035C476.687 88.8021 477.583 91.288 478.273 93.6474C479.629 98.3704 480.103 102.651 479.713 106.079C479.519 107.791 479.11 109.284 478.549 110.492C477.993 111.705 477.282 112.611 476.63 113.265C476.289 113.577 475.994 113.861 475.694 114.053C475.408 114.262 475.167 114.441 474.95 114.547C474.528 114.781 474.313 114.903 474.313 114.903Z" fill="url(#paint8_linear_150_12134)"/>
<path d="M474.577 126.232C470.824 118.768 474.805 117.815 474.805 117.815C478.794 119.439 474.577 126.232 474.577 126.232ZM473.917 127.942C473.928 127.603 474.216 127.335 474.564 127.343C474.912 127.352 475.188 127.634 475.178 127.974C475.17 128.311 474.881 128.579 474.533 128.57C474.185 128.562 473.909 128.279 473.917 127.942ZM474.87 113.828C461.281 129.627 474.375 132.267 474.375 132.267C487.882 129.279 474.87 113.828 474.87 113.828Z" fill="url(#paint9_linear_150_12134)"/>
<path d="M476.699 112.674C476.724 111.74 475.963 110.96 475.001 110.937C474.042 110.914 473.241 111.652 473.215 112.586C473.192 113.522 473.949 114.302 474.911 114.325C475.874 114.351 476.673 113.613 476.699 112.674Z" fill="url(#paint10_linear_150_12134)"/>
<path d="M11.6355 10.4273C25.3268 3.53258 27.2508 10.4884 27.2508 10.4884C24.4018 17.5645 11.6355 10.4273 11.6355 10.4273ZM8.43986 9.33717C9.06735 9.34139 9.57465 9.83905 9.57318 10.4505C9.57149 11.062 9.05828 11.5554 8.43079 11.5533C7.8014 11.5511 7.29326 11.0535 7.29579 10.4421C7.29916 9.83061 7.81048 9.33506 8.43986 9.33717ZM34.6484 10.4463C4.8084 -12.7956 0.4375 10.3135 0.4375 10.3135C6.5167 33.9223 34.6484 10.4463 34.6484 10.4463Z" fill="url(#paint11_linear_150_12134)"/>
<path d="M36.8581 13.6174C38.5934 13.6237 40.0082 12.2595 40.0145 10.5685C40.023 8.87753 38.6208 7.50273 36.8834 7.4964C35.146 7.49007 33.7342 8.85431 33.7266 10.5432C33.7192 12.2342 35.1207 13.6111 36.8581 13.6174Z" fill="url(#paint12_linear_150_12134)"/>
<path d="M61.0101 13.7102C62.7475 13.7186 64.1601 12.3523 64.1665 10.6634C64.1749 8.97234 62.7728 7.59764 61.0354 7.59132C59.3001 7.58288 57.8853 8.94923 57.8789 10.6381C57.8726 12.3291 59.2748 13.7038 61.0101 13.7102Z" fill="url(#paint13_linear_150_12134)"/>
<path d="M48.9505 18.7136C48.9505 18.7136 38.193 10.6043 38.2858 10.5622C38.193 10.52 49.0159 2.49512 49.0159 2.49512C50.2704 5.14549 59.7439 10.6338 59.7228 10.6465C59.8788 10.7329 50.2261 16.0717 48.9505 18.7136Z" fill="url(#paint14_linear_150_12134)"/>
<path d="M334.326 10.5431C334.326 10.5431 335.578 6.01406 344.495 10.5052C344.495 10.5052 336.181 15.1523 334.326 10.5431ZM347.32 10.5136C347.32 10.9121 346.991 11.2368 346.582 11.2389C346.171 11.241 345.838 10.9185 345.838 10.52C345.836 10.1215 346.165 9.79678 346.576 9.79467C346.985 9.79467 347.318 10.1151 347.32 10.5136ZM351.788 10.4293C351.788 10.4293 348.94 -4.619 329.508 10.5158C329.508 10.5158 347.828 25.8044 351.788 10.4293Z" fill="url(#paint15_linear_150_12134)"/>
<path d="M328.065 12.5818C326.935 12.586 326.016 11.6962 326.012 10.5956C326.005 9.49496 326.921 8.60096 328.051 8.59674C329.181 8.59042 330.102 9.48023 330.106 10.5809C330.111 11.6815 329.198 12.5776 328.065 12.5818Z" fill="url(#paint16_linear_150_12134)"/>
<path d="M61.0234 11.7324H326.012V9.56906H61.0234V11.7324Z" fill="url(#paint17_linear_150_12134)"/>
<defs>
<linearGradient id="paint0_linear_150_12134" x1="237.368" y1="446.297" x2="788.902" y2="100.892" gradientUnits="userSpaceOnUse">
<stop stop-color="#EEDEBC"/>
<stop offset="0.150732" stop-color="#EEDEBC"/>
<stop offset="0.573161" stop-color="#C9A885"/>
<stop offset="0.612903" stop-color="#C9A885"/>
<stop offset="0.613741" stop-color="#C9A885"/>
<stop offset="0.72043" stop-color="#9A7A5F"/>
<stop offset="0.721351" stop-color="#9A7A5F"/>
<stop offset="0.83871" stop-color="#C9A885"/>
<stop offset="0.999958" stop-color="#EEDEBC"/>
<stop offset="1" stop-color="#EEDEBC"/>
</linearGradient>
<linearGradient id="paint1_linear_150_12134" x1="230.915" y1="435.99" x2="782.448" y2="90.5937" gradientUnits="userSpaceOnUse">
<stop stop-color="#EEDEBC"/>
<stop offset="0.150732" stop-color="#EEDEBC"/>
<stop offset="0.573161" stop-color="#C9A885"/>
<stop offset="0.612903" stop-color="#C9A885"/>
<stop offset="0.613741" stop-color="#C9A885"/>
<stop offset="0.72043" stop-color="#9A7A5F"/>
<stop offset="0.721351" stop-color="#9A7A5F"/>
<stop offset="0.83871" stop-color="#C9A885"/>
<stop offset="0.999958" stop-color="#EEDEBC"/>
<stop offset="1" stop-color="#EEDEBC"/>
</linearGradient>
<linearGradient id="paint2_linear_150_12134" x1="224.159" y1="425.189" x2="775.689" y2="79.7909" gradientUnits="userSpaceOnUse">
<stop stop-color="#EEDEBC"/>
<stop offset="0.150732" stop-color="#EEDEBC"/>
<stop offset="0.573161" stop-color="#C9A885"/>
<stop offset="0.612903" stop-color="#C9A885"/>
<stop offset="0.613741" stop-color="#C9A885"/>
<stop offset="0.72043" stop-color="#9A7A5F"/>
<stop offset="0.721351" stop-color="#9A7A5F"/>
<stop offset="0.83871" stop-color="#C9A885"/>
<stop offset="0.999958" stop-color="#EEDEBC"/>
<stop offset="1" stop-color="#EEDEBC"/>
</linearGradient>
<linearGradient id="paint3_linear_150_12134" x1="227.519" y1="430.571" x2="779.051" y2="85.1667" gradientUnits="userSpaceOnUse">
<stop stop-color="#EEDEBC"/>
<stop offset="0.150732" stop-color="#EEDEBC"/>
<stop offset="0.573161" stop-color="#C9A885"/>
<stop offset="0.612903" stop-color="#C9A885"/>
<stop offset="0.613741" stop-color="#C9A885"/>
<stop offset="0.72043" stop-color="#9A7A5F"/>
<stop offset="0.721351" stop-color="#9A7A5F"/>
<stop offset="0.83871" stop-color="#C9A885"/>
<stop offset="0.999958" stop-color="#EEDEBC"/>
<stop offset="1" stop-color="#EEDEBC"/>
</linearGradient>
<linearGradient id="paint4_linear_150_12134" x1="144.646" y1="298.242" x2="696.179" y2="-47.1622" gradientUnits="userSpaceOnUse">
<stop stop-color="#EEDEBC"/>
<stop offset="0.150732" stop-color="#EEDEBC"/>
<stop offset="0.573161" stop-color="#C9A885"/>
<stop offset="0.612903" stop-color="#C9A885"/>
<stop offset="0.613741" stop-color="#C9A885"/>
<stop offset="0.72043" stop-color="#9A7A5F"/>
<stop offset="0.721351" stop-color="#9A7A5F"/>
<stop offset="0.83871" stop-color="#C9A885"/>
<stop offset="0.999958" stop-color="#EEDEBC"/>
<stop offset="1" stop-color="#EEDEBC"/>
</linearGradient>
<linearGradient id="paint5_linear_150_12134" x1="148.89" y1="305.022" x2="700.424" y2="-40.3879" gradientUnits="userSpaceOnUse">
<stop stop-color="#EEDEBC"/>
<stop offset="0.150732" stop-color="#EEDEBC"/>
<stop offset="0.573161" stop-color="#C9A885"/>
<stop offset="0.612903" stop-color="#C9A885"/>
<stop offset="0.613741" stop-color="#C9A885"/>
<stop offset="0.72043" stop-color="#9A7A5F"/>
<stop offset="0.721351" stop-color="#9A7A5F"/>
<stop offset="0.83871" stop-color="#C9A885"/>
<stop offset="0.999958" stop-color="#EEDEBC"/>
<stop offset="1" stop-color="#EEDEBC"/>
</linearGradient>
<linearGradient id="paint6_linear_150_12134" x1="186.823" y1="365.597" x2="738.364" y2="20.1959" gradientUnits="userSpaceOnUse">
<stop stop-color="#EEDEBC"/>
<stop offset="0.150732" stop-color="#EEDEBC"/>
<stop offset="0.573161" stop-color="#C9A885"/>
<stop offset="0.612903" stop-color="#C9A885"/>
<stop offset="0.613741" stop-color="#C9A885"/>
<stop offset="0.72043" stop-color="#9A7A5F"/>
<stop offset="0.721351" stop-color="#9A7A5F"/>
<stop offset="0.83871" stop-color="#C9A885"/>
<stop offset="0.999958" stop-color="#EEDEBC"/>
<stop offset="1" stop-color="#EEDEBC"/>
</linearGradient>
<linearGradient id="paint7_linear_150_12134" x1="116.392" y1="253.119" x2="667.925" y2="-92.2858" gradientUnits="userSpaceOnUse">
<stop stop-color="#EEDEBC"/>
<stop offset="0.150732" stop-color="#EEDEBC"/>
<stop offset="0.573161" stop-color="#C9A885"/>
<stop offset="0.612903" stop-color="#C9A885"/>
<stop offset="0.613741" stop-color="#C9A885"/>
<stop offset="0.72043" stop-color="#9A7A5F"/>
<stop offset="0.721351" stop-color="#9A7A5F"/>
<stop offset="0.83871" stop-color="#C9A885"/>
<stop offset="0.999958" stop-color="#EEDEBC"/>
<stop offset="1" stop-color="#EEDEBC"/>
</linearGradient>
<linearGradient id="paint8_linear_150_12134" x1="120.928" y1="260.37" x2="672.461" y2="-85.0347" gradientUnits="userSpaceOnUse">
<stop stop-color="#EEDEBC"/>
<stop offset="0.150732" stop-color="#EEDEBC"/>
<stop offset="0.573161" stop-color="#C9A885"/>
<stop offset="0.612903" stop-color="#C9A885"/>
<stop offset="0.613741" stop-color="#C9A885"/>
<stop offset="0.72043" stop-color="#9A7A5F"/>
<stop offset="0.721351" stop-color="#9A7A5F"/>
<stop offset="0.83871" stop-color="#C9A885"/>
<stop offset="0.999958" stop-color="#EEDEBC"/>
<stop offset="1" stop-color="#EEDEBC"/>
</linearGradient>
<linearGradient id="paint9_linear_150_12134" x1="158.98" y1="321.133" x2="710.513" y2="-24.2728" gradientUnits="userSpaceOnUse">
<stop stop-color="#EEDEBC"/>
<stop offset="0.150732" stop-color="#EEDEBC"/>
<stop offset="0.573161" stop-color="#C9A885"/>
<stop offset="0.612903" stop-color="#C9A885"/>
<stop offset="0.613741" stop-color="#C9A885"/>
<stop offset="0.72043" stop-color="#9A7A5F"/>
<stop offset="0.721351" stop-color="#9A7A5F"/>
<stop offset="0.83871" stop-color="#C9A885"/>
<stop offset="0.999958" stop-color="#EEDEBC"/>
<stop offset="1" stop-color="#EEDEBC"/>
</linearGradient>
<linearGradient id="paint10_linear_150_12134" x1="154.202" y1="313.509" x2="705.737" y2="-31.8956" gradientUnits="userSpaceOnUse">
<stop stop-color="#EEDEBC"/>
<stop offset="0.150732" stop-color="#EEDEBC"/>
<stop offset="0.573161" stop-color="#C9A885"/>
<stop offset="0.612903" stop-color="#C9A885"/>
<stop offset="0.613741" stop-color="#C9A885"/>
<stop offset="0.72043" stop-color="#9A7A5F"/>
<stop offset="0.721351" stop-color="#9A7A5F"/>
<stop offset="0.83871" stop-color="#C9A885"/>
<stop offset="0.999958" stop-color="#EEDEBC"/>
<stop offset="1" stop-color="#EEDEBC"/>
</linearGradient>
<linearGradient id="paint11_linear_150_12134" x1="-21.6462" y1="32.7099" x2="529.887" y2="-312.695" gradientUnits="userSpaceOnUse">
<stop stop-color="#EEDEBC"/>
<stop offset="0.150732" stop-color="#EEDEBC"/>
<stop offset="0.573161" stop-color="#C9A885"/>
<stop offset="0.612903" stop-color="#C9A885"/>
<stop offset="0.613741" stop-color="#C9A885"/>
<stop offset="0.72043" stop-color="#9A7A5F"/>
<stop offset="0.721351" stop-color="#9A7A5F"/>
<stop offset="0.83871" stop-color="#C9A885"/>
<stop offset="0.999958" stop-color="#EEDEBC"/>
<stop offset="1" stop-color="#EEDEBC"/>
</linearGradient>
<linearGradient id="paint12_linear_150_12134" x1="-15.1261" y1="43.1197" x2="536.41" y2="-302.283" gradientUnits="userSpaceOnUse">
<stop stop-color="#EEDEBC"/>
<stop offset="0.150732" stop-color="#EEDEBC"/>
<stop offset="0.573161" stop-color="#C9A885"/>
<stop offset="0.612903" stop-color="#C9A885"/>
<stop offset="0.613741" stop-color="#C9A885"/>
<stop offset="0.72043" stop-color="#9A7A5F"/>
<stop offset="0.721351" stop-color="#9A7A5F"/>
<stop offset="0.83871" stop-color="#C9A885"/>
<stop offset="0.999958" stop-color="#EEDEBC"/>
<stop offset="1" stop-color="#EEDEBC"/>
</linearGradient>
<linearGradient id="paint13_linear_150_12134" x1="-8.28213" y1="54.0541" x2="543.252" y2="-291.352" gradientUnits="userSpaceOnUse">
<stop stop-color="#EEDEBC"/>
<stop offset="0.150732" stop-color="#EEDEBC"/>
<stop offset="0.573161" stop-color="#C9A885"/>
<stop offset="0.612903" stop-color="#C9A885"/>
<stop offset="0.613741" stop-color="#C9A885"/>
<stop offset="0.72043" stop-color="#9A7A5F"/>
<stop offset="0.721351" stop-color="#9A7A5F"/>
<stop offset="0.83871" stop-color="#C9A885"/>
<stop offset="0.999958" stop-color="#EEDEBC"/>
<stop offset="1" stop-color="#EEDEBC"/>
</linearGradient>
<linearGradient id="paint14_linear_150_12134" x1="-11.6924" y1="48.6036" x2="539.84" y2="-296.801" gradientUnits="userSpaceOnUse">
<stop stop-color="#EEDEBC"/>
<stop offset="0.150732" stop-color="#EEDEBC"/>
<stop offset="0.573161" stop-color="#C9A885"/>
<stop offset="0.612903" stop-color="#C9A885"/>
<stop offset="0.613741" stop-color="#C9A885"/>
<stop offset="0.72043" stop-color="#9A7A5F"/>
<stop offset="0.721351" stop-color="#9A7A5F"/>
<stop offset="0.83871" stop-color="#C9A885"/>
<stop offset="0.999958" stop-color="#EEDEBC"/>
<stop offset="1" stop-color="#EEDEBC"/>
</linearGradient>
<linearGradient id="paint15_linear_150_12134" x1="71.125" y1="180.846" x2="622.657" y2="-164.559" gradientUnits="userSpaceOnUse">
<stop stop-color="#EEDEBC"/>
<stop offset="0.150732" stop-color="#EEDEBC"/>
<stop offset="0.573161" stop-color="#C9A885"/>
<stop offset="0.612903" stop-color="#C9A885"/>
<stop offset="0.613741" stop-color="#C9A885"/>
<stop offset="0.72043" stop-color="#9A7A5F"/>
<stop offset="0.721351" stop-color="#9A7A5F"/>
<stop offset="0.83871" stop-color="#C9A885"/>
<stop offset="0.999958" stop-color="#EEDEBC"/>
<stop offset="1" stop-color="#EEDEBC"/>
</linearGradient>
<linearGradient id="paint16_linear_150_12134" x1="66.916" y1="174.129" x2="618.449" y2="-171.28" gradientUnits="userSpaceOnUse">
<stop stop-color="#EEDEBC"/>
<stop offset="0.150732" stop-color="#EEDEBC"/>
<stop offset="0.573161" stop-color="#C9A885"/>
<stop offset="0.612903" stop-color="#C9A885"/>
<stop offset="0.613741" stop-color="#C9A885"/>
<stop offset="0.72043" stop-color="#9A7A5F"/>
<stop offset="0.721351" stop-color="#9A7A5F"/>
<stop offset="0.83871" stop-color="#C9A885"/>
<stop offset="0.999958" stop-color="#EEDEBC"/>
<stop offset="1" stop-color="#EEDEBC"/>
</linearGradient>
<linearGradient id="paint17_linear_150_12134" x1="29.0444" y1="113.657" x2="580.585" y2="-231.744" gradientUnits="userSpaceOnUse">
<stop stop-color="#EEDEBC"/>
<stop offset="0.150732" stop-color="#EEDEBC"/>
<stop offset="0.573161" stop-color="#C9A885"/>
<stop offset="0.612903" stop-color="#C9A885"/>
<stop offset="0.613741" stop-color="#C9A885"/>
<stop offset="0.72043" stop-color="#9A7A5F"/>
<stop offset="0.721351" stop-color="#9A7A5F"/>
<stop offset="0.83871" stop-color="#C9A885"/>
<stop offset="0.999958" stop-color="#EEDEBC"/>
<stop offset="1" stop-color="#EEDEBC"/>
</linearGradient>
</defs>
</svg>
