<svg width="581" height="126" viewBox="0 0 581 126" fill="none" xmlns="http://www.w3.org/2000/svg">
<path d="M288.861 28.7691L282.234 14.7251L282.276 14.6704C284.98 11.0411 288.612 1.16911 288.612 1.16911L288.861 0.279785L289.109 1.16911C289.109 1.16911 292.742 11.0411 295.445 14.6704L295.488 14.7251L288.861 28.7691Z" fill="url(#paint0_linear_150_12293)"/>
<path d="M321.226 96.3573C321.869 96.64 322.346 97.1854 322.586 98.0534C322.812 98.9094 322.737 100.085 322.138 101.417C321.542 102.74 320.32 104.171 318.56 105.184C316.81 106.212 314.565 106.72 312.372 106.56C311.262 106.512 309.876 106.191 308.402 105.605C306.93 105.016 305.41 104.104 304.046 102.92C302.676 101.741 301.457 100.301 300.492 98.74C299.522 97.18 298.804 95.5053 298.317 93.8707C297.853 92.224 297.609 90.6267 297.522 89.18C297.492 88.4533 297.489 87.7653 297.509 87.1253C297.557 86.484 297.592 85.8907 297.666 85.352C297.753 84.812 297.841 84.3267 297.929 83.904C298.022 83.4813 298.145 83.12 298.246 82.8253C298.456 82.236 298.648 81.9173 298.809 81.916C298.95 81.916 299.145 82.236 299.378 82.7907C299.621 83.4107 299.92 84.1787 300.261 85.0534C300.445 85.5147 300.674 86.004 300.888 86.5227C301.129 87.0333 301.39 87.5653 301.668 88.1067C302.25 89.18 302.942 90.2707 303.722 91.2787C304.525 92.2747 305.418 93.1773 306.349 93.908C307.276 94.6413 308.236 95.2 309.126 95.5827C310.016 95.9707 310.834 96.176 311.5 96.2707C311.665 96.3133 311.824 96.3093 311.97 96.3307C312.118 96.3493 312.257 96.3733 312.385 96.3693C312.513 96.3747 312.633 96.3853 312.744 96.4013C312.852 96.3973 312.952 96.4 313.044 96.408C313.78 96.4587 314.37 96.5027 314.962 96.528C315.552 96.5533 316.198 96.5707 316.908 96.48C318.329 96.3347 319.924 95.7907 321.226 96.3573Z" fill="url(#paint1_linear_150_12293)"/>
<path d="M299.19 108.143C295.246 99.1946 294.187 86.6373 294.062 84.9813C294.053 84.8746 293.993 84.7986 293.919 84.7986L290.071 80.4413C289.562 79.8653 288.662 79.8653 288.153 80.4413L284.305 84.7986C284.231 84.7986 284.171 84.8746 284.163 84.9813C284.038 86.6373 283.146 98.2293 279.035 108.143C279.003 108.22 286.963 122.447 288.755 125.42C288.937 125.72 289.289 125.72 289.469 125.42C291.262 122.447 299.223 108.219 299.19 108.143Z" fill="url(#paint2_linear_150_12293)"/>
<path d="M256.493 96.3573C255.85 96.64 255.373 97.1854 255.133 98.0534C254.908 98.9094 254.981 100.085 255.581 101.417C256.177 102.74 257.4 104.171 259.16 105.184C260.909 106.212 263.154 106.72 265.348 106.56C266.457 106.512 267.844 106.191 269.317 105.605C270.789 105.016 272.309 104.104 273.673 102.92C275.044 101.741 276.261 100.301 277.228 98.74C278.197 97.18 278.914 95.5053 279.402 93.8707C279.866 92.224 280.109 90.6267 280.197 89.18C280.228 88.4533 280.23 87.7653 280.21 87.1253C280.162 86.484 280.128 85.8907 280.053 85.352C279.966 84.812 279.878 84.3267 279.79 83.904C279.697 83.4813 279.574 83.12 279.473 82.8253C279.264 82.236 279.072 81.9173 278.91 81.916C278.769 81.916 278.574 82.236 278.341 82.7907C278.098 83.4107 277.8 84.1787 277.458 85.0534C277.274 85.5147 277.045 86.004 276.83 86.5227C276.59 87.0333 276.329 87.5653 276.05 88.1067C275.469 89.18 274.777 90.2707 273.997 91.2787C273.194 92.2747 272.301 93.1773 271.37 93.908C270.442 94.6413 269.484 95.2 268.593 95.5827C267.704 95.9707 266.885 96.176 266.22 96.2707C266.053 96.3133 265.896 96.3093 265.748 96.3307C265.601 96.3493 265.462 96.3733 265.334 96.3693C265.206 96.3747 265.086 96.3853 264.976 96.4013C264.868 96.3973 264.768 96.4 264.676 96.408C263.94 96.4587 263.348 96.5027 262.756 96.528C262.168 96.5533 261.521 96.5707 260.812 96.48C259.39 96.3347 257.796 95.7907 256.493 96.3573Z" fill="url(#paint3_linear_150_12293)"/>
<path d="M289.113 78.8519L284.195 74.1892C285.081 73.0012 289.113 66.1572 289.113 66.1572C289.113 66.1572 292.951 73.0012 293.837 74.1892L289.113 78.8519Z" fill="url(#paint4_linear_150_12293)"/>
<path d="M255.973 84.3745C253.72 83.8839 251.413 83.2972 249.084 82.5652C246.757 81.8279 244.389 81.0052 242.007 80.0785C237.232 78.2385 232.361 76.0652 227.345 73.9079C224.84 72.8372 222.271 71.7412 219.7 70.6199C217.127 69.4999 214.528 68.3599 211.907 67.2372C209.285 66.1052 206.635 65.0092 203.963 63.9305C201.283 62.8812 198.588 61.8345 195.855 60.9119C194.495 60.4252 193.116 60.0039 191.743 59.5639C191.057 59.3359 190.36 59.1572 189.671 58.9532C188.977 58.7612 188.291 58.5412 187.593 58.3705C186.199 58.0239 184.813 57.6425 183.412 57.3625C182.711 57.2159 182.015 57.0505 181.313 56.9185C180.612 56.7959 179.911 56.6719 179.209 56.5492C178.859 56.4905 178.509 56.4185 178.159 56.3705L177.104 56.2319C176.401 56.1385 175.7 56.0452 174.999 55.9532C174.287 55.8786 173.576 55.8065 172.867 55.7332C172.156 55.6572 171.448 55.5865 170.741 55.5305C170.576 55.5159 170.411 55.5025 170.244 55.4879C170.263 55.4945 170.277 55.5025 170.297 55.5092C171.028 55.7719 171.971 55.9079 173.087 56.0465C174.221 56.1652 175.475 56.4839 176.873 56.7639C179.676 57.3359 182.935 58.3799 186.473 59.7705C189.972 61.2865 193.673 63.1719 197.479 65.2652C202.664 68.0999 207.44 70.8465 211.575 73.0892C213.656 74.1745 215.543 75.2185 217.255 76.0332C218.104 76.4572 218.897 76.8532 219.628 77.2185C220.371 77.5559 221.051 77.8639 221.661 78.1412C222.296 78.3505 223.004 78.5852 223.776 78.8399C224.551 79.0932 225.404 79.3439 226.308 79.6292C228.123 80.1879 230.173 80.8385 232.417 81.5119C236.907 82.8465 242.165 84.3679 247.884 85.2412C249.987 85.5412 252.047 85.7999 254.043 85.8759C255.041 85.9559 256.021 85.9265 256.984 85.9545C257.464 85.9545 257.939 85.9279 258.409 85.9172C258.877 85.8959 259.347 85.9079 259.8 85.8519C261.155 85.7652 262.455 85.5999 263.693 85.3892C261.208 85.2519 258.623 84.9105 255.973 84.3745ZM273.303 83.7745C273.608 83.6052 273.865 83.4545 274.064 83.3385C274.101 83.3172 274.129 83.3012 274.163 83.2812C273.884 83.3932 273.596 83.5092 273.292 83.6292C273.063 83.7239 272.824 83.8199 272.58 83.9172C272.824 83.8745 273.064 83.8252 273.303 83.7745ZM268.424 84.3399C268.763 84.2505 269.095 84.1599 269.417 84.0705C270.779 83.6825 272.011 83.3305 273.093 83.0225C274.181 82.7225 275.119 82.4639 275.887 82.2532C276.84 82.0252 277.529 81.8612 277.919 81.7679C277.924 81.7825 277.931 81.7972 277.937 81.8132C277.563 81.9545 276.899 82.2065 275.979 82.5545C275.517 82.7399 274.983 82.9532 274.397 83.1879C274.321 83.2465 274.229 83.3185 274.111 83.4105C274.016 83.4852 273.903 83.5732 273.779 83.6679C273.912 83.6372 274.049 83.6119 274.18 83.5785C275.599 83.2119 276.896 82.6799 278.005 81.9772C278.019 82.0119 278.035 82.0412 278.047 82.0772C278.12 82.2905 278.216 82.4812 278.323 82.6599C277.171 83.4252 275.839 84.0105 274.401 84.4265C273.588 84.6599 272.741 84.8452 271.871 84.9945C270.632 85.7919 268.976 86.7412 266.917 87.6839C266.6 87.8292 266.276 87.9759 265.944 88.1265C265.608 88.2665 265.264 88.4079 264.913 88.5532C264.213 88.8532 263.467 89.1105 262.699 89.3985C261.151 89.9292 259.479 90.4585 257.681 90.8812C255.887 91.3039 253.973 91.6586 251.959 91.8532C250.953 91.9492 249.912 91.9999 248.865 91.9945C248.345 91.9839 247.821 91.9705 247.293 91.9585C246.767 91.9399 246.239 91.8919 245.705 91.8572C239.913 91.3932 234.677 89.9412 230.331 88.4785C225.985 86.9772 222.5 85.4372 220.136 84.3279C218.905 83.9012 217.381 83.4039 215.667 82.7079C213.951 82.0185 212.008 81.2239 209.887 80.3399C207.809 79.3665 205.564 78.2825 203.195 77.1212C200.877 75.8665 198.417 74.5639 195.936 73.1159C194.12 72.0345 192.355 70.9652 190.656 69.9225C188.931 68.8465 187.371 67.6705 185.919 66.5425C184.484 65.4079 183.119 64.3292 181.841 63.3185C180.567 62.3172 179.361 61.4212 178.241 60.6279C175.995 59.0639 174.035 58.0225 172.62 57.4385C172.265 57.2972 171.951 57.1625 171.673 57.0599C171.392 56.9705 171.155 56.8945 170.963 56.8332C170.576 56.7079 170.372 56.6439 170.372 56.6439C170.372 56.6439 170.583 56.6799 170.981 56.7479C171.181 56.7839 171.429 56.8279 171.723 56.8799C172.013 56.9452 172.343 57.0412 172.719 57.1385C174.213 57.5479 176.329 58.3825 178.759 59.7652C179.967 60.4652 181.265 61.2732 182.621 62.1892C183.977 63.1039 185.4 64.1119 186.892 65.1559C188.387 66.1985 189.944 67.2745 191.62 68.2559C193.336 69.2452 195.107 70.2812 196.912 71.3559C199.383 72.7799 201.773 74.1572 204.043 75.4652C206.344 76.7012 208.509 77.8945 210.507 78.9999C212.541 80.0145 214.4 80.9585 216.04 81.8025C217.677 82.6519 219.136 83.3065 220.309 83.8705C222.773 84.6985 226.371 85.8705 230.741 87.0572C235.116 88.2079 240.284 89.3932 245.856 89.8372C246.368 89.8705 246.876 89.9199 247.383 89.9412C247.887 89.9585 248.389 89.9759 248.888 89.9919C249.881 90.0119 250.848 89.9852 251.811 89.9212C253.731 89.7905 255.587 89.5252 257.344 89.2079C259.104 88.8905 260.76 88.4799 262.304 88.0745C263.071 87.8492 263.82 87.6559 264.525 87.4199C264.879 87.3079 265.227 87.1972 265.567 87.0905C265.903 86.9719 266.232 86.8559 266.553 86.7439C268.031 86.2239 269.317 85.6972 270.409 85.2065C269.891 85.2679 269.365 85.3199 268.832 85.3599C266.333 86.2572 263.353 87.1612 259.945 87.5545C259.471 87.6359 258.991 87.6479 258.504 87.6919C258.017 87.7252 257.525 87.7719 257.027 87.7919C256.031 87.8039 255.009 87.8665 253.975 87.8132C251.9 87.7892 249.763 87.5545 247.592 87.2439C241.685 86.3399 236.391 84.5572 231.967 82.9199C229.751 82.0945 227.752 81.2799 225.991 80.5572C225.112 80.1892 224.289 79.8599 223.539 79.5252C222.789 79.1865 222.105 78.8772 221.491 78.5985C220.851 78.3879 220.139 78.1519 219.36 77.8932C218.595 77.5985 217.764 77.2785 216.873 76.9345C215.08 76.2719 213.109 75.3785 210.943 74.4212C206.643 72.4399 201.727 69.8825 196.553 67.0545C192.749 64.9612 189.133 62.9812 185.812 61.3385C182.432 59.8119 179.323 58.5492 176.624 57.7439C175.273 57.3452 174.068 56.9092 172.977 56.6785C171.881 56.4225 170.913 56.1692 170.18 55.8025C169.937 55.6865 169.732 55.5585 169.545 55.4292C169.239 55.4025 168.931 55.3759 168.625 55.3492C167.921 55.3039 167.22 55.2599 166.52 55.2145L165.469 55.1505L164.425 55.1132C163.731 55.0932 163.035 55.0505 162.345 55.0492C159.58 54.9999 156.863 55.1212 154.217 55.4279C153.887 55.4705 153.559 55.5132 153.229 55.5559C152.901 55.5999 152.571 55.6319 152.248 55.6999C151.601 55.8199 150.956 55.9385 150.313 56.0572C149.68 56.2119 149.048 56.3652 148.419 56.5185C148.103 56.5879 147.795 56.6839 147.487 56.7812C147.179 56.8759 146.872 56.9705 146.565 57.0652C146.26 57.1639 145.948 57.2412 145.649 57.3572C145.351 57.4692 145.051 57.5812 144.752 57.6932C144.156 57.9159 143.557 58.1265 142.983 58.3985C142.405 58.6585 141.823 58.8959 141.257 59.1705C140.695 59.4559 140.136 59.7399 139.58 60.0225C139.299 60.1572 139.028 60.3159 138.759 60.4705C138.488 60.6265 138.219 60.7812 137.949 60.9345C137.68 61.0892 137.412 61.2425 137.144 61.3959C136.876 61.5492 136.619 61.7252 136.357 61.8879C135.836 62.2185 135.319 62.5465 134.804 62.8745C134.555 63.0412 134.323 63.2105 134.08 63.3785C133.841 63.5452 133.601 63.7105 133.376 63.8945C133.147 64.0732 132.919 64.2519 132.691 64.4292C132.465 64.6092 132.252 64.8052 132.033 64.9905C131.589 65.3545 131.189 65.7639 130.775 66.1519C129.977 66.9585 129.217 67.7839 128.545 68.6612C127.852 69.5212 127.259 70.4372 126.693 71.3439C126.164 72.2719 125.656 73.1959 125.257 74.1479C124.832 75.0879 124.512 76.0492 124.219 76.9932C124.099 77.4732 123.959 77.9425 123.861 78.4159C123.772 78.8905 123.657 79.3572 123.605 79.8252C123.328 81.6932 123.315 83.5052 123.528 85.1892C123.74 86.8745 124.177 88.4319 124.761 89.8212C125.343 91.2132 126.068 92.4385 126.829 93.5119C127.577 94.5972 128.484 95.5625 129.419 96.4825C129.663 96.7052 129.904 96.9265 130.147 97.1479C130.265 97.2639 130.388 97.3639 130.512 97.4599L130.88 97.7545C131.119 97.9585 131.384 98.1319 131.641 98.3119L132.029 98.5825L132.435 98.8292C133.511 99.4892 134.656 100.045 135.845 100.481C137.035 100.919 138.249 101.279 139.485 101.527C141.956 102.031 144.465 102.195 146.908 102.063C148.129 101.995 149.336 101.868 150.513 101.653C151.107 101.563 151.684 101.424 152.263 101.299C152.551 101.235 152.832 101.149 153.117 101.076C153.4 101.001 153.685 100.929 153.96 100.836C158.429 99.5039 162.281 97.0132 164.756 93.7852C164.903 93.5785 165.049 93.3719 165.195 93.1665L165.413 92.8599L165.604 92.5412C165.733 92.3279 165.86 92.1172 165.988 91.9065C166.099 91.6879 166.208 91.4692 166.316 91.2532L166.481 90.9279C166.531 90.8185 166.572 90.7052 166.619 90.5945C166.709 90.3719 166.8 90.1492 166.889 89.9292C166.967 89.7039 167.033 89.4772 167.107 89.2519L167.215 88.9159C167.245 88.8025 167.268 88.6879 167.295 88.5732C167.348 88.3465 167.4 88.1199 167.453 87.8945C167.488 87.6652 167.523 87.4372 167.556 87.2119L167.608 86.8719L167.632 86.5319C167.648 86.3052 167.664 86.0799 167.68 85.8559C167.679 85.6305 167.677 85.4065 167.676 85.1839C167.675 85.0732 167.677 84.9612 167.673 84.8505L167.645 84.5212C167.627 84.3012 167.609 84.0825 167.591 83.8652C167.556 83.6492 167.523 83.4345 167.489 83.2212C167.471 83.1159 167.457 83.0079 167.437 82.9025L167.363 82.5905C167.315 82.3825 167.265 82.1759 167.217 81.9705C167.153 81.7692 167.091 81.5692 167.027 81.3705L166.935 81.0719C166.899 80.9745 166.859 80.8799 166.821 80.7839C166.745 80.5932 166.669 80.4025 166.593 80.2132C166.513 80.0265 166.419 79.8479 166.332 79.6665C166.169 79.2972 165.956 78.9639 165.763 78.6252C164.959 77.2825 163.931 76.1972 162.856 75.3479C161.775 74.5012 160.624 73.9079 159.508 73.5265C158.392 73.1519 157.311 72.9492 156.325 72.9212C156.201 72.9145 156.08 72.9025 155.96 72.8985C155.84 72.9025 155.721 72.9039 155.605 72.9065C155.371 72.9119 155.143 72.9159 154.921 72.9199C154.792 72.9332 154.667 72.9452 154.541 72.9585C156.423 73.8945 157.628 75.9612 157.396 78.2172C157.101 81.0959 154.585 83.1839 151.78 82.8812C148.973 82.5772 146.939 79.9985 147.233 77.1212C147.497 74.5439 149.54 72.6079 151.977 72.4452C152.092 72.3905 152.207 72.3359 152.331 72.2772C152.671 72.1559 153.036 72.0239 153.427 71.8839C153.831 71.7625 154.276 71.6625 154.752 71.5465C154.996 71.5105 155.247 71.4732 155.503 71.4345C155.633 71.4172 155.765 71.3985 155.899 71.3785C156.032 71.3665 156.169 71.3625 156.308 71.3545C157.419 71.2612 158.677 71.3599 160.016 71.6799C161.353 72.0065 162.767 72.5959 164.119 73.5092C165.467 74.4239 166.775 75.6439 167.833 77.1959C168.091 77.5879 168.365 77.9785 168.589 78.4092C168.704 78.6212 168.829 78.8319 168.939 79.0519C169.041 79.2745 169.145 79.4999 169.249 79.7265C169.301 79.8412 169.356 79.9532 169.404 80.0692L169.536 80.4239C169.624 80.6612 169.713 80.9012 169.803 81.1425C169.873 81.3892 169.945 81.6385 170.017 81.8879L170.124 82.2652C170.156 82.3932 170.18 82.5225 170.207 82.6519C170.26 82.9105 170.313 83.1719 170.367 83.4345C170.407 83.6999 170.437 83.9665 170.472 84.2359L170.523 84.6425C170.535 84.7785 170.539 84.9145 170.547 85.0519C170.559 85.3265 170.572 85.6039 170.585 85.8812C170.577 86.1599 170.569 86.4385 170.563 86.7199L170.548 87.1439L170.503 87.5679C170.471 87.8505 170.44 88.1345 170.407 88.4212C170.353 88.7039 170.3 88.9865 170.245 89.2719C170.216 89.4145 170.192 89.5585 170.159 89.7012L170.044 90.1239C169.965 90.4052 169.889 90.6905 169.804 90.9745C169.703 91.2519 169.603 91.5305 169.5 91.8105C169.447 91.9492 169.4 92.0919 169.343 92.2292L169.156 92.6372C169.031 92.9092 168.904 93.1839 168.777 93.4585C168.631 93.7212 168.483 93.9852 168.335 94.2505L168.111 94.6505L167.861 95.0305C167.693 95.2839 167.525 95.5385 167.355 95.7932C166.625 96.7732 165.839 97.7425 164.924 98.5972C164.487 99.0479 163.995 99.4359 163.517 99.8532C163.272 100.052 163.017 100.237 162.765 100.431C162.513 100.625 162.259 100.816 161.991 100.987C161.725 101.163 161.46 101.34 161.193 101.517C160.919 101.681 160.644 101.845 160.368 102.008L159.952 102.253L159.524 102.476C159.239 102.625 158.951 102.773 158.663 102.921C158.368 103.056 158.073 103.189 157.776 103.324L157.331 103.524L156.876 103.704C156.572 103.823 156.269 103.948 155.961 104.061C155.651 104.167 155.34 104.273 155.027 104.379C154.717 104.491 154.399 104.579 154.08 104.671C153.763 104.759 153.444 104.86 153.121 104.939C152.476 105.093 151.827 105.26 151.165 105.375C149.848 105.639 148.497 105.804 147.131 105.9C144.395 106.088 141.573 105.944 138.747 105.396C137.332 105.125 135.923 104.725 134.527 104.223C133.131 103.721 131.757 103.071 130.441 102.271L129.945 101.972L129.465 101.641C129.144 101.42 128.82 101.205 128.516 100.952L128.053 100.583C127.896 100.461 127.744 100.337 127.607 100.207C127.323 99.9479 127.039 99.6879 126.753 99.4292C125.648 98.3519 124.575 97.2039 123.665 95.8932C122.747 94.5972 121.864 93.1012 121.156 91.3892C120.447 89.6799 119.916 87.7585 119.669 85.6959C119.171 81.5759 119.811 76.9079 121.804 72.5399C122.28 71.4359 122.873 70.3719 123.499 69.3105C124.159 68.2705 124.853 67.2292 125.656 66.2519C126.436 65.2572 127.312 64.3225 128.233 63.4145C128.708 62.9772 129.172 62.5199 129.681 62.1092C129.933 61.8999 130.179 61.6825 130.437 61.4799C130.699 61.2812 130.961 61.0812 131.224 60.8812C131.484 60.6759 131.759 60.4892 132.033 60.3025C132.307 60.1172 132.583 59.9225 132.859 59.7439C133.407 59.4052 133.959 59.0639 134.513 58.7212C134.793 58.5519 135.065 58.3719 135.352 58.2105C135.64 58.0519 135.928 57.8905 136.217 57.7305C136.507 57.5692 136.796 57.4079 137.087 57.2465C137.377 57.0852 137.667 56.9212 137.972 56.7785C138.573 56.4839 139.179 56.1865 139.787 55.8879C140.4 55.5999 141.035 55.3492 141.664 55.0772C142.288 54.7945 142.94 54.5719 143.591 54.3399C143.917 54.2239 144.244 54.1065 144.571 53.9892C144.896 53.8705 145.236 53.7879 145.568 53.6852C145.903 53.5879 146.239 53.4892 146.575 53.3919C146.911 53.2919 147.247 53.1932 147.589 53.1212C148.275 52.9652 148.961 52.8092 149.649 52.6519C150.345 52.5345 151.043 52.4159 151.743 52.2972C152.091 52.2305 152.444 52.1999 152.796 52.1559C153.149 52.1159 153.501 52.0759 153.856 52.0359C156.684 51.7492 159.552 51.6692 162.419 51.7665C163.136 51.7799 163.851 51.8332 164.569 51.8652L165.648 51.9212L166.723 52.0039C167.44 52.0625 168.159 52.1199 168.879 52.1772C169.595 52.2505 170.312 52.3239 171.031 52.3972C171.751 52.4652 172.469 52.5492 173.187 52.6372C173.904 52.7239 174.624 52.8105 175.344 52.8959C176.069 53.0039 176.797 53.1132 177.525 53.2212L178.617 53.3852C178.981 53.4412 179.34 53.5212 179.703 53.5879C180.425 53.7279 181.149 53.8679 181.875 54.0092C182.596 54.1559 183.311 54.3385 184.031 54.5025C185.473 54.8172 186.889 55.2332 188.315 55.6145C189.028 55.8039 189.728 56.0399 190.435 56.2492C191.137 56.4719 191.849 56.6679 192.544 56.9132C193.939 57.3852 195.339 57.8425 196.713 58.3625C199.48 59.3532 202.191 60.4625 204.881 61.5745C207.557 62.7145 210.211 63.8719 212.819 65.0585C215.432 66.2359 218.008 67.4292 220.559 68.5985C223.111 69.7732 225.625 70.9065 228.129 72.0385C233.124 74.3105 237.921 76.5732 242.605 78.4985C244.944 79.4692 247.259 80.3319 249.532 81.1105C251.807 81.8839 254.055 82.5132 256.251 83.0465C260.532 84.0199 264.647 84.4812 268.424 84.3399Z" fill="url(#paint5_linear_150_12293)"/>
<path d="M232.458 89.4438C232.015 89.2998 231.573 89.1599 231.13 89.0185C230.737 88.8879 230.338 88.7865 229.942 88.6678C229.545 88.5585 229.151 88.4318 228.751 88.3345C227.953 88.1358 227.159 87.9172 226.355 87.7572C225.954 87.6732 225.555 87.5785 225.153 87.5025C224.751 87.4318 224.349 87.3612 223.947 87.2905C223.746 87.2572 223.546 87.2158 223.345 87.1878L222.741 87.1078C222.338 87.0558 221.937 87.0025 221.534 86.9492C221.126 86.9065 220.718 86.8652 220.313 86.8225C219.906 86.7798 219.499 86.7385 219.094 86.7078C218.999 86.6998 218.905 86.6905 218.81 86.6825C218.821 86.6865 218.829 86.6918 218.839 86.6945C219.191 86.8212 219.634 86.8972 220.145 86.9638C219.691 86.9158 219.234 86.8798 218.769 86.8612C218.631 86.7945 218.515 86.7225 218.41 86.6492C218.234 86.6332 218.057 86.6185 217.882 86.6038C217.478 86.5772 217.077 86.5518 216.675 86.5265L216.074 86.4892L215.475 86.4678C215.077 86.4572 214.678 86.4318 214.283 86.4318C212.698 86.4025 211.141 86.4718 209.625 86.6478C209.437 86.6732 209.247 86.6972 209.059 86.7212C208.871 86.7465 208.682 86.7652 208.497 86.8052C208.126 86.8732 207.757 86.9412 207.387 87.0092C207.025 87.0972 206.662 87.1852 206.302 87.2732C206.121 87.3132 205.945 87.3678 205.769 87.4238C205.591 87.4785 205.415 87.5332 205.239 87.5865C205.065 87.6439 204.886 87.6878 204.715 87.7545C204.543 87.8185 204.373 87.8825 204.201 87.9465C203.859 88.0745 203.517 88.1945 203.187 88.3505C202.857 88.4999 202.522 88.6358 202.198 88.7932C201.877 88.9572 201.555 89.1198 201.237 89.2812C201.077 89.3585 200.921 89.4492 200.766 89.5385C200.611 89.6265 200.457 89.7158 200.302 89.8038C200.147 89.8932 199.994 89.9812 199.841 90.0692C199.687 90.1558 199.541 90.2572 199.39 90.3505C199.091 90.5399 198.795 90.7279 198.501 90.9159C198.357 91.0105 198.223 91.1092 198.086 91.2052C197.949 91.2998 197.811 91.3945 197.682 91.4998C197.551 91.6025 197.419 91.7052 197.289 91.8065C197.161 91.9105 197.038 92.0212 196.911 92.1278C196.658 92.3372 196.429 92.5718 196.191 92.7932C195.734 93.2558 195.298 93.7292 194.913 94.2318C194.517 94.7252 194.177 95.2492 193.853 95.7692C193.549 96.3012 193.258 96.8305 193.03 97.3758C192.785 97.9145 192.602 98.4652 192.434 99.0065C192.365 99.2812 192.285 99.5505 192.23 99.8212C192.178 100.094 192.113 100.361 192.082 100.629C191.923 101.701 191.917 102.739 192.038 103.704C192.161 104.669 192.411 105.561 192.745 106.358C193.078 107.156 193.494 107.857 193.93 108.473C194.358 109.096 194.879 109.648 195.414 110.176C195.553 110.303 195.691 110.43 195.83 110.557C195.899 110.624 195.97 110.68 196.041 110.736L196.251 110.904C196.387 111.021 196.541 111.12 196.689 111.224L196.91 111.379L197.142 111.52C197.758 111.899 198.415 112.217 199.097 112.466C199.778 112.717 200.475 112.924 201.183 113.066C202.598 113.354 204.037 113.448 205.437 113.373C206.135 113.335 206.829 113.263 207.502 113.139C207.842 113.087 208.173 113.007 208.505 112.935C208.67 112.899 208.831 112.849 208.995 112.808C209.157 112.764 209.319 112.724 209.478 112.669C212.039 111.907 214.246 110.48 215.665 108.629C215.749 108.51 215.833 108.393 215.915 108.276L216.041 108.098L216.15 107.916C216.225 107.795 216.298 107.673 216.37 107.553C216.434 107.428 216.497 107.303 216.559 107.179L216.653 106.992C216.682 106.929 216.705 106.864 216.731 106.801C216.783 106.673 216.835 106.547 216.887 106.42C216.931 106.291 216.969 106.16 217.011 106.032L217.074 105.839C217.09 105.775 217.103 105.708 217.119 105.644C217.15 105.513 217.181 105.383 217.21 105.253C217.23 105.123 217.25 104.992 217.27 104.862L217.299 104.668L217.313 104.473C217.322 104.343 217.331 104.215 217.341 104.085C217.339 103.957 217.338 103.828 217.338 103.701C217.337 103.637 217.339 103.573 217.337 103.511L217.321 103.32C217.31 103.195 217.299 103.069 217.289 102.944C217.27 102.821 217.25 102.699 217.23 102.576C217.221 102.515 217.213 102.453 217.201 102.393L217.159 102.215C217.131 102.096 217.103 101.977 217.075 101.858C217.038 101.744 217.002 101.629 216.966 101.515L216.913 101.344C216.893 101.288 216.869 101.235 216.847 101.18C216.803 101.069 216.761 100.96 216.718 100.852C216.671 100.744 216.617 100.643 216.569 100.539C216.474 100.328 216.353 100.136 216.242 99.9412C215.781 99.1718 215.191 98.5505 214.575 98.0638C213.955 97.5785 213.297 97.2385 212.658 97.0199C212.018 96.8052 211.398 96.6892 210.833 96.6732C210.762 96.6692 210.693 96.6625 210.623 96.6598C210.555 96.6625 210.487 96.6638 210.421 96.6652C210.286 96.6678 210.155 96.6705 210.029 96.6718C209.954 96.6798 209.883 96.6865 209.81 96.6945C210.889 97.2305 211.579 98.4145 211.446 99.7078C211.277 101.357 209.837 102.555 208.229 102.38C206.619 102.208 205.454 100.729 205.623 99.0798C205.774 97.6038 206.945 96.4932 208.342 96.3998C208.407 96.3692 208.473 96.3372 208.545 96.3038C208.739 96.2345 208.949 96.1585 209.173 96.0785C209.403 96.0092 209.659 95.9519 209.931 95.8852C210.071 95.8652 210.215 95.8438 210.362 95.8212C210.437 95.8105 210.513 95.7998 210.589 95.7892C210.665 95.7825 210.745 95.7798 210.823 95.7758C211.459 95.7212 212.182 95.7785 212.949 95.9612C213.714 96.1492 214.523 96.4865 215.299 97.0105C216.071 97.5345 216.822 98.2332 217.429 99.1225C217.575 99.3465 217.733 99.5705 217.861 99.8185C217.927 99.9399 217.998 100.06 218.061 100.187C218.121 100.315 218.179 100.444 218.239 100.573C218.269 100.639 218.301 100.704 218.329 100.769L218.405 100.973C218.454 101.109 218.505 101.247 218.555 101.384C218.597 101.527 218.638 101.669 218.679 101.812L218.741 102.028C218.758 102.101 218.773 102.176 218.789 102.249C218.819 102.399 218.85 102.548 218.881 102.698C218.903 102.849 218.921 103.004 218.939 103.157L218.969 103.39C218.975 103.468 218.978 103.546 218.982 103.625C218.99 103.782 218.997 103.941 219.005 104.1C219.001 104.26 218.995 104.42 218.993 104.581L218.983 104.824L218.958 105.066C218.939 105.229 218.921 105.392 218.903 105.556C218.873 105.717 218.841 105.88 218.81 106.043C218.794 106.125 218.779 106.208 218.761 106.289L218.694 106.532C218.65 106.693 218.606 106.856 218.557 107.019C218.499 107.177 218.441 107.337 218.383 107.497C218.353 107.577 218.326 107.659 218.293 107.739L218.186 107.972C218.114 108.128 218.042 108.285 217.969 108.443C217.885 108.593 217.801 108.744 217.715 108.897L217.587 109.125L217.445 109.344C217.347 109.488 217.251 109.635 217.154 109.78C216.735 110.343 216.285 110.899 215.761 111.387C215.51 111.647 215.227 111.868 214.954 112.107C214.814 112.221 214.667 112.327 214.523 112.437C214.379 112.549 214.233 112.658 214.079 112.756C213.929 112.857 213.775 112.958 213.623 113.061C213.466 113.154 213.307 113.248 213.15 113.343L212.911 113.483L212.666 113.611C212.502 113.695 212.338 113.78 212.173 113.865C212.003 113.942 211.834 114.018 211.665 114.096L211.41 114.211L211.149 114.313C210.974 114.381 210.801 114.453 210.625 114.519C210.446 114.579 210.269 114.64 210.089 114.7C209.911 114.764 209.729 114.816 209.547 114.868C209.365 114.919 209.182 114.976 208.997 115.021C208.627 115.109 208.255 115.205 207.877 115.271C207.121 115.423 206.347 115.516 205.563 115.572C203.995 115.68 202.379 115.597 200.759 115.284C199.949 115.128 199.141 114.899 198.341 114.611C197.541 114.324 196.754 113.95 195.999 113.492L195.717 113.321L195.439 113.132C195.257 113.005 195.07 112.881 194.897 112.736L194.631 112.525C194.542 112.456 194.454 112.384 194.375 112.309C194.213 112.161 194.05 112.013 193.886 111.864C193.253 111.246 192.638 110.588 192.117 109.837C191.59 109.096 191.085 108.237 190.679 107.257C190.273 106.277 189.969 105.176 189.827 103.993C189.541 101.633 189.909 98.9585 191.05 96.4545C191.323 95.8212 191.662 95.2118 192.022 94.6038C192.399 94.0078 192.798 93.4105 193.257 92.8505C193.705 92.2812 194.207 91.7452 194.734 91.2252C195.007 90.9745 195.273 90.7118 195.565 90.4772C195.709 90.3572 195.85 90.2332 195.998 90.1159C196.147 90.0025 196.298 89.8878 196.449 89.7732C196.598 89.6558 196.755 89.5492 196.911 89.4425C197.069 89.3358 197.227 89.2238 197.385 89.1225C197.699 88.9278 198.015 88.7318 198.333 88.5358C198.494 88.4385 198.65 88.3358 198.814 88.2438C198.979 88.1518 199.145 88.0598 199.31 87.9678C199.475 87.8758 199.642 87.7838 199.809 87.6905C199.974 87.5972 200.141 87.5038 200.315 87.4225C200.661 87.2532 201.007 87.0825 201.355 86.9118C201.706 86.7465 202.071 86.6025 202.431 86.4465C202.789 86.2865 203.162 86.1585 203.535 86.0252C203.722 85.9585 203.91 85.8918 204.097 85.8238C204.283 85.7558 204.478 85.7079 204.669 85.6505C204.861 85.5945 205.053 85.5372 205.245 85.4812C205.438 85.4238 205.63 85.3678 205.827 85.3265C206.219 85.2372 206.613 85.1478 207.007 85.0585C207.406 84.9892 207.805 84.9225 208.207 84.8545C208.407 84.8158 208.609 84.7985 208.811 84.7732C209.013 84.7505 209.215 84.7278 209.418 84.7038C211.039 84.5412 212.682 84.4945 214.325 84.5492C214.737 84.5572 215.146 84.5892 215.558 84.6065L216.175 84.6385L216.791 84.6865C217.202 84.7199 217.614 84.7532 218.026 84.7852C218.438 84.8279 218.849 84.8692 219.261 84.9118C219.673 84.9505 220.085 84.9985 220.495 85.0492C220.907 85.0985 221.319 85.1478 221.731 85.1972C222.149 85.2598 222.565 85.3212 222.982 85.3839L223.607 85.4785C223.817 85.5105 224.023 85.5558 224.23 85.5945C224.645 85.6745 225.059 85.7545 225.474 85.8345C225.887 85.9198 226.298 86.0239 226.71 86.1185C227.537 86.2985 228.349 86.5372 229.165 86.7558C229.574 86.8638 229.975 86.9985 230.381 87.1185C230.782 87.2465 231.19 87.3585 231.589 87.4998C232.387 87.7705 233.19 88.0318 233.978 88.3292C234.531 88.5278 235.077 88.7425 235.623 88.9545C235.658 89.3012 235.699 89.6465 235.738 89.9918C234.649 89.7825 233.555 89.5972 232.458 89.4438Z" fill="url(#paint6_linear_150_12293)"/>
<path d="M272.271 48.6549C272.309 48.6602 272.345 48.6722 272.381 48.6802C272.331 48.6295 272.279 48.5802 272.226 48.5295C272.242 48.5709 272.257 48.6122 272.271 48.6549ZM283.73 69.9602C279.758 75.6695 271.955 79.7362 264.657 80.8228C257.21 81.9308 249.662 79.3882 243.19 76.1002C235.589 72.2389 228.739 67.3029 221.518 62.9029C214.678 58.7362 207.142 54.8562 198.779 54.5375C197.842 54.5015 196.971 54.0269 196.955 53.3762C196.519 52.8135 196.891 51.8922 197.651 51.3575C203.398 47.3109 211.635 47.3175 218.446 49.2295C225.479 51.2042 229.357 57.4055 232.819 62.9922C233.146 59.7335 234.023 56.5749 236.939 54.3962C238.209 53.4469 242.305 51.7389 239.455 56.0735C236.474 60.6109 240.682 66.5789 244.225 70.4735C248.449 75.1175 255.418 77.2429 261.739 77.9869C261.919 78.0095 262.075 78.0562 262.219 78.1135C262.843 78.0855 263.47 78.0389 264.101 77.9629C276.147 76.5029 283.682 67.4149 285.25 57.1535C286.471 49.1549 285.106 37.9815 276.707 33.1589C273.01 31.0362 268.262 31.4375 264.373 32.6189C263.791 32.7962 263.246 33.0109 262.731 33.2562C262.837 33.8309 262.577 34.2095 261.923 34.8082C260.145 36.4375 259.685 39.5029 260.353 42.1642C263.607 40.8349 268.121 41.6095 271.41 43.0375C275.795 44.9402 278.871 49.8522 276.735 53.3389C276.653 53.5962 276.541 53.8362 276.386 54.0442C276.291 54.4922 275.943 54.8855 275.477 55.1149C266.146 59.6935 256.831 53.9935 254.442 45.1869C251.773 35.3522 260.602 28.7695 270.775 28.7695C280.391 28.7682 285.914 36.8402 287.858 44.3962C290.025 52.8269 288.793 62.6815 283.73 69.9602Z" fill="url(#paint7_linear_150_12293)"/>
<path d="M314.046 85.3892C315.285 85.5999 316.585 85.7652 317.941 85.8519C318.393 85.9079 318.862 85.8959 319.331 85.9172C319.802 85.9279 320.277 85.9545 320.757 85.9545C321.719 85.9265 322.699 85.9559 323.697 85.8759C325.694 85.7999 327.754 85.5412 329.857 85.2412C335.575 84.3679 340.834 82.8465 345.323 81.5119C347.567 80.8385 349.617 80.1879 351.431 79.6292C352.337 79.3439 353.19 79.0932 353.963 78.8399C354.737 78.5852 355.443 78.3505 356.079 78.1412C356.69 77.8639 357.37 77.5559 358.113 77.2185C358.843 76.8532 359.637 76.4572 360.486 76.0332C362.198 75.2185 364.083 74.1745 366.165 73.0892C370.301 70.8465 375.075 68.0999 380.262 65.2652C384.067 63.1719 387.767 61.2865 391.267 59.7705C394.806 58.3799 398.065 57.3359 400.866 56.7639C402.266 56.4839 403.519 56.1652 404.654 56.0465C405.77 55.9079 406.713 55.7719 407.443 55.5092C407.463 55.5025 407.477 55.4945 407.497 55.4879C407.33 55.5025 407.165 55.5159 406.999 55.5305C406.293 55.5865 405.583 55.6572 404.874 55.7332C404.163 55.8065 403.454 55.8786 402.742 55.9532C402.041 56.0452 401.339 56.1385 400.637 56.2319L399.582 56.3705C399.23 56.4185 398.882 56.4905 398.53 56.5492C397.83 56.6719 397.129 56.7959 396.426 56.9185C395.725 57.0505 395.029 57.2159 394.33 57.3625C392.926 57.6425 391.541 58.0239 390.147 58.3705C389.45 58.5412 388.763 58.7612 388.07 58.9532C387.379 59.1572 386.683 59.3359 385.998 59.5639C384.625 60.0039 383.246 60.4252 381.886 60.9119C379.153 61.8345 376.457 62.8812 373.777 63.9305C371.106 65.0092 368.454 66.1052 365.834 67.2372C363.211 68.3599 360.614 69.4999 358.041 70.6199C355.47 71.7412 352.901 72.8372 350.394 73.9079C345.379 76.0652 340.507 78.2385 335.734 80.0785C333.35 81.0052 330.983 81.8279 328.657 82.5652C326.327 83.2972 324.021 83.8839 321.767 84.3745C319.118 84.9105 316.531 85.2519 314.046 85.3892ZM305.161 83.9172C304.917 83.8199 304.678 83.7239 304.449 83.6292C304.145 83.5092 303.858 83.3932 303.578 83.2812C303.611 83.3012 303.639 83.3172 303.677 83.3385C303.875 83.4545 304.133 83.6052 304.437 83.7745C304.675 83.8252 304.915 83.8745 305.161 83.9172ZM321.49 83.0465C323.685 82.5132 325.933 81.8839 328.209 81.1105C330.482 80.3319 332.797 79.4692 335.135 78.4985C339.819 76.5732 344.617 74.3105 349.61 72.0385C352.114 70.9065 354.629 69.7732 357.181 68.5985C359.731 67.4292 362.309 66.2359 364.922 65.0585C367.53 63.8719 370.182 62.7145 372.859 61.5745C375.55 60.4625 378.259 59.3532 381.027 58.3625C382.402 57.8425 383.802 57.3852 385.197 56.9132C385.89 56.6679 386.603 56.4719 387.306 56.2492C388.013 56.0399 388.711 55.8039 389.425 55.6145C390.851 55.2332 392.267 54.8172 393.71 54.5025C394.429 54.3385 395.143 54.1559 395.866 54.0092C396.59 53.8679 397.314 53.7279 398.038 53.5879C398.399 53.5212 398.759 53.4412 399.123 53.3852L400.215 53.2212C400.943 53.1132 401.67 53.0039 402.397 52.8959C403.117 52.8105 403.835 52.7239 404.554 52.6372C405.271 52.5492 405.989 52.4652 406.709 52.3972C407.429 52.3239 408.146 52.2505 408.862 52.1772C409.582 52.1199 410.301 52.0625 411.018 52.0039L412.093 51.9212L413.17 51.8652C413.889 51.8332 414.603 51.7799 415.322 51.7665C418.189 51.6692 421.055 51.7492 423.885 52.0359C424.239 52.0759 424.591 52.1159 424.943 52.1559C425.297 52.1999 425.649 52.2305 425.998 52.2972C426.698 52.4159 427.395 52.5345 428.09 52.6519C428.779 52.8092 429.466 52.9652 430.15 53.1212C430.494 53.1932 430.83 53.2919 431.166 53.3919C431.502 53.4892 431.837 53.5879 432.171 53.6852C432.505 53.7879 432.843 53.8705 433.17 53.9892C433.497 54.1065 433.823 54.2239 434.149 54.3399C434.801 54.5719 435.453 54.7945 436.078 55.0772C436.705 55.3492 437.341 55.5999 437.954 55.8879C438.562 56.1865 439.166 56.4839 439.769 56.7785C440.073 56.9212 440.362 57.0852 440.653 57.2465C440.943 57.4079 441.234 57.5692 441.523 57.7305C441.813 57.8905 442.101 58.0519 442.387 58.2105C442.675 58.3719 442.947 58.5519 443.227 58.7212C443.782 59.0639 444.334 59.4052 444.882 59.7439C445.158 59.9225 445.434 60.1172 445.707 60.3025C445.982 60.4892 446.257 60.6759 446.517 60.8812C446.779 61.0812 447.042 61.2812 447.302 61.4799C447.562 61.6825 447.807 61.8999 448.059 62.1092C448.567 62.5199 449.031 62.9772 449.507 63.4145C450.429 64.3225 451.305 65.2572 452.085 66.2519C452.886 67.2292 453.582 68.2705 454.242 69.3105C454.867 70.3719 455.461 71.4359 455.937 72.5399C457.93 76.9079 458.57 81.5759 458.071 85.6959C457.823 87.7585 457.294 89.6799 456.585 91.3892C455.877 93.1012 454.995 94.5972 454.075 95.8932C453.165 97.2039 452.091 98.3519 450.987 99.4292C450.702 99.6879 450.418 99.9479 450.134 100.207C449.997 100.337 449.845 100.461 449.687 100.583L449.225 100.952C448.921 101.205 448.597 101.42 448.275 101.641L447.795 101.972L447.299 102.271C445.982 103.071 444.61 103.721 443.214 104.223C441.818 104.725 440.409 105.125 438.994 105.396C436.166 105.944 433.346 106.088 430.61 105.9C429.242 105.804 427.893 105.639 426.575 105.375C425.913 105.26 425.265 105.093 424.618 104.939C424.295 104.86 423.978 104.759 423.659 104.671C423.341 104.579 423.025 104.491 422.713 104.379C422.401 104.273 422.09 104.167 421.779 104.061C421.471 103.948 421.167 103.823 420.863 103.704L420.41 103.524L419.963 103.324C419.667 103.189 419.373 103.056 419.078 102.921C418.79 102.773 418.502 102.625 418.217 102.476L417.789 102.253L417.373 102.008C417.097 101.845 416.821 101.681 416.546 101.517C416.279 101.34 416.014 101.163 415.75 100.987C415.482 100.816 415.227 100.625 414.975 100.431C414.723 100.237 414.469 100.052 414.223 99.8532C413.746 99.4359 413.254 99.0479 412.817 98.5972C411.902 97.7425 411.115 96.7732 410.386 95.7932C410.217 95.5385 410.047 95.2839 409.878 95.0305L409.629 94.6505L409.405 94.2505C409.257 93.9852 409.11 93.7212 408.963 93.4585C408.835 93.1839 408.71 92.9092 408.583 92.6372L408.398 92.2292C408.341 92.0919 408.293 91.9492 408.241 91.8105C408.138 91.5305 408.037 91.2519 407.937 90.9745C407.85 90.6905 407.775 90.4052 407.697 90.1239L407.581 89.7012C407.549 89.5585 407.525 89.4145 407.495 89.2719C407.441 88.9865 407.387 88.7039 407.333 88.4212C407.302 88.1345 407.269 87.8505 407.237 87.5679L407.191 87.1439L407.178 86.7199C407.17 86.4385 407.163 86.1599 407.155 85.8812C407.169 85.6039 407.182 85.3265 407.194 85.0519C407.202 84.9145 407.206 84.7785 407.218 84.6425L407.269 84.2359C407.302 83.9665 407.334 83.6999 407.373 83.4345C407.427 83.1719 407.481 82.9105 407.533 82.6519C407.561 82.5225 407.585 82.3932 407.615 82.2652L407.723 81.8879C407.795 81.6385 407.867 81.3892 407.939 81.1425C408.027 80.9012 408.115 80.6612 408.203 80.4239L408.337 80.0692C408.386 79.9532 408.439 79.8412 408.491 79.7265C408.595 79.4999 408.699 79.2745 408.802 79.0519C408.911 78.8319 409.035 78.6212 409.151 78.4092C409.374 77.9785 409.65 77.5879 409.906 77.1959C410.965 75.6439 412.274 74.4239 413.621 73.5092C414.974 72.5959 416.387 72.0065 417.725 71.6799C419.062 71.3599 420.322 71.2612 421.433 71.3545C421.571 71.3625 421.707 71.3665 421.842 71.3785C421.975 71.3985 422.107 71.4172 422.237 71.4345C422.494 71.4732 422.745 71.5105 422.989 71.5465C423.465 71.6625 423.91 71.7625 424.313 71.8839C424.705 72.0239 425.069 72.1559 425.41 72.2772C425.534 72.3359 425.649 72.3905 425.763 72.4452C428.201 72.6079 430.243 74.5439 430.507 77.1212C430.802 79.9985 428.767 82.5772 425.961 82.8812C423.154 83.1839 420.639 81.0959 420.345 78.2172C420.113 75.9612 421.317 73.8945 423.199 72.9585C423.073 72.9452 422.949 72.9332 422.819 72.9199C422.597 72.9159 422.37 72.9119 422.135 72.9065C422.019 72.9039 421.901 72.9025 421.781 72.8985C421.661 72.9025 421.538 72.9145 421.415 72.9212C420.43 72.9492 419.349 73.1519 418.231 73.5265C417.115 73.9079 415.966 74.5012 414.886 75.3479C413.81 76.1972 412.782 77.2825 411.977 78.6252C411.783 78.9639 411.571 79.2972 411.407 79.6665C411.322 79.8479 411.227 80.0265 411.146 80.2132C411.071 80.4025 410.995 80.5932 410.919 80.7839C410.882 80.8799 410.841 80.9745 410.806 81.0719L410.713 81.3705C410.65 81.5692 410.586 81.7692 410.523 81.9705C410.474 82.1759 410.426 82.3825 410.378 82.5905L410.302 82.9025C410.283 83.0079 410.27 83.1159 410.251 83.2212C410.218 83.4345 410.183 83.6492 410.15 83.8652C410.131 84.0825 410.113 84.3012 410.095 84.5212L410.067 84.8505C410.063 84.9612 410.066 85.0732 410.065 85.1839C410.063 85.4065 410.061 85.6305 410.059 85.8559C410.077 86.0799 410.093 86.3052 410.109 86.5319L410.133 86.8719L410.185 87.2119C410.218 87.4372 410.253 87.6652 410.287 87.8945C410.339 88.1199 410.393 88.3465 410.446 88.5732C410.473 88.6879 410.495 88.8025 410.526 88.9159L410.634 89.2519C410.707 89.4772 410.774 89.7039 410.85 89.9292C410.941 90.1492 411.031 90.3719 411.122 90.5945C411.167 90.7052 411.209 90.8185 411.259 90.9279L411.423 91.2532C411.533 91.4692 411.642 91.6879 411.751 91.9065C411.879 92.1172 412.007 92.3279 412.135 92.5412L412.327 92.8599L412.546 93.1665C412.691 93.3719 412.838 93.5785 412.985 93.7852C415.459 97.0132 419.31 99.5039 423.779 100.836C424.055 100.929 424.339 101.001 424.623 101.076C424.909 101.149 425.19 101.235 425.478 101.299C426.057 101.424 426.634 101.563 427.226 101.653C428.405 101.868 429.611 101.995 430.833 102.063C433.275 102.195 435.785 102.031 438.254 101.527C439.49 101.279 440.706 100.919 441.894 100.481C443.085 100.045 444.23 99.4892 445.306 98.8292L445.711 98.5825L446.098 98.3119C446.357 98.1319 446.622 97.9585 446.859 97.7545L447.227 97.4599C447.351 97.3639 447.474 97.2639 447.594 97.1479C447.837 96.9265 448.079 96.7052 448.322 96.4825C449.255 95.5625 450.163 94.5972 450.911 93.5119C451.673 92.4385 452.397 91.2132 452.979 89.8212C453.562 88.4319 453.999 86.8745 454.211 85.1892C454.425 83.5052 454.413 81.6932 454.135 79.8252C454.082 79.3572 453.969 78.8905 453.879 78.4159C453.782 77.9425 453.641 77.4732 453.522 76.9932C453.227 76.0492 452.909 75.0879 452.482 74.1479C452.083 73.1959 451.578 72.2719 451.046 71.3439C450.481 70.4372 449.887 69.5212 449.194 68.6612C448.523 67.7839 447.763 66.9585 446.966 66.1519C446.553 65.7639 446.151 65.3545 445.707 64.9905C445.489 64.8052 445.275 64.6092 445.05 64.4292C444.822 64.2519 444.594 64.0732 444.365 63.8945C444.139 63.7105 443.899 63.5452 443.659 63.3785C443.418 63.2105 443.186 63.0412 442.937 62.8745C442.421 62.5465 441.903 62.2185 441.383 61.8879C441.121 61.7252 440.865 61.5492 440.597 61.3959C440.33 61.2425 440.061 61.0892 439.791 60.9345C439.522 60.7812 439.253 60.6265 438.982 60.4705C438.711 60.3159 438.441 60.1572 438.161 60.0225C437.605 59.7399 437.046 59.4559 436.483 59.1705C435.918 58.8959 435.334 58.6585 434.757 58.3985C434.183 58.1265 433.585 57.9159 432.987 57.6932C432.69 57.5812 432.39 57.4692 432.09 57.3572C431.791 57.2412 431.481 57.1639 431.175 57.0652C430.869 56.9705 430.562 56.8759 430.253 56.7812C429.946 56.6839 429.637 56.5879 429.321 56.5185C428.691 56.3652 428.061 56.2119 427.427 56.0572C426.783 55.9385 426.138 55.8199 425.491 55.6999C425.169 55.6319 424.839 55.5999 424.511 55.5559C424.182 55.5132 423.853 55.4705 423.523 55.4279C420.878 55.1212 418.159 54.9999 415.395 55.0492C414.706 55.0505 414.01 55.0932 413.315 55.1132L412.27 55.1505L411.221 55.2145C410.521 55.2599 409.819 55.3039 409.115 55.3492C408.809 55.3759 408.502 55.4025 408.194 55.4292C408.007 55.5585 407.803 55.6865 407.561 55.8025C406.827 56.1692 405.858 56.4225 404.763 56.6785C403.671 56.9092 402.467 57.3452 401.117 57.7439C398.418 58.5492 395.309 59.8119 391.929 61.3385C388.607 62.9812 384.991 64.9612 381.187 67.0545C376.014 69.8825 371.098 72.4399 366.798 74.4212C364.631 75.3785 362.661 76.2719 360.866 76.9345C359.977 77.2785 359.146 77.5985 358.381 77.8932C357.602 78.1519 356.89 78.3879 356.25 78.5985C355.635 78.8772 354.95 79.1865 354.202 79.5252C353.451 79.8599 352.629 80.1892 351.75 80.5572C349.989 81.2799 347.99 82.0945 345.774 82.9199C341.349 84.5572 336.055 86.3399 330.149 87.2439C327.977 87.5545 325.841 87.7892 323.766 87.8132C322.73 87.8665 321.71 87.8039 320.714 87.7919C320.215 87.7719 319.723 87.7252 319.237 87.6919C318.75 87.6479 318.27 87.6359 317.795 87.5545C314.387 87.1612 311.406 86.2572 308.907 85.3599C308.374 85.3199 307.85 85.2679 307.33 85.2065C308.423 85.6972 309.71 86.2239 311.187 86.7439C311.509 86.8559 311.838 86.9719 312.174 87.0905C312.514 87.1972 312.861 87.3079 313.217 87.4199C313.921 87.6559 314.67 87.8492 315.435 88.0745C316.981 88.4799 318.635 88.8905 320.395 89.2079C322.154 89.5252 324.009 89.7905 325.93 89.9212C326.891 89.9852 327.859 90.0119 328.853 89.9919C329.351 89.9759 329.853 89.9585 330.358 89.9412C330.863 89.9199 331.373 89.8705 331.885 89.8372C337.457 89.3932 342.623 88.2079 346.998 87.0572C351.37 85.8705 354.967 84.6985 357.43 83.8705C358.605 83.3065 360.063 82.6519 361.701 81.8025C363.339 80.9585 365.198 80.0145 367.234 78.9999C369.23 77.8945 371.395 76.7012 373.698 75.4652C375.967 74.1572 378.358 72.7799 380.829 71.3559C382.634 70.2812 384.403 69.2452 386.119 68.2559C387.797 67.2745 389.354 66.1985 390.849 65.1559C392.341 64.1119 393.763 63.1039 395.119 62.1892C396.474 61.2732 397.774 60.4652 398.982 59.7652C401.411 58.3825 403.527 57.5479 405.022 57.1385C405.398 57.0412 405.727 56.9452 406.018 56.8799C406.31 56.8279 406.558 56.7839 406.759 56.7479C407.158 56.6799 407.367 56.6439 407.367 56.6439C407.367 56.6439 407.165 56.7079 406.778 56.8332C406.586 56.8945 406.349 56.9705 406.067 57.0599C405.79 57.1625 405.475 57.2972 405.121 57.4385C403.705 58.0225 401.746 59.0639 399.498 60.6279C398.379 61.4212 397.174 62.3172 395.899 63.3185C394.622 64.3292 393.257 65.4079 391.822 66.5425C390.37 67.6705 388.81 68.8465 387.085 69.9225C385.386 70.9652 383.621 72.0345 381.805 73.1159C379.323 74.5639 376.862 75.8665 374.546 77.1212C372.177 78.2825 369.931 79.3665 367.854 80.3399C365.733 81.2239 363.79 82.0185 362.074 82.7079C360.359 83.4039 358.835 83.9012 357.605 84.3279C355.241 85.4372 351.755 86.9772 347.41 88.4785C343.063 89.9412 337.826 91.3932 332.034 91.8572C331.502 91.8919 330.974 91.9399 330.447 91.9585C329.919 91.9705 329.395 91.9839 328.874 91.9945C327.829 91.9999 326.787 91.9492 325.782 91.8532C323.766 91.6586 321.855 91.3039 320.058 90.8812C318.262 90.4585 316.59 89.9292 315.042 89.3985C314.274 89.1105 313.527 88.8532 312.829 88.5532C312.477 88.4079 312.133 88.2665 311.797 88.1265C311.465 87.9759 311.139 87.8292 310.823 87.6839C308.765 86.7412 307.109 85.7919 305.87 84.9945C304.999 84.8452 304.153 84.6599 303.339 84.4265C301.902 84.0105 300.57 83.4252 299.418 82.6599C299.525 82.4812 299.621 82.2905 299.693 82.0772C299.706 82.0412 299.722 82.0119 299.735 81.9772C300.843 82.6799 302.142 83.2119 303.561 83.5785C303.691 83.6119 303.829 83.6372 303.961 83.6679C303.838 83.5732 303.725 83.4852 303.63 83.4105C303.51 83.3185 303.419 83.2465 303.343 83.1879C302.757 82.9532 302.223 82.7399 301.762 82.5545C300.842 82.2065 300.177 81.9545 299.803 81.8132C299.81 81.7972 299.815 81.7825 299.822 81.7679C300.211 81.8612 300.901 82.0252 301.855 82.2532C302.622 82.4639 303.559 82.7225 304.646 83.0225C305.73 83.3305 306.962 83.6825 308.323 84.0705C308.646 84.1599 308.978 84.2505 309.317 84.3399C313.094 84.4812 317.209 84.0199 321.49 83.0465Z" fill="url(#paint8_linear_150_12293)"/>
<path d="M345.28 89.4438C345.723 89.2998 346.165 89.1599 346.608 89.0185C347 88.8879 347.4 88.7865 347.796 88.6678C348.192 88.5585 348.587 88.4318 348.987 88.3345C349.785 88.1358 350.579 87.9172 351.383 87.7572C351.784 87.6732 352.183 87.5785 352.584 87.5025C352.987 87.4318 353.388 87.3612 353.791 87.2905C353.992 87.2572 354.191 87.2158 354.393 87.1878L354.997 87.1078C355.4 87.0558 355.801 87.0025 356.204 86.9492C356.611 86.9065 357.019 86.8652 357.425 86.8225C357.832 86.7798 358.239 86.7385 358.643 86.7078C358.739 86.6998 358.833 86.6905 358.928 86.6825C358.917 86.6865 358.909 86.6918 358.897 86.6945C358.547 86.8212 358.104 86.8972 357.593 86.9638C358.047 86.9158 358.504 86.8798 358.969 86.8612C359.107 86.7945 359.223 86.7225 359.329 86.6492C359.504 86.6332 359.68 86.6185 359.856 86.6038C360.259 86.5772 360.661 86.5518 361.063 86.5265L361.664 86.4892L362.263 86.4678C362.661 86.4572 363.06 86.4318 363.455 86.4318C365.039 86.4025 366.597 86.4718 368.112 86.6478C368.301 86.6732 368.491 86.6972 368.679 86.7212C368.867 86.7465 369.056 86.7652 369.241 86.8052C369.612 86.8732 369.981 86.9412 370.349 87.0092C370.713 87.0972 371.075 87.1852 371.436 87.2732C371.616 87.3132 371.793 87.3678 371.969 87.4238C372.147 87.4785 372.323 87.5332 372.497 87.5865C372.673 87.6439 372.851 87.6878 373.023 87.7545C373.193 87.8185 373.365 87.8825 373.536 87.9465C373.879 88.0745 374.221 88.1945 374.551 88.3505C374.881 88.4999 375.216 88.6358 375.54 88.7932C375.861 88.9572 376.183 89.1198 376.501 89.2812C376.663 89.3585 376.816 89.4492 376.971 89.5385C377.127 89.6265 377.281 89.7158 377.436 89.8038C377.589 89.8932 377.744 89.9812 377.897 90.0692C378.051 90.1558 378.197 90.2572 378.348 90.3505C378.645 90.5399 378.943 90.7279 379.237 90.9159C379.381 91.0105 379.515 91.1092 379.652 91.2052C379.789 91.2998 379.927 91.3945 380.056 91.4998C380.188 91.6025 380.319 91.7052 380.448 91.8065C380.579 91.9105 380.7 92.0212 380.825 92.1278C381.08 92.3372 381.309 92.5718 381.547 92.7932C382.004 93.2558 382.44 93.7292 382.824 94.2318C383.221 94.7252 383.561 95.2492 383.885 95.7692C384.189 96.3012 384.48 96.8305 384.708 97.3758C384.952 97.9145 385.135 98.4652 385.304 99.0065C385.372 99.2812 385.453 99.5505 385.508 99.8212C385.56 100.094 385.625 100.361 385.656 100.629C385.813 101.701 385.821 102.739 385.699 103.704C385.579 104.669 385.328 105.561 384.993 106.358C384.66 107.156 384.244 107.857 383.808 108.473C383.379 109.096 382.859 109.648 382.324 110.176C382.184 110.303 382.045 110.43 381.907 110.557C381.839 110.624 381.768 110.68 381.697 110.736L381.487 110.904C381.349 111.021 381.197 111.12 381.049 111.224L380.828 111.379L380.596 111.52C379.979 111.899 379.323 112.217 378.64 112.466C377.96 112.717 377.263 112.924 376.555 113.066C375.139 113.354 373.701 113.448 372.301 113.373C371.601 113.335 370.909 113.263 370.235 113.139C369.896 113.087 369.564 113.007 369.233 112.935C369.068 112.899 368.907 112.849 368.744 112.808C368.58 112.764 368.417 112.724 368.26 112.669C365.699 111.907 363.492 110.48 362.073 108.629C361.989 108.51 361.905 108.393 361.823 108.276L361.697 108.098L361.587 107.916C361.513 107.795 361.44 107.673 361.367 107.553C361.304 107.428 361.241 107.303 361.179 107.179L361.084 106.992C361.056 106.929 361.032 106.864 361.005 106.801C360.953 106.673 360.903 106.547 360.851 106.42C360.807 106.291 360.768 106.16 360.727 106.032L360.664 105.839C360.647 105.775 360.635 105.708 360.619 105.644C360.588 105.513 360.557 105.383 360.527 105.253C360.508 105.123 360.488 104.992 360.468 104.862L360.439 104.668L360.425 104.473C360.416 104.343 360.407 104.215 360.397 104.085C360.399 103.957 360.399 103.828 360.4 103.701C360.4 103.637 360.399 103.573 360.401 103.511L360.417 103.32C360.428 103.195 360.439 103.069 360.448 102.944C360.468 102.821 360.488 102.699 360.507 102.576C360.517 102.515 360.525 102.453 360.536 102.393L360.579 102.215C360.607 102.096 360.635 101.977 360.663 101.858C360.699 101.744 360.736 101.629 360.772 101.515L360.825 101.344C360.845 101.288 360.868 101.235 360.889 101.18C360.933 101.069 360.977 100.96 361.02 100.852C361.067 100.744 361.12 100.643 361.169 100.539C361.263 100.328 361.385 100.136 361.496 99.9412C361.957 99.1718 362.547 98.5505 363.163 98.0638C363.781 97.5785 364.44 97.2385 365.08 97.0199C365.72 96.8052 366.34 96.6892 366.905 96.6732C366.975 96.6692 367.045 96.6625 367.113 96.6598C367.183 96.6625 367.251 96.6638 367.317 96.6652C367.452 96.6678 367.581 96.6705 367.709 96.6718C367.784 96.6798 367.855 96.6865 367.927 96.6945C366.848 97.2305 366.159 98.4145 366.291 99.7078C366.46 101.357 367.901 102.555 369.509 102.38C371.117 102.208 372.284 100.729 372.115 99.0798C371.964 97.6038 370.793 96.4932 369.396 96.3998C369.331 96.3692 369.265 96.3372 369.193 96.3038C368.999 96.2345 368.789 96.1585 368.565 96.0785C368.333 96.0092 368.079 95.9519 367.805 95.8852C367.667 95.8652 367.523 95.8438 367.376 95.8212C367.301 95.8105 367.225 95.7998 367.149 95.7892C367.072 95.7825 366.995 95.7798 366.913 95.7758C366.277 95.7212 365.556 95.7785 364.789 95.9612C364.024 96.1492 363.213 96.4865 362.439 97.0105C361.665 97.5345 360.916 98.2332 360.309 99.1225C360.163 99.3465 360.004 99.5705 359.877 99.8185C359.811 99.9399 359.739 100.06 359.676 100.187C359.617 100.315 359.557 100.444 359.497 100.573C359.468 100.639 359.437 100.704 359.409 100.769L359.333 100.973C359.283 101.109 359.233 101.247 359.181 101.384C359.14 101.527 359.1 101.669 359.057 101.812L358.996 102.028C358.979 102.101 358.965 102.176 358.949 102.249C358.919 102.399 358.888 102.548 358.857 102.698C358.835 102.849 358.817 103.004 358.797 103.157L358.768 103.39C358.761 103.468 358.76 103.546 358.755 103.625C358.748 103.782 358.74 103.941 358.733 104.1C358.737 104.26 358.741 104.42 358.745 104.581L358.753 104.824L358.78 105.066C358.799 105.229 358.816 105.392 358.835 105.556C358.865 105.717 358.896 105.88 358.928 106.043C358.944 106.125 358.959 106.208 358.977 106.289L359.043 106.532C359.088 106.693 359.132 106.856 359.18 107.019C359.239 107.177 359.296 107.337 359.355 107.497C359.385 107.577 359.412 107.659 359.444 107.739L359.552 107.972C359.624 108.128 359.696 108.285 359.769 108.443C359.853 108.593 359.937 108.744 360.023 108.897L360.151 109.125L360.293 109.344C360.389 109.488 360.487 109.635 360.584 109.78C361.003 110.343 361.453 110.899 361.977 111.387C362.228 111.647 362.509 111.868 362.783 112.107C362.924 112.221 363.071 112.327 363.215 112.437C363.359 112.549 363.504 112.658 363.659 112.756C363.809 112.857 363.961 112.958 364.115 113.061C364.272 113.154 364.429 113.248 364.588 113.343L364.827 113.483L365.072 113.611C365.236 113.695 365.4 113.78 365.565 113.865C365.733 113.942 365.903 114.018 366.073 114.096L366.328 114.211L366.589 114.313C366.763 114.381 366.937 114.453 367.113 114.519C367.291 114.579 367.469 114.64 367.648 114.7C367.827 114.764 368.008 114.816 368.191 114.868C368.373 114.919 368.555 114.976 368.74 115.021C369.111 115.109 369.483 115.205 369.861 115.271C370.617 115.423 371.389 115.516 372.173 115.572C373.741 115.68 375.359 115.597 376.979 115.284C377.789 115.128 378.597 114.899 379.396 114.611C380.196 114.324 380.983 113.95 381.739 113.492L382.023 113.321L382.297 113.132C382.481 113.005 382.667 112.881 382.841 112.736L383.107 112.525C383.196 112.456 383.284 112.384 383.363 112.309C383.525 112.161 383.688 112.013 383.852 111.864C384.484 111.246 385.1 110.588 385.62 109.837C386.148 109.096 386.653 108.237 387.059 107.257C387.465 106.277 387.769 105.176 387.911 103.993C388.196 101.633 387.829 98.9585 386.688 96.4545C386.415 95.8212 386.075 95.2118 385.716 94.6038C385.339 94.0078 384.94 93.4105 384.48 92.8505C384.033 92.2812 383.531 91.7452 383.003 91.2252C382.731 90.9745 382.465 90.7118 382.173 90.4772C382.029 90.3572 381.888 90.2332 381.74 90.1159C381.591 90.0025 381.44 89.8878 381.289 89.7732C381.14 89.6558 380.983 89.5492 380.825 89.4425C380.668 89.3358 380.511 89.2238 380.353 89.1225C380.039 88.9278 379.721 88.7318 379.404 88.5358C379.244 88.4385 379.088 88.3358 378.924 88.2438C378.759 88.1518 378.593 88.0598 378.428 87.9678C378.263 87.8758 378.096 87.7838 377.929 87.6905C377.763 87.5972 377.597 87.5038 377.423 87.4225C377.077 87.2532 376.731 87.0825 376.383 86.9118C376.031 86.7465 375.667 86.6025 375.307 86.4465C374.949 86.2865 374.576 86.1585 374.201 86.0252C374.016 85.9585 373.828 85.8918 373.641 85.8238C373.455 85.7558 373.26 85.7079 373.069 85.6505C372.877 85.5945 372.685 85.5372 372.493 85.4812C372.3 85.4238 372.107 85.3678 371.911 85.3265C371.519 85.2372 371.125 85.1478 370.729 85.0585C370.332 84.9892 369.932 84.9225 369.531 84.8545C369.331 84.8158 369.129 84.7985 368.927 84.7732C368.725 84.7505 368.523 84.7278 368.32 84.7038C366.699 84.5412 365.055 84.4945 363.412 84.5492C363.001 84.5572 362.592 84.5892 362.18 84.6065L361.563 84.6385L360.945 84.6865C360.535 84.7199 360.124 84.7532 359.711 84.7852C359.301 84.8279 358.889 84.8692 358.477 84.9118C358.064 84.9505 357.653 84.9985 357.243 85.0492C356.831 85.0985 356.419 85.1478 356.005 85.1972C355.589 85.2598 355.173 85.3212 354.756 85.3839L354.131 85.4785C353.921 85.5105 353.716 85.5558 353.508 85.5945C353.093 85.6745 352.679 85.7545 352.264 85.8345C351.849 85.9198 351.44 86.0239 351.028 86.1185C350.2 86.2985 349.389 86.5372 348.572 86.7558C348.163 86.8638 347.763 86.9985 347.357 87.1185C346.955 87.2465 346.547 87.3585 346.149 87.4998C345.349 87.7705 344.548 88.0318 343.76 88.3292C343.207 88.5278 342.661 88.7425 342.113 88.9545C342.08 89.3012 342.039 89.6465 342 89.9918C343.089 89.7825 344.183 89.5972 345.28 89.4438Z" fill="url(#paint9_linear_150_12293)"/>
<path d="M305.514 48.5295C305.461 48.5802 305.409 48.6295 305.36 48.6802C305.396 48.6722 305.432 48.6602 305.469 48.6549C305.484 48.6122 305.498 48.5709 305.514 48.5295ZM289.882 44.3962C291.825 36.8402 297.348 28.7682 306.965 28.7695C317.137 28.7695 325.968 35.3522 323.298 45.1869C320.908 53.9935 311.594 59.6935 302.262 55.1149C301.797 54.8855 301.449 54.4922 301.354 54.0442C301.2 53.8362 301.088 53.5962 301.005 53.3389C298.869 49.8522 301.945 44.9402 306.33 43.0375C309.62 41.6095 314.133 40.8349 317.388 42.1642C318.056 39.5029 317.594 36.4375 315.817 34.8082C315.164 34.2095 314.902 33.8309 315.009 33.2562C314.496 33.0109 313.949 32.7962 313.368 32.6189C309.478 31.4375 304.729 31.0362 301.032 33.1589C292.634 37.9815 291.269 49.1549 292.49 57.1535C294.057 67.4149 301.593 76.5029 313.64 77.9629C314.27 78.0389 314.897 78.0855 315.521 78.1135C315.665 78.0562 315.821 78.0095 316 77.9869C322.322 77.2429 329.292 75.1175 333.516 70.4735C337.058 66.5789 341.266 60.6109 338.284 56.0735C335.436 51.7389 339.53 53.4469 340.802 54.3962C343.717 56.5749 344.594 59.7335 344.92 62.9922C348.384 57.4055 352.261 51.2042 359.294 49.2295C366.105 47.3175 374.341 47.3109 380.088 51.3575C380.849 51.8922 381.22 52.8135 380.785 53.3762C380.769 54.0269 379.898 54.5015 378.96 54.5375C370.598 54.8562 363.062 58.7362 356.221 62.9029C349.001 67.3029 342.152 72.2389 334.55 76.1002C328.08 79.3882 320.529 81.9308 313.082 80.8228C305.784 79.7362 297.981 75.6695 294.01 69.9602C288.948 62.6815 287.714 52.8269 289.882 44.3962Z" fill="url(#paint10_linear_150_12293)"/>
<path d="M475.551 107.944C475.551 107.944 479.344 97.2655 475.551 92.2002C475.551 92.2002 537.091 106.724 580.505 107.944H475.551Z" fill="url(#paint11_linear_150_12293)"/>
<path d="M105.549 107.944C105.549 107.944 101.754 97.2655 105.549 92.2002C105.549 92.2002 44.0087 106.724 0.59375 107.944H105.549Z" fill="url(#paint12_linear_150_12293)"/>
<defs>
<linearGradient id="paint0_linear_150_12293" x1="162.025" y1="-64.9082" x2="510.794" y2="153.513" gradientUnits="userSpaceOnUse">
<stop stop-color="#EEDEBC"/>
<stop offset="0.150732" stop-color="#EEDEBC"/>
<stop offset="0.573161" stop-color="#C9A885"/>
<stop offset="0.612903" stop-color="#C9A885"/>
<stop offset="0.613741" stop-color="#C9A885"/>
<stop offset="0.72043" stop-color="#9A7A5F"/>
<stop offset="0.721351" stop-color="#9A7A5F"/>
<stop offset="0.83871" stop-color="#C9A885"/>
<stop offset="0.999958" stop-color="#EEDEBC"/>
<stop offset="1" stop-color="#EEDEBC"/>
</linearGradient>
<linearGradient id="paint1_linear_150_12293" x1="130.478" y1="-14.5372" x2="479.247" y2="203.884" gradientUnits="userSpaceOnUse">
<stop stop-color="#EEDEBC"/>
<stop offset="0.150732" stop-color="#EEDEBC"/>
<stop offset="0.573161" stop-color="#C9A885"/>
<stop offset="0.612903" stop-color="#C9A885"/>
<stop offset="0.613741" stop-color="#C9A885"/>
<stop offset="0.72043" stop-color="#9A7A5F"/>
<stop offset="0.721351" stop-color="#9A7A5F"/>
<stop offset="0.83871" stop-color="#C9A885"/>
<stop offset="0.999958" stop-color="#EEDEBC"/>
<stop offset="1" stop-color="#EEDEBC"/>
</linearGradient>
<linearGradient id="paint2_linear_150_12293" x1="122.409" y1="-1.65473" x2="471.178" y2="216.766" gradientUnits="userSpaceOnUse">
<stop stop-color="#EEDEBC"/>
<stop offset="0.150732" stop-color="#EEDEBC"/>
<stop offset="0.573161" stop-color="#C9A885"/>
<stop offset="0.612903" stop-color="#C9A885"/>
<stop offset="0.613741" stop-color="#C9A885"/>
<stop offset="0.72043" stop-color="#9A7A5F"/>
<stop offset="0.721351" stop-color="#9A7A5F"/>
<stop offset="0.83871" stop-color="#C9A885"/>
<stop offset="0.999958" stop-color="#EEDEBC"/>
<stop offset="1" stop-color="#EEDEBC"/>
</linearGradient>
<linearGradient id="paint3_linear_150_12293" x1="120.894" y1="0.766776" x2="469.663" y2="219.188" gradientUnits="userSpaceOnUse">
<stop stop-color="#EEDEBC"/>
<stop offset="0.150732" stop-color="#EEDEBC"/>
<stop offset="0.573161" stop-color="#C9A885"/>
<stop offset="0.612903" stop-color="#C9A885"/>
<stop offset="0.613741" stop-color="#C9A885"/>
<stop offset="0.72043" stop-color="#9A7A5F"/>
<stop offset="0.721351" stop-color="#9A7A5F"/>
<stop offset="0.83871" stop-color="#C9A885"/>
<stop offset="0.999958" stop-color="#EEDEBC"/>
<stop offset="1" stop-color="#EEDEBC"/>
</linearGradient>
<linearGradient id="paint4_linear_150_12293" x1="136.013" y1="-23.3763" x2="484.782" y2="195.045" gradientUnits="userSpaceOnUse">
<stop stop-color="#EEDEBC"/>
<stop offset="0.150732" stop-color="#EEDEBC"/>
<stop offset="0.573161" stop-color="#C9A885"/>
<stop offset="0.612903" stop-color="#C9A885"/>
<stop offset="0.613741" stop-color="#C9A885"/>
<stop offset="0.72043" stop-color="#9A7A5F"/>
<stop offset="0.721351" stop-color="#9A7A5F"/>
<stop offset="0.83871" stop-color="#C9A885"/>
<stop offset="0.999958" stop-color="#EEDEBC"/>
<stop offset="1" stop-color="#EEDEBC"/>
</linearGradient>
<linearGradient id="paint5_linear_150_12293" x1="103.305" y1="28.8519" x2="452.075" y2="247.273" gradientUnits="userSpaceOnUse">
<stop stop-color="#EEDEBC"/>
<stop offset="0.150732" stop-color="#EEDEBC"/>
<stop offset="0.573161" stop-color="#C9A885"/>
<stop offset="0.612903" stop-color="#C9A885"/>
<stop offset="0.613741" stop-color="#C9A885"/>
<stop offset="0.72043" stop-color="#9A7A5F"/>
<stop offset="0.721351" stop-color="#9A7A5F"/>
<stop offset="0.83871" stop-color="#C9A885"/>
<stop offset="0.999958" stop-color="#EEDEBC"/>
<stop offset="1" stop-color="#EEDEBC"/>
</linearGradient>
<linearGradient id="paint6_linear_150_12293" x1="102.442" y1="30.2279" x2="451.211" y2="248.649" gradientUnits="userSpaceOnUse">
<stop stop-color="#EEDEBC"/>
<stop offset="0.150732" stop-color="#EEDEBC"/>
<stop offset="0.573161" stop-color="#C9A885"/>
<stop offset="0.612903" stop-color="#C9A885"/>
<stop offset="0.613741" stop-color="#C9A885"/>
<stop offset="0.72043" stop-color="#9A7A5F"/>
<stop offset="0.721351" stop-color="#9A7A5F"/>
<stop offset="0.83871" stop-color="#C9A885"/>
<stop offset="0.999958" stop-color="#EEDEBC"/>
<stop offset="1" stop-color="#EEDEBC"/>
</linearGradient>
<linearGradient id="paint7_linear_150_12293" x1="135.118" y1="-21.9451" x2="483.887" y2="196.476" gradientUnits="userSpaceOnUse">
<stop stop-color="#EEDEBC"/>
<stop offset="0.150732" stop-color="#EEDEBC"/>
<stop offset="0.573161" stop-color="#C9A885"/>
<stop offset="0.612903" stop-color="#C9A885"/>
<stop offset="0.613741" stop-color="#C9A885"/>
<stop offset="0.72043" stop-color="#9A7A5F"/>
<stop offset="0.721351" stop-color="#9A7A5F"/>
<stop offset="0.83871" stop-color="#C9A885"/>
<stop offset="0.999958" stop-color="#EEDEBC"/>
<stop offset="1" stop-color="#EEDEBC"/>
</linearGradient>
<linearGradient id="paint8_linear_150_12293" x1="159.991" y1="-61.6628" x2="508.761" y2="156.758" gradientUnits="userSpaceOnUse">
<stop stop-color="#EEDEBC"/>
<stop offset="0.150732" stop-color="#EEDEBC"/>
<stop offset="0.573161" stop-color="#C9A885"/>
<stop offset="0.612903" stop-color="#C9A885"/>
<stop offset="0.613741" stop-color="#C9A885"/>
<stop offset="0.72043" stop-color="#9A7A5F"/>
<stop offset="0.721351" stop-color="#9A7A5F"/>
<stop offset="0.83871" stop-color="#C9A885"/>
<stop offset="0.999958" stop-color="#EEDEBC"/>
<stop offset="1" stop-color="#EEDEBC"/>
</linearGradient>
<linearGradient id="paint9_linear_150_12293" x1="146.569" y1="-40.2335" x2="495.339" y2="178.188" gradientUnits="userSpaceOnUse">
<stop stop-color="#EEDEBC"/>
<stop offset="0.150732" stop-color="#EEDEBC"/>
<stop offset="0.573161" stop-color="#C9A885"/>
<stop offset="0.612903" stop-color="#C9A885"/>
<stop offset="0.613741" stop-color="#C9A885"/>
<stop offset="0.72043" stop-color="#9A7A5F"/>
<stop offset="0.721351" stop-color="#9A7A5F"/>
<stop offset="0.83871" stop-color="#C9A885"/>
<stop offset="0.999958" stop-color="#EEDEBC"/>
<stop offset="1" stop-color="#EEDEBC"/>
</linearGradient>
<linearGradient id="paint10_linear_150_12293" x1="154.397" y1="-52.7304" x2="503.166" y2="165.691" gradientUnits="userSpaceOnUse">
<stop stop-color="#EEDEBC"/>
<stop offset="0.150732" stop-color="#EEDEBC"/>
<stop offset="0.573161" stop-color="#C9A885"/>
<stop offset="0.612903" stop-color="#C9A885"/>
<stop offset="0.613741" stop-color="#C9A885"/>
<stop offset="0.72043" stop-color="#9A7A5F"/>
<stop offset="0.721351" stop-color="#9A7A5F"/>
<stop offset="0.83871" stop-color="#C9A885"/>
<stop offset="0.999958" stop-color="#EEDEBC"/>
<stop offset="1" stop-color="#EEDEBC"/>
</linearGradient>
<linearGradient id="paint11_linear_150_12293" x1="187.378" y1="-105.392" x2="536.147" y2="113.029" gradientUnits="userSpaceOnUse">
<stop stop-color="#EEDEBC"/>
<stop offset="0.150732" stop-color="#EEDEBC"/>
<stop offset="0.573161" stop-color="#C9A885"/>
<stop offset="0.612903" stop-color="#C9A885"/>
<stop offset="0.613741" stop-color="#C9A885"/>
<stop offset="0.72043" stop-color="#9A7A5F"/>
<stop offset="0.721351" stop-color="#9A7A5F"/>
<stop offset="0.83871" stop-color="#C9A885"/>
<stop offset="0.999958" stop-color="#EEDEBC"/>
<stop offset="1" stop-color="#EEDEBC"/>
</linearGradient>
<linearGradient id="paint12_linear_150_12293" x1="57.1153" y1="102.606" x2="405.885" y2="321.027" gradientUnits="userSpaceOnUse">
<stop stop-color="#EEDEBC"/>
<stop offset="0.150732" stop-color="#EEDEBC"/>
<stop offset="0.573161" stop-color="#C9A885"/>
<stop offset="0.612903" stop-color="#C9A885"/>
<stop offset="0.613741" stop-color="#C9A885"/>
<stop offset="0.72043" stop-color="#9A7A5F"/>
<stop offset="0.721351" stop-color="#9A7A5F"/>
<stop offset="0.83871" stop-color="#C9A885"/>
<stop offset="0.999958" stop-color="#EEDEBC"/>
<stop offset="1" stop-color="#EEDEBC"/>
</linearGradient>
</defs>
</svg>
