<svg width="581" height="127" viewBox="0 0 581 127" fill="none" xmlns="http://www.w3.org/2000/svg">
<path d="M288.861 97.5209L282.234 111.565L282.276 111.62C284.98 115.249 288.612 125.121 288.612 125.121L288.861 126.01L289.109 125.121C289.109 125.121 292.742 115.249 295.445 111.62L295.488 111.565L288.861 97.5209Z" fill="url(#paint0_linear_150_12339)"/>
<path d="M321.226 29.9327C321.869 29.65 322.346 29.1047 322.586 28.2367C322.812 27.3807 322.737 26.2047 322.138 24.8727C321.542 23.55 320.32 22.1194 318.56 21.106C316.81 20.078 314.565 19.57 312.372 19.73C311.262 19.778 309.876 20.0994 308.402 20.6847C306.93 21.274 305.41 22.186 304.046 23.37C302.676 24.5487 301.457 25.9887 300.492 27.55C299.522 29.11 298.804 30.7847 298.317 32.4194C297.853 34.066 297.609 35.6634 297.522 37.11C297.492 37.8367 297.489 38.5247 297.509 39.1647C297.557 39.806 297.592 40.3994 297.666 40.938C297.753 41.478 297.841 41.9634 297.929 42.386C298.022 42.8087 298.145 43.17 298.246 43.4647C298.456 44.054 298.648 44.3727 298.809 44.374C298.95 44.374 299.145 44.054 299.378 43.4994C299.621 42.8794 299.92 42.1114 300.261 41.2367C300.445 40.7754 300.674 40.286 300.888 39.7674C301.129 39.2567 301.39 38.7247 301.668 38.1834C302.25 37.11 302.942 36.0194 303.722 35.0114C304.525 34.0154 305.418 33.1127 306.349 32.382C307.276 31.6487 308.236 31.09 309.126 30.7074C310.016 30.3194 310.834 30.114 311.5 30.0194C311.665 29.9767 311.824 29.9807 311.97 29.9594C312.118 29.9407 312.257 29.9167 312.385 29.9207C312.513 29.9154 312.633 29.9047 312.744 29.8887C312.852 29.8927 312.952 29.89 313.044 29.882C313.78 29.8314 314.37 29.7874 314.962 29.762C315.552 29.7367 316.198 29.7194 316.908 29.81C318.329 29.9554 319.924 30.4994 321.226 29.9327Z" fill="url(#paint1_linear_150_12339)"/>
<path d="M299.19 18.1474C295.246 27.0954 294.187 39.6528 294.062 41.3088C294.053 41.4154 293.993 41.4914 293.919 41.4914L290.071 45.8488C289.562 46.4248 288.662 46.4248 288.153 45.8488L284.305 41.4914C284.231 41.4914 284.171 41.4154 284.163 41.3088C284.038 39.6528 283.146 28.0608 279.035 18.1474C279.003 18.0701 286.963 3.84342 288.755 0.870087C288.937 0.570087 289.289 0.570087 289.469 0.870087C291.262 3.84342 299.223 18.0714 299.19 18.1474Z" fill="url(#paint2_linear_150_12339)"/>
<path d="M256.493 29.9327C255.85 29.65 255.373 29.1047 255.133 28.2367C254.908 27.3807 254.981 26.2047 255.581 24.8727C256.177 23.55 257.4 22.1194 259.16 21.106C260.909 20.078 263.154 19.57 265.348 19.73C266.457 19.778 267.844 20.0994 269.317 20.6847C270.789 21.274 272.309 22.186 273.673 23.37C275.044 24.5487 276.261 25.9887 277.228 27.55C278.197 29.11 278.914 30.7847 279.402 32.4194C279.866 34.066 280.109 35.6634 280.197 37.11C280.228 37.8367 280.23 38.5247 280.21 39.1647C280.162 39.806 280.128 40.3994 280.053 40.938C279.966 41.478 279.878 41.9634 279.79 42.386C279.697 42.8087 279.574 43.17 279.473 43.4647C279.264 44.054 279.072 44.3727 278.91 44.374C278.769 44.374 278.574 44.054 278.341 43.4994C278.098 42.8794 277.8 42.1114 277.458 41.2367C277.274 40.7754 277.045 40.286 276.83 39.7674C276.59 39.2567 276.329 38.7247 276.05 38.1834C275.469 37.11 274.777 36.0194 273.997 35.0114C273.194 34.0154 272.301 33.1127 271.37 32.382C270.442 31.6487 269.484 31.09 268.593 30.7074C267.704 30.3194 266.885 30.114 266.22 30.0194C266.053 29.9767 265.896 29.9807 265.748 29.9594C265.601 29.9407 265.462 29.9167 265.334 29.9207C265.206 29.9154 265.086 29.9047 264.976 29.8887C264.868 29.8927 264.768 29.89 264.676 29.882C263.94 29.8314 263.348 29.7874 262.756 29.762C262.168 29.7367 261.521 29.7194 260.812 29.81C259.39 29.9554 257.796 30.4994 256.493 29.9327Z" fill="url(#paint3_linear_150_12339)"/>
<path d="M289.113 47.4381L284.195 52.1008C285.081 53.2888 289.113 60.1328 289.113 60.1328C289.113 60.1328 292.951 53.2888 293.837 52.1008L289.113 47.4381Z" fill="url(#paint4_linear_150_12339)"/>
<path d="M255.973 41.9155C253.72 42.4062 251.413 42.9928 249.084 43.7248C246.757 44.4622 244.389 45.2848 242.007 46.2115C237.232 48.0515 232.361 50.2248 227.345 52.3822C224.84 53.4528 222.271 54.5488 219.7 55.6702C217.127 56.7902 214.528 57.9302 211.907 59.0528C209.285 60.1848 206.635 61.2808 203.963 62.3595C201.283 63.4088 198.588 64.4555 195.855 65.3782C194.495 65.8648 193.116 66.2862 191.743 66.7262C191.057 66.9542 190.36 67.1328 189.671 67.3368C188.977 67.5288 188.291 67.7488 187.593 67.9195C186.199 68.2662 184.813 68.6475 183.412 68.9275C182.711 69.0742 182.015 69.2395 181.313 69.3715C180.612 69.4942 179.911 69.6182 179.209 69.7408C178.859 69.7995 178.509 69.8715 178.159 69.9195L177.104 70.0582C176.401 70.1515 175.7 70.2448 174.999 70.3368C174.287 70.4115 173.576 70.4835 172.867 70.5568C172.156 70.6328 171.448 70.7035 170.741 70.7595C170.576 70.7742 170.411 70.7875 170.244 70.8022C170.263 70.7955 170.277 70.7875 170.297 70.7808C171.028 70.5182 171.971 70.3822 173.087 70.2435C174.221 70.1248 175.475 69.8062 176.873 69.5262C179.676 68.9542 182.935 67.9102 186.473 66.5195C189.972 65.0035 193.673 63.1182 197.479 61.0248C202.664 58.1902 207.44 55.4435 211.575 53.2009C213.656 52.1155 215.543 51.0715 217.255 50.2568C218.104 49.8328 218.897 49.4368 219.628 49.0715C220.371 48.7342 221.051 48.4262 221.661 48.1488C222.296 47.9395 223.004 47.7048 223.776 47.4502C224.551 47.1968 225.404 46.9462 226.308 46.6608C228.123 46.1022 230.173 45.4515 232.417 44.7782C236.907 43.4435 242.165 41.9222 247.884 41.0488C249.987 40.7488 252.047 40.4902 254.043 40.4142C255.041 40.3342 256.021 40.3635 256.984 40.3355C257.464 40.3355 257.939 40.3622 258.409 40.3728C258.877 40.3942 259.347 40.3822 259.8 40.4382C261.155 40.5248 262.455 40.6902 263.693 40.9009C261.208 41.0382 258.623 41.3795 255.973 41.9155ZM273.303 42.5155C273.608 42.6848 273.865 42.8355 274.064 42.9515C274.101 42.9728 274.129 42.9888 274.163 43.0088C273.884 42.8968 273.596 42.7808 273.292 42.6608C273.063 42.5662 272.824 42.4702 272.58 42.3728C272.824 42.4155 273.064 42.4648 273.303 42.5155ZM268.424 41.9502C268.763 42.0395 269.095 42.1302 269.417 42.2195C270.779 42.6075 272.011 42.9595 273.093 43.2675C274.181 43.5675 275.119 43.8262 275.887 44.0368C276.84 44.2648 277.529 44.4288 277.919 44.5222C277.924 44.5075 277.931 44.4928 277.937 44.4768C277.563 44.3355 276.899 44.0835 275.979 43.7355C275.517 43.5502 274.983 43.3369 274.397 43.1022C274.321 43.0435 274.229 42.9715 274.111 42.8795C274.016 42.8048 273.903 42.7168 273.779 42.6222C273.912 42.6528 274.049 42.6782 274.18 42.7115C275.599 43.0782 276.896 43.6102 278.005 44.3128C278.019 44.2782 278.035 44.2488 278.047 44.2128C278.12 43.9995 278.216 43.8088 278.323 43.6302C277.171 42.8648 275.839 42.2795 274.401 41.8635C273.588 41.6302 272.741 41.4448 271.871 41.2955C270.632 40.4982 268.976 39.5488 266.917 38.6062C266.6 38.4608 266.276 38.3142 265.944 38.1635C265.608 38.0235 265.264 37.8822 264.913 37.7368C264.213 37.4368 263.467 37.1795 262.699 36.8915C261.151 36.3608 259.479 35.8315 257.681 35.4088C255.887 34.9862 253.973 34.6315 251.959 34.4368C250.953 34.3408 249.912 34.2902 248.865 34.2955C248.345 34.3062 247.821 34.3195 247.293 34.3315C246.767 34.3502 246.239 34.3982 245.705 34.4328C239.913 34.8969 234.677 36.3488 230.331 37.8115C225.985 39.3128 222.5 40.8528 220.136 41.9622C218.905 42.3888 217.381 42.8862 215.667 43.5822C213.951 44.2715 212.008 45.0662 209.887 45.9502C207.809 46.9235 205.564 48.0075 203.195 49.1689C200.877 50.4235 198.417 51.7262 195.936 53.1742C194.12 54.2555 192.355 55.3249 190.656 56.3675C188.931 57.4435 187.371 58.6195 185.919 59.7475C184.484 60.8822 183.119 61.9608 181.841 62.9715C180.567 63.9728 179.361 64.8688 178.241 65.6622C175.995 67.2262 174.035 68.2675 172.62 68.8515C172.265 68.9928 171.951 69.1275 171.673 69.2302C171.392 69.3195 171.155 69.3955 170.963 69.4568C170.576 69.5822 170.372 69.6462 170.372 69.6462C170.372 69.6462 170.583 69.6102 170.981 69.5422C171.181 69.5062 171.429 69.4622 171.723 69.4102C172.013 69.3448 172.343 69.2488 172.719 69.1515C174.213 68.7422 176.329 67.9075 178.759 66.5248C179.967 65.8248 181.265 65.0169 182.621 64.1009C183.977 63.1862 185.4 62.1782 186.892 61.1342C188.387 60.0915 189.944 59.0155 191.62 58.0342C193.336 57.0449 195.107 56.0089 196.912 54.9342C199.383 53.5102 201.773 52.1328 204.043 50.8248C206.344 49.5888 208.509 48.3955 210.507 47.2902C212.541 46.2755 214.4 45.3315 216.04 44.4875C217.677 43.6382 219.136 42.9835 220.309 42.4195C222.773 41.5915 226.371 40.4195 230.741 39.2329C235.116 38.0822 240.284 36.8968 245.856 36.4528C246.368 36.4195 246.876 36.3702 247.383 36.3488C247.887 36.3315 248.389 36.3142 248.888 36.2982C249.881 36.2782 250.848 36.3049 251.811 36.3689C253.731 36.4995 255.587 36.7648 257.344 37.0822C259.104 37.3995 260.76 37.8102 262.304 38.2155C263.071 38.4408 263.82 38.6342 264.525 38.8702C264.879 38.9822 265.227 39.0928 265.567 39.1995C265.903 39.3182 266.232 39.4342 266.553 39.5462C268.031 40.0662 269.317 40.5928 270.409 41.0835C269.891 41.0222 269.365 40.9702 268.832 40.9302C266.333 40.0328 263.353 39.1289 259.945 38.7355C259.471 38.6542 258.991 38.6422 258.504 38.5982C258.017 38.5648 257.525 38.5182 257.027 38.4982C256.031 38.4862 255.009 38.4235 253.975 38.4768C251.9 38.5008 249.763 38.7355 247.592 39.0462C241.685 39.9502 236.391 41.7328 231.967 43.3702C229.751 44.1955 227.752 45.0102 225.991 45.7329C225.112 46.1009 224.289 46.4302 223.539 46.7648C222.789 47.1035 222.105 47.4128 221.491 47.6915C220.851 47.9022 220.139 48.1382 219.36 48.3968C218.595 48.6915 217.764 49.0115 216.873 49.3555C215.08 50.0182 213.109 50.9115 210.943 51.8689C206.643 53.8502 201.727 56.4075 196.553 59.2355C192.749 61.3289 189.133 63.3088 185.812 64.9515C182.432 66.4782 179.323 67.7408 176.624 68.5462C175.273 68.9448 174.068 69.3808 172.977 69.6115C171.881 69.8675 170.913 70.1208 170.18 70.4875C169.937 70.6035 169.732 70.7315 169.545 70.8608C169.239 70.8875 168.931 70.9142 168.625 70.9408C167.921 70.9862 167.22 71.0302 166.52 71.0755L165.469 71.1395L164.425 71.1768C163.731 71.1968 163.035 71.2395 162.345 71.2408C159.58 71.2902 156.863 71.1688 154.217 70.8622C153.887 70.8195 153.559 70.7769 153.229 70.7342C152.901 70.6902 152.571 70.6582 152.248 70.5902C151.601 70.4702 150.956 70.3515 150.313 70.2329C149.68 70.0782 149.048 69.9248 148.419 69.7715C148.103 69.7022 147.795 69.6062 147.487 69.5088C147.179 69.4142 146.872 69.3195 146.565 69.2248C146.26 69.1262 145.948 69.0489 145.649 68.9329C145.351 68.8209 145.051 68.7088 144.752 68.5968C144.156 68.3742 143.557 68.1635 142.983 67.8915C142.405 67.6315 141.823 67.3942 141.257 67.1195C140.695 66.8342 140.136 66.5502 139.58 66.2675C139.299 66.1329 139.028 65.9742 138.759 65.8195C138.488 65.6635 138.219 65.5088 137.949 65.3555C137.68 65.2008 137.412 65.0475 137.144 64.8942C136.876 64.7408 136.619 64.5649 136.357 64.4022C135.836 64.0715 135.319 63.7435 134.804 63.4155C134.555 63.2488 134.323 63.0795 134.08 62.9115C133.841 62.7448 133.601 62.5795 133.376 62.3955C133.147 62.2168 132.919 62.0382 132.691 61.8608C132.465 61.6808 132.252 61.4849 132.033 61.2995C131.589 60.9355 131.189 60.5262 130.775 60.1382C129.977 59.3315 129.217 58.5062 128.545 57.6288C127.852 56.7688 127.259 55.8528 126.693 54.9462C126.164 54.0182 125.656 53.0942 125.257 52.1422C124.832 51.2022 124.512 50.2408 124.219 49.2968C124.099 48.8168 123.959 48.3475 123.861 47.8742C123.772 47.3995 123.657 46.9328 123.605 46.4648C123.328 44.5968 123.315 42.7849 123.528 41.1009C123.74 39.4155 124.177 37.8582 124.761 36.4689C125.343 35.0769 126.068 33.8515 126.829 32.7782C127.577 31.6928 128.484 30.7275 129.419 29.8075C129.663 29.5848 129.904 29.3635 130.147 29.1422C130.265 29.0262 130.388 28.9262 130.512 28.8302L130.88 28.5355C131.119 28.3315 131.384 28.1582 131.641 27.9782L132.029 27.7075L132.435 27.4608C133.511 26.8008 134.656 26.2448 135.845 25.8088C137.035 25.3715 138.249 25.0115 139.485 24.7635C141.956 24.2595 144.465 24.0955 146.908 24.2275C148.129 24.2955 149.336 24.4222 150.513 24.6368C151.107 24.7275 151.684 24.8662 152.263 24.9915C152.551 25.0555 152.832 25.1408 153.117 25.2142C153.4 25.2888 153.685 25.3608 153.96 25.4542C158.429 26.7862 162.281 29.2768 164.756 32.5048C164.903 32.7115 165.049 32.9182 165.195 33.1235L165.413 33.4302L165.604 33.7488C165.733 33.9622 165.86 34.1728 165.988 34.3835C166.099 34.6022 166.208 34.8208 166.316 35.0368L166.481 35.3622C166.531 35.4715 166.572 35.5848 166.619 35.6955C166.709 35.9182 166.8 36.1408 166.889 36.3608C166.967 36.5862 167.033 36.8128 167.107 37.0382L167.215 37.3742C167.245 37.4875 167.268 37.6022 167.295 37.7168C167.348 37.9435 167.4 38.1702 167.453 38.3955C167.488 38.6248 167.523 38.8528 167.556 39.0782L167.608 39.4182L167.632 39.7582C167.648 39.9848 167.664 40.2102 167.68 40.4342C167.679 40.6595 167.677 40.8835 167.676 41.1062C167.675 41.2168 167.677 41.3288 167.673 41.4395L167.645 41.7689C167.627 41.9889 167.609 42.2075 167.591 42.4248C167.556 42.6408 167.523 42.8555 167.489 43.0689C167.471 43.1742 167.457 43.2822 167.437 43.3875L167.363 43.6995C167.315 43.9075 167.265 44.1142 167.217 44.3195C167.153 44.5208 167.091 44.7208 167.027 44.9195L166.935 45.2182C166.899 45.3155 166.859 45.4102 166.821 45.5062C166.745 45.6968 166.669 45.8875 166.593 46.0768C166.513 46.2635 166.419 46.4422 166.332 46.6235C166.169 46.9928 165.956 47.3262 165.763 47.6649C164.959 49.0075 163.931 50.0928 162.856 50.9422C161.775 51.7888 160.624 52.3822 159.508 52.7635C158.392 53.1382 157.311 53.3409 156.325 53.3689C156.201 53.3755 156.08 53.3875 155.96 53.3915C155.84 53.3875 155.721 53.3862 155.605 53.3835C155.371 53.3782 155.143 53.3742 154.921 53.3702C154.792 53.3568 154.667 53.3448 154.541 53.3315C156.423 52.3955 157.628 50.3288 157.396 48.0728C157.101 45.1942 154.585 43.1062 151.78 43.4088C148.973 43.7128 146.939 46.2915 147.233 49.1689C147.497 51.7462 149.54 53.6822 151.977 53.8448C152.092 53.8995 152.207 53.9542 152.331 54.0128C152.671 54.1342 153.036 54.2662 153.427 54.4062C153.831 54.5275 154.276 54.6275 154.752 54.7435C154.996 54.7795 155.247 54.8168 155.503 54.8555C155.633 54.8728 155.765 54.8915 155.899 54.9115C156.032 54.9235 156.169 54.9275 156.308 54.9355C157.419 55.0289 158.677 54.9302 160.016 54.6102C161.353 54.2835 162.767 53.6942 164.119 52.7808C165.467 51.8662 166.775 50.6462 167.833 49.0942C168.091 48.7022 168.365 48.3115 168.589 47.8808C168.704 47.6688 168.829 47.4582 168.939 47.2382C169.041 47.0155 169.145 46.7902 169.249 46.5635C169.301 46.4488 169.356 46.3368 169.404 46.2208L169.536 45.8662C169.624 45.6289 169.713 45.3888 169.803 45.1475C169.873 44.9008 169.945 44.6515 170.017 44.4022L170.124 44.0248C170.156 43.8968 170.18 43.7675 170.207 43.6382C170.26 43.3795 170.313 43.1182 170.367 42.8555C170.407 42.5902 170.437 42.3235 170.472 42.0542L170.523 41.6475C170.535 41.5115 170.539 41.3755 170.547 41.2382C170.559 40.9635 170.572 40.6862 170.585 40.4088C170.577 40.1302 170.569 39.8515 170.563 39.5702L170.548 39.1462L170.503 38.7222C170.471 38.4395 170.44 38.1555 170.407 37.8689C170.353 37.5862 170.3 37.3035 170.245 37.0182C170.216 36.8755 170.192 36.7315 170.159 36.5888L170.044 36.1662C169.965 35.8848 169.889 35.5995 169.804 35.3155C169.703 35.0382 169.603 34.7595 169.5 34.4795C169.447 34.3408 169.4 34.1982 169.343 34.0608L169.156 33.6528C169.031 33.3808 168.904 33.1062 168.777 32.8315C168.631 32.5689 168.483 32.3048 168.335 32.0395L168.111 31.6395L167.861 31.2595C167.693 31.0062 167.525 30.7515 167.355 30.4968C166.625 29.5168 165.839 28.5475 164.924 27.6928C164.487 27.2422 163.995 26.8542 163.517 26.4368C163.272 26.2382 163.017 26.0528 162.765 25.8595C162.513 25.6648 162.259 25.4742 161.991 25.3035C161.725 25.1275 161.46 24.9502 161.193 24.7728C160.919 24.6088 160.644 24.4448 160.368 24.2822L159.952 24.0368L159.524 23.8142C159.239 23.6648 158.951 23.5169 158.663 23.3689C158.368 23.2342 158.073 23.1009 157.776 22.9662L157.331 22.7662L156.876 22.5862C156.572 22.4675 156.269 22.3422 155.961 22.2288C155.651 22.1235 155.34 22.0168 155.027 21.9115C154.717 21.7995 154.399 21.7115 154.08 21.6195C153.763 21.5315 153.444 21.4302 153.121 21.3515C152.476 21.1968 151.827 21.0302 151.165 20.9155C149.848 20.6515 148.497 20.4862 147.131 20.3902C144.395 20.2022 141.573 20.3462 138.747 20.8942C137.332 21.1648 135.923 21.5649 134.527 22.0675C133.131 22.5689 131.757 23.2195 130.441 24.0195L129.945 24.3182L129.465 24.6488C129.144 24.8702 128.82 25.0848 128.516 25.3382L128.053 25.7075C127.896 25.8288 127.744 25.9528 127.607 26.0835C127.323 26.3422 127.039 26.6022 126.753 26.8608C125.648 27.9382 124.575 29.0862 123.665 30.3969C122.747 31.6928 121.864 33.1889 121.156 34.9009C120.447 36.6102 119.916 38.5315 119.669 40.5942C119.171 44.7142 119.811 49.3822 121.804 53.7502C122.28 54.8542 122.873 55.9182 123.499 56.9795C124.159 58.0195 124.853 59.0608 125.656 60.0382C126.436 61.0328 127.312 61.9675 128.233 62.8755C128.708 63.3128 129.172 63.7702 129.681 64.1808C129.933 64.3902 130.179 64.6075 130.437 64.8102C130.699 65.0088 130.961 65.2088 131.224 65.4088C131.484 65.6142 131.759 65.8008 132.033 65.9875C132.307 66.1728 132.583 66.3675 132.859 66.5462C133.407 66.8848 133.959 67.2262 134.513 67.5689C134.793 67.7382 135.065 67.9182 135.352 68.0795C135.64 68.2382 135.928 68.3995 136.217 68.5595C136.507 68.7208 136.796 68.8822 137.087 69.0435C137.377 69.2048 137.667 69.3688 137.972 69.5115C138.573 69.8062 139.179 70.1035 139.787 70.4022C140.4 70.6902 141.035 70.9408 141.664 71.2128C142.288 71.4955 142.94 71.7182 143.591 71.9502C143.917 72.0662 144.244 72.1835 144.571 72.3009C144.896 72.4195 145.236 72.5022 145.568 72.6048C145.903 72.7022 146.239 72.8008 146.575 72.8982C146.911 72.9982 147.247 73.0969 147.589 73.1689C148.275 73.3249 148.961 73.4808 149.649 73.6382C150.345 73.7555 151.043 73.8742 151.743 73.9928C152.091 74.0595 152.444 74.0902 152.796 74.1342C153.149 74.1742 153.501 74.2142 153.856 74.2542C156.684 74.5408 159.552 74.6208 162.419 74.5235C163.136 74.5102 163.851 74.4568 164.569 74.4248L165.648 74.3689L166.723 74.2862C167.44 74.2275 168.159 74.1702 168.879 74.1128C169.595 74.0395 170.312 73.9662 171.031 73.8928C171.751 73.8248 172.469 73.7408 173.187 73.6528C173.904 73.5662 174.624 73.4795 175.344 73.3942C176.069 73.2862 176.797 73.1769 177.525 73.0689L178.617 72.9048C178.981 72.8488 179.34 72.7689 179.703 72.7022C180.425 72.5622 181.149 72.4222 181.875 72.2808C182.596 72.1342 183.311 71.9515 184.031 71.7875C185.473 71.4728 186.889 71.0568 188.315 70.6755C189.028 70.4862 189.728 70.2502 190.435 70.0408C191.137 69.8182 191.849 69.6222 192.544 69.3768C193.939 68.9048 195.339 68.4475 196.713 67.9275C199.48 66.9368 202.191 65.8275 204.881 64.7155C207.557 63.5755 210.211 62.4182 212.819 61.2315C215.432 60.0542 218.008 58.8608 220.559 57.6915C223.111 56.5168 225.625 55.3835 228.129 54.2515C233.124 51.9795 237.921 49.7168 242.605 47.7915C244.944 46.8208 247.259 45.9582 249.532 45.1795C251.807 44.4062 254.055 43.7768 256.251 43.2435C260.532 42.2702 264.647 41.8088 268.424 41.9502Z" fill="url(#paint5_linear_150_12339)"/>
<path d="M232.458 36.8462C232.015 36.9902 231.573 37.1302 231.13 37.2715C230.737 37.4022 230.338 37.5035 229.942 37.6222C229.545 37.7315 229.151 37.8582 228.751 37.9555C227.953 38.1542 227.159 38.3729 226.355 38.5329C225.954 38.6169 225.555 38.7115 225.153 38.7875C224.751 38.8582 224.349 38.9289 223.947 38.9995C223.746 39.0329 223.546 39.0742 223.345 39.1022L222.741 39.1822C222.338 39.2342 221.937 39.2875 221.534 39.3409C221.126 39.3835 220.718 39.4249 220.313 39.4675C219.906 39.5102 219.499 39.5515 219.094 39.5822C218.999 39.5902 218.905 39.5995 218.81 39.6075C218.821 39.6035 218.829 39.5982 218.839 39.5955C219.191 39.4689 219.634 39.3929 220.145 39.3262C219.691 39.3742 219.234 39.4102 218.769 39.4289C218.631 39.4955 218.515 39.5675 218.41 39.6409C218.234 39.6569 218.057 39.6715 217.882 39.6862C217.478 39.7129 217.077 39.7382 216.675 39.7635L216.074 39.8009L215.475 39.8222C215.077 39.8329 214.678 39.8582 214.283 39.8582C212.698 39.8875 211.141 39.8182 209.625 39.6422C209.437 39.6169 209.247 39.5929 209.059 39.5689C208.871 39.5435 208.682 39.5249 208.497 39.4849C208.126 39.4169 207.757 39.3489 207.387 39.2809C207.025 39.1929 206.662 39.1049 206.302 39.0169C206.121 38.9769 205.945 38.9222 205.769 38.8662C205.591 38.8115 205.415 38.7569 205.239 38.7035C205.065 38.6462 204.886 38.6022 204.715 38.5355C204.543 38.4715 204.373 38.4075 204.201 38.3435C203.859 38.2155 203.517 38.0955 203.187 37.9395C202.857 37.7902 202.522 37.6542 202.198 37.4969C201.877 37.3329 201.555 37.1702 201.237 37.0089C201.077 36.9315 200.921 36.8409 200.766 36.7515C200.611 36.6635 200.457 36.5742 200.302 36.4862C200.147 36.3969 199.994 36.3089 199.841 36.2209C199.687 36.1342 199.541 36.0329 199.39 35.9395C199.091 35.7502 198.795 35.5622 198.501 35.3742C198.357 35.2795 198.223 35.1809 198.086 35.0849C197.949 34.9902 197.811 34.8955 197.682 34.7902C197.551 34.6875 197.419 34.5849 197.289 34.4835C197.161 34.3795 197.038 34.2689 196.911 34.1622C196.658 33.9529 196.429 33.7182 196.191 33.4969C195.734 33.0342 195.298 32.5609 194.913 32.0582C194.517 31.5649 194.177 31.0409 193.853 30.5209C193.549 29.9889 193.258 29.4595 193.03 28.9142C192.785 28.3755 192.602 27.8249 192.434 27.2835C192.365 27.0089 192.285 26.7395 192.23 26.4689C192.178 26.1955 192.113 25.9289 192.082 25.6609C191.923 24.5889 191.917 23.5515 192.038 22.5862C192.161 21.6209 192.411 20.7289 192.745 19.9315C193.078 19.1342 193.494 18.4329 193.93 17.8169C194.358 17.1942 194.879 16.6422 195.414 16.1142C195.553 15.9875 195.691 15.8595 195.83 15.7329C195.899 15.6662 195.97 15.6102 196.041 15.5542L196.251 15.3862C196.387 15.2689 196.541 15.1702 196.689 15.0662L196.91 14.9115L197.142 14.7702C197.758 14.3915 198.415 14.0729 199.097 13.8235C199.778 13.5729 200.475 13.3662 201.183 13.2235C202.598 12.9355 204.037 12.8422 205.437 12.9169C206.135 12.9555 206.829 13.0275 207.502 13.1515C207.842 13.2035 208.173 13.2835 208.505 13.3555C208.67 13.3915 208.831 13.4409 208.995 13.4822C209.157 13.5262 209.319 13.5662 209.478 13.6209C212.039 14.3835 214.246 15.8102 215.665 17.6609C215.749 17.7795 215.833 17.8969 215.915 18.0142L216.041 18.1915L216.15 18.3742C216.225 18.4955 216.298 18.6169 216.37 18.7369C216.434 18.8622 216.497 18.9875 216.559 19.1115L216.653 19.2982C216.682 19.3609 216.705 19.4262 216.731 19.4889C216.783 19.6169 216.835 19.7435 216.887 19.8702C216.931 19.9995 216.969 20.1302 217.011 20.2582L217.074 20.4515C217.09 20.5155 217.103 20.5822 217.119 20.6462C217.15 20.7769 217.181 20.9075 217.21 21.0369C217.23 21.1675 217.25 21.2982 217.27 21.4275L217.299 21.6222L217.313 21.8169C217.322 21.9475 217.331 22.0755 217.341 22.2049C217.339 22.3329 217.338 22.4622 217.338 22.5889C217.337 22.6529 217.339 22.7169 217.337 22.7795L217.321 22.9702C217.31 23.0955 217.299 23.2209 217.289 23.3462C217.27 23.4689 217.25 23.5915 217.23 23.7142C217.221 23.7755 217.213 23.8369 217.201 23.8969L217.159 24.0755C217.131 24.1942 217.103 24.3129 217.075 24.4315C217.038 24.5462 217.002 24.6609 216.966 24.7755L216.913 24.9462C216.893 25.0022 216.869 25.0555 216.847 25.1102C216.803 25.2209 216.761 25.3302 216.718 25.4382C216.671 25.5462 216.617 25.6475 216.569 25.7515C216.474 25.9622 216.353 26.1542 216.242 26.3489C215.781 27.1182 215.191 27.7395 214.575 28.2262C213.955 28.7115 213.297 29.0515 212.658 29.2702C212.018 29.4849 211.398 29.6009 210.833 29.6169C210.762 29.6209 210.693 29.6275 210.623 29.6302C210.555 29.6275 210.487 29.6262 210.421 29.6249C210.286 29.6222 210.155 29.6195 210.029 29.6182C209.954 29.6102 209.883 29.6035 209.81 29.5955C210.889 29.0595 211.579 27.8755 211.446 26.5822C211.277 24.9329 209.837 23.7355 208.229 23.9102C206.619 24.0822 205.454 25.5609 205.623 27.2102C205.774 28.6862 206.945 29.7969 208.342 29.8902C208.407 29.9209 208.473 29.9529 208.545 29.9862C208.739 30.0555 208.949 30.1315 209.173 30.2115C209.403 30.2809 209.659 30.3382 209.931 30.4049C210.071 30.4249 210.215 30.4462 210.362 30.4689C210.437 30.4795 210.513 30.4902 210.589 30.5009C210.665 30.5075 210.745 30.5102 210.823 30.5142C211.459 30.5689 212.182 30.5115 212.949 30.3289C213.714 30.1409 214.523 29.8035 215.299 29.2795C216.071 28.7555 216.822 28.0569 217.429 27.1675C217.575 26.9435 217.733 26.7195 217.861 26.4715C217.927 26.3502 217.998 26.2302 218.061 26.1035C218.121 25.9755 218.179 25.8462 218.239 25.7169C218.269 25.6515 218.301 25.5862 218.329 25.5209L218.405 25.3169C218.454 25.1809 218.505 25.0435 218.555 24.9062C218.597 24.7635 218.638 24.6209 218.679 24.4782L218.741 24.2622C218.758 24.1889 218.773 24.1142 218.789 24.0409C218.819 23.8915 218.85 23.7422 218.881 23.5915C218.903 23.4409 218.921 23.2862 218.939 23.1329L218.969 22.8995C218.975 22.8222 218.978 22.7435 218.982 22.6649C218.99 22.5075 218.997 22.3489 219.005 22.1902C219.001 22.0302 218.995 21.8702 218.993 21.7089L218.983 21.4662L218.958 21.2235C218.939 21.0609 218.921 20.8982 218.903 20.7342C218.873 20.5729 218.841 20.4102 218.81 20.2475C218.794 20.1649 218.779 20.0822 218.761 20.0009L218.694 19.7582C218.65 19.5969 218.606 19.4342 218.557 19.2715C218.499 19.1129 218.441 18.9529 218.383 18.7929C218.353 18.7129 218.326 18.6315 218.293 18.5515L218.186 18.3182C218.114 18.1622 218.042 18.0049 217.969 17.8475C217.885 17.6969 217.801 17.5462 217.715 17.3929L217.587 17.1649L217.445 16.9462C217.347 16.8022 217.251 16.6555 217.154 16.5102C216.735 15.9475 216.285 15.3915 215.761 14.9035C215.51 14.6435 215.227 14.4222 214.954 14.1835C214.814 14.0689 214.667 13.9635 214.523 13.8529C214.379 13.7409 214.233 13.6315 214.079 13.5342C213.929 13.4329 213.775 13.3315 213.623 13.2289C213.466 13.1355 213.307 13.0422 213.15 12.9475L212.911 12.8075L212.666 12.6795C212.502 12.5955 212.338 12.5102 212.173 12.4249C212.003 12.3475 211.834 12.2715 211.665 12.1942L211.41 12.0795L211.149 11.9769C210.974 11.9089 210.801 11.8369 210.625 11.7715C210.446 11.7115 210.269 11.6502 210.089 11.5902C209.911 11.5262 209.729 11.4742 209.547 11.4222C209.365 11.3715 209.182 11.3142 208.997 11.2689C208.627 11.1809 208.255 11.0849 207.877 11.0195C207.121 10.8675 206.347 10.7742 205.563 10.7182C203.995 10.6102 202.379 10.6929 200.759 11.0062C199.949 11.1622 199.141 11.3915 198.341 11.6795C197.541 11.9662 196.754 12.3395 195.999 12.7982L195.717 12.9689L195.439 13.1582C195.257 13.2849 195.07 13.4089 194.897 13.5542L194.631 13.7649C194.542 13.8342 194.454 13.9062 194.375 13.9809C194.213 14.1289 194.05 14.2769 193.886 14.4262C193.253 15.0435 192.638 15.7022 192.117 16.4529C191.59 17.1942 191.085 18.0529 190.679 19.0329C190.273 20.0129 189.969 21.1142 189.827 22.2969C189.541 24.6569 189.909 27.3315 191.05 29.8355C191.323 30.4689 191.662 31.0782 192.022 31.6862C192.399 32.2822 192.798 32.8795 193.257 33.4395C193.705 34.0089 194.207 34.5449 194.734 35.0649C195.007 35.3155 195.273 35.5782 195.565 35.8129C195.709 35.9329 195.85 36.0569 195.998 36.1742C196.147 36.2875 196.298 36.4022 196.449 36.5169C196.598 36.6342 196.755 36.7409 196.911 36.8475C197.069 36.9542 197.227 37.0662 197.385 37.1675C197.699 37.3622 198.015 37.5582 198.333 37.7542C198.494 37.8515 198.65 37.9542 198.814 38.0462C198.979 38.1382 199.145 38.2302 199.31 38.3222C199.475 38.4142 199.642 38.5062 199.809 38.5995C199.974 38.6929 200.141 38.7862 200.315 38.8675C200.661 39.0369 201.007 39.2075 201.355 39.3782C201.706 39.5435 202.071 39.6875 202.431 39.8435C202.789 40.0035 203.162 40.1315 203.535 40.2649C203.722 40.3315 203.91 40.3982 204.097 40.4662C204.283 40.5342 204.478 40.5822 204.669 40.6395C204.861 40.6955 205.053 40.7529 205.245 40.8089C205.438 40.8662 205.63 40.9222 205.827 40.9635C206.219 41.0529 206.613 41.1422 207.007 41.2315C207.406 41.3009 207.805 41.3675 208.207 41.4355C208.407 41.4742 208.609 41.4915 208.811 41.5169C209.013 41.5395 209.215 41.5622 209.418 41.5862C211.039 41.7489 212.682 41.7955 214.325 41.7409C214.737 41.7329 215.146 41.7009 215.558 41.6835L216.175 41.6515L216.791 41.6035C217.202 41.5702 217.614 41.5369 218.026 41.5049C218.438 41.4622 218.849 41.4209 219.261 41.3782C219.673 41.3395 220.085 41.2915 220.495 41.2409C220.907 41.1915 221.319 41.1422 221.731 41.0929C222.149 41.0302 222.565 40.9689 222.982 40.9062L223.607 40.8115C223.817 40.7795 224.023 40.7342 224.23 40.6955C224.645 40.6155 225.059 40.5355 225.474 40.4555C225.887 40.3702 226.298 40.2662 226.71 40.1715C227.537 39.9915 228.349 39.7529 229.165 39.5342C229.574 39.4262 229.975 39.2915 230.381 39.1715C230.782 39.0435 231.19 38.9315 231.589 38.7902C232.387 38.5195 233.19 38.2582 233.978 37.9609C234.531 37.7622 235.077 37.5475 235.623 37.3355C235.658 36.9889 235.699 36.6435 235.738 36.2982C234.649 36.5075 233.555 36.6929 232.458 36.8462Z" fill="url(#paint6_linear_150_12339)"/>
<path d="M272.271 77.6352C272.309 77.6299 272.345 77.6178 272.381 77.6098C272.331 77.6605 272.279 77.7098 272.226 77.7605C272.242 77.7192 272.257 77.6779 272.271 77.6352ZM283.73 56.3299C279.758 50.6205 271.955 46.5539 264.657 45.4672C257.21 44.3592 249.662 46.9018 243.19 50.1898C235.589 54.0512 228.739 58.9872 221.518 63.3872C214.678 67.5538 207.142 71.4338 198.779 71.7525C197.842 71.7885 196.971 72.2632 196.955 72.9138C196.519 73.4765 196.891 74.3979 197.651 74.9325C203.398 78.9792 211.635 78.9725 218.446 77.0605C225.479 75.0858 229.357 68.8845 232.819 63.2979C233.146 66.5565 234.023 69.7152 236.939 71.8938C238.209 72.8432 242.305 74.5512 239.455 70.2165C236.474 65.6792 240.682 59.7112 244.225 55.8165C248.449 51.1725 255.418 49.0472 261.739 48.3032C261.919 48.2805 262.075 48.2338 262.219 48.1765C262.843 48.2045 263.47 48.2512 264.101 48.3272C276.147 49.7872 283.682 58.8752 285.25 69.1365C286.471 77.1352 285.106 88.3085 276.707 93.1312C273.01 95.2539 268.262 94.8525 264.373 93.6712C263.791 93.4938 263.246 93.2792 262.731 93.0339C262.837 92.4592 262.577 92.0805 261.923 91.4818C260.145 89.8525 259.685 86.7872 260.353 84.1258C263.607 85.4552 268.121 84.6805 271.41 83.2525C275.795 81.3498 278.871 76.4378 276.735 72.9512C276.653 72.6938 276.541 72.4538 276.386 72.2458C276.291 71.7978 275.943 71.4045 275.477 71.1752C266.146 66.5965 256.831 72.2965 254.442 81.1032C251.773 90.9378 260.602 97.5205 270.775 97.5205C280.391 97.5218 285.914 89.4498 287.858 81.8938C290.025 73.4632 288.793 63.6085 283.73 56.3299Z" fill="url(#paint7_linear_150_12339)"/>
<path d="M314.046 40.9009C315.285 40.6902 316.585 40.5248 317.941 40.4382C318.393 40.3822 318.862 40.3942 319.331 40.3728C319.802 40.3622 320.277 40.3355 320.757 40.3355C321.719 40.3635 322.699 40.3342 323.697 40.4142C325.694 40.4902 327.754 40.7488 329.857 41.0488C335.575 41.9222 340.834 43.4435 345.323 44.7782C347.567 45.4515 349.617 46.1022 351.431 46.6608C352.337 46.9462 353.19 47.1968 353.963 47.4502C354.737 47.7048 355.443 47.9395 356.079 48.1488C356.69 48.4262 357.37 48.7342 358.113 49.0715C358.843 49.4368 359.637 49.8328 360.486 50.2568C362.198 51.0715 364.083 52.1155 366.165 53.2009C370.301 55.4435 375.075 58.1902 380.262 61.0248C384.067 63.1182 387.767 65.0035 391.267 66.5195C394.806 67.9102 398.065 68.9542 400.866 69.5262C402.266 69.8062 403.519 70.1248 404.654 70.2435C405.77 70.3822 406.713 70.5182 407.443 70.7808C407.463 70.7875 407.477 70.7955 407.497 70.8022C407.33 70.7875 407.165 70.7742 406.999 70.7595C406.293 70.7035 405.583 70.6328 404.874 70.5568C404.163 70.4835 403.454 70.4115 402.742 70.3368C402.041 70.2448 401.339 70.1515 400.637 70.0582L399.582 69.9195C399.23 69.8715 398.882 69.7995 398.53 69.7408C397.83 69.6182 397.129 69.4942 396.426 69.3715C395.725 69.2395 395.029 69.0742 394.33 68.9275C392.926 68.6475 391.541 68.2662 390.147 67.9195C389.45 67.7488 388.763 67.5288 388.07 67.3368C387.379 67.1328 386.683 66.9542 385.998 66.7262C384.625 66.2862 383.246 65.8648 381.886 65.3782C379.153 64.4555 376.457 63.4088 373.777 62.3595C371.106 61.2808 368.454 60.1848 365.834 59.0528C363.211 57.9302 360.614 56.7902 358.041 55.6702C355.47 54.5488 352.901 53.4528 350.394 52.3822C345.379 50.2248 340.507 48.0515 335.734 46.2115C333.35 45.2848 330.983 44.4622 328.657 43.7248C326.327 42.9928 324.021 42.4062 321.767 41.9155C319.118 41.3795 316.531 41.0382 314.046 40.9009ZM305.161 42.3728C304.917 42.4702 304.678 42.5662 304.449 42.6608C304.145 42.7808 303.858 42.8968 303.578 43.0088C303.611 42.9888 303.639 42.9728 303.677 42.9515C303.875 42.8355 304.133 42.6848 304.437 42.5155C304.675 42.4648 304.915 42.4155 305.161 42.3728ZM321.49 43.2435C323.685 43.7768 325.933 44.4062 328.209 45.1795C330.482 45.9582 332.797 46.8208 335.135 47.7915C339.819 49.7168 344.617 51.9795 349.61 54.2515C352.114 55.3835 354.629 56.5168 357.181 57.6915C359.731 58.8608 362.309 60.0542 364.922 61.2315C367.53 62.4182 370.182 63.5755 372.859 64.7155C375.55 65.8275 378.259 66.9368 381.027 67.9275C382.402 68.4475 383.802 68.9048 385.197 69.3768C385.89 69.6222 386.603 69.8182 387.306 70.0408C388.013 70.2502 388.711 70.4862 389.425 70.6755C390.851 71.0568 392.267 71.4728 393.71 71.7875C394.429 71.9515 395.143 72.1342 395.866 72.2808C396.59 72.4222 397.314 72.5622 398.038 72.7022C398.399 72.7689 398.759 72.8488 399.123 72.9048L400.215 73.0689C400.943 73.1769 401.67 73.2862 402.397 73.3942C403.117 73.4795 403.835 73.5662 404.554 73.6528C405.271 73.7408 405.989 73.8248 406.709 73.8928C407.429 73.9662 408.146 74.0395 408.862 74.1128C409.582 74.1702 410.301 74.2275 411.018 74.2862L412.093 74.3689L413.17 74.4248C413.889 74.4568 414.603 74.5102 415.322 74.5235C418.189 74.6208 421.055 74.5408 423.885 74.2542C424.239 74.2142 424.591 74.1742 424.943 74.1342C425.297 74.0902 425.649 74.0595 425.998 73.9928C426.698 73.8742 427.395 73.7555 428.09 73.6382C428.779 73.4808 429.466 73.3249 430.15 73.1689C430.494 73.0969 430.83 72.9982 431.166 72.8982C431.502 72.8008 431.837 72.7022 432.171 72.6048C432.505 72.5022 432.843 72.4195 433.17 72.3009C433.497 72.1835 433.823 72.0662 434.149 71.9502C434.801 71.7182 435.453 71.4955 436.078 71.2128C436.705 70.9408 437.341 70.6902 437.954 70.4022C438.562 70.1035 439.166 69.8062 439.769 69.5115C440.073 69.3688 440.362 69.2048 440.653 69.0435C440.943 68.8822 441.234 68.7208 441.523 68.5595C441.813 68.3995 442.101 68.2382 442.387 68.0795C442.675 67.9182 442.947 67.7382 443.227 67.5689C443.782 67.2262 444.334 66.8848 444.882 66.5462C445.158 66.3675 445.434 66.1728 445.707 65.9875C445.982 65.8008 446.257 65.6142 446.517 65.4088C446.779 65.2088 447.042 65.0088 447.302 64.8102C447.562 64.6075 447.807 64.3902 448.059 64.1808C448.567 63.7702 449.031 63.3128 449.507 62.8755C450.429 61.9675 451.305 61.0328 452.085 60.0382C452.886 59.0608 453.582 58.0195 454.242 56.9795C454.867 55.9182 455.461 54.8542 455.937 53.7502C457.93 49.3822 458.57 44.7142 458.071 40.5942C457.823 38.5315 457.294 36.6102 456.585 34.9009C455.877 33.1889 454.995 31.6928 454.075 30.3969C453.165 29.0862 452.091 27.9382 450.987 26.8608C450.702 26.6022 450.418 26.3422 450.134 26.0835C449.997 25.9528 449.845 25.8288 449.687 25.7075L449.225 25.3382C448.921 25.0848 448.597 24.8702 448.275 24.6488L447.795 24.3182L447.299 24.0195C445.982 23.2195 444.61 22.5689 443.214 22.0675C441.818 21.5649 440.409 21.1648 438.994 20.8942C436.166 20.3462 433.346 20.2022 430.61 20.3902C429.242 20.4862 427.893 20.6515 426.575 20.9155C425.913 21.0302 425.265 21.1968 424.618 21.3515C424.295 21.4302 423.978 21.5315 423.659 21.6195C423.341 21.7115 423.025 21.7995 422.713 21.9115C422.401 22.0168 422.09 22.1235 421.779 22.2288C421.471 22.3422 421.167 22.4675 420.863 22.5862L420.41 22.7662L419.963 22.9662C419.667 23.1009 419.373 23.2342 419.078 23.3689C418.79 23.5169 418.502 23.6648 418.217 23.8142L417.789 24.0368L417.373 24.2822C417.097 24.4448 416.821 24.6088 416.546 24.7728C416.279 24.9502 416.014 25.1275 415.75 25.3035C415.482 25.4742 415.227 25.6648 414.975 25.8595C414.723 26.0528 414.469 26.2382 414.223 26.4368C413.746 26.8542 413.254 27.2422 412.817 27.6928C411.902 28.5475 411.115 29.5168 410.386 30.4968C410.217 30.7515 410.047 31.0062 409.878 31.2595L409.629 31.6395L409.405 32.0395C409.257 32.3048 409.11 32.5689 408.963 32.8315C408.835 33.1062 408.71 33.3808 408.583 33.6528L408.398 34.0608C408.341 34.1982 408.293 34.3408 408.241 34.4795C408.138 34.7595 408.037 35.0382 407.937 35.3155C407.85 35.5995 407.775 35.8848 407.697 36.1662L407.581 36.5888C407.549 36.7315 407.525 36.8755 407.495 37.0182C407.441 37.3035 407.387 37.5862 407.333 37.8689C407.302 38.1555 407.269 38.4395 407.237 38.7222L407.191 39.1462L407.178 39.5702C407.17 39.8515 407.163 40.1302 407.155 40.4088C407.169 40.6862 407.182 40.9635 407.194 41.2382C407.202 41.3755 407.206 41.5115 407.218 41.6475L407.269 42.0542C407.302 42.3235 407.334 42.5902 407.373 42.8555C407.427 43.1182 407.481 43.3795 407.533 43.6382C407.561 43.7675 407.585 43.8968 407.615 44.0248L407.723 44.4022C407.795 44.6515 407.867 44.9008 407.939 45.1475C408.027 45.3888 408.115 45.6289 408.203 45.8662L408.337 46.2208C408.386 46.3368 408.439 46.4488 408.491 46.5635C408.595 46.7902 408.699 47.0155 408.802 47.2382C408.911 47.4582 409.035 47.6688 409.151 47.8808C409.374 48.3115 409.65 48.7022 409.906 49.0942C410.965 50.6462 412.274 51.8662 413.621 52.7808C414.974 53.6942 416.387 54.2835 417.725 54.6102C419.062 54.9302 420.322 55.0289 421.433 54.9355C421.571 54.9275 421.707 54.9235 421.842 54.9115C421.975 54.8915 422.107 54.8728 422.237 54.8555C422.494 54.8168 422.745 54.7795 422.989 54.7435C423.465 54.6275 423.91 54.5275 424.313 54.4062C424.705 54.2662 425.069 54.1342 425.41 54.0128C425.534 53.9542 425.649 53.8995 425.763 53.8448C428.201 53.6822 430.243 51.7462 430.507 49.1689C430.802 46.2915 428.767 43.7128 425.961 43.4088C423.154 43.1062 420.639 45.1942 420.345 48.0728C420.113 50.3288 421.317 52.3955 423.199 53.3315C423.073 53.3448 422.949 53.3568 422.819 53.3702C422.597 53.3742 422.37 53.3782 422.135 53.3835C422.019 53.3862 421.901 53.3875 421.781 53.3915C421.661 53.3875 421.538 53.3755 421.415 53.3689C420.43 53.3409 419.349 53.1382 418.231 52.7635C417.115 52.3822 415.966 51.7888 414.886 50.9422C413.81 50.0928 412.782 49.0075 411.977 47.6649C411.783 47.3262 411.571 46.9928 411.407 46.6235C411.322 46.4422 411.227 46.2635 411.146 46.0768C411.071 45.8875 410.995 45.6968 410.919 45.5062C410.882 45.4102 410.841 45.3155 410.806 45.2182L410.713 44.9195C410.65 44.7208 410.586 44.5208 410.523 44.3195C410.474 44.1142 410.426 43.9075 410.378 43.6995L410.302 43.3875C410.283 43.2822 410.27 43.1742 410.251 43.0689C410.218 42.8555 410.183 42.6408 410.15 42.4248C410.131 42.2075 410.113 41.9889 410.095 41.7689L410.067 41.4395C410.063 41.3288 410.066 41.2168 410.065 41.1062C410.063 40.8835 410.061 40.6595 410.059 40.4342C410.077 40.2102 410.093 39.9848 410.109 39.7582L410.133 39.4182L410.185 39.0782C410.218 38.8528 410.253 38.6248 410.287 38.3955C410.339 38.1702 410.393 37.9435 410.446 37.7168C410.473 37.6022 410.495 37.4875 410.526 37.3742L410.634 37.0382C410.707 36.8128 410.774 36.5862 410.85 36.3608C410.941 36.1408 411.031 35.9182 411.122 35.6955C411.167 35.5848 411.209 35.4715 411.259 35.3622L411.423 35.0368C411.533 34.8208 411.642 34.6022 411.751 34.3835C411.879 34.1728 412.007 33.9622 412.135 33.7488L412.327 33.4302L412.546 33.1235C412.691 32.9182 412.838 32.7115 412.985 32.5048C415.459 29.2768 419.31 26.7862 423.779 25.4542C424.055 25.3608 424.339 25.2888 424.623 25.2142C424.909 25.1408 425.19 25.0555 425.478 24.9915C426.057 24.8662 426.634 24.7275 427.226 24.6368C428.405 24.4222 429.611 24.2955 430.833 24.2275C433.275 24.0955 435.785 24.2595 438.254 24.7635C439.49 25.0115 440.706 25.3715 441.894 25.8088C443.085 26.2448 444.23 26.8008 445.306 27.4608L445.711 27.7075L446.098 27.9782C446.357 28.1582 446.622 28.3315 446.859 28.5355L447.227 28.8302C447.351 28.9262 447.474 29.0262 447.594 29.1422C447.837 29.3635 448.079 29.5848 448.322 29.8075C449.255 30.7275 450.163 31.6928 450.911 32.7782C451.673 33.8515 452.397 35.0769 452.979 36.4689C453.562 37.8582 453.999 39.4155 454.211 41.1009C454.425 42.7849 454.413 44.5968 454.135 46.4648C454.082 46.9328 453.969 47.3995 453.879 47.8742C453.782 48.3475 453.641 48.8168 453.522 49.2968C453.227 50.2408 452.909 51.2022 452.482 52.1422C452.083 53.0942 451.578 54.0182 451.046 54.9462C450.481 55.8528 449.887 56.7688 449.194 57.6288C448.523 58.5062 447.763 59.3315 446.966 60.1382C446.553 60.5262 446.151 60.9355 445.707 61.2995C445.489 61.4849 445.275 61.6808 445.05 61.8608C444.822 62.0382 444.594 62.2168 444.365 62.3955C444.139 62.5795 443.899 62.7448 443.659 62.9115C443.418 63.0795 443.186 63.2488 442.937 63.4155C442.421 63.7435 441.903 64.0715 441.383 64.4022C441.121 64.5649 440.865 64.7408 440.597 64.8942C440.33 65.0475 440.061 65.2008 439.791 65.3555C439.522 65.5088 439.253 65.6635 438.982 65.8195C438.711 65.9742 438.441 66.1329 438.161 66.2675C437.605 66.5502 437.046 66.8342 436.483 67.1195C435.918 67.3942 435.334 67.6315 434.757 67.8915C434.183 68.1635 433.585 68.3742 432.987 68.5968C432.69 68.7088 432.39 68.8209 432.09 68.9329C431.791 69.0489 431.481 69.1262 431.175 69.2248C430.869 69.3195 430.562 69.4142 430.253 69.5088C429.946 69.6062 429.637 69.7022 429.321 69.7715C428.691 69.9248 428.061 70.0782 427.427 70.2329C426.783 70.3515 426.138 70.4702 425.491 70.5902C425.169 70.6582 424.839 70.6902 424.511 70.7342C424.182 70.7769 423.853 70.8195 423.523 70.8622C420.878 71.1688 418.159 71.2902 415.395 71.2408C414.706 71.2395 414.01 71.1968 413.315 71.1768L412.27 71.1395L411.221 71.0755C410.521 71.0302 409.819 70.9862 409.115 70.9408C408.809 70.9142 408.502 70.8875 408.194 70.8608C408.007 70.7315 407.803 70.6035 407.561 70.4875C406.827 70.1208 405.858 69.8675 404.763 69.6115C403.671 69.3808 402.467 68.9448 401.117 68.5462C398.418 67.7408 395.309 66.4782 391.929 64.9515C388.607 63.3088 384.991 61.3289 381.187 59.2355C376.014 56.4075 371.098 53.8502 366.798 51.8689C364.631 50.9115 362.661 50.0182 360.866 49.3555C359.977 49.0115 359.146 48.6915 358.381 48.3968C357.602 48.1382 356.89 47.9022 356.25 47.6915C355.635 47.4128 354.95 47.1035 354.202 46.7648C353.451 46.4302 352.629 46.1009 351.75 45.7329C349.989 45.0102 347.99 44.1955 345.774 43.3702C341.349 41.7328 336.055 39.9502 330.149 39.0462C327.977 38.7355 325.841 38.5008 323.766 38.4768C322.73 38.4235 321.71 38.4862 320.714 38.4982C320.215 38.5182 319.723 38.5648 319.237 38.5982C318.75 38.6422 318.27 38.6542 317.795 38.7355C314.387 39.1289 311.406 40.0328 308.907 40.9302C308.374 40.9702 307.85 41.0222 307.33 41.0835C308.423 40.5928 309.71 40.0662 311.187 39.5462C311.509 39.4342 311.838 39.3182 312.174 39.1995C312.514 39.0928 312.861 38.9822 313.217 38.8702C313.921 38.6342 314.67 38.4408 315.435 38.2155C316.981 37.8102 318.635 37.3995 320.395 37.0822C322.154 36.7648 324.009 36.4995 325.93 36.3689C326.891 36.3049 327.859 36.2782 328.853 36.2982C329.351 36.3142 329.853 36.3315 330.358 36.3488C330.863 36.3702 331.373 36.4195 331.885 36.4528C337.457 36.8968 342.623 38.0822 346.998 39.2329C351.37 40.4195 354.967 41.5915 357.43 42.4195C358.605 42.9835 360.063 43.6382 361.701 44.4875C363.339 45.3315 365.198 46.2755 367.234 47.2902C369.23 48.3955 371.395 49.5888 373.698 50.8248C375.967 52.1328 378.358 53.5102 380.829 54.9342C382.634 56.0089 384.403 57.0449 386.119 58.0342C387.797 59.0155 389.354 60.0915 390.849 61.1342C392.341 62.1782 393.763 63.1862 395.119 64.1009C396.474 65.0169 397.774 65.8248 398.982 66.5248C401.411 67.9075 403.527 68.7422 405.022 69.1515C405.398 69.2488 405.727 69.3448 406.018 69.4102C406.31 69.4622 406.558 69.5062 406.759 69.5422C407.158 69.6102 407.367 69.6462 407.367 69.6462C407.367 69.6462 407.165 69.5822 406.778 69.4568C406.586 69.3955 406.349 69.3195 406.067 69.2302C405.79 69.1275 405.475 68.9928 405.121 68.8515C403.705 68.2675 401.746 67.2262 399.498 65.6622C398.379 64.8688 397.174 63.9728 395.899 62.9715C394.622 61.9608 393.257 60.8822 391.822 59.7475C390.37 58.6195 388.81 57.4435 387.085 56.3675C385.386 55.3249 383.621 54.2555 381.805 53.1742C379.323 51.7262 376.862 50.4235 374.546 49.1689C372.177 48.0075 369.931 46.9235 367.854 45.9502C365.733 45.0662 363.79 44.2715 362.074 43.5822C360.359 42.8862 358.835 42.3888 357.605 41.9622C355.241 40.8528 351.755 39.3128 347.41 37.8115C343.063 36.3488 337.826 34.8969 332.034 34.4328C331.502 34.3982 330.974 34.3502 330.447 34.3315C329.919 34.3195 329.395 34.3062 328.874 34.2955C327.829 34.2902 326.787 34.3408 325.782 34.4368C323.766 34.6315 321.855 34.9862 320.058 35.4088C318.262 35.8315 316.59 36.3608 315.042 36.8915C314.274 37.1795 313.527 37.4368 312.829 37.7368C312.477 37.8822 312.133 38.0235 311.797 38.1635C311.465 38.3142 311.139 38.4608 310.823 38.6062C308.765 39.5488 307.109 40.4982 305.87 41.2955C304.999 41.4448 304.153 41.6302 303.339 41.8635C301.902 42.2795 300.57 42.8648 299.418 43.6302C299.525 43.8088 299.621 43.9995 299.693 44.2128C299.706 44.2488 299.722 44.2782 299.735 44.3128C300.843 43.6102 302.142 43.0782 303.561 42.7115C303.691 42.6782 303.829 42.6528 303.961 42.6222C303.838 42.7168 303.725 42.8048 303.63 42.8795C303.51 42.9715 303.419 43.0435 303.343 43.1022C302.757 43.3369 302.223 43.5502 301.762 43.7355C300.842 44.0835 300.177 44.3355 299.803 44.4768C299.81 44.4928 299.815 44.5075 299.822 44.5222C300.211 44.4288 300.901 44.2648 301.855 44.0368C302.622 43.8262 303.559 43.5675 304.646 43.2675C305.73 42.9595 306.962 42.6075 308.323 42.2195C308.646 42.1302 308.978 42.0395 309.317 41.9502C313.094 41.8088 317.209 42.2702 321.49 43.2435Z" fill="url(#paint8_linear_150_12339)"/>
<path d="M345.28 36.8462C345.723 36.9902 346.165 37.1302 346.608 37.2715C347 37.4022 347.4 37.5035 347.796 37.6222C348.192 37.7315 348.587 37.8582 348.987 37.9555C349.785 38.1542 350.579 38.3729 351.383 38.5329C351.784 38.6169 352.183 38.7115 352.584 38.7875C352.987 38.8582 353.388 38.9289 353.791 38.9995C353.992 39.0329 354.191 39.0742 354.393 39.1022L354.997 39.1822C355.4 39.2342 355.801 39.2875 356.204 39.3409C356.611 39.3835 357.019 39.4249 357.425 39.4675C357.832 39.5102 358.239 39.5515 358.643 39.5822C358.739 39.5902 358.833 39.5995 358.928 39.6075C358.917 39.6035 358.909 39.5982 358.897 39.5955C358.547 39.4689 358.104 39.3929 357.593 39.3262C358.047 39.3742 358.504 39.4102 358.969 39.4289C359.107 39.4955 359.223 39.5675 359.329 39.6409C359.504 39.6569 359.68 39.6715 359.856 39.6862C360.259 39.7129 360.661 39.7382 361.063 39.7635L361.664 39.8009L362.263 39.8222C362.661 39.8329 363.06 39.8582 363.455 39.8582C365.039 39.8875 366.597 39.8182 368.112 39.6422C368.301 39.6169 368.491 39.5929 368.679 39.5689C368.867 39.5435 369.056 39.5249 369.241 39.4849C369.612 39.4169 369.981 39.3489 370.349 39.2809C370.713 39.1929 371.075 39.1049 371.436 39.0169C371.616 38.9769 371.793 38.9222 371.969 38.8662C372.147 38.8115 372.323 38.7569 372.497 38.7035C372.673 38.6462 372.851 38.6022 373.023 38.5355C373.193 38.4715 373.365 38.4075 373.536 38.3435C373.879 38.2155 374.221 38.0955 374.551 37.9395C374.881 37.7902 375.216 37.6542 375.54 37.4969C375.861 37.3329 376.183 37.1702 376.501 37.0089C376.663 36.9315 376.816 36.8409 376.971 36.7515C377.127 36.6635 377.281 36.5742 377.436 36.4862C377.589 36.3969 377.744 36.3089 377.897 36.2209C378.051 36.1342 378.197 36.0329 378.348 35.9395C378.645 35.7502 378.943 35.5622 379.237 35.3742C379.381 35.2795 379.515 35.1809 379.652 35.0849C379.789 34.9902 379.927 34.8955 380.056 34.7902C380.188 34.6875 380.319 34.5849 380.448 34.4835C380.579 34.3795 380.7 34.2689 380.825 34.1622C381.08 33.9529 381.309 33.7182 381.547 33.4969C382.004 33.0342 382.44 32.5609 382.824 32.0582C383.221 31.5649 383.561 31.0409 383.885 30.5209C384.189 29.9889 384.48 29.4595 384.708 28.9142C384.952 28.3755 385.135 27.8249 385.304 27.2835C385.372 27.0089 385.453 26.7395 385.508 26.4689C385.56 26.1955 385.625 25.9289 385.656 25.6609C385.813 24.5889 385.821 23.5515 385.699 22.5862C385.579 21.6209 385.328 20.7289 384.993 19.9315C384.66 19.1342 384.244 18.4329 383.808 17.8169C383.379 17.1942 382.859 16.6422 382.324 16.1142C382.184 15.9875 382.045 15.8595 381.907 15.7329C381.839 15.6662 381.768 15.6102 381.697 15.5542L381.487 15.3862C381.349 15.2689 381.197 15.1702 381.049 15.0662L380.828 14.9115L380.596 14.7702C379.979 14.3915 379.323 14.0729 378.64 13.8235C377.96 13.5729 377.263 13.3662 376.555 13.2235C375.139 12.9355 373.701 12.8422 372.301 12.9169C371.601 12.9555 370.909 13.0275 370.235 13.1515C369.896 13.2035 369.564 13.2835 369.233 13.3555C369.068 13.3915 368.907 13.4409 368.744 13.4822C368.58 13.5262 368.417 13.5662 368.26 13.6209C365.699 14.3835 363.492 15.8102 362.073 17.6609C361.989 17.7795 361.905 17.8969 361.823 18.0142L361.697 18.1915L361.587 18.3742C361.513 18.4955 361.44 18.6169 361.367 18.7369C361.304 18.8622 361.241 18.9875 361.179 19.1115L361.084 19.2982C361.056 19.3609 361.032 19.4262 361.005 19.4889C360.953 19.6169 360.903 19.7435 360.851 19.8702C360.807 19.9995 360.768 20.1302 360.727 20.2582L360.664 20.4515C360.647 20.5155 360.635 20.5822 360.619 20.6462C360.588 20.7769 360.557 20.9075 360.527 21.0369C360.508 21.1675 360.488 21.2982 360.468 21.4275L360.439 21.6222L360.425 21.8169C360.416 21.9475 360.407 22.0755 360.397 22.2049C360.399 22.3329 360.399 22.4622 360.4 22.5889C360.4 22.6529 360.399 22.7169 360.401 22.7795L360.417 22.9702C360.428 23.0955 360.439 23.2209 360.448 23.3462C360.468 23.4689 360.488 23.5915 360.507 23.7142C360.517 23.7755 360.525 23.8369 360.536 23.8969L360.579 24.0755C360.607 24.1942 360.635 24.3129 360.663 24.4315C360.699 24.5462 360.736 24.6609 360.772 24.7755L360.825 24.9462C360.845 25.0022 360.868 25.0555 360.889 25.1102C360.933 25.2209 360.977 25.3302 361.02 25.4382C361.067 25.5462 361.12 25.6475 361.169 25.7515C361.263 25.9622 361.385 26.1542 361.496 26.3489C361.957 27.1182 362.547 27.7395 363.163 28.2262C363.781 28.7115 364.44 29.0515 365.08 29.2702C365.72 29.4849 366.34 29.6009 366.905 29.6169C366.975 29.6209 367.045 29.6275 367.113 29.6302C367.183 29.6275 367.251 29.6262 367.317 29.6249C367.452 29.6222 367.581 29.6195 367.709 29.6182C367.784 29.6102 367.855 29.6035 367.927 29.5955C366.848 29.0595 366.159 27.8755 366.291 26.5822C366.46 24.9329 367.901 23.7355 369.509 23.9102C371.117 24.0822 372.284 25.5609 372.115 27.2102C371.964 28.6862 370.793 29.7969 369.396 29.8902C369.331 29.9209 369.265 29.9529 369.193 29.9862C368.999 30.0555 368.789 30.1315 368.565 30.2115C368.333 30.2809 368.079 30.3382 367.805 30.4049C367.667 30.4249 367.523 30.4462 367.376 30.4689C367.301 30.4795 367.225 30.4902 367.149 30.5009C367.072 30.5075 366.995 30.5102 366.913 30.5142C366.277 30.5689 365.556 30.5115 364.789 30.3289C364.024 30.1409 363.213 29.8035 362.439 29.2795C361.665 28.7555 360.916 28.0569 360.309 27.1675C360.163 26.9435 360.004 26.7195 359.877 26.4715C359.811 26.3502 359.739 26.2302 359.676 26.1035C359.617 25.9755 359.557 25.8462 359.497 25.7169C359.468 25.6515 359.437 25.5862 359.409 25.5209L359.333 25.3169C359.283 25.1809 359.233 25.0435 359.181 24.9062C359.14 24.7635 359.1 24.6209 359.057 24.4782L358.996 24.2622C358.979 24.1889 358.965 24.1142 358.949 24.0409C358.919 23.8915 358.888 23.7422 358.857 23.5915C358.835 23.4409 358.817 23.2862 358.797 23.1329L358.768 22.8995C358.761 22.8222 358.76 22.7435 358.755 22.6649C358.748 22.5075 358.74 22.3489 358.733 22.1902C358.737 22.0302 358.741 21.8702 358.745 21.7089L358.753 21.4662L358.78 21.2235C358.799 21.0609 358.816 20.8982 358.835 20.7342C358.865 20.5729 358.896 20.4102 358.928 20.2475C358.944 20.1649 358.959 20.0822 358.977 20.0009L359.043 19.7582C359.088 19.5969 359.132 19.4342 359.18 19.2715C359.239 19.1129 359.296 18.9529 359.355 18.7929C359.385 18.7129 359.412 18.6315 359.444 18.5515L359.552 18.3182C359.624 18.1622 359.696 18.0049 359.769 17.8475C359.853 17.6969 359.937 17.5462 360.023 17.3929L360.151 17.1649L360.293 16.9462C360.389 16.8022 360.487 16.6555 360.584 16.5102C361.003 15.9475 361.453 15.3915 361.977 14.9035C362.228 14.6435 362.509 14.4222 362.783 14.1835C362.924 14.0689 363.071 13.9635 363.215 13.8529C363.359 13.7409 363.504 13.6315 363.659 13.5342C363.809 13.4329 363.961 13.3315 364.115 13.2289C364.272 13.1355 364.429 13.0422 364.588 12.9475L364.827 12.8075L365.072 12.6795C365.236 12.5955 365.4 12.5102 365.565 12.4249C365.733 12.3475 365.903 12.2715 366.073 12.1942L366.328 12.0795L366.589 11.9769C366.763 11.9089 366.937 11.8369 367.113 11.7715C367.291 11.7115 367.469 11.6502 367.648 11.5902C367.827 11.5262 368.008 11.4742 368.191 11.4222C368.373 11.3715 368.555 11.3142 368.74 11.2689C369.111 11.1809 369.483 11.0849 369.861 11.0195C370.617 10.8675 371.389 10.7742 372.173 10.7182C373.741 10.6102 375.359 10.6929 376.979 11.0062C377.789 11.1622 378.597 11.3915 379.396 11.6795C380.196 11.9662 380.983 12.3395 381.739 12.7982L382.023 12.9689L382.297 13.1582C382.481 13.2849 382.667 13.4089 382.841 13.5542L383.107 13.7649C383.196 13.8342 383.284 13.9062 383.363 13.9809C383.525 14.1289 383.688 14.2769 383.852 14.4262C384.484 15.0435 385.1 15.7022 385.62 16.4529C386.148 17.1942 386.653 18.0529 387.059 19.0329C387.465 20.0129 387.769 21.1142 387.911 22.2969C388.196 24.6569 387.829 27.3315 386.688 29.8355C386.415 30.4689 386.075 31.0782 385.716 31.6862C385.339 32.2822 384.94 32.8795 384.48 33.4395C384.033 34.0089 383.531 34.5449 383.003 35.0649C382.731 35.3155 382.465 35.5782 382.173 35.8129C382.029 35.9329 381.888 36.0569 381.74 36.1742C381.591 36.2875 381.44 36.4022 381.289 36.5169C381.14 36.6342 380.983 36.7409 380.825 36.8475C380.668 36.9542 380.511 37.0662 380.353 37.1675C380.039 37.3622 379.721 37.5582 379.404 37.7542C379.244 37.8515 379.088 37.9542 378.924 38.0462C378.759 38.1382 378.593 38.2302 378.428 38.3222C378.263 38.4142 378.096 38.5062 377.929 38.5995C377.763 38.6929 377.597 38.7862 377.423 38.8675C377.077 39.0369 376.731 39.2075 376.383 39.3782C376.031 39.5435 375.667 39.6875 375.307 39.8435C374.949 40.0035 374.576 40.1315 374.201 40.2649C374.016 40.3315 373.828 40.3982 373.641 40.4662C373.455 40.5342 373.26 40.5822 373.069 40.6395C372.877 40.6955 372.685 40.7529 372.493 40.8089C372.3 40.8662 372.107 40.9222 371.911 40.9635C371.519 41.0529 371.125 41.1422 370.729 41.2315C370.332 41.3009 369.932 41.3675 369.531 41.4355C369.331 41.4742 369.129 41.4915 368.927 41.5169C368.725 41.5395 368.523 41.5622 368.32 41.5862C366.699 41.7489 365.055 41.7955 363.412 41.7409C363.001 41.7329 362.592 41.7009 362.18 41.6835L361.563 41.6515L360.945 41.6035C360.535 41.5702 360.124 41.5369 359.711 41.5049C359.301 41.4622 358.889 41.4209 358.477 41.3782C358.064 41.3395 357.653 41.2915 357.243 41.2409C356.831 41.1915 356.419 41.1422 356.005 41.0929C355.589 41.0302 355.173 40.9689 354.756 40.9062L354.131 40.8115C353.921 40.7795 353.716 40.7342 353.508 40.6955C353.093 40.6155 352.679 40.5355 352.264 40.4555C351.849 40.3702 351.44 40.2662 351.028 40.1715C350.2 39.9915 349.389 39.7529 348.572 39.5342C348.163 39.4262 347.763 39.2915 347.357 39.1715C346.955 39.0435 346.547 38.9315 346.149 38.7902C345.349 38.5195 344.548 38.2582 343.76 37.9609C343.207 37.7622 342.661 37.5475 342.113 37.3355C342.08 36.9889 342.039 36.6435 342 36.2982C343.089 36.5075 344.183 36.6929 345.28 36.8462Z" fill="url(#paint9_linear_150_12339)"/>
<path d="M305.514 77.7605C305.461 77.7098 305.409 77.6605 305.36 77.6098C305.396 77.6178 305.432 77.6299 305.469 77.6352C305.484 77.6779 305.498 77.7192 305.514 77.7605ZM289.882 81.8938C291.825 89.4498 297.348 97.5218 306.965 97.5205C317.137 97.5205 325.968 90.9378 323.298 81.1032C320.908 72.2965 311.594 66.5965 302.262 71.1752C301.797 71.4045 301.449 71.7978 301.354 72.2458C301.2 72.4538 301.088 72.6938 301.005 72.9512C298.869 76.4378 301.945 81.3498 306.33 83.2525C309.62 84.6805 314.133 85.4552 317.388 84.1258C318.056 86.7872 317.594 89.8525 315.817 91.4818C315.164 92.0805 314.902 92.4592 315.009 93.0339C314.496 93.2792 313.949 93.4938 313.368 93.6712C309.478 94.8525 304.729 95.2539 301.032 93.1312C292.634 88.3085 291.269 77.1352 292.49 69.1365C294.057 58.8752 301.593 49.7872 313.64 48.3272C314.27 48.2512 314.897 48.2045 315.521 48.1765C315.665 48.2338 315.821 48.2805 316 48.3032C322.322 49.0472 329.292 51.1725 333.516 55.8165C337.058 59.7112 341.266 65.6792 338.284 70.2165C335.436 74.5512 339.53 72.8432 340.802 71.8938C343.717 69.7152 344.594 66.5565 344.92 63.2979C348.384 68.8845 352.261 75.0858 359.294 77.0605C366.105 78.9725 374.341 78.9792 380.088 74.9325C380.849 74.3979 381.22 73.4765 380.785 72.9138C380.769 72.2632 379.898 71.7885 378.96 71.7525C370.598 71.4338 363.062 67.5538 356.221 63.3872C349.001 58.9872 342.152 54.0512 334.55 50.1898C328.08 46.9018 320.529 44.3592 313.082 45.4672C305.784 46.5539 297.981 50.6205 294.01 56.3299C288.948 63.6085 287.714 73.4632 289.882 81.8938Z" fill="url(#paint10_linear_150_12339)"/>
<path d="M475.551 18.3458C475.551 18.3458 479.344 29.0245 475.551 34.0898C475.551 34.0898 537.091 19.5658 580.505 18.3458H475.551Z" fill="url(#paint11_linear_150_12339)"/>
<path d="M105.549 18.3458C105.549 18.3458 101.754 29.0245 105.549 34.0898C105.549 34.0898 44.0087 19.5658 0.59375 18.3458H105.549Z" fill="url(#paint12_linear_150_12339)"/>
<defs>
<linearGradient id="paint0_linear_150_12339" x1="162.025" y1="191.198" x2="510.794" y2="-27.2228" gradientUnits="userSpaceOnUse">
<stop stop-color="#EEDEBC"/>
<stop offset="0.150732" stop-color="#EEDEBC"/>
<stop offset="0.573161" stop-color="#C9A885"/>
<stop offset="0.612903" stop-color="#C9A885"/>
<stop offset="0.613741" stop-color="#C9A885"/>
<stop offset="0.72043" stop-color="#9A7A5F"/>
<stop offset="0.721351" stop-color="#9A7A5F"/>
<stop offset="0.83871" stop-color="#C9A885"/>
<stop offset="0.999958" stop-color="#EEDEBC"/>
<stop offset="1" stop-color="#EEDEBC"/>
</linearGradient>
<linearGradient id="paint1_linear_150_12339" x1="130.478" y1="140.827" x2="479.247" y2="-77.594" gradientUnits="userSpaceOnUse">
<stop stop-color="#EEDEBC"/>
<stop offset="0.150732" stop-color="#EEDEBC"/>
<stop offset="0.573161" stop-color="#C9A885"/>
<stop offset="0.612903" stop-color="#C9A885"/>
<stop offset="0.613741" stop-color="#C9A885"/>
<stop offset="0.72043" stop-color="#9A7A5F"/>
<stop offset="0.721351" stop-color="#9A7A5F"/>
<stop offset="0.83871" stop-color="#C9A885"/>
<stop offset="0.999958" stop-color="#EEDEBC"/>
<stop offset="1" stop-color="#EEDEBC"/>
</linearGradient>
<linearGradient id="paint2_linear_150_12339" x1="122.409" y1="127.945" x2="471.178" y2="-90.4764" gradientUnits="userSpaceOnUse">
<stop stop-color="#EEDEBC"/>
<stop offset="0.150732" stop-color="#EEDEBC"/>
<stop offset="0.573161" stop-color="#C9A885"/>
<stop offset="0.612903" stop-color="#C9A885"/>
<stop offset="0.613741" stop-color="#C9A885"/>
<stop offset="0.72043" stop-color="#9A7A5F"/>
<stop offset="0.721351" stop-color="#9A7A5F"/>
<stop offset="0.83871" stop-color="#C9A885"/>
<stop offset="0.999958" stop-color="#EEDEBC"/>
<stop offset="1" stop-color="#EEDEBC"/>
</linearGradient>
<linearGradient id="paint3_linear_150_12339" x1="120.894" y1="125.523" x2="469.663" y2="-92.8982" gradientUnits="userSpaceOnUse">
<stop stop-color="#EEDEBC"/>
<stop offset="0.150732" stop-color="#EEDEBC"/>
<stop offset="0.573161" stop-color="#C9A885"/>
<stop offset="0.612903" stop-color="#C9A885"/>
<stop offset="0.613741" stop-color="#C9A885"/>
<stop offset="0.72043" stop-color="#9A7A5F"/>
<stop offset="0.721351" stop-color="#9A7A5F"/>
<stop offset="0.83871" stop-color="#C9A885"/>
<stop offset="0.999958" stop-color="#EEDEBC"/>
<stop offset="1" stop-color="#EEDEBC"/>
</linearGradient>
<linearGradient id="paint4_linear_150_12339" x1="136.013" y1="149.666" x2="484.782" y2="-68.755" gradientUnits="userSpaceOnUse">
<stop stop-color="#EEDEBC"/>
<stop offset="0.150732" stop-color="#EEDEBC"/>
<stop offset="0.573161" stop-color="#C9A885"/>
<stop offset="0.612903" stop-color="#C9A885"/>
<stop offset="0.613741" stop-color="#C9A885"/>
<stop offset="0.72043" stop-color="#9A7A5F"/>
<stop offset="0.721351" stop-color="#9A7A5F"/>
<stop offset="0.83871" stop-color="#C9A885"/>
<stop offset="0.999958" stop-color="#EEDEBC"/>
<stop offset="1" stop-color="#EEDEBC"/>
</linearGradient>
<linearGradient id="paint5_linear_150_12339" x1="103.305" y1="97.4382" x2="452.075" y2="-120.983" gradientUnits="userSpaceOnUse">
<stop stop-color="#EEDEBC"/>
<stop offset="0.150732" stop-color="#EEDEBC"/>
<stop offset="0.573161" stop-color="#C9A885"/>
<stop offset="0.612903" stop-color="#C9A885"/>
<stop offset="0.613741" stop-color="#C9A885"/>
<stop offset="0.72043" stop-color="#9A7A5F"/>
<stop offset="0.721351" stop-color="#9A7A5F"/>
<stop offset="0.83871" stop-color="#C9A885"/>
<stop offset="0.999958" stop-color="#EEDEBC"/>
<stop offset="1" stop-color="#EEDEBC"/>
</linearGradient>
<linearGradient id="paint6_linear_150_12339" x1="102.442" y1="96.0622" x2="451.211" y2="-122.359" gradientUnits="userSpaceOnUse">
<stop stop-color="#EEDEBC"/>
<stop offset="0.150732" stop-color="#EEDEBC"/>
<stop offset="0.573161" stop-color="#C9A885"/>
<stop offset="0.612903" stop-color="#C9A885"/>
<stop offset="0.613741" stop-color="#C9A885"/>
<stop offset="0.72043" stop-color="#9A7A5F"/>
<stop offset="0.721351" stop-color="#9A7A5F"/>
<stop offset="0.83871" stop-color="#C9A885"/>
<stop offset="0.999958" stop-color="#EEDEBC"/>
<stop offset="1" stop-color="#EEDEBC"/>
</linearGradient>
<linearGradient id="paint7_linear_150_12339" x1="135.118" y1="148.235" x2="483.887" y2="-70.1862" gradientUnits="userSpaceOnUse">
<stop stop-color="#EEDEBC"/>
<stop offset="0.150732" stop-color="#EEDEBC"/>
<stop offset="0.573161" stop-color="#C9A885"/>
<stop offset="0.612903" stop-color="#C9A885"/>
<stop offset="0.613741" stop-color="#C9A885"/>
<stop offset="0.72043" stop-color="#9A7A5F"/>
<stop offset="0.721351" stop-color="#9A7A5F"/>
<stop offset="0.83871" stop-color="#C9A885"/>
<stop offset="0.999958" stop-color="#EEDEBC"/>
<stop offset="1" stop-color="#EEDEBC"/>
</linearGradient>
<linearGradient id="paint8_linear_150_12339" x1="159.991" y1="187.953" x2="508.761" y2="-30.4684" gradientUnits="userSpaceOnUse">
<stop stop-color="#EEDEBC"/>
<stop offset="0.150732" stop-color="#EEDEBC"/>
<stop offset="0.573161" stop-color="#C9A885"/>
<stop offset="0.612903" stop-color="#C9A885"/>
<stop offset="0.613741" stop-color="#C9A885"/>
<stop offset="0.72043" stop-color="#9A7A5F"/>
<stop offset="0.721351" stop-color="#9A7A5F"/>
<stop offset="0.83871" stop-color="#C9A885"/>
<stop offset="0.999958" stop-color="#EEDEBC"/>
<stop offset="1" stop-color="#EEDEBC"/>
</linearGradient>
<linearGradient id="paint9_linear_150_12339" x1="146.569" y1="166.523" x2="495.339" y2="-51.8979" gradientUnits="userSpaceOnUse">
<stop stop-color="#EEDEBC"/>
<stop offset="0.150732" stop-color="#EEDEBC"/>
<stop offset="0.573161" stop-color="#C9A885"/>
<stop offset="0.612903" stop-color="#C9A885"/>
<stop offset="0.613741" stop-color="#C9A885"/>
<stop offset="0.72043" stop-color="#9A7A5F"/>
<stop offset="0.721351" stop-color="#9A7A5F"/>
<stop offset="0.83871" stop-color="#C9A885"/>
<stop offset="0.999958" stop-color="#EEDEBC"/>
<stop offset="1" stop-color="#EEDEBC"/>
</linearGradient>
<linearGradient id="paint10_linear_150_12339" x1="154.397" y1="179.02" x2="503.166" y2="-39.4008" gradientUnits="userSpaceOnUse">
<stop stop-color="#EEDEBC"/>
<stop offset="0.150732" stop-color="#EEDEBC"/>
<stop offset="0.573161" stop-color="#C9A885"/>
<stop offset="0.612903" stop-color="#C9A885"/>
<stop offset="0.613741" stop-color="#C9A885"/>
<stop offset="0.72043" stop-color="#9A7A5F"/>
<stop offset="0.721351" stop-color="#9A7A5F"/>
<stop offset="0.83871" stop-color="#C9A885"/>
<stop offset="0.999958" stop-color="#EEDEBC"/>
<stop offset="1" stop-color="#EEDEBC"/>
</linearGradient>
<linearGradient id="paint11_linear_150_12339" x1="187.378" y1="231.682" x2="536.147" y2="13.2609" gradientUnits="userSpaceOnUse">
<stop stop-color="#EEDEBC"/>
<stop offset="0.150732" stop-color="#EEDEBC"/>
<stop offset="0.573161" stop-color="#C9A885"/>
<stop offset="0.612903" stop-color="#C9A885"/>
<stop offset="0.613741" stop-color="#C9A885"/>
<stop offset="0.72043" stop-color="#9A7A5F"/>
<stop offset="0.721351" stop-color="#9A7A5F"/>
<stop offset="0.83871" stop-color="#C9A885"/>
<stop offset="0.999958" stop-color="#EEDEBC"/>
<stop offset="1" stop-color="#EEDEBC"/>
</linearGradient>
<linearGradient id="paint12_linear_150_12339" x1="57.1153" y1="23.6845" x2="405.885" y2="-194.737" gradientUnits="userSpaceOnUse">
<stop stop-color="#EEDEBC"/>
<stop offset="0.150732" stop-color="#EEDEBC"/>
<stop offset="0.573161" stop-color="#C9A885"/>
<stop offset="0.612903" stop-color="#C9A885"/>
<stop offset="0.613741" stop-color="#C9A885"/>
<stop offset="0.72043" stop-color="#9A7A5F"/>
<stop offset="0.721351" stop-color="#9A7A5F"/>
<stop offset="0.83871" stop-color="#C9A885"/>
<stop offset="0.999958" stop-color="#EEDEBC"/>
<stop offset="1" stop-color="#EEDEBC"/>
</linearGradient>
</defs>
</svg>
