<svg width="566" height="143" viewBox="0 0 566 143" fill="none" xmlns="http://www.w3.org/2000/svg">
<path fill-rule="evenodd" clip-rule="evenodd" d="M492.06 60.0851C489.922 60.0851 488.185 58.3512 488.185 56.2172C488.185 54.0801 489.922 52.3431 492.06 52.3431C494.194 52.3431 495.932 54.0801 495.932 56.2172C495.932 58.3512 494.194 60.0851 492.06 60.0851ZM492.085 50.9412C488.988 50.9412 486.469 53.4598 486.469 56.5553C486.469 59.6508 488.988 62.1694 492.085 62.1694C495.184 62.1694 497.7 59.6508 497.7 56.5553C497.7 53.4598 495.184 50.9412 492.085 50.9412Z" fill="#C9A885"/>
<path fill-rule="evenodd" clip-rule="evenodd" d="M339.258 110.839C338.283 113.255 338.899 116.082 338.899 116.082C330.223 106.016 317.526 109.761 312.951 111.389C308.377 113.017 310.027 116.475 312.359 115.084C314.691 113.694 314.309 112.404 314.309 112.404C314.701 112.006 315.648 111.707 316.915 111.682C325.307 110.181 333.608 117.196 343.538 122.602C344.666 123.213 347.031 124.332 350.322 125.493C343.141 124.147 337.475 122.353 334.965 120.654C329.697 117.091 324.097 113.595 320.373 114.001C322.03 115.101 325.432 117.373 326.921 119.661C332.133 127.688 337.651 125.336 337.651 125.336C329.242 128.942 332.299 139.663 336.876 142.858C332.546 130.451 362.394 132.314 382.962 129.172C392.748 128.144 412.189 124.802 428.026 108.714C377.342 144.03 339.258 110.839 339.258 110.839Z" fill="#C9A885"/>
<path fill-rule="evenodd" clip-rule="evenodd" d="M490.22 73.8491C490.22 73.8491 483.456 65.1293 468.136 68.7881C468.136 68.7881 483.938 61.6737 490.22 73.8491ZM300.818 85.2734C308.361 73.8353 323.316 82.5862 323.316 82.5862C308.473 77.3184 300.818 85.2734 300.818 85.2734ZM529.084 12.8722C508.558 15.3631 490.496 34.5943 477.062 48.699C473.918 51.9996 470.834 55.3655 467.752 58.7418C469.206 54.8281 469.759 50.6835 468.813 46.3563C467.006 38.0774 457.726 33.7227 449.96 35.0904C441.368 36.6029 437.328 45.1746 439.783 52.9436C442.112 60.306 451.345 60.7711 455.978 56.5128C459.06 53.6808 455.313 50.5181 453.366 52.9505C446.216 61.8598 437.252 48.5268 444.238 40.7372C448.842 35.5969 456.708 37.0404 461.534 40.9921C472.891 50.2942 460.643 66.4936 453.64 73.8974C453.23 74.3211 452.82 74.7449 452.406 75.1686L451.588 74.4693C450.785 73.7802 449.576 73.8767 448.888 74.6794C448.199 75.4821 448.294 76.6914 449.097 77.377L449.686 77.88C441.778 85.6559 433.334 92.815 423.607 98.4962C399.232 112.739 368.757 115.409 346.207 96.5221C329.145 82.2348 322.535 59.1622 329.721 38.639L331.339 39.1765C332.341 39.5141 333.426 38.9697 333.762 37.9706C334.098 36.9681 333.558 35.8794 332.554 35.5486L331.214 35.0973C335.626 28.0967 343.269 22.4465 351.157 20.5447C358.063 18.8772 365.382 20.7411 369.135 26.977C374.952 36.6442 360.626 47.5277 352.565 40.1136C350.574 38.2773 348.407 41.3056 349.78 42.6699C362.061 54.8419 380.356 37.1851 370.297 24.6067C362.002 14.2331 347.589 17.1926 337.379 24.5446C350.671 7.76644 375.107 -0.267822 395.493 6.02314C414.708 11.9524 425.004 40.4856 405.686 52.0168C402.069 54.1804 404.519 57.7599 407.97 56.0752C418.395 50.9866 421.948 40.0584 420.039 28.9476C417.772 15.7387 407.684 6.23331 394.313 2.52281C367.041 -5.04633 339.778 9.4339 328.768 33.3196C328.595 33.5849 328.426 33.8467 328.267 34.1154L327.578 33.8846C326.574 33.547 325.489 34.0879 325.154 35.0904C324.818 36.093 325.359 37.1782 326.361 37.5124L326.961 37.7122C324.174 45.4467 323.024 54.0047 324.028 63.0242C325.003 71.7716 328.006 80.4777 332.585 88.2019C331.855 87.4956 331.062 86.7342 330.125 85.8591C319.596 76.0196 306.873 75.0481 300.572 83.7162C294.272 92.3844 301.624 96.6909 304.547 94.9235C307.468 93.1561 303.451 91.3233 302.097 92.126C300.744 92.9287 297.791 89.5524 300.067 87.0581C302.345 84.5638 305.567 87.0408 309.624 88.8289C313.676 90.6135 317.853 83.5956 324.442 85.3906C328.577 86.5103 332.619 89.797 335.058 92.0915C339.728 98.8132 345.668 104.57 352.559 108.622C371.332 119.66 394.056 117.069 413.337 109.039C427.888 102.985 440.667 91.7987 452.165 79.9988L453.085 80.7878C453.888 81.4734 455.099 81.3804 455.785 80.5776C456.474 79.7749 456.379 78.5656 455.576 77.88L454.97 77.3598C457.573 75.334 462.218 72.1748 466.718 71.4513C473.461 70.3729 476.869 77.7905 481.087 76.4468C485.313 75.0997 488.78 72.9844 490.778 75.7026C492.777 78.4209 489.483 81.4699 488.221 80.5259C486.96 79.582 482.77 80.9807 485.487 83.0513C488.207 85.115 495.972 81.6146 490.63 72.3263C485.287 63.0311 472.533 62.6522 461.017 71.3169C460.188 71.9405 459.458 72.502 458.776 73.0292C461.718 69.8596 464.578 66.7072 467.359 63.6616C483.752 45.7051 502.33 22.6842 526.878 16.3106C546.384 11.2496 569.536 26.6014 559.242 47.9514C555.951 54.7764 547.897 57.7324 540.787 56.561C530.635 54.8763 531.048 43.2315 534.753 37.3643C537.596 32.8579 530.421 32.5375 529.921 35.8759C525.627 47.6689 530.087 58.8624 543.524 59.8753C557.929 60.9606 567.227 46.1909 564.622 33.4781C561.269 17.1236 543.1 11.1703 529.084 12.8722Z" fill="#C9A885"/>
<path fill-rule="evenodd" clip-rule="evenodd" d="M472.619 43.54C472.619 43.54 476.657 35.3599 478.456 25.989C480.257 16.618 470.965 15.8286 470.965 15.8286C476.853 25.1862 472.619 43.54 472.619 43.54Z" fill="#C9A885"/>
<path fill-rule="evenodd" clip-rule="evenodd" d="M508.062 11.9628C508.062 11.9628 499.432 11.2301 490.969 18.3658C483.944 24.2837 476.102 43.834 476.102 43.834C493.639 19.4262 508.062 11.9628 508.062 11.9628Z" fill="#C9A885"/>
<path fill-rule="evenodd" clip-rule="evenodd" d="M73.0457 60.0851C75.1835 60.0851 76.9209 58.3512 76.9209 56.2172C76.9209 54.0801 75.1835 52.3431 73.0457 52.3431C70.9111 52.3431 69.1735 54.0801 69.1735 56.2172C69.1735 58.3512 70.9111 60.0851 73.0457 60.0851ZM73.0209 50.9412C76.1173 50.9412 78.6367 53.4598 78.6367 56.5553C78.6367 59.6508 76.1173 62.1694 73.0209 62.1694C69.9213 62.1694 67.405 59.6508 67.405 56.5553C67.405 53.4598 69.9213 50.9412 73.0209 50.9412Z" fill="#C9A885"/>
<path fill-rule="evenodd" clip-rule="evenodd" d="M225.844 110.839C226.818 113.255 226.203 116.082 226.203 116.082C234.879 106.016 247.576 109.761 252.15 111.389C256.724 113.017 255.074 116.475 252.742 115.084C250.41 113.694 250.792 112.404 250.792 112.404C250.4 112.006 249.453 111.707 248.186 111.682C239.795 110.181 231.493 117.196 221.564 122.602C220.435 123.213 218.07 124.332 214.779 125.493C221.96 124.147 227.626 122.353 230.136 120.654C235.404 117.091 241.004 113.595 244.728 114.001C243.071 115.101 239.67 117.373 238.181 119.661C232.969 127.688 227.451 125.336 227.451 125.336C235.859 128.942 232.802 139.663 228.225 142.858C232.556 130.451 202.707 132.314 182.139 129.172C172.353 128.144 152.912 124.802 137.076 108.714C187.76 144.03 225.844 110.839 225.844 110.839Z" fill="#C9A885"/>
<path fill-rule="evenodd" clip-rule="evenodd" d="M74.8814 73.8491C74.8814 73.8491 81.6451 65.1293 96.9655 68.7881C96.9655 68.7881 81.1637 61.6737 74.8814 73.8491ZM264.283 85.2734C256.74 73.8353 241.786 82.5862 241.786 82.5862C256.629 77.3184 264.283 85.2734 264.283 85.2734ZM36.0178 12.8722C56.5438 15.3631 74.6058 34.5943 88.0397 48.699C91.1834 51.9996 94.2674 55.3655 97.3494 58.7418C95.8955 54.8281 95.3423 50.6835 96.2887 46.3563C98.0952 38.0774 107.376 33.7227 115.141 35.0904C123.733 36.6029 127.773 45.1746 125.318 52.9436C122.99 60.306 113.756 60.7711 109.123 56.5128C106.042 53.6808 109.788 50.5181 111.735 52.9505C118.886 61.8598 127.849 48.5268 120.864 40.7372C116.259 35.5969 108.394 37.0404 103.568 40.9921C92.2107 50.2942 104.459 66.4936 111.461 73.8974C111.871 74.3211 112.281 74.7449 112.696 75.1686L113.514 74.4693C114.316 73.7802 115.525 73.8767 116.214 74.6794C116.903 75.4821 116.807 76.6914 116.004 77.377L115.415 77.88C123.323 85.6559 131.768 92.815 141.495 98.4962C165.869 112.739 196.344 115.409 218.895 96.5221C235.956 82.2348 242.566 59.1622 235.38 38.639L233.763 39.1765C232.761 39.5141 231.676 38.9697 231.339 37.9706C231.004 36.9681 231.544 35.8794 232.548 35.5486L233.887 35.0973C229.476 28.0967 221.833 22.4465 213.944 20.5447C207.039 18.8772 199.719 20.7411 195.967 26.977C190.149 36.6442 204.475 47.5277 212.536 40.1136C214.528 38.2773 216.695 41.3056 215.321 42.6699C203.04 54.8419 184.746 37.1851 194.805 24.6067C203.099 14.2331 217.512 17.1926 227.722 24.5446C214.43 7.76644 189.994 -0.267822 169.609 6.02314C150.394 11.9524 140.098 40.4856 159.415 52.0168C163.033 54.1804 160.583 57.7599 157.132 56.0752C146.707 50.9866 143.153 40.0584 145.062 28.9476C147.329 15.7387 157.418 6.23331 170.789 2.52281C198.061 -5.04633 225.323 9.4339 236.334 33.3196C236.507 33.5849 236.675 33.8467 236.835 34.1154L237.524 33.8846C238.527 33.547 239.612 34.0879 239.948 35.0904C240.284 36.093 239.743 37.1782 238.74 37.5124L238.14 37.7122C240.927 45.4467 242.078 54.0047 241.073 63.0242C240.099 71.7716 237.095 80.4777 232.517 88.2019C233.247 87.4956 234.039 86.7342 234.976 85.8591C245.506 76.0196 258.228 75.0481 264.53 83.7162C270.829 92.3844 263.477 96.6909 260.555 94.9235C257.633 93.1561 261.651 91.3233 263.005 92.126C264.358 92.9287 267.31 89.5524 265.034 87.0581C262.756 84.5638 259.535 87.0408 255.477 88.8289C251.426 90.6135 247.248 83.5956 240.659 85.3906C236.524 86.5103 232.482 89.797 230.044 92.0915C225.373 98.8132 219.433 104.57 212.542 108.622C193.769 119.66 171.046 117.069 151.764 109.039C137.214 102.985 124.434 91.7987 112.937 79.9988L112.016 80.7878C111.213 81.4734 110.003 81.3804 109.316 80.5776C108.627 79.7749 108.723 78.5656 109.526 77.88L110.131 77.3598C107.529 75.334 102.883 72.1748 98.3837 71.4513C91.641 70.3729 88.2327 77.7905 84.0141 76.4468C79.7886 75.0997 76.322 72.9844 74.3232 75.7026C72.3243 78.4209 75.6189 81.4699 76.8803 80.5259C78.1416 79.582 82.3316 80.9807 79.6146 83.0513C76.8941 85.115 69.1296 81.6146 74.4714 72.3263C79.8148 63.0311 92.5681 62.6522 104.085 71.3169C104.914 71.9405 105.644 72.502 106.325 73.0292C103.384 69.8596 100.524 66.7072 97.7427 63.6616C81.3494 45.7051 62.7713 22.6842 38.2234 16.3106C18.7175 11.2496 -4.43457 26.6014 5.85944 47.9514C9.15063 54.7764 17.2046 57.7324 24.3143 56.561C34.467 54.8763 34.0535 43.2315 30.3487 37.3643C27.5055 32.8579 34.6806 32.5375 35.1804 35.8759C39.4744 47.6689 35.015 58.8624 21.5779 59.8753C7.17249 60.9606 -2.12555 46.1909 0.479828 33.4781C3.83304 17.1236 22.0018 11.1703 36.0178 12.8722Z" fill="#C9A885"/>
<path fill-rule="evenodd" clip-rule="evenodd" d="M92.4829 43.54C92.4829 43.54 88.4444 35.3599 86.646 25.989C84.8442 16.618 94.1367 15.8286 94.1367 15.8286C88.2486 25.1862 92.4829 43.54 92.4829 43.54Z" fill="#C9A885"/>
<path fill-rule="evenodd" clip-rule="evenodd" d="M57.0396 11.9628C57.0396 11.9628 65.67 11.2301 74.133 18.3658C81.1571 24.2837 89 43.834 89 43.834C71.4626 19.4262 57.0396 11.9628 57.0396 11.9628Z" fill="#C9A885"/>
</svg>
